<svg xmlns="http://www.w3.org/2000/svg" xmlns:xlink="http://www.w3.org/1999/xlink" width="402" height="139" viewBox="0 0 402 139" fill="none">
<rect  x="0" y="0" width="402" height="139" rx="26"    fill="#FAEBEB" >
</rect>
<rect  x="17" y="6" width="58" height="18" rx="9"    fill="#FF0303" >
</rect>
<g >
<path     fill="#FFFFFF"  d="M21.93 10.88L23.65 10.66L23.99 12.8L25.84 9.15999L28.13 10.22L24.14 18.08L21.87 16.99L23.67 13.44L22.36 13.6L21.93 10.88ZM26.22 14.89L27.31 13.87L30.33 17.05L29.24 18.05L26.22 14.89ZM27.55 13.39L28.67 10.89L30.28 11.54L29.17 14.03L27.55 13.39ZM35.26 10.19L36.18 10.15L36.35 9.14999L38.44 9.42999L38.33 10.04L40.03 9.94999L40.03 14.44L40.49 14.42L40.49 15.52L38.63 15.59L38.63 11.21L38.13 11.23L37.83 12.96L38.59 13.31L38.02 14.51L37.59 14.32L37.36 15.67L35.27 15.35L35.61 13.4L34.98 13.1L35.06 12.92L34.22 13.1L34.22 15.6L31.99 15.43L31.95 14.33L32.6 14.38L32.6 13.44L31.83 13.6L31.58 12.55L32.6 12.34L32.6 11.38L31.66 11.38L31.66 10.28L32.6 10.28L32.6 9.20999L34.22 9.20999L34.22 10.28L34.98 10.28L34.98 11.38L34.22 11.38L34.22 11.99L34.92 11.84L35.14 12.77L35.55 11.9L35.84 12.04L35.97 11.34L35.33 11.37L35.26 10.19ZM31.61 17.65L32.28 15.71L33.94 16.16L33.31 18.12L31.61 17.65ZM38.55 16.09L39.83 15.66L40.55 17.51L39.24 17.96L38.55 16.09ZM34.37 16.26L35.67 15.86L36.34 17.69L35.01 18.11L34.37 16.26ZM36.5 16.19L37.78 15.76L38.51 17.58L37.19 18.02L36.5 16.19ZM47.14 17.62L47.14 18.1L45.24 18.1L45.24 9.57999L50.26 9.57999L50.26 12.74L47.97 12.58L48.04 11.48L48.86 11.54L48.86 10.78L47.14 10.78L47.14 13.01L50.38 13.01L50.38 14.21L49.28 15.91L50.67 17.18L49.83 18.03L48.62 16.93L47.9 18.05L47.14 17.62ZM41.88 17.88L41.83 16.7L42.52 16.76L42.52 15.28L41.96 15.51L41.51 14.27L42.52 13.86L42.52 11.97L41.57 11.97L41.57 10.77L42.52 10.77L42.52 9.34999L44.22 9.34999L44.22 10.77L44.94 10.77L44.94 11.97L44.22 11.97L44.22 13.15L44.66 12.97L45.1 14.21L44.22 14.58L44.22 18.09L41.88 17.88ZM47.7 14.47L48.33 15.05L48.97 14.11L47.14 14.11L47.14 15.03L47.7 14.47ZM47.14 15.57L47.14 16.81L47.66 16.04L47.14 15.57ZM51.64 12.07L54.45 9.11999L56.08 10.47L56.06 10.49L59.69 10.49L59.69 11.53L56.62 14L60.14 14L60.14 17.92L53.94 18.1L53.94 16.16L52.94 16.96L51.96 15.73L54.12 14.02L53.65 13.59L55.07 12.19L55.72 12.75L57.05 11.69L54.92 11.69L53.26 13.45L51.64 12.07ZM56.44 16.85L58.14 16.8L58.14 15.2L56.44 15.2L56.44 16.85ZM62.1 11.19L65.49 11.19L65.49 9.38999L67.29 9.38999L67.29 11.19L70.1 11.19L70.1 15.79L67.29 15.88L67.29 18.08L65.49 18.08L65.49 15.94L62.1 16.05L62.1 11.19ZM64.4 14.78L65.49 14.74L65.49 12.39L64.4 12.39L64.4 14.78ZM67.29 12.39L67.29 14.68L68.4 14.65L68.4 12.39L67.29 12.39Z">
</path>
</g>
<g >
<path     fill="#000000"  d="M19.7 30.614L27.218 30.614L27.218 36.27L21.786 36.27L21.786 38.524L27.218 38.286L27.218 40.092L19.7 40.414L19.7 34.59L24.04 34.59L24.04 32.294L21.786 32.294L21.786 32.938L19.7 32.938L19.7 30.614ZM28.618 30.936L36.15 30.614L36.15 40.414L28.618 40.414L28.618 30.936ZM31.796 38.734L34.064 38.734L34.064 32.378L31.796 32.476L31.796 38.734ZM37.55 30.614L45.068 30.614L45.068 36.27L39.636 36.27L39.636 38.524L45.068 38.286L45.068 40.092L37.55 40.414L37.55 34.59L41.89 34.59L41.89 32.294L39.636 32.294L39.636 32.938L37.55 32.938L37.55 30.614ZM53.09 35.584L54.084 35.584L54.084 37.264L53.09 37.264L53.09 40.414L51.004 40.414L51.004 37.264L46.468 37.264L46.468 35.584L47.364 30.614L50.108 31.104L49.296 35.584L51.004 35.584L51.004 30.614L53.09 30.614L53.09 35.584ZM55.862 37.642L57.682 37.586L57.682 34.744L55.4 33.218L58.452 29.032L61.028 30.684L67.384 30.684L67.384 32.364L64.248 32.364L64.248 33.876L67.02 33.876L67.02 35.556L64.248 35.556L64.248 37.362L67.65 37.236L67.72 38.916L64.248 39.042L64.248 41.59L61.168 41.59L61.168 39.14L55.932 39.322L55.862 37.642ZM58.998 33.876L61.168 33.876L61.168 32.364L60.118 32.364L58.998 33.876ZM59.978 37.502L61.168 37.46L61.168 35.556L59.978 35.556L59.978 37.502ZM69.442 34.156L71.206 29.69L73.95 30.628L73.488 31.818L74.37 31.818L74.37 29.466L77.73 29.466L77.73 31.818L81.272 31.818L81.272 33.526L77.73 33.526L77.73 35.654L81.23 35.654L81.23 37.362L77.73 37.362L77.73 39.63L81.65 39.504L81.72 41.184L69.89 41.534L69.82 39.854L74.37 39.728L74.37 37.362L70.338 37.362L70.338 35.654L74.37 35.654L74.37 33.526L72.844 33.526L72.214 35.178L69.442 34.156ZM83.484 35.136L83.848 30.348L85.57 30.46L85.458 31.888L85.724 31.888L85.724 29.214L88.51 29.214L88.51 31.888L89.266 31.888L89.266 32.518L90.148 29.172L92.43 29.732L92.136 30.838L95.594 30.838L95.594 41.688L92.598 41.506L92.528 39.966L93.48 40.036L93.48 38.132L90.96 41.478L89.644 40.47L93.48 35.29L93.48 34.142L90.89 37.908L89.49 36.914L88.51 37.25L88.51 41.8L85.724 41.8L85.724 38.202L84.044 38.762L83.47 37.138L85.724 36.382L85.724 33.68L85.318 33.68L85.206 35.262L83.484 35.136ZM89.266 33.414L89.266 33.68L88.51 33.68L88.51 35.444L89.21 35.206L89.658 36.48L92.318 32.602L91.66 32.602L91.31 33.918L89.266 33.414ZM97.722 31.3L104.12 29.144L104.694 30.642L108.558 30.628L108.558 33.302L98.604 36.844L97.89 34.926L100.592 34.03L100.284 33.274L98.674 33.82L97.722 31.3ZM99.36 37.096L106.864 34.338L107.312 35.374L109.482 35.346L109.482 38.37L99.766 41.87L99.052 40.092L102.006 39.042L101.74 38.342L100.13 38.93L99.36 37.096ZM104.96 37.138L104.218 37.418L104.512 38.146L107.536 37.054L104.96 37.138ZM103.056 32.35L102.734 32.448L103.042 33.218L105.87 32.28L103.056 32.35ZM116.846 31.482L117.686 31.468L117.154 29.886L119.366 29.354L120.038 31.44L120.892 31.426L121.634 29.396L123.314 29.956L122.768 31.384L123.79 31.37L123.818 33.05L121.732 33.092L121.732 34.52L123.496 34.52L123.496 36.158L121.732 36.158L121.732 37.53L124.042 37.488L124.07 39.168L121.732 39.21L121.732 41.744L119.03 41.744L119.03 39.252L116.664 39.28L116.636 37.6L119.03 37.572L119.03 36.158L117.154 36.158L117.154 34.52L119.03 34.52L119.03 33.134L116.874 33.162L116.846 31.482ZM111.106 39.308L112.646 33.428L111.582 33.428L111.582 31.748L113.066 31.748L113.066 29.354L115.432 29.354L115.432 31.748L116.496 31.748L116.496 33.428L115.432 33.428L115.432 34.058L116.244 33.778L117.182 36.998L115.824 37.474L115.432 36.102L115.432 41.758L113.066 41.758L113.066 38.552L112.772 39.756L111.106 39.308ZM125.05 36.914L125.792 31.804L127.038 31.93L127.038 29.34L129.166 29.34L129.166 31.902L130.146 31.72L130.426 33.106L131.084 30.278L133.254 30.81L132.988 32.014L133.338 32.014L133.338 29.466L135.956 29.466L135.956 32.014L137.622 32.014L137.622 33.876L135.956 33.876L135.956 35.906L137.51 35.906L137.51 37.502L135.956 37.502L135.956 39.798L138.028 39.728L138.084 41.338L130.58 41.576L130.524 39.952L133.338 39.868L133.338 37.502L130.972 37.502L130.972 35.906L133.338 35.906L133.338 33.876L132.568 33.876L132.288 35.192L130.426 34.688L129.446 34.842L129.166 33.19L129.166 41.59L127.038 41.59L127.038 32.854L126.52 37.096L125.05 36.914ZM140.268 29.802L151.328 29.802L151.328 41.24L140.268 41.492L140.268 29.802ZM143.768 39.7L148.528 39.588L148.528 36.382L143.768 36.382L143.768 39.7ZM143.768 34.646L148.528 34.646L148.528 31.538L143.768 31.538L143.768 34.646ZM158.09 32.378L159.448 32.266L158.972 29.62L161.772 29.2L162.276 32.014L165.3 31.748L165.426 33.428L162.57 33.666L162.752 34.646L165.636 34.352L165.79 36.032L163.046 36.298L163.228 37.264L165.454 36.396L166.112 37.964L163.536 38.972L163.634 39.504L165.706 39L166.112 40.694L161.198 41.716L160.876 39.994L159.07 40.694L158.412 39.14L160.568 38.3L160.246 36.564L158.244 36.76L158.09 35.094L159.938 34.912L159.756 33.89L158.216 34.016L158.09 32.378ZM153.75 37.054L154.842 34.814L153.33 34.212L155.584 29.256L157.992 30.208L156.578 33.246L158.118 33.806L156.452 37.054L157.978 37.054L157.978 38.734L153.75 38.734L153.75 37.054ZM153.47 39.882L158.16 39.588L158.16 41.254L153.47 41.548L153.47 39.882ZM162.36 29.97L163.942 28.976L165.146 30.698L163.564 31.692L162.36 29.97ZM167.624 39.7L171.404 39.574L171.404 29.816L174.932 29.816L174.932 33.526L179.524 33.526L179.524 35.22L174.932 35.22L174.932 39.462L179.734 39.294L179.804 40.96L167.694 41.366L167.624 39.7ZM181.652 39.938L181.96 39.882L181.96 35.752L183.36 35.752L183.36 39.644L183.85 39.56L183.85 34.8L181.806 34.842L181.806 29.788L186.594 29.788L186.594 32.588L187.896 29.144L190.332 29.984L190.08 30.642L193.566 30.488L193.566 38.818L191.172 38.748L191.102 37.894L189.38 37.894L189.38 39.784L194.014 39.784L194.014 41.506L187.266 41.506L187.266 33.904L186.594 33.68L186.594 34.73L185.866 34.744L185.866 36.172L186.86 36.172L186.86 37.782L185.866 37.782L185.866 39.21L186.776 39.042L186.986 40.806L181.876 41.73L181.652 39.938ZM189.45 32.322L189.058 33.344L191.368 33.344L191.368 37.376L191.872 37.39L191.872 32.238L189.45 32.322ZM185.054 31.188L183.878 31.188L183.878 33.344L185.054 33.33L185.054 31.188ZM189.38 36.438L190.192 36.438L190.192 34.842L189.38 34.842L189.38 36.438Z">
</path>
</g>
<g >
<path     fill="#A6A6A6"  d="M24.64 53.88L23.97 53.88L23.97 52.3L27.66 52.3Q27.59 52.09 27.52 51.885Q27.45 51.68 27.4 51.54L28.08 51.41Q28.14 51.55 28.23 51.805Q28.32 52.06 28.4 52.3L31.84 52.3L31.84 53.88L31.17 53.88L31.17 52.87L24.64 52.87L24.64 53.88ZM29.69 56.38Q30.15 56.82 30.885 57.175Q31.62 57.53 32.5 57.8L32.21 58.43Q31.26 58.09 30.5 57.65L30.5 59.03L29.82 59.03L29.82 57.59L25.97 57.59L25.97 59.04L25.31 59.04L25.31 57.67Q24.93 57.9 24.52 58.11Q24.11 58.32 23.67 58.51L23.32 57.92Q23.73 57.76 24.13 57.58Q24.53 57.4 24.89 57.205Q25.25 57.01 25.555 56.8Q25.86 56.59 26.09 56.38L23.73 56.38L23.73 55.84L26.28 55.84L26.28 55.28L24.69 55.28L24.69 54.75L26.28 54.75L26.28 54.22L24.83 54.22L24.83 53.68L26.28 53.68L26.28 53.24L26.98 53.27L26.98 53.68L28.85 53.68L28.85 53.24L29.54 53.27L29.54 53.68L30.98 53.68L30.98 54.22L29.54 54.22L29.54 54.75L31.14 54.75L31.14 55.28L29.54 55.28L29.54 55.84L32.07 55.84L32.07 56.38L29.69 56.38ZM26.98 54.75L28.85 54.75L28.85 54.22L26.98 54.22L26.98 54.75ZM26.98 55.84L28.85 55.84L28.85 55.28L26.98 55.28L26.98 55.84ZM29.58 57.04Q29.19 56.74 28.88 56.38L26.91 56.38Q26.61 56.73 26.21 57.04L29.58 57.04ZM28.31 57.94Q28.24 58.44 28.055 58.82Q27.87 59.2 27.43 59.5Q26.99 59.8 26.235 60.045Q25.48 60.29 24.27 60.54L23.99 59.92Q25.09 59.73 25.775 59.515Q26.46 59.3 26.845 59.05Q27.23 58.8 27.38 58.515Q27.53 58.23 27.57 57.89L28.31 57.94ZM28.31 58.77Q28.67 58.87 29.105 59.01Q29.54 59.15 29.99 59.3Q30.44 59.45 30.875 59.605Q31.31 59.76 31.67 59.89L31.45 60.58Q31.1 60.42 30.655 60.24Q30.21 60.06 29.745 59.885Q29.28 59.71 28.84 59.56Q28.4 59.41 28.06 59.32L28.31 58.77ZM42.09 57.58L41.23 57.58L41.23 58.85L38.14 58.85L38.14 59.33Q38.14 59.62 38.08 59.81Q38.02 60 37.88 60.115Q37.74 60.23 37.51 60.285Q37.28 60.34 36.93 60.36L36.29 60.41L36.02 59.71Q36.15 59.71 36.3 59.7Q36.43 59.69 36.59 59.69Q36.75 59.69 36.92 59.67Q37.1 59.66 37.2 59.645Q37.3 59.63 37.355 59.58Q37.41 59.53 37.42 59.435Q37.43 59.34 37.43 59.16L37.43 58.85L34.07 58.85L34.07 58.27L37.43 58.27L37.43 57.58L33.37 57.58L33.37 56.99L37.43 56.99L37.43 56.36L34.07 56.36L34.07 55.78L37.43 55.78L37.43 55.18L34.52 55.18L34.52 53.41L37.43 53.41L37.43 52.79L33.39 52.79L33.39 52.17L37.43 52.17L37.43 51.46L38.14 51.5L38.14 52.17L42.07 52.17L42.07 52.79L38.14 52.79L38.14 53.41L41.02 53.41L41.02 55.18L38.14 55.18L38.14 55.78L41.23 55.78L41.23 56.99L42.09 56.99L42.09 57.58ZM37.43 54.63L37.43 53.96L35.24 53.96L35.24 54.63L37.43 54.63ZM38.14 53.96L38.14 54.63L40.3 54.63L40.3 53.96L38.14 53.96ZM38.14 56.99L40.53 56.99L40.53 56.36L38.14 56.36L38.14 56.99ZM40.53 57.58L38.14 57.58L38.14 58.27L40.53 58.27L40.53 57.58ZM50.71 52.17L50.71 60.39L49.96 60.39L49.96 59.72L45.31 59.72L45.31 60.39L44.56 60.39L44.56 52.17L50.71 52.17ZM45.31 52.87L45.31 55.46L49.96 55.46L49.96 52.87L45.31 52.87ZM49.96 58.99L49.96 56.17L45.31 56.17L45.31 58.99L49.96 58.99ZM57.87 57.98L52.92 57.98L52.92 57.35L54.02 57.35L54.02 53.18L53.31 53.18L53.31 52.55L54.02 52.55L54.02 51.55L54.69 51.58L54.69 52.55L56.43 52.55L56.43 51.55L57.1 51.58L57.1 52.55L57.86 52.55L57.86 53.18L57.1 53.18L57.1 57.35L57.87 57.35L57.87 57.98ZM61.32 52.03L61.32 59.3Q61.32 59.59 61.275 59.76Q61.23 59.93 61.125 60.03Q61.02 60.13 60.84 60.175Q60.66 60.22 60.38 60.26L59.87 60.33L59.61 59.67L60.15 59.61Q60.32 59.59 60.415 59.565Q60.51 59.54 60.56 59.49Q60.61 59.44 60.625 59.34Q60.64 59.24 60.64 59.07L60.64 57.46L58.92 57.46Q58.88 57.96 58.795 58.355Q58.71 58.75 58.56 59.105Q58.41 59.46 58.185 59.81Q57.96 60.16 57.64 60.56L57 60.16Q57.31 59.8 57.53 59.49Q57.75 59.18 57.895 58.875Q58.04 58.57 58.12 58.24Q58.2 57.91 58.24 57.5Q58.28 57.09 58.29 56.575Q58.3 56.06 58.3 55.38L58.3 52.03L61.32 52.03ZM58.97 52.71L58.97 54.41L60.64 54.41L60.64 52.71L58.97 52.71ZM54.69 53.18L54.69 54.13L56.43 54.13L56.43 53.18L54.69 53.18ZM54.69 55.71L56.43 55.71L56.43 54.75L54.69 54.75L54.69 55.71ZM60.64 56.78L60.64 55.08L58.97 55.08L58.97 55.73Q58.97 56.02 58.97 56.285Q58.97 56.55 58.96 56.78L60.64 56.78ZM54.69 57.35L56.43 57.35L56.43 56.32L54.69 56.32L54.69 57.35ZM56.26 58.13Q56.59 58.41 56.87 58.675Q57.15 58.94 57.43 59.23L56.99 59.77Q56.89 59.65 56.74 59.49Q56.59 59.33 56.425 59.165Q56.26 59 56.09 58.85Q55.92 58.7 55.79 58.59L56.26 58.13ZM53.09 59.92Q53.28 59.76 53.495 59.56Q53.71 59.36 53.92 59.135Q54.13 58.91 54.325 58.665Q54.52 58.42 54.67 58.16L55.22 58.58Q54.86 59.09 54.45 59.555Q54.04 60.02 53.66 60.41L53.09 59.92ZM64.95 55.3Q64.6 55.3 64.455 55.19Q64.31 55.08 64.31 54.67Q64.31 54.26 64.455 54.15Q64.6 54.04 64.95 54.04Q65.29 54.04 65.44 54.15Q65.59 54.26 65.59 54.67Q65.59 55.08 65.44 55.19Q65.29 55.3 64.95 55.3ZM64.95 59.56Q64.6 59.56 64.455 59.45Q64.31 59.34 64.31 58.92Q64.31 58.52 64.455 58.41Q64.6 58.3 64.95 58.3Q65.29 58.3 65.44 58.41Q65.59 58.52 65.59 58.92Q65.59 59.34 65.44 59.45Q65.29 59.56 64.95 59.56ZM72.77 58.55Q73.88 57.68 74.55 57.07Q75.22 56.46 75.59 56Q75.96 55.54 76.08 55.175Q76.2 54.81 76.2 54.44Q76.2 54.07 76.065 53.83Q75.93 53.59 75.72 53.45Q75.51 53.31 75.245 53.26Q74.98 53.21 74.73 53.21Q74.4 53.21 74.03 53.245Q73.66 53.28 73.25 53.39L73.25 52.62Q73.6 52.54 73.995 52.5Q74.39 52.46 74.83 52.46Q75.34 52.46 75.75 52.57Q76.16 52.68 76.455 52.92Q76.75 53.16 76.905 53.54Q77.06 53.92 77.06 54.45Q77.06 54.92 76.92 55.335Q76.78 55.75 76.45 56.195Q76.12 56.64 75.56 57.155Q75 57.67 74.16 58.34L73.76 58.65L73.76 58.74L77.34 58.74L77.34 59.5L72.77 59.5L72.77 58.55ZM80.82 59.6Q80.3 59.6 79.87 59.445Q79.44 59.29 79.13 58.89Q78.82 58.49 78.65 57.795Q78.48 57.1 78.48 56.03Q78.48 54.96 78.65 54.27Q78.82 53.58 79.13 53.175Q79.44 52.77 79.87 52.615Q80.3 52.46 80.82 52.46Q81.34 52.46 81.775 52.615Q82.21 52.77 82.52 53.175Q82.83 53.58 83 54.27Q83.17 54.96 83.17 56.03Q83.17 57.1 83 57.795Q82.83 58.49 82.52 58.89Q82.21 59.29 81.775 59.445Q81.34 59.6 80.82 59.6ZM80.82 58.85Q81.19 58.85 81.46 58.725Q81.73 58.6 81.91 58.28Q82.09 57.96 82.175 57.415Q82.26 56.87 82.26 56.03Q82.26 55.2 82.175 54.655Q82.09 54.11 81.91 53.79Q81.73 53.47 81.46 53.345Q81.19 53.22 80.82 53.22Q80.46 53.22 80.19 53.345Q79.92 53.47 79.745 53.79Q79.57 54.11 79.485 54.655Q79.4 55.2 79.4 56.03Q79.4 56.87 79.485 57.415Q79.57 57.96 79.745 58.28Q79.92 58.6 80.19 58.725Q80.46 58.85 80.82 58.85ZM84.27 58.55Q85.38 57.68 86.05 57.07Q86.72 56.46 87.09 56Q87.46 55.54 87.58 55.175Q87.7 54.81 87.7 54.44Q87.7 54.07 87.565 53.83Q87.43 53.59 87.22 53.45Q87.01 53.31 86.745 53.26Q86.48 53.21 86.23 53.21Q85.9 53.21 85.53 53.245Q85.16 53.28 84.75 53.39L84.75 52.62Q85.1 52.54 85.495 52.5Q85.89 52.46 86.33 52.46Q86.84 52.46 87.25 52.57Q87.66 52.68 87.955 52.92Q88.25 53.16 88.405 53.54Q88.56 53.92 88.56 54.45Q88.56 54.92 88.42 55.335Q88.28 55.75 87.95 56.195Q87.62 56.64 87.06 57.155Q86.5 57.67 85.66 58.34L85.26 58.65L85.26 58.74L88.84 58.74L88.84 59.5L84.27 59.5L84.27 58.55ZM94.74 57.79L93.92 57.79L93.92 59.5L93.08 59.5L93.08 57.79L89.8 57.79L89.8 56.82L92.84 52.56L93.92 52.56L93.92 57.03L94.74 57.03L94.74 57.79ZM93.08 57.03L93.08 53.48L93.02 53.48L90.56 56.97L90.56 57.03L93.08 57.03ZM96.71 59.56Q96.36 59.56 96.215 59.45Q96.07 59.34 96.07 58.92Q96.07 58.52 96.215 58.41Q96.36 58.3 96.71 58.3Q97.05 58.3 97.2 58.41Q97.35 58.52 97.35 58.92Q97.35 59.34 97.2 59.45Q97.05 59.56 96.71 59.56ZM103.51 57.79L102.69 57.79L102.69 59.5L101.85 59.5L101.85 57.79L98.57 57.79L98.57 56.82L101.61 52.56L102.69 52.56L102.69 57.03L103.51 57.03L103.51 57.79ZM101.85 57.03L101.85 53.48L101.79 53.48L99.33 56.97L99.33 57.03L101.85 57.03ZM105.48 59.56Q105.13 59.56 104.985 59.45Q104.84 59.34 104.84 58.92Q104.84 58.52 104.985 58.41Q105.13 58.3 105.48 58.3Q105.82 58.3 105.97 58.41Q106.12 58.52 106.12 58.92Q106.12 59.34 105.97 59.45Q105.82 59.56 105.48 59.56ZM107.56 58.55Q108.67 57.68 109.34 57.07Q110.01 56.46 110.38 56Q110.75 55.54 110.87 55.175Q110.99 54.81 110.99 54.44Q110.99 54.07 110.855 53.83Q110.72 53.59 110.51 53.45Q110.3 53.31 110.035 53.26Q109.77 53.21 109.52 53.21Q109.19 53.21 108.82 53.245Q108.45 53.28 108.04 53.39L108.04 52.62Q108.39 52.54 108.785 52.5Q109.18 52.46 109.62 52.46Q110.13 52.46 110.54 52.57Q110.95 52.68 111.245 52.92Q111.54 53.16 111.695 53.54Q111.85 53.92 111.85 54.45Q111.85 54.92 111.71 55.335Q111.57 55.75 111.24 56.195Q110.91 56.64 110.35 57.155Q109.79 57.67 108.95 58.34L108.55 58.65L108.55 58.74L112.13 58.74L112.13 59.5L107.56 59.5L107.56 58.55ZM115 59.6Q114.58 59.6 114.185 59.57Q113.79 59.54 113.44 59.47L113.44 58.68Q113.84 58.78 114.215 58.815Q114.59 58.85 114.99 58.85Q115.38 58.85 115.715 58.79Q116.05 58.73 116.29 58.58Q116.53 58.43 116.67 58.185Q116.81 57.94 116.81 57.58Q116.81 56.84 116.31 56.55Q115.81 56.26 114.82 56.26L114.27 56.26L114.27 55.57L114.81 55.57Q115.72 55.57 116.19 55.235Q116.66 54.9 116.66 54.33Q116.66 53.72 116.295 53.46Q115.93 53.2 115.18 53.2Q114.88 53.2 114.49 53.25Q114.1 53.3 113.77 53.4L113.77 52.66Q114.03 52.58 114.425 52.52Q114.82 52.46 115.22 52.46Q116.34 52.46 116.915 52.89Q117.49 53.32 117.49 54.28Q117.49 54.96 117.16 55.325Q116.83 55.69 116.26 55.86L116.26 55.92Q117 56.05 117.335 56.475Q117.67 56.9 117.67 57.59Q117.67 58.55 117.025 59.075Q116.38 59.6 115 59.6ZM119.21 56.07L122.16 56.07L122.16 56.79L119.21 56.79L119.21 56.07ZM123.46 58.55Q124.57 57.68 125.24 57.07Q125.91 56.46 126.28 56Q126.65 55.54 126.77 55.175Q126.89 54.81 126.89 54.44Q126.89 54.07 126.755 53.83Q126.62 53.59 126.41 53.45Q126.2 53.31 125.935 53.26Q125.67 53.21 125.42 53.21Q125.09 53.21 124.72 53.245Q124.35 53.28 123.94 53.39L123.94 52.62Q124.29 52.54 124.685 52.5Q125.08 52.46 125.52 52.46Q126.03 52.46 126.44 52.57Q126.85 52.68 127.145 52.92Q127.44 53.16 127.595 53.54Q127.75 53.92 127.75 54.45Q127.75 54.92 127.61 55.335Q127.47 55.75 127.14 56.195Q126.81 56.64 126.25 57.155Q125.69 57.67 124.85 58.34L124.45 58.65L124.45 58.74L128.03 58.74L128.03 59.5L123.46 59.5L123.46 58.55ZM131.51 59.6Q130.99 59.6 130.56 59.445Q130.13 59.29 129.82 58.89Q129.51 58.49 129.34 57.795Q129.17 57.1 129.17 56.03Q129.17 54.96 129.34 54.27Q129.51 53.58 129.82 53.175Q130.13 52.77 130.56 52.615Q130.99 52.46 131.51 52.46Q132.03 52.46 132.465 52.615Q132.9 52.77 133.21 53.175Q133.52 53.58 133.69 54.27Q133.86 54.96 133.86 56.03Q133.86 57.1 133.69 57.795Q133.52 58.49 133.21 58.89Q132.9 59.29 132.465 59.445Q132.03 59.6 131.51 59.6ZM131.51 58.85Q131.88 58.85 132.15 58.725Q132.42 58.6 132.6 58.28Q132.78 57.96 132.865 57.415Q132.95 56.87 132.95 56.03Q132.95 55.2 132.865 54.655Q132.78 54.11 132.6 53.79Q132.42 53.47 132.15 53.345Q131.88 53.22 131.51 53.22Q131.15 53.22 130.88 53.345Q130.61 53.47 130.435 53.79Q130.26 54.11 130.175 54.655Q130.09 55.2 130.09 56.03Q130.09 56.87 130.175 57.415Q130.26 57.96 130.435 58.28Q130.61 58.6 130.88 58.725Q131.15 58.85 131.51 58.85ZM134.96 58.55Q136.07 57.68 136.74 57.07Q137.41 56.46 137.78 56Q138.15 55.54 138.27 55.175Q138.39 54.81 138.39 54.44Q138.39 54.07 138.255 53.83Q138.12 53.59 137.91 53.45Q137.7 53.31 137.435 53.26Q137.17 53.21 136.92 53.21Q136.59 53.21 136.22 53.245Q135.85 53.28 135.44 53.39L135.44 52.62Q135.79 52.54 136.185 52.5Q136.58 52.46 137.02 52.46Q137.53 52.46 137.94 52.57Q138.35 52.68 138.645 52.92Q138.94 53.16 139.095 53.54Q139.25 53.92 139.25 54.45Q139.25 54.92 139.11 55.335Q138.97 55.75 138.64 56.195Q138.31 56.64 137.75 57.155Q137.19 57.67 136.35 58.34L135.95 58.65L135.95 58.74L139.53 58.74L139.53 59.5L134.96 59.5L134.96 58.55ZM145.43 57.79L144.61 57.79L144.61 59.5L143.77 59.5L143.77 57.79L140.49 57.79L140.49 56.82L143.53 52.56L144.61 52.56L144.61 57.03L145.43 57.03L145.43 57.79ZM143.77 57.03L143.77 53.48L143.71 53.48L141.25 56.97L141.25 57.03L143.77 57.03ZM147.4 59.56Q147.05 59.56 146.905 59.45Q146.76 59.34 146.76 58.92Q146.76 58.52 146.905 58.41Q147.05 58.3 147.4 58.3Q147.74 58.3 147.89 58.41Q148.04 58.52 148.04 58.92Q148.04 59.34 147.89 59.45Q147.74 59.56 147.4 59.56ZM151.2 59.6Q150.78 59.6 150.445 59.57Q150.11 59.54 149.77 59.47L149.77 58.68Q150.16 58.78 150.475 58.815Q150.79 58.85 151.19 58.85Q151.62 58.85 151.975 58.775Q152.33 58.7 152.58 58.525Q152.83 58.35 152.97 58.065Q153.11 57.78 153.11 57.35Q153.11 56.57 152.655 56.215Q152.2 55.86 151.12 55.86Q150.84 55.86 150.48 55.905Q150.12 55.95 149.79 56.01L150.26 52.56L153.5 52.56L153.5 53.34L150.94 53.34L150.65 55.24Q150.84 55.21 151.03 55.195Q151.22 55.18 151.46 55.18Q152.67 55.18 153.32 55.68Q153.97 56.18 153.97 57.29Q153.97 57.91 153.775 58.345Q153.58 58.78 153.22 59.06Q152.86 59.34 152.345 59.47Q151.83 59.6 151.2 59.6ZM155.38 56.07L158.33 56.07L158.33 56.79L155.38 56.79L155.38 56.07ZM159.63 58.55Q160.74 57.68 161.41 57.07Q162.08 56.46 162.45 56Q162.82 55.54 162.94 55.175Q163.06 54.81 163.06 54.44Q163.06 54.07 162.925 53.83Q162.79 53.59 162.58 53.45Q162.37 53.31 162.105 53.26Q161.84 53.21 161.59 53.21Q161.26 53.21 160.89 53.245Q160.52 53.28 160.11 53.39L160.11 52.62Q160.46 52.54 160.855 52.5Q161.25 52.46 161.69 52.46Q162.2 52.46 162.61 52.57Q163.02 52.68 163.315 52.92Q163.61 53.16 163.765 53.54Q163.92 53.92 163.92 54.45Q163.92 54.92 163.78 55.335Q163.64 55.75 163.31 56.195Q162.98 56.64 162.42 57.155Q161.86 57.67 161.02 58.34L160.62 58.65L160.62 58.74L164.2 58.74L164.2 59.5L159.63 59.5L159.63 58.55ZM167.68 59.6Q167.2 59.6 166.785 59.465Q166.37 59.33 166.055 59.01Q165.74 58.69 165.56 58.155Q165.38 57.62 165.38 56.81Q165.38 55.84 165.595 55.04Q165.81 54.24 166.26 53.665Q166.71 53.09 167.415 52.775Q168.12 52.46 169.1 52.46L169.09 53.22Q168.45 53.22 167.95 53.4Q167.45 53.58 167.1 53.895Q166.75 54.21 166.55 54.635Q166.35 55.06 166.31 55.55L166.34 55.55Q166.54 55.35 166.93 55.165Q167.32 54.98 167.83 54.98Q168.8 54.98 169.37 55.53Q169.94 56.08 169.94 57.22Q169.94 57.73 169.805 58.165Q169.67 58.6 169.395 58.92Q169.12 59.24 168.69 59.42Q168.26 59.6 167.68 59.6ZM167.67 58.85Q168.38 58.85 168.75 58.445Q169.12 58.04 169.12 57.22Q169.12 56.44 168.75 56.055Q168.38 55.67 167.79 55.67Q166.98 55.67 166.61 56.055Q166.24 56.44 166.24 57.06Q166.24 58.85 167.67 58.85Z">
</path>
</g>
<g >
<path     fill="#A6A6A6"  d="M25.71 75.35L26.84 75.35L26.84 76.03L25.71 76.03L25.71 77.78Q26.03 77.68 26.305 77.59Q26.58 77.5 26.78 77.42L26.81 77.79L26.83 78.11Q26.62 78.19 26.33 78.285Q26.04 78.38 25.71 78.49L25.71 81.23Q25.71 81.56 25.66 81.77Q25.61 81.98 25.475 82.11Q25.34 82.24 25.11 82.3Q24.88 82.36 24.52 82.39L24.05 82.43L23.82 81.71L24.34 81.67Q24.74 81.64 24.875 81.515Q25.01 81.39 25.01 81.02L25.01 78.72Q24.56 78.86 24.16 78.98Q23.76 79.1 23.48 79.18L23.26 78.47Q23.59 78.39 24.055 78.265Q24.52 78.14 25.01 77.99L25.01 76.03L23.6 76.03L23.6 75.35L25.01 75.35L25.01 73.53L25.71 73.56L25.71 75.35ZM30.41 80.46Q30.8 80.84 31.28 81.16Q31.76 81.48 32.37 81.82L31.94 82.45Q31.38 82.13 30.885 81.765Q30.39 81.4 29.96 80.97Q29.63 81.32 29.215 81.67Q28.8 82.02 28.28 82.39L27.83 81.87L27.83 82.4L27.11 82.4L27.11 74L31.57 74Q31.57 74.05 31.56 74.27Q31.55 74.49 31.54 74.75Q31.53 75.01 31.52 75.245Q31.51 75.48 31.5 75.56Q31.49 75.84 31.42 76.015Q31.35 76.19 31.165 76.3Q30.98 76.41 30.66 76.465Q30.34 76.52 29.82 76.56L29.2 76.61L28.96 75.95L29.72 75.91Q30.05 75.89 30.255 75.855Q30.46 75.82 30.57 75.76Q30.68 75.7 30.725 75.605Q30.77 75.51 30.78 75.37Q30.79 75.27 30.805 75.06Q30.82 74.85 30.83 74.69L27.83 74.69L27.83 77.18L31.67 77.18L31.67 77.85Q31.48 78.54 31.2 79.18Q30.92 79.82 30.41 80.46ZM27.83 81.84Q28.88 81.1 29.5 80.45Q29.13 79.99 28.835 79.445Q28.54 78.9 28.31 78.24L28.93 78Q29.14 78.61 29.385 79.08Q29.63 79.55 29.93 79.94Q30.31 79.44 30.53 78.93Q30.75 78.42 30.92 77.84L27.83 77.84L27.83 81.84ZM41.29 78.36L41.29 82.41L40.55 82.41L40.55 81.84L36.05 81.84L36.05 82.41L35.31 82.41L35.31 79.14Q34.87 79.3 34.41 79.455Q33.95 79.61 33.45 79.76L33.09 79.08Q34.38 78.72 35.455 78.3Q36.53 77.88 37.415 77.4Q38.3 76.92 39.01 76.37Q39.72 75.82 40.28 75.2L36.62 75.2Q36.49 75.34 36.36 75.465Q36.23 75.59 36.09 75.73Q36.27 75.85 36.465 76Q36.66 76.15 36.85 76.3Q37.04 76.45 37.21 76.59Q37.38 76.73 37.5 76.84L36.99 77.45Q36.87 77.3 36.695 77.135Q36.52 76.97 36.32 76.805Q36.12 76.64 35.915 76.485Q35.71 76.33 35.53 76.21Q35.22 76.47 34.89 76.71Q34.56 76.95 34.21 77.18L33.75 76.56Q34.25 76.25 34.75 75.855Q35.25 75.46 35.7 75.035Q36.15 74.61 36.535 74.18Q36.92 73.75 37.2 73.36L37.88 73.66Q37.59 74.08 37.25 74.5L41.27 74.5L41.27 75.2Q40.47 76.17 39.455 76.94Q38.44 77.71 37.12 78.36L41.29 78.36ZM40.55 81.16L40.55 79.07L36.05 79.07L36.05 81.16L40.55 81.16ZM47.9 75.11Q48 76.19 48.305 77.12Q48.61 78.05 49.12 78.87Q49.63 79.69 50.335 80.415Q51.04 81.14 51.93 81.8L51.37 82.48Q49.95 81.33 49 80.03Q48.05 78.73 47.6 77.2Q47.21 78.69 46.28 79.96Q45.35 81.23 43.81 82.4L43.26 81.75Q44.31 80.99 45.045 80.215Q45.78 79.44 46.245 78.575Q46.71 77.71 46.925 76.72Q47.14 75.73 47.16 74.54Q47.16 74.48 47.165 74.335Q47.17 74.19 47.175 74.035Q47.18 73.88 47.18 73.75Q47.18 73.62 47.18 73.58L47.93 73.61Q47.93 73.65 47.93 73.81Q47.93 73.97 47.925 74.165Q47.92 74.36 47.915 74.55Q47.91 74.74 47.91 74.83Q47.91 74.91 47.91 74.975Q47.91 75.04 47.9 75.11ZM60.05 80.02Q60.76 81.03 61.99 81.96L61.47 82.5Q60.9 82.04 60.45 81.585Q60 81.13 59.65 80.65Q59.28 81.14 58.78 81.6Q58.28 82.06 57.6 82.55L57.14 81.99Q57.86 81.51 58.37 81.035Q58.88 80.56 59.23 80.02Q58.84 79.34 58.605 78.61Q58.37 77.88 58.24 77.04Q58.16 77.18 58.075 77.325Q57.99 77.47 57.9 77.61L57.34 77.25Q57.62 76.86 57.865 76.385Q58.11 75.91 58.305 75.41Q58.5 74.91 58.64 74.415Q58.78 73.92 58.86 73.5L59.56 73.67Q59.48 74.03 59.375 74.385Q59.27 74.74 59.14 75.1L61.74 75.1L61.74 75.82L61.06 75.82Q61 76.5 60.92 77.09Q60.84 77.68 60.725 78.19Q60.61 78.7 60.445 79.155Q60.28 79.61 60.05 80.02ZM52.83 77.88Q53.52 77.54 54.06 77.115Q54.6 76.69 55.02 76.22L53.14 76.22L53.14 75.61L55.19 75.61L55.19 73.56L55.86 73.6L55.86 75.61L57.66 75.61L57.66 76.22L55.86 76.22L55.86 78.08L55.19 78.08L55.19 76.85Q54.81 77.29 54.315 77.685Q53.82 78.08 53.19 78.42L52.83 77.88ZM57.54 74.04Q57.47 74.2 57.37 74.39Q57.27 74.58 57.155 74.775Q57.04 74.97 56.92 75.15Q56.8 75.33 56.7 75.46L56.2 75.18Q56.29 75.06 56.4 74.89Q56.51 74.72 56.615 74.535Q56.72 74.35 56.815 74.155Q56.91 73.96 56.98 73.79L57.54 74.04ZM54.14 75.45Q54.09 75.29 54.015 75.095Q53.94 74.9 53.85 74.71Q53.76 74.52 53.67 74.35Q53.58 74.18 53.51 74.05L54.04 73.85Q54.11 73.96 54.2 74.13Q54.29 74.3 54.38 74.495Q54.47 74.69 54.55 74.89Q54.63 75.09 54.69 75.26L54.14 75.45ZM58.72 76.1Q58.83 77.05 59.04 77.835Q59.25 78.62 59.62 79.32Q59.95 78.6 60.12 77.755Q60.29 76.91 60.39 75.82L58.84 75.82L58.72 76.1ZM57.23 78.24Q56.94 77.89 56.615 77.545Q56.29 77.2 55.97 76.92L56.37 76.55Q56.63 76.75 56.98 77.095Q57.33 77.44 57.63 77.78L57.23 78.24ZM56.96 81.93Q56.68 81.76 56.38 81.605Q56.08 81.45 55.77 81.29Q55.34 81.61 54.735 81.9Q54.13 82.19 53.25 82.48L52.9 81.85Q53.65 81.63 54.185 81.415Q54.72 81.2 55.11 80.96Q54.34 80.59 53.62 80.32Q53.76 80.09 53.9 79.85Q54.04 79.61 54.17 79.37L53.01 79.37L53.01 78.77L54.47 78.77Q54.56 78.58 54.635 78.405Q54.71 78.23 54.77 78.07L55.41 78.28Q55.36 78.41 55.31 78.53Q55.26 78.65 55.21 78.77L57.29 78.77L57.29 79.34Q57.09 79.76 56.86 80.13Q56.63 80.5 56.3 80.83Q56.52 80.94 56.75 81.045Q56.98 81.15 57.23 81.27L56.96 81.93ZM54.53 80.08Q54.8 80.19 55.08 80.305Q55.36 80.42 55.67 80.56Q55.97 80.3 56.175 80.01Q56.38 79.72 56.55 79.37L54.92 79.37Q54.83 79.56 54.73 79.735Q54.63 79.91 54.53 80.08ZM64.95 77.3Q64.6 77.3 64.455 77.19Q64.31 77.08 64.31 76.67Q64.31 76.26 64.455 76.15Q64.6 76.04 64.95 76.04Q65.29 76.04 65.44 76.15Q65.59 76.26 65.59 76.67Q65.59 77.08 65.44 77.19Q65.29 77.3 64.95 77.3ZM64.95 81.56Q64.6 81.56 64.455 81.45Q64.31 81.34 64.31 80.92Q64.31 80.52 64.455 80.41Q64.6 80.3 64.95 80.3Q65.29 80.3 65.44 80.41Q65.59 80.52 65.59 80.92Q65.59 81.34 65.44 81.45Q65.29 81.56 64.95 81.56ZM76.81 81.51Q77.44 81.54 78.035 81.55Q78.63 81.56 79.22 81.555Q79.81 81.55 80.41 81.53Q81.01 81.51 81.64 81.47L81.46 82.2Q80.87 82.23 80.295 82.25Q79.72 82.27 79.145 82.27Q78.57 82.27 77.97 82.26Q77.37 82.25 76.73 82.22Q76.14 82.2 75.69 82.105Q75.24 82.01 74.895 81.825Q74.55 81.64 74.295 81.35Q74.04 81.06 73.85 80.64Q73.74 81.09 73.585 81.525Q73.43 81.96 73.2 82.47L72.53 82.25Q72.79 81.71 72.96 81.26Q73.13 80.81 73.235 80.345Q73.34 79.88 73.38 79.345Q73.42 78.81 73.43 78.08L74.09 78.12Q74.08 78.86 74.03 79.45Q74.17 79.99 74.375 80.36Q74.58 80.73 74.9 80.98L74.9 77.43L72.83 77.43L72.83 76.79L74.69 76.79L74.69 75.4L73.16 75.4L73.16 74.75L74.69 74.75L74.69 73.53L75.39 73.56L75.39 74.75L76.65 74.75L76.65 75.4L75.39 75.4L75.39 76.79L76.66 76.79L76.66 77.43L75.58 77.43L75.58 78.95L76.8 78.95L76.8 79.65L75.58 79.65L75.58 81.32Q76.07 81.48 76.81 81.51ZM76.72 77.13Q77.08 76.81 77.33 76.495Q77.58 76.18 77.74 75.865Q77.9 75.55 77.99 75.245Q78.08 74.94 78.12 74.64L76.77 74.64L76.77 74.01L80.92 74.01Q80.92 74.11 80.9 74.41Q80.88 74.71 80.86 75.05Q80.84 75.39 80.82 75.685Q80.8 75.98 80.8 76.06Q80.78 76.39 80.715 76.59Q80.65 76.79 80.505 76.91Q80.36 77.03 80.12 77.09Q79.88 77.15 79.51 77.19L79.03 77.25L78.77 76.57L79.33 76.52Q79.55 76.5 79.69 76.465Q79.83 76.43 79.91 76.355Q79.99 76.28 80.03 76.15Q80.07 76.02 80.08 75.82L80.15 74.64L78.81 74.64Q78.75 74.97 78.66 75.315Q78.57 75.66 78.4 76.03Q78.23 76.4 77.95 76.79Q77.67 77.18 77.24 77.61L76.72 77.13ZM77.22 77.88L80.78 77.88L80.78 80.79L77.22 80.79L77.22 77.88ZM77.9 80.13L80.07 80.13L80.07 78.52L77.9 78.52L77.9 80.13ZM89.1 75.95L85.53 75.95L85.53 75.22L89.1 75.22L89.1 73.5L89.82 73.53L89.82 75.22L91.21 75.22L91.21 75.95L89.82 75.95L89.82 79.28Q89.82 79.7 89.76 79.97Q89.7 80.24 89.525 80.405Q89.35 80.57 89.03 80.645Q88.71 80.72 88.18 80.74L87.49 80.77L87.21 80L88.11 79.96Q88.44 79.95 88.64 79.905Q88.84 79.86 88.94 79.765Q89.04 79.67 89.07 79.51Q89.1 79.35 89.1 79.09L89.1 75.95ZM84.61 76.15Q84.5 75.94 84.325 75.67Q84.15 75.4 83.95 75.125Q83.75 74.85 83.55 74.6Q83.35 74.35 83.2 74.19L83.74 73.74Q83.89 73.89 84.095 74.13Q84.3 74.37 84.505 74.635Q84.71 74.9 84.895 75.16Q85.08 75.42 85.19 75.61L84.61 76.15ZM86.39 76.43Q86.55 76.6 86.76 76.87Q86.97 77.14 87.19 77.43Q87.41 77.72 87.605 78.005Q87.8 78.29 87.92 78.5L87.34 79.02Q87.23 78.78 87.04 78.48Q86.85 78.18 86.64 77.875Q86.43 77.57 86.225 77.3Q86.02 77.03 85.86 76.85L86.39 76.43ZM87.11 81.46Q89.3 81.54 91.5 81.46L91.36 82.21Q89.17 82.28 86.99 82.21Q86.48 82.19 86.095 82.13Q85.71 82.07 85.395 81.935Q85.08 81.8 84.81 81.57Q84.54 81.34 84.27 80.97Q83.94 81.34 83.615 81.63Q83.29 81.92 82.89 82.24L82.42 81.54Q82.79 81.26 83.175 80.935Q83.56 80.61 83.91 80.27L83.91 77.64L82.6 77.64L82.6 76.9L84.63 76.9L84.63 80.26Q84.85 80.62 85.08 80.845Q85.31 81.07 85.595 81.2Q85.88 81.33 86.245 81.385Q86.61 81.44 87.11 81.46ZM96.23 75.34L92.42 75.34L92.42 74.56L97 74.56L97 75.44L94.15 81.5L93.23 81.5L96.23 75.34ZM101.69 74.85Q101.67 75.26 101.655 75.695Q101.64 76.13 101.62 76.47Q101.62 76.52 101.615 76.555Q101.61 76.59 101.61 76.64L105.67 76.64Q105.66 76.76 105.645 77.055Q105.63 77.35 105.605 77.725Q105.58 78.1 105.555 78.525Q105.53 78.95 105.505 79.325Q105.48 79.7 105.46 79.99Q105.44 80.28 105.43 80.4Q105.39 80.9 105.305 81.205Q105.22 81.51 105.03 81.685Q104.84 81.86 104.515 81.94Q104.19 82.02 103.66 82.06L102.84 82.13L102.56 81.36L103.42 81.3Q103.76 81.28 103.985 81.235Q104.21 81.19 104.345 81.07Q104.48 80.95 104.545 80.73Q104.61 80.51 104.64 80.14Q104.65 79.98 104.675 79.59Q104.7 79.2 104.73 78.765Q104.76 78.33 104.785 77.94Q104.81 77.55 104.82 77.39L101.53 77.39Q101.43 78.21 101.225 78.885Q101.02 79.56 100.68 80.16Q100.34 80.76 99.84 81.32Q99.34 81.88 98.64 82.47L98.03 81.89Q98.78 81.26 99.29 80.7Q99.8 80.14 100.125 79.525Q100.45 78.91 100.61 78.175Q100.77 77.44 100.83 76.46Q100.84 76.32 100.85 76.13Q100.86 75.94 100.87 75.72Q100.88 75.5 100.89 75.275Q100.9 75.05 100.91 74.85L98.42 74.85L98.42 74.11L106.82 74.11L106.82 74.85L101.69 74.85Z">
</path>
</g>
<path    stroke="rgba(0, 0, 0, 1)" stroke-width="1"    d="M0 89.5L401 89.5">
</path>
<g >
<path     fill="#A6A6A6"  d="M25.71 100.35L26.84 100.35L26.84 101.03L25.71 101.03L25.71 102.78Q26.03 102.68 26.305 102.59Q26.58 102.5 26.78 102.42L26.81 102.79L26.83 103.11Q26.62 103.19 26.33 103.285Q26.04 103.38 25.71 103.49L25.71 106.23Q25.71 106.56 25.66 106.77Q25.61 106.98 25.475 107.11Q25.34 107.24 25.11 107.3Q24.88 107.36 24.52 107.39L24.05 107.43L23.82 106.71L24.34 106.67Q24.74 106.64 24.875 106.515Q25.01 106.39 25.01 106.02L25.01 103.72Q24.56 103.86 24.16 103.98Q23.76 104.1 23.48 104.18L23.26 103.47Q23.59 103.39 24.055 103.265Q24.52 103.14 25.01 102.99L25.01 101.03L23.6 101.03L23.6 100.35L25.01 100.35L25.01 98.53L25.71 98.56L25.71 100.35ZM30.41 105.46Q30.8 105.84 31.28 106.16Q31.76 106.48 32.37 106.82L31.94 107.45Q31.38 107.13 30.885 106.765Q30.39 106.4 29.96 105.97Q29.63 106.32 29.215 106.67Q28.8 107.02 28.28 107.39L27.83 106.87L27.83 107.4L27.11 107.4L27.11 99L31.57 99Q31.57 99.05 31.56 99.27Q31.55 99.49 31.54 99.75Q31.53 100.01 31.52 100.245Q31.51 100.48 31.5 100.56Q31.49 100.84 31.42 101.015Q31.35 101.19 31.165 101.3Q30.98 101.41 30.66 101.465Q30.34 101.52 29.82 101.56L29.2 101.61L28.96 100.95L29.72 100.91Q30.05 100.89 30.255 100.855Q30.46 100.82 30.57 100.76Q30.68 100.7 30.725 100.605Q30.77 100.51 30.78 100.37Q30.79 100.27 30.805 100.06Q30.82 99.85 30.83 99.69L27.83 99.69L27.83 102.18L31.67 102.18L31.67 102.85Q31.48 103.54 31.2 104.18Q30.92 104.82 30.41 105.46ZM27.83 106.84Q28.88 106.1 29.5 105.45Q29.13 104.99 28.835 104.445Q28.54 103.9 28.31 103.24L28.93 103Q29.14 103.61 29.385 104.08Q29.63 104.55 29.93 104.94Q30.31 104.44 30.53 103.93Q30.75 103.42 30.92 102.84L27.83 102.84L27.83 106.84ZM41.29 103.36L41.29 107.41L40.55 107.41L40.55 106.84L36.05 106.84L36.05 107.41L35.31 107.41L35.31 104.14Q34.87 104.3 34.41 104.455Q33.95 104.61 33.45 104.76L33.09 104.08Q34.38 103.72 35.455 103.3Q36.53 102.88 37.415 102.4Q38.3 101.92 39.01 101.37Q39.72 100.82 40.28 100.2L36.62 100.2Q36.49 100.34 36.36 100.465Q36.23 100.59 36.09 100.73Q36.27 100.85 36.465 101Q36.66 101.15 36.85 101.3Q37.04 101.45 37.21 101.59Q37.38 101.73 37.5 101.84L36.99 102.45Q36.87 102.3 36.695 102.135Q36.52 101.97 36.32 101.805Q36.12 101.64 35.915 101.485Q35.71 101.33 35.53 101.21Q35.22 101.47 34.89 101.71Q34.56 101.95 34.21 102.18L33.75 101.56Q34.25 101.25 34.75 100.855Q35.25 100.46 35.7 100.035Q36.15 99.61 36.535 99.18Q36.92 98.75 37.2 98.36L37.88 98.66Q37.59 99.08 37.25 99.5L41.27 99.5L41.27 100.2Q40.47 101.17 39.455 101.94Q38.44 102.71 37.12 103.36L41.29 103.36ZM40.55 106.16L40.55 104.07L36.05 104.07L36.05 106.16L40.55 106.16ZM50.71 99.17L50.71 107.39L49.96 107.39L49.96 106.72L45.31 106.72L45.31 107.39L44.56 107.39L44.56 99.17L50.71 99.17ZM45.31 99.87L45.31 102.46L49.96 102.46L49.96 99.87L45.31 99.87ZM49.96 105.99L49.96 103.17L45.31 103.17L45.31 105.99L49.96 105.99ZM57.87 104.98L52.92 104.98L52.92 104.35L54.02 104.35L54.02 100.18L53.31 100.18L53.31 99.55L54.02 99.55L54.02 98.55L54.69 98.58L54.69 99.55L56.43 99.55L56.43 98.55L57.1 98.58L57.1 99.55L57.86 99.55L57.86 100.18L57.1 100.18L57.1 104.35L57.87 104.35L57.87 104.98ZM61.32 99.03L61.32 106.3Q61.32 106.59 61.275 106.76Q61.23 106.93 61.125 107.03Q61.02 107.13 60.84 107.175Q60.66 107.22 60.38 107.26L59.87 107.33L59.61 106.67L60.15 106.61Q60.32 106.59 60.415 106.565Q60.51 106.54 60.56 106.49Q60.61 106.44 60.625 106.34Q60.64 106.24 60.64 106.07L60.64 104.46L58.92 104.46Q58.88 104.96 58.795 105.355Q58.71 105.75 58.56 106.105Q58.41 106.46 58.185 106.81Q57.96 107.16 57.64 107.56L57 107.16Q57.31 106.8 57.53 106.49Q57.75 106.18 57.895 105.875Q58.04 105.57 58.12 105.24Q58.2 104.91 58.24 104.5Q58.28 104.09 58.29 103.575Q58.3 103.06 58.3 102.38L58.3 99.03L61.32 99.03ZM58.97 99.71L58.97 101.41L60.64 101.41L60.64 99.71L58.97 99.71ZM54.69 100.18L54.69 101.13L56.43 101.13L56.43 100.18L54.69 100.18ZM54.69 102.71L56.43 102.71L56.43 101.75L54.69 101.75L54.69 102.71ZM60.64 103.78L60.64 102.08L58.97 102.08L58.97 102.73Q58.97 103.02 58.97 103.285Q58.97 103.55 58.96 103.78L60.64 103.78ZM54.69 104.35L56.43 104.35L56.43 103.32L54.69 103.32L54.69 104.35ZM56.26 105.13Q56.59 105.41 56.87 105.675Q57.15 105.94 57.43 106.23L56.99 106.77Q56.89 106.65 56.74 106.49Q56.59 106.33 56.425 106.165Q56.26 106 56.09 105.85Q55.92 105.7 55.79 105.59L56.26 105.13ZM53.09 106.92Q53.28 106.76 53.495 106.56Q53.71 106.36 53.92 106.135Q54.13 105.91 54.325 105.665Q54.52 105.42 54.67 105.16L55.22 105.58Q54.86 106.09 54.45 106.555Q54.04 107.02 53.66 107.41L53.09 106.92ZM64.95 102.3Q64.6 102.3 64.455 102.19Q64.31 102.08 64.31 101.67Q64.31 101.26 64.455 101.15Q64.6 101.04 64.95 101.04Q65.29 101.04 65.44 101.15Q65.59 101.26 65.59 101.67Q65.59 102.08 65.44 102.19Q65.29 102.3 64.95 102.3ZM64.95 106.56Q64.6 106.56 64.455 106.45Q64.31 106.34 64.31 105.92Q64.31 105.52 64.455 105.41Q64.6 105.3 64.95 105.3Q65.29 105.3 65.44 105.41Q65.59 105.52 65.59 105.92Q65.59 106.34 65.44 106.45Q65.29 106.56 64.95 106.56ZM72.77 105.55Q73.88 104.68 74.55 104.07Q75.22 103.46 75.59 103Q75.96 102.54 76.08 102.175Q76.2 101.81 76.2 101.44Q76.2 101.07 76.065 100.83Q75.93 100.59 75.72 100.45Q75.51 100.31 75.245 100.26Q74.98 100.21 74.73 100.21Q74.4 100.21 74.03 100.245Q73.66 100.28 73.25 100.39L73.25 99.62Q73.6 99.54 73.995 99.5Q74.39 99.46 74.83 99.46Q75.34 99.46 75.75 99.57Q76.16 99.68 76.455 99.92Q76.75 100.16 76.905 100.54Q77.06 100.92 77.06 101.45Q77.06 101.92 76.92 102.335Q76.78 102.75 76.45 103.195Q76.12 103.64 75.56 104.155Q75 104.67 74.16 105.34L73.76 105.65L73.76 105.74L77.34 105.74L77.34 106.5L72.77 106.5L72.77 105.55ZM80.82 106.6Q80.3 106.6 79.87 106.445Q79.44 106.29 79.13 105.89Q78.82 105.49 78.65 104.795Q78.48 104.1 78.48 103.03Q78.48 101.96 78.65 101.27Q78.82 100.58 79.13 100.175Q79.44 99.77 79.87 99.615Q80.3 99.46 80.82 99.46Q81.34 99.46 81.775 99.615Q82.21 99.77 82.52 100.175Q82.83 100.58 83 101.27Q83.17 101.96 83.17 103.03Q83.17 104.1 83 104.795Q82.83 105.49 82.52 105.89Q82.21 106.29 81.775 106.445Q81.34 106.6 80.82 106.6ZM80.82 105.85Q81.19 105.85 81.46 105.725Q81.73 105.6 81.91 105.28Q82.09 104.96 82.175 104.415Q82.26 103.87 82.26 103.03Q82.26 102.2 82.175 101.655Q82.09 101.11 81.91 100.79Q81.73 100.47 81.46 100.345Q81.19 100.22 80.82 100.22Q80.46 100.22 80.19 100.345Q79.92 100.47 79.745 100.79Q79.57 101.11 79.485 101.655Q79.4 102.2 79.4 103.03Q79.4 103.87 79.485 104.415Q79.57 104.96 79.745 105.28Q79.92 105.6 80.19 105.725Q80.46 105.85 80.82 105.85ZM84.27 105.55Q85.38 104.68 86.05 104.07Q86.72 103.46 87.09 103Q87.46 102.54 87.58 102.175Q87.7 101.81 87.7 101.44Q87.7 101.07 87.565 100.83Q87.43 100.59 87.22 100.45Q87.01 100.31 86.745 100.26Q86.48 100.21 86.23 100.21Q85.9 100.21 85.53 100.245Q85.16 100.28 84.75 100.39L84.75 99.62Q85.1 99.54 85.495 99.5Q85.89 99.46 86.33 99.46Q86.84 99.46 87.25 99.57Q87.66 99.68 87.955 99.92Q88.25 100.16 88.405 100.54Q88.56 100.92 88.56 101.45Q88.56 101.92 88.42 102.335Q88.28 102.75 87.95 103.195Q87.62 103.64 87.06 104.155Q86.5 104.67 85.66 105.34L85.26 105.65L85.26 105.74L88.84 105.74L88.84 106.5L84.27 106.5L84.27 105.55ZM94.74 104.79L93.92 104.79L93.92 106.5L93.08 106.5L93.08 104.79L89.8 104.79L89.8 103.82L92.84 99.56L93.92 99.56L93.92 104.03L94.74 104.03L94.74 104.79ZM93.08 104.03L93.08 100.48L93.02 100.48L90.56 103.97L90.56 104.03L93.08 104.03ZM96.71 106.56Q96.36 106.56 96.215 106.45Q96.07 106.34 96.07 105.92Q96.07 105.52 96.215 105.41Q96.36 105.3 96.71 105.3Q97.05 105.3 97.2 105.41Q97.35 105.52 97.35 105.92Q97.35 106.34 97.2 106.45Q97.05 106.56 96.71 106.56ZM103.51 104.79L102.69 104.79L102.69 106.5L101.85 106.5L101.85 104.79L98.57 104.79L98.57 103.82L101.61 99.56L102.69 99.56L102.69 104.03L103.51 104.03L103.51 104.79ZM101.85 104.03L101.85 100.48L101.79 100.48L99.33 103.97L99.33 104.03L101.85 104.03ZM105.48 106.56Q105.13 106.56 104.985 106.45Q104.84 106.34 104.84 105.92Q104.84 105.52 104.985 105.41Q105.13 105.3 105.48 105.3Q105.82 105.3 105.97 105.41Q106.12 105.52 106.12 105.92Q106.12 106.34 105.97 106.45Q105.82 106.56 105.48 106.56ZM107.56 105.55Q108.67 104.68 109.34 104.07Q110.01 103.46 110.38 103Q110.75 102.54 110.87 102.175Q110.99 101.81 110.99 101.44Q110.99 101.07 110.855 100.83Q110.72 100.59 110.51 100.45Q110.3 100.31 110.035 100.26Q109.77 100.21 109.52 100.21Q109.19 100.21 108.82 100.245Q108.45 100.28 108.04 100.39L108.04 99.62Q108.39 99.54 108.785 99.5Q109.18 99.46 109.62 99.46Q110.13 99.46 110.54 99.57Q110.95 99.68 111.245 99.92Q111.54 100.16 111.695 100.54Q111.85 100.92 111.85 101.45Q111.85 101.92 111.71 102.335Q111.57 102.75 111.24 103.195Q110.91 103.64 110.35 104.155Q109.79 104.67 108.95 105.34L108.55 105.65L108.55 105.74L112.13 105.74L112.13 106.5L107.56 106.5L107.56 105.55ZM115 106.6Q114.58 106.6 114.185 106.57Q113.79 106.54 113.44 106.47L113.44 105.68Q113.84 105.78 114.215 105.815Q114.59 105.85 114.99 105.85Q115.38 105.85 115.715 105.79Q116.05 105.73 116.29 105.58Q116.53 105.43 116.67 105.185Q116.81 104.94 116.81 104.58Q116.81 103.84 116.31 103.55Q115.81 103.26 114.82 103.26L114.27 103.26L114.27 102.57L114.81 102.57Q115.72 102.57 116.19 102.235Q116.66 101.9 116.66 101.33Q116.66 100.72 116.295 100.46Q115.93 100.2 115.18 100.2Q114.88 100.2 114.49 100.25Q114.1 100.3 113.77 100.4L113.77 99.66Q114.03 99.58 114.425 99.52Q114.82 99.46 115.22 99.46Q116.34 99.46 116.915 99.89Q117.49 100.32 117.49 101.28Q117.49 101.96 117.16 102.325Q116.83 102.69 116.26 102.86L116.26 102.92Q117 103.05 117.335 103.475Q117.67 103.9 117.67 104.59Q117.67 105.55 117.025 106.075Q116.38 106.6 115 106.6ZM119.21 103.07L122.16 103.07L122.16 103.79L119.21 103.79L119.21 103.07ZM123.46 105.55Q124.57 104.68 125.24 104.07Q125.91 103.46 126.28 103Q126.65 102.54 126.77 102.175Q126.89 101.81 126.89 101.44Q126.89 101.07 126.755 100.83Q126.62 100.59 126.41 100.45Q126.2 100.31 125.935 100.26Q125.67 100.21 125.42 100.21Q125.09 100.21 124.72 100.245Q124.35 100.28 123.94 100.39L123.94 99.62Q124.29 99.54 124.685 99.5Q125.08 99.46 125.52 99.46Q126.03 99.46 126.44 99.57Q126.85 99.68 127.145 99.92Q127.44 100.16 127.595 100.54Q127.75 100.92 127.75 101.45Q127.75 101.92 127.61 102.335Q127.47 102.75 127.14 103.195Q126.81 103.64 126.25 104.155Q125.69 104.67 124.85 105.34L124.45 105.65L124.45 105.74L128.03 105.74L128.03 106.5L123.46 106.5L123.46 105.55ZM131.51 106.6Q130.99 106.6 130.56 106.445Q130.13 106.29 129.82 105.89Q129.51 105.49 129.34 104.795Q129.17 104.1 129.17 103.03Q129.17 101.96 129.34 101.27Q129.51 100.58 129.82 100.175Q130.13 99.77 130.56 99.615Q130.99 99.46 131.51 99.46Q132.03 99.46 132.465 99.615Q132.9 99.77 133.21 100.175Q133.52 100.58 133.69 101.27Q133.86 101.96 133.86 103.03Q133.86 104.1 133.69 104.795Q133.52 105.49 133.21 105.89Q132.9 106.29 132.465 106.445Q132.03 106.6 131.51 106.6ZM131.51 105.85Q131.88 105.85 132.15 105.725Q132.42 105.6 132.6 105.28Q132.78 104.96 132.865 104.415Q132.95 103.87 132.95 103.03Q132.95 102.2 132.865 101.655Q132.78 101.11 132.6 100.79Q132.42 100.47 132.15 100.345Q131.88 100.22 131.51 100.22Q131.15 100.22 130.88 100.345Q130.61 100.47 130.435 100.79Q130.26 101.11 130.175 101.655Q130.09 102.2 130.09 103.03Q130.09 103.87 130.175 104.415Q130.26 104.96 130.435 105.28Q130.61 105.6 130.88 105.725Q131.15 105.85 131.51 105.85ZM134.96 105.55Q136.07 104.68 136.74 104.07Q137.41 103.46 137.78 103Q138.15 102.54 138.27 102.175Q138.39 101.81 138.39 101.44Q138.39 101.07 138.255 100.83Q138.12 100.59 137.91 100.45Q137.7 100.31 137.435 100.26Q137.17 100.21 136.92 100.21Q136.59 100.21 136.22 100.245Q135.85 100.28 135.44 100.39L135.44 99.62Q135.79 99.54 136.185 99.5Q136.58 99.46 137.02 99.46Q137.53 99.46 137.94 99.57Q138.35 99.68 138.645 99.92Q138.94 100.16 139.095 100.54Q139.25 100.92 139.25 101.45Q139.25 101.92 139.11 102.335Q138.97 102.75 138.64 103.195Q138.31 103.64 137.75 104.155Q137.19 104.67 136.35 105.34L135.95 105.65L135.95 105.74L139.53 105.74L139.53 106.5L134.96 106.5L134.96 105.55ZM145.43 104.79L144.61 104.79L144.61 106.5L143.77 106.5L143.77 104.79L140.49 104.79L140.49 103.82L143.53 99.56L144.61 99.56L144.61 104.03L145.43 104.03L145.43 104.79ZM143.77 104.03L143.77 100.48L143.71 100.48L141.25 103.97L141.25 104.03L143.77 104.03ZM147.4 106.56Q147.05 106.56 146.905 106.45Q146.76 106.34 146.76 105.92Q146.76 105.52 146.905 105.41Q147.05 105.3 147.4 105.3Q147.74 105.3 147.89 105.41Q148.04 105.52 148.04 105.92Q148.04 106.34 147.89 106.45Q147.74 106.56 147.4 106.56ZM151.2 106.6Q150.78 106.6 150.445 106.57Q150.11 106.54 149.77 106.47L149.77 105.68Q150.16 105.78 150.475 105.815Q150.79 105.85 151.19 105.85Q151.62 105.85 151.975 105.775Q152.33 105.7 152.58 105.525Q152.83 105.35 152.97 105.065Q153.11 104.78 153.11 104.35Q153.11 103.57 152.655 103.215Q152.2 102.86 151.12 102.86Q150.84 102.86 150.48 102.905Q150.12 102.95 149.79 103.01L150.26 99.56L153.5 99.56L153.5 100.34L150.94 100.34L150.65 102.24Q150.84 102.21 151.03 102.195Q151.22 102.18 151.46 102.18Q152.67 102.18 153.32 102.68Q153.97 103.18 153.97 104.29Q153.97 104.91 153.775 105.345Q153.58 105.78 153.22 106.06Q152.86 106.34 152.345 106.47Q151.83 106.6 151.2 106.6ZM156.17 106.56Q155.82 106.56 155.675 106.45Q155.53 106.34 155.53 105.92Q155.53 105.52 155.675 105.41Q155.82 105.3 156.17 105.3Q156.51 105.3 156.66 105.41Q156.81 105.52 156.81 105.92Q156.81 106.34 156.66 106.45Q156.51 106.56 156.17 106.56ZM158.25 105.55Q159.36 104.68 160.03 104.07Q160.7 103.46 161.07 103Q161.44 102.54 161.56 102.175Q161.68 101.81 161.68 101.44Q161.68 101.07 161.545 100.83Q161.41 100.59 161.2 100.45Q160.99 100.31 160.725 100.26Q160.46 100.21 160.21 100.21Q159.88 100.21 159.51 100.245Q159.14 100.28 158.73 100.39L158.73 99.62Q159.08 99.54 159.475 99.5Q159.87 99.46 160.31 99.46Q160.82 99.46 161.23 99.57Q161.64 99.68 161.935 99.92Q162.23 100.16 162.385 100.54Q162.54 100.92 162.54 101.45Q162.54 101.92 162.4 102.335Q162.26 102.75 161.93 103.195Q161.6 103.64 161.04 104.155Q160.48 104.67 159.64 105.34L159.24 105.65L159.24 105.74L162.82 105.74L162.82 106.5L158.25 106.5L158.25 105.55ZM166.3 106.6Q165.82 106.6 165.405 106.465Q164.99 106.33 164.675 106.01Q164.36 105.69 164.18 105.155Q164 104.62 164 103.81Q164 102.84 164.215 102.04Q164.43 101.24 164.88 100.665Q165.33 100.09 166.035 99.775Q166.74 99.46 167.72 99.46L167.71 100.22Q167.07 100.22 166.57 100.4Q166.07 100.58 165.72 100.895Q165.37 101.21 165.17 101.635Q164.97 102.06 164.93 102.55L164.96 102.55Q165.16 102.35 165.55 102.165Q165.94 101.98 166.45 101.98Q167.42 101.98 167.99 102.53Q168.56 103.08 168.56 104.22Q168.56 104.73 168.425 105.165Q168.29 105.6 168.015 105.92Q167.74 106.24 167.31 106.42Q166.88 106.6 166.3 106.6ZM166.29 105.85Q167 105.85 167.37 105.445Q167.74 105.04 167.74 104.22Q167.74 103.44 167.37 103.055Q167 102.67 166.41 102.67Q165.6 102.67 165.23 103.055Q164.86 103.44 164.86 104.06Q164.86 105.85 166.29 105.85Z">
</path>
</g>
<g >
<path     fill="#A6A6A6"  d="M32.14 120.8Q32.12 121.18 32.085 121.56Q32.05 121.94 31.98 122.31Q31.91 122.67 31.605 122.88Q31.3 123.09 30.57 123.13Q29.95 123.16 29.34 123.13Q29.02 123.12 28.79 123.05Q28.56 122.98 28.415 122.835Q28.27 122.69 28.2 122.445Q28.13 122.2 28.13 121.83L28.13 114.58L28.91 114.63L28.91 118.29Q29.24 118.07 29.59 117.805Q29.94 117.54 30.285 117.245Q30.63 116.95 30.955 116.645Q31.28 116.34 31.55 116.03L32.07 116.63Q31.74 116.99 31.345 117.35Q30.95 117.71 30.53 118.05Q30.11 118.39 29.69 118.69Q29.27 118.99 28.91 119.23L28.91 121.57Q28.91 121.8 28.94 121.945Q28.97 122.09 29.05 122.175Q29.13 122.26 29.27 122.3Q29.41 122.34 29.64 122.35Q30.04 122.38 30.44 122.35Q30.87 122.32 31.05 122.22Q31.23 122.12 31.29 121.81Q31.41 121.18 31.41 120.52L32.14 120.8ZM25.28 122.1Q25.43 122.04 25.76 121.895Q26.09 121.75 26.46 121.59Q26.83 121.43 27.15 121.295Q27.47 121.16 27.59 121.11L27.66 121.93Q27.48 122 27.14 122.145Q26.8 122.29 26.435 122.45Q26.07 122.61 25.74 122.745Q25.41 122.88 25.26 122.94Q25.11 123.01 24.89 123.12Q24.67 123.23 24.51 123.32L24.18 122.54Q24.38 122.41 24.445 122.315Q24.51 122.22 24.51 122.05L24.51 114.68L25.28 114.71L25.28 117.42L27.6 117.42L27.6 118.17L25.28 118.17L25.28 122.1ZM34.48 116.88L33.81 116.88L33.81 115.3L37.5 115.3Q37.43 115.09 37.36 114.885Q37.29 114.68 37.24 114.54L37.92 114.41Q37.98 114.55 38.07 114.805Q38.16 115.06 38.24 115.3L41.68 115.3L41.68 116.88L41.01 116.88L41.01 115.87L34.48 115.87L34.48 116.88ZM39.53 119.38Q39.99 119.82 40.725 120.175Q41.46 120.53 42.34 120.8L42.05 121.43Q41.1 121.09 40.34 120.65L40.34 122.03L39.66 122.03L39.66 120.59L35.81 120.59L35.81 122.04L35.15 122.04L35.15 120.67Q34.77 120.9 34.36 121.11Q33.95 121.32 33.51 121.51L33.16 120.92Q33.57 120.76 33.97 120.58Q34.37 120.4 34.73 120.205Q35.09 120.01 35.395 119.8Q35.7 119.59 35.93 119.38L33.57 119.38L33.57 118.84L36.12 118.84L36.12 118.28L34.53 118.28L34.53 117.75L36.12 117.75L36.12 117.22L34.67 117.22L34.67 116.68L36.12 116.68L36.12 116.24L36.82 116.27L36.82 116.68L38.69 116.68L38.69 116.24L39.38 116.27L39.38 116.68L40.82 116.68L40.82 117.22L39.38 117.22L39.38 117.75L40.98 117.75L40.98 118.28L39.38 118.28L39.38 118.84L41.91 118.84L41.91 119.38L39.53 119.38ZM36.82 117.75L38.69 117.75L38.69 117.22L36.82 117.22L36.82 117.75ZM36.82 118.84L38.69 118.84L38.69 118.28L36.82 118.28L36.82 118.84ZM39.42 120.04Q39.03 119.74 38.72 119.38L36.75 119.38Q36.45 119.73 36.05 120.04L39.42 120.04ZM38.15 120.94Q38.08 121.44 37.895 121.82Q37.71 122.2 37.27 122.5Q36.83 122.8 36.075 123.045Q35.32 123.29 34.11 123.54L33.83 122.92Q34.93 122.73 35.615 122.515Q36.3 122.3 36.685 122.05Q37.07 121.8 37.22 121.515Q37.37 121.23 37.41 120.89L38.15 120.94ZM38.15 121.77Q38.51 121.87 38.945 122.01Q39.38 122.15 39.83 122.3Q40.28 122.45 40.715 122.605Q41.15 122.76 41.51 122.89L41.29 123.58Q40.94 123.42 40.495 123.24Q40.05 123.06 39.585 122.885Q39.12 122.71 38.68 122.56Q38.24 122.41 37.9 122.32L38.15 121.77ZM46.09 121.73Q46.36 121.41 46.55 121.165Q46.74 120.92 46.86 120.685Q46.98 120.45 47.045 120.2Q47.11 119.95 47.14 119.62L45.77 119.62L45.77 118.91L47.17 118.91L47.17 118.3L47.17 116.92L46.07 116.92L46.07 116.22L47.17 116.22L47.17 114.59L47.88 114.61L47.88 116.22L49.69 116.22L49.69 114.58L50.42 114.6L50.42 116.22L51.7 116.22L51.7 116.92L50.42 116.92L50.42 118.91L52.02 118.91L52.02 119.62L50.42 119.62L50.42 122.1L49.69 122.1L49.69 119.62L47.84 119.62Q47.81 120.06 47.735 120.385Q47.66 120.71 47.525 120.995Q47.39 121.28 47.185 121.56Q46.98 121.84 46.68 122.18L46.09 121.73ZM45.04 117.16Q44.93 116.95 44.75 116.675Q44.57 116.4 44.37 116.13Q44.17 115.86 43.975 115.62Q43.78 115.38 43.63 115.22L44.18 114.76Q44.33 114.91 44.53 115.14Q44.73 115.37 44.93 115.625Q45.13 115.88 45.315 116.135Q45.5 116.39 45.61 116.57L45.04 117.16ZM47.88 118.25Q47.88 118.43 47.88 118.595Q47.88 118.76 47.87 118.91L49.69 118.91L49.69 116.92L47.88 116.92L47.88 118.25ZM48.63 122.51Q49.52 122.53 50.4 122.51Q51.28 122.49 52.08 122.44L51.91 123.19Q51.59 123.2 51.185 123.21Q50.78 123.22 50.36 123.23Q49.94 123.24 49.535 123.24Q49.13 123.24 48.82 123.23Q48.04 123.21 47.465 123.17Q46.89 123.13 46.425 123Q45.96 122.87 45.565 122.63Q45.17 122.39 44.76 121.97Q44.62 122.13 44.495 122.275Q44.37 122.42 44.235 122.575Q44.1 122.73 43.94 122.905Q43.78 123.08 43.57 123.29L43.04 122.73Q43.45 122.35 43.81 121.985Q44.17 121.62 44.45 121.27L44.45 118.62L43.37 118.62L43.37 117.91L45.17 117.91L45.17 121.42Q45.53 121.77 45.87 121.975Q46.21 122.18 46.605 122.295Q47 122.41 47.485 122.455Q47.97 122.5 48.63 122.51ZM56.06 114.99Q55.82 115.31 55.51 115.65Q55.2 115.99 54.865 116.325Q54.53 116.66 54.18 116.97Q53.83 117.28 53.52 117.53L53.1 116.91Q53.38 116.7 53.71 116.405Q54.04 116.11 54.36 115.785Q54.68 115.46 54.975 115.125Q55.27 114.79 55.5 114.49L56.06 114.99ZM61.39 115.77L56.82 115.77L56.82 115.05L61.39 115.05L61.39 115.77ZM56.08 117.47Q55.91 117.77 55.67 118.09Q55.43 118.41 55.16 118.73L55.16 123.41L54.41 123.41L54.41 119.55Q54.1 119.87 53.79 120.155Q53.48 120.44 53.19 120.67L52.75 120.04Q53.14 119.75 53.54 119.375Q53.94 119 54.305 118.6Q54.67 118.2 54.98 117.79Q55.29 117.38 55.5 117.02L56.08 117.47ZM61.89 118.65L60.21 118.65L60.21 122.1Q60.21 122.44 60.14 122.665Q60.07 122.89 59.91 123.03Q59.75 123.17 59.495 123.24Q59.24 123.31 58.87 123.34L58.13 123.41L57.9 122.64L58.69 122.58Q58.91 122.57 59.05 122.535Q59.19 122.5 59.27 122.425Q59.35 122.35 59.38 122.22Q59.41 122.09 59.41 121.88L59.41 118.65L56.23 118.65L56.23 117.93L61.89 117.93L61.89 118.65ZM71.02 120.56L67.66 120.56L67.66 123.5L66.86 123.5L66.86 120.56L63.53 120.56L63.53 116.33L66.86 116.33L66.86 114.39L67.66 114.43L67.66 116.33L71.02 116.33L71.02 120.56ZM66.86 119.82L66.86 117.07L64.31 117.07L64.31 119.82L66.86 119.82ZM70.25 117.07L67.66 117.07L67.66 119.82L70.25 119.82L70.25 117.07Z">
</path>
</g>
</svg>
