<svg xmlns="http://www.w3.org/2000/svg" xmlns:xlink="http://www.w3.org/1999/xlink" width="201" height="53" viewBox="0 0 201 53" fill="none">
<rect x="0" y="0" width="201" height="47"   fill="#FA0000" >
</rect>
<g >
<path     fill="#FFFFFF"  d="M73.8 21.4L58 21.4L58 19.88L65.4 19.88Q65.3 19.52 65.2 19.11Q65.1 18.7 64.98 18.31Q64.86 17.92 64.75 17.58Q64.64 17.24 64.56 17.02L66.12 16.72Q66.2 16.96 66.33 17.36Q66.46 17.76 66.6 18.22Q66.74 18.68 66.86 19.13Q66.98 19.58 67.08 19.88L73.8 19.88L73.8 21.4ZM74.48 32.44L74.48 33.96L57.26 33.96L57.26 32.44L66.34 32.44Q66.72 31.54 67.2 30.28Q67.68 29.02 68.15 27.65Q68.62 26.28 69.03 24.93Q69.44 23.58 69.72 22.5L71.28 22.94Q71.04 23.92 70.65 25.17Q70.26 26.42 69.81 27.72Q69.36 29.02 68.89 30.25Q68.42 31.48 68 32.44L74.48 32.44ZM63.08 31.28Q62.84 30.48 62.47 29.41Q62.1 28.34 61.69 27.24Q61.28 26.14 60.87 25.12Q60.46 24.1 60.14 23.4L61.6 22.86Q61.9 23.56 62.31 24.59Q62.72 25.62 63.14 26.72Q63.56 27.82 63.95 28.87Q64.34 29.92 64.6 30.64L63.08 31.28ZM82.96 27.52Q83.24 27.92 83.61 28.51Q83.98 29.1 84.37 29.79Q84.76 30.48 85.13 31.18Q85.5 31.88 85.76 32.48L84.46 33.36Q84.28 32.92 84.04 32.39Q83.8 31.86 83.52 31.28Q83.06 31.52 82.41 31.84Q81.76 32.16 81.1 32.48Q80.44 32.8 79.85 33.07Q79.26 33.34 78.96 33.48Q78.5 33.68 77.98 34L77.22 32.76Q77.6 32.46 77.74 32.21Q77.88 31.96 77.88 31.66L77.88 17.9L85 17.9L85 27L79.26 27L79.26 31.72Q79.46 31.68 79.9 31.5Q80.34 31.32 80.87 31.08Q81.4 30.84 81.94 30.57Q82.48 30.3 82.9 30.08Q82.58 29.48 82.29 28.95Q82 28.42 81.74 28.06L82.96 27.52ZM93.22 18.32L93.22 29.66Q93.22 30.24 93.15 30.65Q93.08 31.06 92.86 31.33Q92.64 31.6 92.25 31.75Q91.86 31.9 91.22 31.96L89.96 32.1L89.42 30.62L91.04 30.46Q91.5 30.42 91.63 30.21Q91.76 30 91.76 29.44L91.76 19.82L88.16 19.82L88.16 34.88L86.72 34.88L86.72 18.32L93.22 18.32ZM79.26 19.22L79.26 21.74L83.6 21.74L83.6 19.22L79.26 19.22ZM83.6 25.68L83.6 23.02L79.26 23.02L79.26 25.68L83.6 25.68ZM100.78 20.7L103.04 20.7L103.04 22.06L100.78 22.06L100.78 25.56Q101.42 25.36 101.97 25.18Q102.52 25 102.92 24.84L102.98 25.58L103.02 26.22Q102.6 26.38 102.02 26.57Q101.44 26.76 100.78 26.98L100.78 32.46Q100.78 33.12 100.68 33.54Q100.58 33.96 100.31 34.22Q100.04 34.48 99.58 34.6Q99.12 34.72 98.4 34.78L97.46 34.86L97 33.42L98.04 33.34Q98.84 33.28 99.11 33.03Q99.38 32.78 99.38 32.04L99.38 27.44Q98.48 27.72 97.68 27.96Q96.88 28.2 96.32 28.36L95.88 26.94Q96.54 26.78 97.47 26.53Q98.4 26.28 99.38 25.98L99.38 22.06L96.56 22.06L96.56 20.7L99.38 20.7L99.38 17.06L100.78 17.12L100.78 20.7ZM110.18 30.92Q110.96 31.68 111.92 32.32Q112.88 32.96 114.1 33.64L113.24 34.9Q112.12 34.26 111.13 33.53Q110.14 32.8 109.28 31.94Q108.62 32.64 107.79 33.34Q106.96 34.04 105.92 34.78L105.02 33.74L105.02 34.8L103.58 34.8L103.58 18L112.5 18Q112.5 18.1 112.48 18.54Q112.46 18.98 112.44 19.5Q112.42 20.02 112.4 20.49Q112.38 20.96 112.36 21.12Q112.34 21.68 112.2 22.03Q112.06 22.38 111.69 22.6Q111.32 22.82 110.68 22.93Q110.04 23.04 109 23.12L107.76 23.22L107.28 21.9L108.8 21.82Q109.46 21.78 109.87 21.71Q110.28 21.64 110.5 21.52Q110.72 21.4 110.81 21.21Q110.9 21.02 110.92 20.74Q110.94 20.54 110.97 20.12Q111 19.7 111.02 19.38L105.02 19.38L105.02 24.36L112.7 24.36L112.7 25.7Q112.32 27.08 111.76 28.36Q111.2 29.64 110.18 30.92ZM105.02 33.68Q107.12 32.2 108.36 30.9Q107.62 29.98 107.03 28.89Q106.44 27.8 105.98 26.48L107.22 26Q107.64 27.22 108.13 28.16Q108.62 29.1 109.22 29.88Q109.98 28.88 110.42 27.86Q110.86 26.84 111.2 25.68L105.02 25.68L105.02 33.68ZM131.94 26.72L131.94 34.82L130.46 34.82L130.46 33.68L121.46 33.68L121.46 34.82L119.98 34.82L119.98 28.28Q119.1 28.6 118.18 28.91Q117.26 29.22 116.26 29.52L115.54 28.16Q118.12 27.44 120.27 26.6Q122.42 25.76 124.19 24.8Q125.96 23.84 127.38 22.74Q128.8 21.64 129.92 20.4L122.6 20.4Q122.34 20.68 122.08 20.93Q121.82 21.18 121.54 21.46Q121.9 21.7 122.29 22Q122.68 22.3 123.06 22.6Q123.44 22.9 123.78 23.18Q124.12 23.46 124.36 23.68L123.34 24.9Q123.1 24.6 122.75 24.27Q122.4 23.94 122 23.61Q121.6 23.28 121.19 22.97Q120.78 22.66 120.42 22.42Q119.8 22.94 119.14 23.42Q118.48 23.9 117.78 24.36L116.86 23.12Q117.86 22.5 118.86 21.71Q119.86 20.92 120.76 20.07Q121.66 19.22 122.43 18.36Q123.2 17.5 123.76 16.72L125.12 17.32Q124.54 18.16 123.86 19L131.9 19L131.9 20.4Q130.3 22.34 128.27 23.88Q126.24 25.42 123.6 26.72L131.94 26.72ZM130.46 32.32L130.46 28.14L121.46 28.14L121.46 32.32L130.46 32.32Z">
</path>
</g>
</svg>
