<svg xmlns="http://www.w3.org/2000/svg" xmlns:xlink="http://www.w3.org/1999/xlink" width="240.69998168945312" height="18.739990234375" viewBox="0 0 240.69998168945312 18.739990234375" fill="none">
<g >
<path     fill="#000000"  d="M-1.46627e-05 14.66Q2.21999 12.92 3.55999 11.7Q4.89999 10.48 5.63999 9.56Q6.37999 8.64 6.61999 7.91Q6.85999 7.18 6.85999 6.44Q6.85999 5.7 6.58999 5.22Q6.31998 4.74 5.89999 4.46Q5.47999 4.18 4.94999 4.08Q4.41999 3.98 3.91999 3.98Q3.25999 3.98 2.51999 4.05Q1.77999 4.12 0.959985 4.34L0.959985 2.8Q1.65999 2.64 2.44999 2.56Q3.23999 2.48 4.11999 2.48Q5.13999 2.48 5.95999 2.7Q6.77998 2.92 7.36998 3.4Q7.95998 3.88 8.26999 4.64Q8.57998 5.4 8.57998 6.46Q8.57998 7.4 8.29998 8.23Q8.01999 9.06 7.35999 9.95Q6.69999 10.84 5.57999 11.87Q4.45999 12.9 2.77999 14.24L1.97999 14.86L1.97999 15.04L9.13999 15.04L9.13999 16.56L-1.46627e-05 16.56L-1.46627e-05 14.66ZM16.1 16.76Q15.06 16.76 14.2 16.45Q13.34 16.14 12.72 15.34Q12.1 14.54 11.76 13.15Q11.42 11.76 11.42 9.62Q11.42 7.48 11.76 6.1Q12.1 4.72 12.72 3.91Q13.34 3.1 14.2 2.79Q15.06 2.48 16.1 2.48Q17.14 2.48 18.01 2.79Q18.88 3.1 19.5 3.91Q20.12 4.72 20.46 6.1Q20.8 7.48 20.8 9.62Q20.8 11.76 20.46 13.15Q20.12 14.54 19.5 15.34Q18.88 16.14 18.01 16.45Q17.14 16.76 16.1 16.76ZM16.1 15.26Q16.84 15.26 17.38 15.01Q17.92 14.76 18.28 14.12Q18.64 13.48 18.81 12.39Q18.98 11.3 18.98 9.62Q18.98 7.96 18.81 6.87Q18.64 5.78 18.28 5.14Q17.92 4.5 17.38 4.25Q16.84 4 16.1 4Q15.38 4 14.84 4.25Q14.3 4.5 13.95 5.14Q13.6 5.78 13.43 6.87Q13.26 7.96 13.26 9.62Q13.26 11.3 13.43 12.39Q13.6 13.48 13.95 14.12Q14.3 14.76 14.84 15.01Q15.38 15.26 16.1 15.26ZM23 14.66Q25.22 12.92 26.56 11.7Q27.9 10.48 28.64 9.56Q29.38 8.64 29.62 7.91Q29.86 7.18 29.86 6.44Q29.86 5.7 29.59 5.22Q29.32 4.74 28.9 4.46Q28.48 4.18 27.95 4.08Q27.42 3.98 26.92 3.98Q26.26 3.98 25.52 4.05Q24.78 4.12 23.96 4.34L23.96 2.8Q24.66 2.64 25.45 2.56Q26.24 2.48 27.12 2.48Q28.14 2.48 28.96 2.7Q29.78 2.92 30.37 3.4Q30.96 3.88 31.27 4.64Q31.58 5.4 31.58 6.46Q31.58 7.4 31.3 8.23Q31.02 9.06 30.36 9.95Q29.7 10.84 28.58 11.87Q27.46 12.9 25.78 14.24L24.98 14.86L24.98 15.04L32.14 15.04L32.14 16.56L23 16.56L23 14.66ZM43.94 13.14L42.3 13.14L42.3 16.56L40.62 16.56L40.62 13.14L34.06 13.14L34.06 11.2L40.14 2.68L42.3 2.68L42.3 11.62L43.94 11.62L43.94 13.14ZM40.62 11.62L40.62 4.52L40.5 4.52L35.58 11.5L35.58 11.62L40.62 11.62ZM63.22 13.8L56.08 13.8L56.08 18.24L54.62 18.24L54.62 13.8L45.66 13.8L45.66 12.34L48.62 12.34L48.62 7L54.62 7L54.62 3.58L49.94 3.58Q49.24 4.72 48.4 5.79Q47.56 6.86 46.58 7.9L45.58 6.7Q47.04 5.24 48.2 3.51Q49.36 1.78 50.1 -1.90735e-06L51.68 0.299999Q51.46 0.779997 51.24 1.23Q51.02 1.68 50.78 2.14L62.44 2.14L62.44 3.58L56.08 3.58L56.08 7L61.94 7L61.94 8.4L56.08 8.4L56.08 12.34L63.22 12.34L63.22 13.8ZM54.62 12.34L54.62 8.4L50.08 8.4L50.08 12.34L54.62 12.34ZM83.12 16.08L83.12 17.58L66.16 17.58L66.16 16.08L74 16.08L74 11.38L67.86 11.38L67.86 9.92L74 9.92L74 5.88L69.18 5.88Q68.7 6.9 68.15 7.83Q67.6 8.76 66.96 9.74L65.64 8.78Q66.88 7.02 67.84 5.23Q68.8 3.44 69.36 1.24L70.78 1.62Q70.56 2.38 70.33 3.06Q70.1 3.74 69.84 4.38L74 4.38L74 0.499998L75.58 0.559998L75.58 4.38L82.26 4.38L82.26 5.88L75.58 5.88L75.58 9.92L81.6 9.92L81.6 11.38L75.58 11.38L75.58 16.08L83.12 16.08ZM91.86 10.5Q91.5 10.68 90.98 10.9Q90.46 11.12 89.84 11.38L89.84 18.46L88.44 18.46L88.44 11.96Q87.58 12.3 86.72 12.63Q85.86 12.96 85.12 13.2L84.68 11.86Q85.52 11.6 86.49 11.26Q87.46 10.92 88.44 10.54L88.44 5.82L86.9 5.82Q86.74 6.84 86.56 7.8Q86.38 8.76 86.18 9.6L84.86 9.34Q85.08 8.66 85.26 7.77Q85.44 6.88 85.59 5.92Q85.74 4.96 85.84 3.99Q85.94 3.02 85.98 2.18L87.3 2.32Q87.26 2.84 87.21 3.38Q87.16 3.92 87.08 4.48L88.44 4.48L88.44 0.439999L89.84 0.499998L89.84 4.48L91.6 4.48L91.6 5.82L89.84 5.82L89.84 9.96Q90.32 9.76 90.74 9.57Q91.16 9.38 91.5 9.22L91.86 10.5ZM102.12 3.58Q102.12 3.74 102.09 4.28Q102.06 4.82 102.03 5.62Q102 6.42 101.96 7.39Q101.92 8.36 101.88 9.37Q101.84 10.38 101.8 11.36Q101.76 12.34 101.73 13.13Q101.7 13.92 101.68 14.47Q101.66 15.02 101.64 15.16Q101.58 15.88 101.39 16.35Q101.2 16.82 100.83 17.11Q100.46 17.4 99.91 17.55Q99.36 17.7 98.58 17.78L97.18 17.92L96.68 16.5L98.14 16.38Q98.72 16.32 99.1 16.23Q99.48 16.14 99.72 15.95Q99.96 15.76 100.07 15.42Q100.18 15.08 100.22 14.54Q100.22 14.34 100.26 13.61Q100.3 12.88 100.35 11.88Q100.4 10.88 100.45 9.75Q100.5 8.62 100.55 7.62Q100.6 6.62 100.63 5.9Q100.66 5.18 100.66 4.98L99.68 4.98Q99.4 6.94 99.02 8.62Q98.64 10.3 97.92 11.86Q97.2 13.42 96.03 14.93Q94.86 16.44 93.04 18.04L91.92 17Q93.76 15.4 94.86 14.01Q95.96 12.62 96.62 11.23Q97.28 9.84 97.64 8.33Q98 6.82 98.36 4.98L96.74 4.98Q96.34 7.56 95.03 9.95Q93.72 12.34 91.66 14.22L90.62 13.2Q91.5 12.48 92.25 11.66Q93 10.84 93.6 9.84Q94.2 8.84 94.67 7.64Q95.14 6.44 95.46 4.98L94.08 4.98Q93.68 5.96 93.23 6.89Q92.78 7.82 92.32 8.5L91 7.86Q91.46 7.2 91.93 6.29Q92.4 5.38 92.82 4.38Q93.24 3.38 93.57 2.36Q93.9 1.34 94.1 0.439999L95.5 0.819998Q95.46 1.12 95.22 1.87Q94.98 2.62 94.62 3.58L102.12 3.58ZM121.7 9.54L121.7 10.88Q120.5 12.24 119.09 13.36Q117.68 14.48 115.81 15.43Q113.94 16.38 111.46 17.19Q108.98 18 105.66 18.74L104.92 17.42Q108.12 16.72 110.47 16Q112.82 15.28 114.55 14.48Q116.28 13.68 117.5 12.79Q118.72 11.9 119.68 10.88L112.84 10.88Q112.54 11.12 112.23 11.36Q111.92 11.6 111.58 11.82Q111.92 12 112.3 12.22Q112.68 12.44 113.04 12.67Q113.4 12.9 113.73 13.12Q114.06 13.34 114.28 13.5L113.32 14.76Q113.06 14.5 112.69 14.21Q112.32 13.92 111.91 13.64Q111.5 13.36 111.09 13.09Q110.68 12.82 110.34 12.62Q108.7 13.64 106.62 14.64L105.78 13.46Q108.56 12.24 110.74 10.73Q112.92 9.22 114.32 7.72Q112.54 8.48 110.48 9.13Q108.42 9.78 105.94 10.3L105.24 9.04Q109.84 8.12 113.18 6.77Q116.52 5.42 118.86 3.58L111.64 3.58Q111.4 3.74 111.16 3.92Q110.92 4.1 110.66 4.26Q110.96 4.4 111.3 4.58Q111.64 4.76 111.97 4.94Q112.3 5.12 112.59 5.3Q112.88 5.48 113.1 5.62L112.18 6.8Q111.94 6.58 111.58 6.34Q111.22 6.1 110.83 5.86Q110.44 5.62 110.06 5.41Q109.68 5.2 109.38 5.06Q108.08 5.82 106.72 6.48L105.86 5.4Q107.04 4.86 108.13 4.23Q109.22 3.6 110.17 2.93Q111.12 2.26 111.93 1.58Q112.74 0.899998 113.34 0.239998L114.64 0.879998Q114.36 1.22 114.01 1.58Q113.66 1.94 113.26 2.28L121.02 2.28L121.02 3.58Q119.74 4.72 118.2 5.7Q116.66 6.68 114.76 7.54L115.74 8.08Q115.4 8.48 115.07 8.84Q114.74 9.2 114.38 9.54L121.7 9.54ZM142.4 14L137.16 14L137.16 18.54L135.64 18.54L135.64 14L130.54 14L130.54 12.56L135.64 12.56L135.64 9.56L131.76 9.56L131.76 8.16L135.64 8.16L135.64 5.26L131.56 5.26L131.56 3.82L134.14 3.82Q134.02 3.5 133.85 3.12Q133.68 2.74 133.49 2.37Q133.3 2 133.11 1.66Q132.92 1.32 132.78 1.1L133.98 0.479998Q134.14 0.719998 134.35 1.08Q134.56 1.44 134.77 1.83Q134.98 2.22 135.16 2.59Q135.34 2.96 135.44 3.22L134.42 3.82L136.92 3.82Q137.48 2.98 138 2.07Q138.52 1.16 138.86 0.479998L140.2 1.06Q139.84 1.7 139.43 2.41Q139.02 3.12 138.54 3.82L141.68 3.82L141.68 5.26L137.16 5.26L137.16 8.16L141.3 8.16L141.3 9.56L137.16 9.56L137.16 12.56L142.4 12.56L142.4 14ZM130.62 11.5Q130.32 10.94 129.83 10.29Q129.34 9.64 128.88 9.12L128.88 18.56L127.44 18.56L127.44 9.18Q127.04 10.26 126.53 11.27Q126.02 12.28 125.38 13.4L124.2 12.52Q124.64 11.86 125.09 11.04Q125.54 10.22 125.96 9.33Q126.38 8.44 126.74 7.52Q127.1 6.6 127.38 5.74L125.1 5.74L125.1 4.32L127.44 4.32L127.44 0.579997L128.88 0.639997L128.88 4.32L130.84 4.32L130.84 5.74L128.88 5.74L128.88 8.22L129.34 7.82Q129.58 8.06 129.88 8.38Q130.18 8.7 130.49 9.04Q130.8 9.38 131.08 9.73Q131.36 10.08 131.54 10.38L130.62 11.5ZM150.06 7.1Q149.64 6.34 149.26 5.8Q148.88 5.26 148.54 4.86L148.54 18.46L147.1 18.46L147.1 0.439999L148.54 0.499998L148.54 4.26L149.24 3.7Q149.42 3.92 149.68 4.24Q149.94 4.56 150.2 4.9Q150.46 5.24 150.7 5.57Q150.94 5.9 151.08 6.14L150.06 7.1ZM162.04 16.14L162.04 17.56L150.12 17.56L150.12 16.14L155.52 16.14L155.52 11.48L151.16 11.48L151.16 10.04L155.52 10.04L155.52 6L152.62 6Q152.4 6.88 152.14 7.72Q151.88 8.56 151.56 9.4L150.16 8.88Q150.82 7.24 151.31 5.35Q151.8 3.46 152.08 1.48L153.48 1.68Q153.28 3.12 153 4.46L155.52 4.46L155.52 0.519999L157.04 0.579997L157.04 4.46L161.5 4.46L161.5 6L157.04 6L157.04 10.04L161.04 10.04L161.04 11.48L157.04 11.48L157.04 16.14L162.04 16.14ZM143.8 10.92Q143.98 10.3 144.17 9.41Q144.36 8.52 144.52 7.55Q144.68 6.58 144.82 5.59Q144.96 4.6 145.06 3.78L146.4 3.96Q146.28 4.8 146.14 5.77Q146 6.74 145.84 7.71Q145.68 8.68 145.51 9.58Q145.34 10.48 145.18 11.18L143.8 10.92ZM179 1.9L179 18.34L177.5 18.34L177.5 17L168.2 17L168.2 18.34L166.7 18.34L166.7 1.9L179 1.9ZM168.2 3.3L168.2 8.48L177.5 8.48L177.5 3.3L168.2 3.3ZM177.5 15.54L177.5 9.9L168.2 9.9L168.2 15.54L177.5 15.54ZM187.68 7.64Q187.02 7.74 186.36 7.83Q185.7 7.92 185.18 7.98Q184.56 8.06 184 8.12L183.76 6.9Q183.86 6.88 184.01 6.83Q184.16 6.78 184.22 6.7Q184.7 6.1 185.16 5.31Q185.62 4.52 186.03 3.68Q186.44 2.84 186.77 2.04Q187.1 1.24 187.3 0.619998L188.6 1.12Q188.04 2.56 187.31 4Q186.58 5.44 185.9 6.56Q186.54 6.5 187.14 6.46Q187.74 6.42 188.44 6.32Q188.8 5.64 189.12 5.01Q189.44 4.38 189.7 3.86L190.92 4.54Q190.58 5.32 190.07 6.26Q189.56 7.2 188.97 8.14Q188.38 9.08 187.78 9.93Q187.18 10.78 186.66 11.38Q187.5 11.28 188.32 11.13Q189.14 10.98 189.94 10.82L190 12.08Q189.3 12.24 188.65 12.36Q188 12.48 187.32 12.6Q186.64 12.72 185.89 12.85Q185.14 12.98 184.24 13.16L184.02 11.78Q184.18 11.76 184.37 11.71Q184.56 11.66 184.66 11.56Q185.5 10.84 186.26 9.81Q187.02 8.78 187.68 7.64ZM201.18 14.32Q201.08 14.74 200.97 15.18Q200.86 15.62 200.7 16.1Q200.28 17.42 199.65 17.92Q199.02 18.42 198.28 18.42Q197.56 18.42 196.84 17.99Q196.12 17.56 195.36 16.34Q195.06 15.9 194.82 15.32Q193.86 15.96 192.82 16.53Q191.78 17.1 190.64 17.56L189.86 16.32Q191.12 15.86 192.23 15.28Q193.34 14.7 194.32 14.04Q194.04 13.18 193.81 12.16Q193.58 11.14 193.38 9.92L190.38 10.32L190.22 8.94L193.18 8.54Q193.1 8.02 193.04 7.45Q192.98 6.88 192.92 6.3L190.9 6.52L190.78 5.2L192.78 4.98L192.78 4.9Q192.74 4.4 192.7 3.68Q192.66 2.96 192.62 2.28Q192.58 1.48 192.54 0.659998L193.98 0.679998Q194.02 1.34 194.06 2.04Q194.1 2.64 194.14 3.38Q194.18 4.12 194.22 4.82L199.86 4.18L200 5.5L194.32 6.14L194.56 8.36L200.18 7.62L200.32 8.98L194.78 9.72Q195.1 11.7 195.56 13.16Q196.66 12.3 197.56 11.4Q198.46 10.5 199.22 9.58L200.22 10.48Q199.38 11.46 198.34 12.47Q197.3 13.48 196.04 14.44Q196.32 15.12 196.64 15.62Q197.08 16.32 197.52 16.59Q197.96 16.86 198.28 16.86Q198.64 16.86 198.94 16.55Q199.24 16.24 199.52 15.32Q199.62 15.04 199.73 14.49Q199.84 13.94 199.9 13.52L201.18 14.32ZM197.94 4.1Q197.7 3.78 197.38 3.42Q197.06 3.06 196.73 2.71Q196.4 2.36 196.05 2.06Q195.7 1.76 195.4 1.54L196.24 0.719998Q196.8 1.18 197.52 1.82Q198.24 2.46 198.78 3.08L197.94 4.1ZM190.26 15.6Q190.16 15.64 189.71 15.78Q189.26 15.92 188.62 16.09Q187.98 16.26 187.25 16.46Q186.52 16.66 185.83 16.83Q185.14 17 184.58 17.14Q184.02 17.28 183.76 17.34L183.46 15.96Q183.72 15.92 184.26 15.81Q184.8 15.7 185.46 15.53Q186.12 15.36 186.84 15.17Q187.56 14.98 188.21 14.8Q188.86 14.62 189.35 14.47Q189.84 14.32 190.06 14.24L190.26 15.6ZM221.08 16.08L221.08 17.52L203.28 17.52L203.28 16.08L210.9 16.08L210.9 0.499998L212.46 0.579997L212.46 6.12L219.76 6.12L219.76 7.58L212.46 7.58L212.46 16.08L221.08 16.08ZM240.7 14.44Q240.6 15.06 240.52 15.67Q240.44 16.28 240.28 16.86Q240.12 17.44 239.61 17.73Q239.1 18.02 237.88 18.08Q235.52 18.2 233.18 18.08Q231.9 18.02 231.33 17.48Q230.76 16.94 230.76 15.64L230.76 7.3L230.36 7.9L229.34 7Q230.38 5.5 231.21 3.79Q232.04 2.08 232.56 0.379997L234 0.639997Q233.8 1.2 233.6 1.73Q233.4 2.26 233.18 2.78L239.36 2.78Q239.36 2.98 239.35 3.68Q239.34 4.38 239.33 5.33Q239.32 6.28 239.31 7.36Q239.3 8.44 239.28 9.4Q239.26 10.36 239.25 11.08Q239.24 11.8 239.24 12.02Q239.22 12.72 239.08 13.15Q238.94 13.58 238.64 13.82Q238.34 14.06 237.86 14.18Q237.38 14.3 236.66 14.38L235.76 14.48L235.26 13.14L236.32 13.04Q236.82 13 237.13 12.94Q237.44 12.88 237.62 12.75Q237.8 12.62 237.86 12.36Q237.92 12.1 237.94 11.66Q237.94 11.52 237.95 10.95Q237.96 10.38 237.97 9.61Q237.98 8.84 237.99 7.95Q238 7.06 238.01 6.28Q238.02 5.5 238.03 4.91Q238.04 4.32 238.04 4.14L232.56 4.14Q232.24 4.8 231.9 5.42Q231.56 6.04 231.18 6.64L236.08 6.64L236.08 12.54L232.04 12.54L232.04 15.2Q232.04 16.08 232.36 16.38Q232.68 16.68 233.54 16.72Q235.64 16.84 237.74 16.72Q238.5 16.68 238.8 16.52Q239.1 16.36 239.2 15.9Q239.4 14.98 239.44 14L240.7 14.44ZM230.2 15.54L230.26 16.24Q229.58 16.42 228.59 16.61Q227.6 16.8 226.56 16.97Q225.52 17.14 224.54 17.29Q223.56 17.44 222.9 17.52L222.68 16.16Q222.92 16.14 223.21 16.1Q223.5 16.06 223.84 16.02L223.84 9.16L225.08 9.2L225.08 15.84L226.58 15.6L226.58 7.76L224.1 7.76L224.1 1.74L229.26 1.74L229.26 7.76L227.86 7.76L227.86 10.84L229.98 10.84L229.98 12.18L227.86 12.18L227.86 15.36Q228.52 15.22 229.11 15.1Q229.7 14.98 230.16 14.86L230.2 15.54ZM225.36 6.38L227.98 6.38L227.98 3.1L225.36 3.1L225.36 6.38ZM232.04 7.96L232.04 11.2L234.8 11.2L234.8 7.96L232.04 7.96Z">
</path>
</g>
</svg>
