<svg xmlns="http://www.w3.org/2000/svg" xmlns:xlink="http://www.w3.org/1999/xlink" width="402.0002899169922" height="139" viewBox="0 0 402.0002899169922 139" fill="none">
<rect  x="0.0002899169921875" y="0" width="402" height="139" rx="26"    fill="#FAEBEB" >
</rect>
<rect  x="42.00030517578125" y="6" width="48" height="19" rx="9.5"    fill="#FF0303" >
</rect>
<rect  x="108.00028991699219" y="7" width="46" height="18" rx="9"    fill="#FF0303" >
</rect>
<g >
<path     fill="#FFFFFF"  d="M53.6203 13.06L56.0703 13.06L56.0703 14.02L59.3203 14.02L59.3203 11.62L53.4303 11.62L53.4303 10.42L61.2203 10.42L61.2203 15.22L56.0703 15.22L56.0703 17.5L61.6303 17.32L61.6803 18.55L53.6203 18.8L53.6203 13.06ZM68.5003 18.44L68.5003 18.92L66.6003 18.92L66.6003 10.4L71.6203 10.4L71.6203 13.56L69.3303 13.4L69.4003 12.3L70.2203 12.36L70.2203 11.6L68.5003 11.6L68.5003 13.83L71.7403 13.83L71.7403 15.03L70.6403 16.73L72.0303 18L71.1903 18.85L69.9803 17.75L69.2603 18.87L68.5003 18.44ZM63.2403 18.7L63.1903 17.52L63.8803 17.58L63.8803 16.1L63.3203 16.33L62.8703 15.09L63.8803 14.68L63.8803 12.79L62.9303 12.79L62.9303 11.59L63.8803 11.59L63.8803 10.17L65.5803 10.17L65.5803 11.59L66.3003 11.59L66.3003 12.79L65.5803 12.79L65.5803 13.97L66.0203 13.79L66.4603 15.03L65.5803 15.4L65.5803 18.91L63.2403 18.7ZM69.0603 15.29L69.6903 15.87L70.3303 14.93L68.5003 14.93L68.5003 15.85L69.0603 15.29ZM68.5003 16.39L68.5003 17.63L69.0203 16.86L68.5003 16.39ZM73.0003 12.89L75.8103 9.94L77.4403 11.29L77.4203 11.31L81.0503 11.31L81.0503 12.35L77.9803 14.82L81.5003 14.82L81.5003 18.74L75.3003 18.92L75.3003 16.98L74.3003 17.78L73.3203 16.55L75.4803 14.84L75.0103 14.41L76.4303 13.01L77.0803 13.57L78.4103 12.51L76.2803 12.51L74.6203 14.27L73.0003 12.89ZM77.8003 17.67L79.5003 17.62L79.5003 16.02L77.8003 16.02L77.8003 17.67Z">
</path>
</g>
<g >
<path     fill="#FFFFFF"  d="M121.248 12.01L126.618 12.01L126.618 19.01L121.248 18.78L121.248 17.49L124.348 17.62L124.348 16.05L121.248 16.05L121.248 14.85L124.348 14.85L124.348 13.21L121.248 13.21L121.248 12.01ZM133.118 18.03L132.008 19.01L130.058 16.85L129.588 17.1L129.588 19.01L127.318 19.01L127.318 12.01L129.588 12.01L129.588 15.42L132.258 14.01L132.948 15.33L131.418 16.13L133.118 18.03ZM140.498 14.01L140.498 19.01L139.008 19.01L139.008 15.21L138.188 15.21L138.188 19.01L136.698 19.01L136.698 15.21L135.688 15.21L135.688 19.01L133.418 19.01L133.418 14.01L140.498 14.01Z">
</path>
</g>
<g >
<path     fill="#000000"  d="M26.8914 30.614L34.4094 30.614L34.4094 36.27L28.9774 36.27L28.9774 38.524L34.4094 38.286L34.4094 40.092L26.8914 40.414L26.8914 34.59L31.2314 34.59L31.2314 32.294L28.9774 32.294L28.9774 32.938L26.8914 32.938L26.8914 30.614ZM35.8094 30.936L43.3414 30.614L43.3414 40.414L35.8094 40.414L35.8094 30.936ZM38.9874 38.734L41.2554 38.734L41.2554 32.378L38.9874 32.476L38.9874 38.734ZM44.7414 30.614L52.2594 30.614L52.2594 36.27L46.8274 36.27L46.8274 38.524L52.2594 38.286L52.2594 40.092L44.7414 40.414L44.7414 34.59L49.0814 34.59L49.0814 32.294L46.8274 32.294L46.8274 32.938L44.7414 32.938L44.7414 30.614ZM60.2814 35.584L61.2754 35.584L61.2754 37.264L60.2814 37.264L60.2814 40.414L58.1954 40.414L58.1954 37.264L53.6594 37.264L53.6594 35.584L54.5554 30.614L57.2994 31.104L56.4874 35.584L58.1954 35.584L58.1954 30.614L60.2814 30.614L60.2814 35.584ZM73.9174 35.052L69.6614 34.94L69.5914 33.582L71.3694 33.624L71.3694 32.434L67.5474 32.434L67.5474 35.514L74.6594 35.416L74.6594 41.716L70.2214 41.59L70.1514 40.12L72.0274 40.176L72.0274 36.928L64.0894 37.054L64.0894 30.852L67.2814 30.852L67.7154 29.116L70.6554 29.76L70.3754 30.852L73.9174 30.852L73.9174 35.052ZM63.0814 37.852L71.6074 37.852L71.6074 39.434L63.0814 39.434L63.0814 37.852ZM77.8374 32.7L76.7314 31.706L80.3714 28.752L81.7714 29.956L81.7154 30.012L86.8394 29.942L87.0354 30.852L86.6154 31.412L88.2254 31.412L88.2254 35.626L77.8374 35.724L77.8374 32.7ZM78.2994 37.432L87.9734 37.432L87.9734 41.478L78.2994 41.604L78.2994 37.432ZM76.9274 36.102L88.9114 35.934L88.9394 37.068L76.9554 37.222L76.9274 36.102ZM80.9874 39.042L85.9854 39.042L85.9854 38.622L80.9874 38.622L80.9874 39.042ZM85.9854 40.54L85.9854 40.148L80.9874 40.148L80.9874 40.568L85.9854 40.54ZM86.1254 34.086L84.1514 34.086L84.1514 34.646L86.1254 34.618L86.1254 34.086ZM80.3574 31.104L79.9934 31.412L83.0734 31.412L83.3674 31.034L80.3574 31.104ZM84.1514 32.56L84.1514 33.078L86.1254 33.078L86.1254 32.56L84.1514 32.56ZM80.7074 34.674L82.3454 34.66L82.3454 34.086L80.7074 34.086L80.7074 34.674ZM80.7074 33.078L82.3454 33.078L82.3454 32.56L80.7074 32.56L80.7074 33.078ZM90.5214 39.49L93.8674 33.568L91.0114 33.568L90.9274 31.916L95.3234 31.902L95.3234 29.312L98.7254 29.312L98.7254 31.902L102.617 31.888L102.715 33.54L98.7254 33.554L98.7254 35.318L100.685 34.422L103.387 39.462L101.371 40.414L98.7254 35.5L98.7254 41.8L95.3234 41.8L95.3234 36.69L93.1254 40.834L90.5214 39.49ZM105.053 30.698L109.351 30.614L109.113 29.55L112.249 29.172L112.571 30.558L116.757 30.474L116.799 32.196L115.609 32.224L115.903 32.784L112.795 34.394L116.701 36.088L115.987 37.74L115.119 37.348L115.119 41.632L112.585 41.632L112.585 36.774L113.845 36.774L110.821 35.416L108.343 36.718L110.177 37.124L108.945 41.66L106.033 40.96L107.055 37.376L105.851 38.006L104.717 36.256L108.483 34.366L106.845 33.624L107.391 32.378L105.081 32.42L105.053 30.698ZM108.119 32.364L110.457 33.386L112.655 32.28L108.119 32.364ZM130.757 41.66L125.913 41.422L125.843 39.756L127.677 39.854L127.677 36.452L120.327 36.774L120.173 35.052L121.153 32.084L124.233 32.7L123.463 34.898L126.935 34.758L127.341 31.44L119.809 31.44L119.809 29.76L130.085 29.76L129.581 34.646L130.757 34.59L130.757 41.66ZM119.151 37.614L126.781 37.614L126.781 39.294L119.151 39.294L119.151 37.614ZM132.717 31.636L133.977 31.636L133.977 29.382L136.357 29.382L136.357 31.636L137.491 31.636L137.491 33.358L136.357 33.358L136.357 34.982L137.225 34.618L137.785 36.284L136.357 36.872L136.357 41.604L133.137 41.31L133.067 39.658L133.977 39.742L133.977 37.838L133.095 38.188L132.521 36.536L133.977 35.948L133.977 33.358L132.717 33.358L132.717 31.636ZM137.827 31.51L140.011 31.51L139.647 29.984L142.405 29.382L142.923 31.51L144.827 31.51L144.827 33.218L137.827 33.218L137.827 31.51ZM137.561 39.672L145.177 39.42L145.247 41.142L137.631 41.408L137.561 39.672ZM137.981 34.59L140.137 33.988L141.341 38.622L139.157 39.266L137.981 34.59ZM141.691 39.07L142.741 33.96L144.659 34.31L143.609 39.42L141.691 39.07ZM152.289 40.022L153.913 35.318L151.953 34.59L153.689 29.452L155.635 30.054L157.273 29.438L159.261 35.08L157.609 35.738L155.747 30.502L154.319 34.716L156.447 35.402L154.963 39.742L156.881 39.574L156.195 37.334L157.987 36.718L159.331 41.072L157.539 41.674L157.343 41.044L152.373 41.492L152.289 40.022ZM146.367 39.266L147.907 33.386L146.899 33.386L146.899 31.706L148.593 31.706L148.593 29.214L150.889 29.172L150.889 31.706L152.051 31.706L152.051 33.386L150.889 33.386L150.889 34.394L151.673 34.114L152.611 37.362L151.253 37.81L150.889 36.536L150.889 41.772L148.593 41.8L148.593 37.432L148.033 39.714L146.367 39.266ZM165.281 32.378L166.639 32.266L166.163 29.62L168.963 29.2L169.467 32.014L172.491 31.748L172.617 33.428L169.761 33.666L169.943 34.646L172.827 34.352L172.981 36.032L170.237 36.298L170.419 37.264L172.645 36.396L173.303 37.964L170.727 38.972L170.825 39.504L172.897 39L173.303 40.694L168.389 41.716L168.067 39.994L166.261 40.694L165.603 39.14L167.759 38.3L167.437 36.564L165.435 36.76L165.281 35.094L167.129 34.912L166.947 33.89L165.407 34.016L165.281 32.378ZM160.941 37.054L162.033 34.814L160.521 34.212L162.775 29.256L165.183 30.208L163.769 33.246L165.309 33.806L163.643 37.054L165.169 37.054L165.169 38.734L160.941 38.734L160.941 37.054ZM160.661 39.882L165.351 39.588L165.351 41.254L160.661 41.548L160.661 39.882ZM169.551 29.97L171.133 28.976L172.337 30.698L170.755 31.692L169.551 29.97ZM174.815 39.7L178.595 39.574L178.595 29.816L182.123 29.816L182.123 33.526L186.715 33.526L186.715 35.22L182.123 35.22L182.123 39.462L186.925 39.294L186.995 40.96L174.885 41.366L174.815 39.7ZM188.843 39.938L189.151 39.882L189.151 35.752L190.551 35.752L190.551 39.644L191.041 39.56L191.041 34.8L188.997 34.842L188.997 29.788L193.785 29.788L193.785 32.588L195.087 29.144L197.523 29.984L197.271 30.642L200.757 30.488L200.757 38.818L198.363 38.748L198.293 37.894L196.571 37.894L196.571 39.784L201.205 39.784L201.205 41.506L194.457 41.506L194.457 33.904L193.785 33.68L193.785 34.73L193.057 34.744L193.057 36.172L194.051 36.172L194.051 37.782L193.057 37.782L193.057 39.21L193.967 39.042L194.177 40.806L189.067 41.73L188.843 39.938ZM196.641 32.322L196.249 33.344L198.559 33.344L198.559 37.376L199.063 37.39L199.063 32.238L196.641 32.322ZM192.245 31.188L191.069 31.188L191.069 33.344L192.245 33.33L192.245 31.188ZM196.571 36.438L197.383 36.438L197.383 34.842L196.571 34.842L196.571 36.438Z">
</path>
</g>
<g >
<path     fill="#A6A6A6"  d="M33.3452 53.88L32.6752 53.88L32.6752 52.3L36.3652 52.3Q36.2952 52.09 36.2252 51.885Q36.1552 51.68 36.1052 51.54L36.7852 51.41Q36.8452 51.55 36.9352 51.805Q37.0252 52.06 37.1052 52.3L40.5452 52.3L40.5452 53.88L39.8752 53.88L39.8752 52.87L33.3452 52.87L33.3452 53.88ZM38.3952 56.38Q38.8552 56.82 39.5902 57.175Q40.3252 57.53 41.2052 57.8L40.9152 58.43Q39.9652 58.09 39.2052 57.65L39.2052 59.03L38.5252 59.03L38.5252 57.59L34.6752 57.59L34.6752 59.04L34.0152 59.04L34.0152 57.67Q33.6352 57.9 33.2252 58.11Q32.8152 58.32 32.3752 58.51L32.0252 57.92Q32.4352 57.76 32.8352 57.58Q33.2352 57.4 33.5952 57.205Q33.9552 57.01 34.2602 56.8Q34.5652 56.59 34.7952 56.38L32.4352 56.38L32.4352 55.84L34.9852 55.84L34.9852 55.28L33.3952 55.28L33.3952 54.75L34.9852 54.75L34.9852 54.22L33.5352 54.22L33.5352 53.68L34.9852 53.68L34.9852 53.24L35.6852 53.27L35.6852 53.68L37.5552 53.68L37.5552 53.24L38.2452 53.27L38.2452 53.68L39.6852 53.68L39.6852 54.22L38.2452 54.22L38.2452 54.75L39.8452 54.75L39.8452 55.28L38.2452 55.28L38.2452 55.84L40.7752 55.84L40.7752 56.38L38.3952 56.38ZM35.6852 54.75L37.5552 54.75L37.5552 54.22L35.6852 54.22L35.6852 54.75ZM35.6852 55.84L37.5552 55.84L37.5552 55.28L35.6852 55.28L35.6852 55.84ZM38.2852 57.04Q37.8952 56.74 37.5852 56.38L35.6152 56.38Q35.3152 56.73 34.9152 57.04L38.2852 57.04ZM37.0152 57.94Q36.9452 58.44 36.7602 58.82Q36.5752 59.2 36.1352 59.5Q35.6952 59.8 34.9402 60.045Q34.1852 60.29 32.9752 60.54L32.6952 59.92Q33.7952 59.73 34.4802 59.515Q35.1652 59.3 35.5502 59.05Q35.9352 58.8 36.0852 58.515Q36.2352 58.23 36.2752 57.89L37.0152 57.94ZM37.0152 58.77Q37.3752 58.87 37.8102 59.01Q38.2452 59.15 38.6952 59.3Q39.1452 59.45 39.5802 59.605Q40.0152 59.76 40.3752 59.89L40.1552 60.58Q39.8052 60.42 39.3602 60.24Q38.9152 60.06 38.4502 59.885Q37.9852 59.71 37.5452 59.56Q37.1052 59.41 36.7652 59.32L37.0152 58.77ZM50.7952 57.58L49.9352 57.58L49.9352 58.85L46.8452 58.85L46.8452 59.33Q46.8452 59.62 46.7852 59.81Q46.7252 60 46.5852 60.115Q46.4452 60.23 46.2152 60.285Q45.9852 60.34 45.6352 60.36L44.9952 60.41L44.7252 59.71Q44.8552 59.71 45.0052 59.7Q45.1352 59.69 45.2952 59.69Q45.4552 59.69 45.6252 59.67Q45.8052 59.66 45.9052 59.645Q46.0052 59.63 46.0602 59.58Q46.1152 59.53 46.1252 59.435Q46.1352 59.34 46.1352 59.16L46.1352 58.85L42.7752 58.85L42.7752 58.27L46.1352 58.27L46.1352 57.58L42.0752 57.58L42.0752 56.99L46.1352 56.99L46.1352 56.36L42.7752 56.36L42.7752 55.78L46.1352 55.78L46.1352 55.18L43.2252 55.18L43.2252 53.41L46.1352 53.41L46.1352 52.79L42.0952 52.79L42.0952 52.17L46.1352 52.17L46.1352 51.46L46.8452 51.5L46.8452 52.17L50.7752 52.17L50.7752 52.79L46.8452 52.79L46.8452 53.41L49.7252 53.41L49.7252 55.18L46.8452 55.18L46.8452 55.78L49.9352 55.78L49.9352 56.99L50.7952 56.99L50.7952 57.58ZM46.1352 54.63L46.1352 53.96L43.9452 53.96L43.9452 54.63L46.1352 54.63ZM46.8452 53.96L46.8452 54.63L49.0052 54.63L49.0052 53.96L46.8452 53.96ZM46.8452 56.99L49.2352 56.99L49.2352 56.36L46.8452 56.36L46.8452 56.99ZM49.2352 57.58L46.8452 57.58L46.8452 58.27L49.2352 58.27L49.2352 57.58ZM59.4152 52.17L59.4152 60.39L58.6652 60.39L58.6652 59.72L54.0152 59.72L54.0152 60.39L53.2652 60.39L53.2652 52.17L59.4152 52.17ZM54.0152 52.87L54.0152 55.46L58.6652 55.46L58.6652 52.87L54.0152 52.87ZM58.6652 58.99L58.6652 56.17L54.0152 56.17L54.0152 58.99L58.6652 58.99ZM66.5752 57.98L61.6252 57.98L61.6252 57.35L62.7252 57.35L62.7252 53.18L62.0152 53.18L62.0152 52.55L62.7252 52.55L62.7252 51.55L63.3952 51.58L63.3952 52.55L65.1352 52.55L65.1352 51.55L65.8052 51.58L65.8052 52.55L66.5652 52.55L66.5652 53.18L65.8052 53.18L65.8052 57.35L66.5752 57.35L66.5752 57.98ZM70.0252 52.03L70.0252 59.3Q70.0252 59.59 69.9802 59.76Q69.9352 59.93 69.8302 60.03Q69.7253 60.13 69.5452 60.175Q69.3652 60.22 69.0853 60.26L68.5752 60.33L68.3152 59.67L68.8552 59.61Q69.0252 59.59 69.1202 59.565Q69.2152 59.54 69.2652 59.49Q69.3152 59.44 69.3302 59.34Q69.3452 59.24 69.3452 59.07L69.3452 57.46L67.6252 57.46Q67.5853 57.96 67.5002 58.355Q67.4152 58.75 67.2652 59.105Q67.1152 59.46 66.8902 59.81Q66.6652 60.16 66.3452 60.56L65.7052 60.16Q66.0152 59.8 66.2352 59.49Q66.4552 59.18 66.6003 58.875Q66.7452 58.57 66.8252 58.24Q66.9052 57.91 66.9453 57.5Q66.9852 57.09 66.9952 56.575Q67.0052 56.06 67.0052 55.38L67.0052 52.03L70.0252 52.03ZM67.6752 52.71L67.6752 54.41L69.3452 54.41L69.3452 52.71L67.6752 52.71ZM63.3952 53.18L63.3952 54.13L65.1352 54.13L65.1352 53.18L63.3952 53.18ZM63.3952 55.71L65.1352 55.71L65.1352 54.75L63.3952 54.75L63.3952 55.71ZM69.3452 56.78L69.3452 55.08L67.6752 55.08L67.6752 55.73Q67.6752 56.02 67.6752 56.285Q67.6752 56.55 67.6652 56.78L69.3452 56.78ZM63.3952 57.35L65.1352 57.35L65.1352 56.32L63.3952 56.32L63.3952 57.35ZM64.9652 58.13Q65.2952 58.41 65.5752 58.675Q65.8552 58.94 66.1352 59.23L65.6953 59.77Q65.5952 59.65 65.4453 59.49Q65.2952 59.33 65.1302 59.165Q64.9652 59 64.7952 58.85Q64.6252 58.7 64.4952 58.59L64.9652 58.13ZM61.7952 59.92Q61.9852 59.76 62.2002 59.56Q62.4152 59.36 62.6252 59.135Q62.8352 58.91 63.0302 58.665Q63.2252 58.42 63.3752 58.16L63.9252 58.58Q63.5652 59.09 63.1552 59.555Q62.7452 60.02 62.3652 60.41L61.7952 59.92ZM73.6552 55.3Q73.3053 55.3 73.1602 55.19Q73.0152 55.08 73.0152 54.67Q73.0152 54.26 73.1602 54.15Q73.3053 54.04 73.6552 54.04Q73.9952 54.04 74.1452 54.15Q74.2952 54.26 74.2952 54.67Q74.2952 55.08 74.1452 55.19Q73.9952 55.3 73.6552 55.3ZM73.6552 59.56Q73.3053 59.56 73.1602 59.45Q73.0152 59.34 73.0152 58.92Q73.0152 58.52 73.1602 58.41Q73.3053 58.3 73.6552 58.3Q73.9952 58.3 74.1452 58.41Q74.2952 58.52 74.2952 58.92Q74.2952 59.34 74.1452 59.45Q73.9952 59.56 73.6552 59.56ZM81.4753 58.55Q82.5853 57.68 83.2552 57.07Q83.9252 56.46 84.2952 56Q84.6652 55.54 84.7852 55.175Q84.9052 54.81 84.9052 54.44Q84.9052 54.07 84.7702 53.83Q84.6352 53.59 84.4252 53.45Q84.2152 53.31 83.9502 53.26Q83.6852 53.21 83.4352 53.21Q83.1052 53.21 82.7352 53.245Q82.3652 53.28 81.9552 53.39L81.9552 52.62Q82.3053 52.54 82.7002 52.5Q83.0952 52.46 83.5352 52.46Q84.0452 52.46 84.4552 52.57Q84.8652 52.68 85.1602 52.92Q85.4552 53.16 85.6102 53.54Q85.7652 53.92 85.7652 54.45Q85.7652 54.92 85.6252 55.335Q85.4852 55.75 85.1552 56.195Q84.8252 56.64 84.2652 57.155Q83.7052 57.67 82.8652 58.34L82.4652 58.65L82.4652 58.74L86.0452 58.74L86.0452 59.5L81.4753 59.5L81.4753 58.55ZM89.5252 59.6Q89.0052 59.6 88.5752 59.445Q88.1452 59.29 87.8353 58.89Q87.5252 58.49 87.3552 57.795Q87.1852 57.1 87.1852 56.03Q87.1852 54.96 87.3552 54.27Q87.5252 53.58 87.8353 53.175Q88.1452 52.77 88.5752 52.615Q89.0052 52.46 89.5252 52.46Q90.0452 52.46 90.4802 52.615Q90.9152 52.77 91.2253 53.175Q91.5352 53.58 91.7052 54.27Q91.8752 54.96 91.8752 56.03Q91.8752 57.1 91.7052 57.795Q91.5352 58.49 91.2253 58.89Q90.9152 59.29 90.4802 59.445Q90.0452 59.6 89.5252 59.6ZM89.5252 58.85Q89.8952 58.85 90.1652 58.725Q90.4352 58.6 90.6152 58.28Q90.7952 57.96 90.8802 57.415Q90.9652 56.87 90.9652 56.03Q90.9652 55.2 90.8802 54.655Q90.7952 54.11 90.6152 53.79Q90.4352 53.47 90.1652 53.345Q89.8952 53.22 89.5252 53.22Q89.1652 53.22 88.8952 53.345Q88.6252 53.47 88.4502 53.79Q88.2752 54.11 88.1902 54.655Q88.1052 55.2 88.1052 56.03Q88.1052 56.87 88.1902 57.415Q88.2752 57.96 88.4502 58.28Q88.6252 58.6 88.8952 58.725Q89.1652 58.85 89.5252 58.85ZM92.9753 58.55Q94.0853 57.68 94.7552 57.07Q95.4252 56.46 95.7952 56Q96.1652 55.54 96.2852 55.175Q96.4052 54.81 96.4052 54.44Q96.4052 54.07 96.2702 53.83Q96.1352 53.59 95.9252 53.45Q95.7152 53.31 95.4502 53.26Q95.1852 53.21 94.9352 53.21Q94.6052 53.21 94.2352 53.245Q93.8652 53.28 93.4552 53.39L93.4552 52.62Q93.8053 52.54 94.2002 52.5Q94.5952 52.46 95.0352 52.46Q95.5452 52.46 95.9552 52.57Q96.3652 52.68 96.6602 52.92Q96.9552 53.16 97.1102 53.54Q97.2652 53.92 97.2652 54.45Q97.2652 54.92 97.1252 55.335Q96.9852 55.75 96.6552 56.195Q96.3252 56.64 95.7652 57.155Q95.2052 57.67 94.3652 58.34L93.9652 58.65L93.9652 58.74L97.5452 58.74L97.5452 59.5L92.9753 59.5L92.9753 58.55ZM103.445 57.79L102.625 57.79L102.625 59.5L101.785 59.5L101.785 57.79L98.5052 57.79L98.5052 56.82L101.545 52.56L102.625 52.56L102.625 57.03L103.445 57.03L103.445 57.79ZM101.785 57.03L101.785 53.48L101.725 53.48L99.2652 56.97L99.2652 57.03L101.785 57.03ZM105.415 59.56Q105.065 59.56 104.92 59.45Q104.775 59.34 104.775 58.92Q104.775 58.52 104.92 58.41Q105.065 58.3 105.415 58.3Q105.755 58.3 105.905 58.41Q106.055 58.52 106.055 58.92Q106.055 59.34 105.905 59.45Q105.755 59.56 105.415 59.56ZM112.215 57.79L111.395 57.79L111.395 59.5L110.555 59.5L110.555 57.79L107.275 57.79L107.275 56.82L110.315 52.56L111.395 52.56L111.395 57.03L112.215 57.03L112.215 57.79ZM110.555 57.03L110.555 53.48L110.495 53.48L108.035 56.97L108.035 57.03L110.555 57.03ZM114.185 59.56Q113.835 59.56 113.69 59.45Q113.545 59.34 113.545 58.92Q113.545 58.52 113.69 58.41Q113.835 58.3 114.185 58.3Q114.525 58.3 114.675 58.41Q114.825 58.52 114.825 58.92Q114.825 59.34 114.675 59.45Q114.525 59.56 114.185 59.56ZM116.265 58.55Q117.375 57.68 118.045 57.07Q118.715 56.46 119.085 56Q119.455 55.54 119.575 55.175Q119.695 54.81 119.695 54.44Q119.695 54.07 119.56 53.83Q119.425 53.59 119.215 53.45Q119.005 53.31 118.74 53.26Q118.475 53.21 118.225 53.21Q117.895 53.21 117.525 53.245Q117.155 53.28 116.745 53.39L116.745 52.62Q117.095 52.54 117.49 52.5Q117.885 52.46 118.325 52.46Q118.835 52.46 119.245 52.57Q119.655 52.68 119.95 52.92Q120.245 53.16 120.4 53.54Q120.555 53.92 120.555 54.45Q120.555 54.92 120.415 55.335Q120.275 55.75 119.945 56.195Q119.615 56.64 119.055 57.155Q118.495 57.67 117.655 58.34L117.255 58.65L117.255 58.74L120.835 58.74L120.835 59.5L116.265 59.5L116.265 58.55ZM123.735 59.6Q123.315 59.6 122.98 59.57Q122.645 59.54 122.305 59.47L122.305 58.68Q122.695 58.78 123.01 58.815Q123.325 58.85 123.725 58.85Q124.155 58.85 124.51 58.775Q124.865 58.7 125.115 58.525Q125.365 58.35 125.505 58.065Q125.645 57.78 125.645 57.35Q125.645 56.57 125.19 56.215Q124.735 55.86 123.655 55.86Q123.375 55.86 123.015 55.905Q122.655 55.95 122.325 56.01L122.795 52.56L126.035 52.56L126.035 53.34L123.475 53.34L123.185 55.24Q123.375 55.21 123.565 55.195Q123.755 55.18 123.995 55.18Q125.205 55.18 125.855 55.68Q126.505 56.18 126.505 57.29Q126.505 57.91 126.31 58.345Q126.115 58.78 125.755 59.06Q125.395 59.34 124.88 59.47Q124.365 59.6 123.735 59.6ZM127.915 56.07L130.865 56.07L130.865 56.79L127.915 56.79L127.915 56.07ZM132.165 58.55Q133.275 57.68 133.945 57.07Q134.615 56.46 134.985 56Q135.355 55.54 135.475 55.175Q135.595 54.81 135.595 54.44Q135.595 54.07 135.46 53.83Q135.325 53.59 135.115 53.45Q134.905 53.31 134.64 53.26Q134.375 53.21 134.125 53.21Q133.795 53.21 133.425 53.245Q133.055 53.28 132.645 53.39L132.645 52.62Q132.995 52.54 133.39 52.5Q133.785 52.46 134.225 52.46Q134.735 52.46 135.145 52.57Q135.555 52.68 135.85 52.92Q136.145 53.16 136.3 53.54Q136.455 53.92 136.455 54.45Q136.455 54.92 136.315 55.335Q136.175 55.75 135.845 56.195Q135.515 56.64 134.955 57.155Q134.395 57.67 133.555 58.34L133.155 58.65L133.155 58.74L136.735 58.74L136.735 59.5L132.165 59.5L132.165 58.55ZM140.215 59.6Q139.695 59.6 139.265 59.445Q138.835 59.29 138.525 58.89Q138.215 58.49 138.045 57.795Q137.875 57.1 137.875 56.03Q137.875 54.96 138.045 54.27Q138.215 53.58 138.525 53.175Q138.835 52.77 139.265 52.615Q139.695 52.46 140.215 52.46Q140.735 52.46 141.17 52.615Q141.605 52.77 141.915 53.175Q142.225 53.58 142.395 54.27Q142.565 54.96 142.565 56.03Q142.565 57.1 142.395 57.795Q142.225 58.49 141.915 58.89Q141.605 59.29 141.17 59.445Q140.735 59.6 140.215 59.6ZM140.215 58.85Q140.585 58.85 140.855 58.725Q141.125 58.6 141.305 58.28Q141.485 57.96 141.57 57.415Q141.655 56.87 141.655 56.03Q141.655 55.2 141.57 54.655Q141.485 54.11 141.305 53.79Q141.125 53.47 140.855 53.345Q140.585 53.22 140.215 53.22Q139.855 53.22 139.585 53.345Q139.315 53.47 139.14 53.79Q138.965 54.11 138.88 54.655Q138.795 55.2 138.795 56.03Q138.795 56.87 138.88 57.415Q138.965 57.96 139.14 58.28Q139.315 58.6 139.585 58.725Q139.855 58.85 140.215 58.85ZM143.665 58.55Q144.775 57.68 145.445 57.07Q146.115 56.46 146.485 56Q146.855 55.54 146.975 55.175Q147.095 54.81 147.095 54.44Q147.095 54.07 146.96 53.83Q146.825 53.59 146.615 53.45Q146.405 53.31 146.14 53.26Q145.875 53.21 145.625 53.21Q145.295 53.21 144.925 53.245Q144.555 53.28 144.145 53.39L144.145 52.62Q144.495 52.54 144.89 52.5Q145.285 52.46 145.725 52.46Q146.235 52.46 146.645 52.57Q147.055 52.68 147.35 52.92Q147.645 53.16 147.8 53.54Q147.955 53.92 147.955 54.45Q147.955 54.92 147.815 55.335Q147.675 55.75 147.345 56.195Q147.015 56.64 146.455 57.155Q145.895 57.67 145.055 58.34L144.655 58.65L144.655 58.74L148.235 58.74L148.235 59.5L143.665 59.5L143.665 58.55ZM154.135 57.79L153.315 57.79L153.315 59.5L152.475 59.5L152.475 57.79L149.195 57.79L149.195 56.82L152.235 52.56L153.315 52.56L153.315 57.03L154.135 57.03L154.135 57.79ZM152.475 57.03L152.475 53.48L152.415 53.48L149.955 56.97L149.955 57.03L152.475 57.03ZM156.105 59.56Q155.755 59.56 155.61 59.45Q155.465 59.34 155.465 58.92Q155.465 58.52 155.61 58.41Q155.755 58.3 156.105 58.3Q156.445 58.3 156.595 58.41Q156.745 58.52 156.745 58.92Q156.745 59.34 156.595 59.45Q156.445 59.56 156.105 59.56ZM159.905 59.6Q159.485 59.6 159.15 59.57Q158.815 59.54 158.475 59.47L158.475 58.68Q158.865 58.78 159.18 58.815Q159.495 58.85 159.895 58.85Q160.325 58.85 160.68 58.775Q161.035 58.7 161.285 58.525Q161.535 58.35 161.675 58.065Q161.815 57.78 161.815 57.35Q161.815 56.57 161.36 56.215Q160.905 55.86 159.825 55.86Q159.545 55.86 159.185 55.905Q158.825 55.95 158.495 56.01L158.965 52.56L162.205 52.56L162.205 53.34L159.645 53.34L159.355 55.24Q159.545 55.21 159.735 55.195Q159.925 55.18 160.165 55.18Q161.375 55.18 162.025 55.68Q162.675 56.18 162.675 57.29Q162.675 57.91 162.48 58.345Q162.285 58.78 161.925 59.06Q161.565 59.34 161.05 59.47Q160.535 59.6 159.905 59.6ZM164.875 59.56Q164.525 59.56 164.38 59.45Q164.235 59.34 164.235 58.92Q164.235 58.52 164.38 58.41Q164.525 58.3 164.875 58.3Q165.215 58.3 165.365 58.41Q165.515 58.52 165.515 58.92Q165.515 59.34 165.365 59.45Q165.215 59.56 164.875 59.56ZM169.255 59.6Q168.735 59.6 168.305 59.445Q167.875 59.29 167.565 58.89Q167.255 58.49 167.085 57.795Q166.915 57.1 166.915 56.03Q166.915 54.96 167.085 54.27Q167.255 53.58 167.565 53.175Q167.875 52.77 168.305 52.615Q168.735 52.46 169.255 52.46Q169.775 52.46 170.21 52.615Q170.645 52.77 170.955 53.175Q171.265 53.58 171.435 54.27Q171.605 54.96 171.605 56.03Q171.605 57.1 171.435 57.795Q171.265 58.49 170.955 58.89Q170.645 59.29 170.21 59.445Q169.775 59.6 169.255 59.6ZM169.255 58.85Q169.625 58.85 169.895 58.725Q170.165 58.6 170.345 58.28Q170.525 57.96 170.61 57.415Q170.695 56.87 170.695 56.03Q170.695 55.2 170.61 54.655Q170.525 54.11 170.345 53.79Q170.165 53.47 169.895 53.345Q169.625 53.22 169.255 53.22Q168.895 53.22 168.625 53.345Q168.355 53.47 168.18 53.79Q168.005 54.11 167.92 54.655Q167.835 55.2 167.835 56.03Q167.835 56.87 167.92 57.415Q168.005 57.96 168.18 58.28Q168.355 58.6 168.625 58.725Q168.895 58.85 169.255 58.85ZM174.425 59.6Q174.005 59.6 173.67 59.57Q173.335 59.54 172.995 59.47L172.995 58.68Q173.385 58.78 173.7 58.815Q174.015 58.85 174.415 58.85Q174.845 58.85 175.2 58.775Q175.555 58.7 175.805 58.525Q176.055 58.35 176.195 58.065Q176.335 57.78 176.335 57.35Q176.335 56.57 175.88 56.215Q175.425 55.86 174.345 55.86Q174.065 55.86 173.705 55.905Q173.345 55.95 173.015 56.01L173.485 52.56L176.725 52.56L176.725 53.34L174.165 53.34L173.875 55.24Q174.065 55.21 174.255 55.195Q174.445 55.18 174.685 55.18Q175.895 55.18 176.545 55.68Q177.195 56.18 177.195 57.29Q177.195 57.91 177 58.345Q176.805 58.78 176.445 59.06Q176.085 59.34 175.57 59.47Q175.055 59.6 174.425 59.6Z">
</path>
</g>
<g >
<path     fill="#A6A6A6"  d="M34.7808 64.9259L35.9108 64.9259L35.9108 65.6059L34.7808 65.6059L34.7808 67.3559Q35.1008 67.2559 35.3758 67.1659Q35.6508 67.0759 35.8508 66.9959L35.8808 67.3659L35.9008 67.6859Q35.6908 67.7659 35.4008 67.8609Q35.1108 67.9559 34.7808 68.0659L34.7808 70.8059Q34.7808 71.1359 34.7308 71.3459Q34.6808 71.5559 34.5458 71.6859Q34.4108 71.8159 34.1808 71.8759Q33.9508 71.9359 33.5908 71.9659L33.1208 72.0059L32.8908 71.2859L33.4108 71.2459Q33.8108 71.2159 33.9458 71.0909Q34.0808 70.9659 34.0808 70.5959L34.0808 68.2959Q33.6308 68.4359 33.2308 68.5559Q32.8308 68.6759 32.5508 68.7559L32.3308 68.0459Q32.6608 67.9659 33.1258 67.8409Q33.5908 67.7159 34.0808 67.5659L34.0808 65.6059L32.6708 65.6059L32.6708 64.9259L34.0808 64.9259L34.0808 63.1059L34.7808 63.1359L34.7808 64.9259ZM39.4808 70.0359Q39.8708 70.4159 40.3508 70.7359Q40.8308 71.0559 41.4408 71.3959L41.0108 72.0259Q40.4508 71.7059 39.9558 71.3409Q39.4608 70.9759 39.0308 70.5459Q38.7008 70.8959 38.2858 71.2459Q37.8708 71.5959 37.3508 71.9659L36.9008 71.4459L36.9008 71.9759L36.1808 71.9759L36.1808 63.5759L40.6408 63.5759Q40.6408 63.6259 40.6308 63.8459Q40.6208 64.0659 40.6108 64.3259Q40.6008 64.5859 40.5908 64.8209Q40.5808 65.0559 40.5708 65.1359Q40.5608 65.4159 40.4908 65.5909Q40.4208 65.7659 40.2358 65.8759Q40.0508 65.9859 39.7308 66.0409Q39.4108 66.0959 38.8908 66.1359L38.2708 66.1859L38.0308 65.5259L38.7908 65.4859Q39.1208 65.4659 39.3258 65.4309Q39.5308 65.3959 39.6408 65.3359Q39.7508 65.2759 39.7958 65.1809Q39.8408 65.0859 39.8508 64.9459Q39.8608 64.8459 39.8758 64.6359Q39.8908 64.4259 39.9008 64.2659L36.9008 64.2659L36.9008 66.7559L40.7408 66.7559L40.7408 67.4259Q40.5508 68.1159 40.2708 68.7559Q39.9908 69.3959 39.4808 70.0359ZM36.9008 71.4159Q37.9508 70.6759 38.5708 70.0259Q38.2008 69.5659 37.9058 69.0209Q37.6108 68.4759 37.3808 67.8159L38.0008 67.5759Q38.2108 68.1859 38.4558 68.6559Q38.7008 69.1259 39.0008 69.5159Q39.3808 69.0159 39.6008 68.5059Q39.8208 67.9959 39.9908 67.4159L36.9008 67.4159L36.9008 71.4159ZM50.3608 67.9359L50.3608 71.9859L49.6208 71.9859L49.6208 71.4159L45.1208 71.4159L45.1208 71.9859L44.3808 71.9859L44.3808 68.7159Q43.9408 68.8759 43.4808 69.0309Q43.0208 69.1859 42.5208 69.3359L42.1608 68.6559Q43.4508 68.2959 44.5258 67.8759Q45.6008 67.4559 46.4858 66.9759Q47.3708 66.4959 48.0808 65.9459Q48.7908 65.3959 49.3508 64.7759L45.6908 64.7759Q45.5608 64.9159 45.4308 65.0409Q45.3008 65.1659 45.1608 65.3059Q45.3408 65.4259 45.5358 65.5759Q45.7308 65.7259 45.9208 65.8759Q46.1108 66.0259 46.2808 66.1659Q46.4508 66.3059 46.5708 66.4159L46.0608 67.0259Q45.9408 66.8759 45.7658 66.7109Q45.5908 66.5459 45.3908 66.3809Q45.1908 66.2159 44.9858 66.0609Q44.7808 65.9059 44.6008 65.7859Q44.2908 66.0459 43.9608 66.2859Q43.6308 66.5259 43.2808 66.7559L42.8208 66.1359Q43.3208 65.8259 43.8208 65.4309Q44.3208 65.0359 44.7708 64.6109Q45.2208 64.1859 45.6058 63.7559Q45.9908 63.3259 46.2708 62.9359L46.9508 63.2359Q46.6608 63.6559 46.3208 64.0759L50.3408 64.0759L50.3408 64.7759Q49.5408 65.7459 48.5258 66.5159Q47.5108 67.2859 46.1908 67.9359L50.3608 67.9359ZM49.6208 70.7359L49.6208 68.6459L45.1208 68.6459L45.1208 70.7359L49.6208 70.7359ZM56.9708 64.6859Q57.0708 65.7659 57.3758 66.6959Q57.6808 67.6259 58.1908 68.4459Q58.7008 69.2659 59.4058 69.9909Q60.1108 70.7159 61.0008 71.3759L60.4408 72.0559Q59.0208 70.9059 58.0708 69.6059Q57.1208 68.3059 56.6708 66.7759Q56.2808 68.2659 55.3508 69.5359Q54.4208 70.8059 52.8808 71.9759L52.3308 71.3259Q53.3808 70.5659 54.1158 69.7909Q54.8508 69.0159 55.3158 68.1509Q55.7808 67.2859 55.9958 66.2959Q56.2108 65.3059 56.2308 64.1159Q56.2308 64.0559 56.2358 63.9109Q56.2408 63.7659 56.2458 63.6109Q56.2508 63.4559 56.2508 63.3259Q56.2508 63.1959 56.2508 63.1559L57.0008 63.1859Q57.0008 63.2259 57.0008 63.3859Q57.0008 63.5459 56.9958 63.7409Q56.9908 63.9359 56.9858 64.1259Q56.9808 64.3159 56.9808 64.4059Q56.9808 64.4859 56.9808 64.5509Q56.9808 64.6159 56.9708 64.6859ZM69.1208 69.5959Q69.8308 70.6059 71.0608 71.5359L70.5408 72.0759Q69.9708 71.6159 69.5208 71.1609Q69.0708 70.7059 68.7208 70.2259Q68.3508 70.7159 67.8508 71.1759Q67.3508 71.6359 66.6708 72.1259L66.2108 71.5659Q66.9308 71.0859 67.4408 70.6109Q67.9508 70.1359 68.3008 69.5959Q67.9108 68.9159 67.6758 68.1859Q67.4408 67.4559 67.3108 66.6159Q67.2308 66.7559 67.1458 66.9009Q67.0608 67.0459 66.9708 67.1859L66.4108 66.8259Q66.6908 66.4359 66.9358 65.9609Q67.1808 65.4859 67.3758 64.9859Q67.5708 64.4859 67.7108 63.9909Q67.8508 63.4959 67.9308 63.0759L68.6308 63.2459Q68.5508 63.6059 68.4458 63.9609Q68.3408 64.3159 68.2108 64.6759L70.8108 64.6759L70.8108 65.3959L70.1308 65.3959Q70.0708 66.0759 69.9908 66.6659Q69.9108 67.2559 69.7958 67.7659Q69.6808 68.2759 69.5158 68.7309Q69.3508 69.1859 69.1208 69.5959ZM61.9008 67.4559Q62.5908 67.1159 63.1308 66.6909Q63.6708 66.2659 64.0908 65.7959L62.2108 65.7959L62.2108 65.1859L64.2608 65.1859L64.2608 63.1359L64.9308 63.1759L64.9308 65.1859L66.7308 65.1859L66.7308 65.7959L64.9308 65.7959L64.9308 67.6559L64.2608 67.6559L64.2608 66.4259Q63.8808 66.8659 63.3858 67.2609Q62.8908 67.6559 62.2608 67.9959L61.9008 67.4559ZM66.6108 63.6159Q66.5408 63.7759 66.4408 63.9659Q66.3408 64.1559 66.2258 64.3509Q66.1108 64.5459 65.9908 64.7259Q65.8708 64.9059 65.7708 65.0359L65.2708 64.7559Q65.3608 64.6359 65.4708 64.4659Q65.5808 64.2959 65.6858 64.1109Q65.7908 63.9259 65.8858 63.7309Q65.9808 63.5359 66.0508 63.3659L66.6108 63.6159ZM63.2108 65.0259Q63.1608 64.8659 63.0858 64.6709Q63.0108 64.4759 62.9208 64.2859Q62.8308 64.0959 62.7408 63.9259Q62.6508 63.7559 62.5808 63.6259L63.1108 63.4259Q63.1808 63.5359 63.2708 63.7059Q63.3608 63.8759 63.4508 64.0709Q63.5408 64.2659 63.6208 64.4659Q63.7008 64.6659 63.7608 64.8359L63.2108 65.0259ZM67.7908 65.6759Q67.9008 66.6259 68.1108 67.4109Q68.3208 68.1959 68.6908 68.8959Q69.0208 68.1759 69.1908 67.3309Q69.3608 66.4859 69.4608 65.3959L67.9108 65.3959L67.7908 65.6759ZM66.3008 67.8159Q66.0108 67.4659 65.6858 67.1209Q65.3608 66.7759 65.0408 66.4959L65.4408 66.1259Q65.7008 66.3259 66.0508 66.6709Q66.4008 67.0159 66.7008 67.3559L66.3008 67.8159ZM66.0308 71.5059Q65.7508 71.3359 65.4508 71.1809Q65.1508 71.0259 64.8408 70.8659Q64.4108 71.1859 63.8058 71.4759Q63.2008 71.7659 62.3208 72.0559L61.9708 71.4259Q62.7208 71.2059 63.2558 70.9909Q63.7908 70.7759 64.1808 70.5359Q63.4108 70.1659 62.6908 69.8959Q62.8308 69.6659 62.9708 69.4259Q63.1108 69.1859 63.2408 68.9459L62.0808 68.9459L62.0808 68.3459L63.5408 68.3459Q63.6308 68.1559 63.7058 67.9809Q63.7808 67.8059 63.8408 67.6459L64.4808 67.8559Q64.4308 67.9859 64.3808 68.1059Q64.3308 68.2259 64.2808 68.3459L66.3608 68.3459L66.3608 68.9159Q66.1608 69.3359 65.9308 69.7059Q65.7008 70.0759 65.3708 70.4059Q65.5908 70.5159 65.8208 70.6209Q66.0508 70.7259 66.3008 70.8459L66.0308 71.5059ZM63.6008 69.6559Q63.8708 69.7659 64.1508 69.8809Q64.4308 69.9959 64.7408 70.1359Q65.0408 69.8759 65.2458 69.5859Q65.4508 69.2959 65.6208 68.9459L63.9908 68.9459Q63.9008 69.1359 63.8008 69.3109Q63.7008 69.4859 63.6008 69.6559ZM74.0208 66.8759Q73.6708 66.8759 73.5258 66.7659Q73.3808 66.6559 73.3808 66.2459Q73.3808 65.8359 73.5258 65.7259Q73.6708 65.6159 74.0208 65.6159Q74.3608 65.6159 74.5108 65.7259Q74.6608 65.8359 74.6608 66.2459Q74.6608 66.6559 74.5108 66.7659Q74.3608 66.8759 74.0208 66.8759ZM74.0208 71.1359Q73.6708 71.1359 73.5258 71.0259Q73.3808 70.9159 73.3808 70.4959Q73.3808 70.0959 73.5258 69.9859Q73.6708 69.8759 74.0208 69.8759Q74.3608 69.8759 74.5108 69.9859Q74.6608 70.0959 74.6608 70.4959Q74.6608 70.9159 74.5108 71.0259Q74.3608 71.1359 74.0208 71.1359ZM85.8808 71.0859Q86.5108 71.1159 87.1058 71.1259Q87.7008 71.1359 88.2908 71.1309Q88.8808 71.1259 89.4808 71.1059Q90.0808 71.0859 90.7108 71.0459L90.5308 71.7759Q89.9408 71.8059 89.3658 71.8259Q88.7908 71.8459 88.2158 71.8459Q87.6408 71.8459 87.0408 71.8359Q86.4408 71.8259 85.8008 71.7959Q85.2108 71.7759 84.7608 71.6809Q84.3108 71.5859 83.9658 71.4009Q83.6208 71.2159 83.3658 70.9259Q83.1108 70.6359 82.9208 70.2159Q82.8108 70.6659 82.6558 71.1009Q82.5008 71.5359 82.2708 72.0459L81.6008 71.8259Q81.8608 71.2859 82.0308 70.8359Q82.2008 70.3859 82.3058 69.9209Q82.4108 69.4559 82.4508 68.9209Q82.4908 68.3859 82.5008 67.6559L83.1608 67.6959Q83.1508 68.4359 83.1008 69.0259Q83.2408 69.5659 83.4458 69.9359Q83.6508 70.3059 83.9708 70.5559L83.9708 67.0059L81.9008 67.0059L81.9008 66.3659L83.7608 66.3659L83.7608 64.9759L82.2308 64.9759L82.2308 64.3259L83.7608 64.3259L83.7608 63.1059L84.4608 63.1359L84.4608 64.3259L85.7208 64.3259L85.7208 64.9759L84.4608 64.9759L84.4608 66.3659L85.7308 66.3659L85.7308 67.0059L84.6508 67.0059L84.6508 68.5259L85.8708 68.5259L85.8708 69.2259L84.6508 69.2259L84.6508 70.8959Q85.1408 71.0559 85.8808 71.0859ZM85.7908 66.7059Q86.1508 66.3859 86.4008 66.0709Q86.6508 65.7559 86.8108 65.4409Q86.9708 65.1259 87.0608 64.8209Q87.1508 64.5159 87.1908 64.2159L85.8408 64.2159L85.8408 63.5859L89.9908 63.5859Q89.9908 63.6859 89.9708 63.9859Q89.9508 64.2859 89.9308 64.6259Q89.9108 64.9659 89.8908 65.2609Q89.8708 65.5559 89.8708 65.6359Q89.8508 65.9659 89.7858 66.1659Q89.7208 66.3659 89.5758 66.4859Q89.4308 66.6059 89.1908 66.6659Q88.9508 66.7259 88.5808 66.7659L88.1008 66.8259L87.8408 66.1459L88.4008 66.0959Q88.6208 66.0759 88.7608 66.0409Q88.9008 66.0059 88.9808 65.9309Q89.0608 65.8559 89.1008 65.7259Q89.1408 65.5959 89.1508 65.3959L89.2208 64.2159L87.8808 64.2159Q87.8208 64.5459 87.7308 64.8909Q87.6408 65.2359 87.4708 65.6059Q87.3008 65.9759 87.0208 66.3659Q86.7408 66.7559 86.3108 67.1859L85.7908 66.7059ZM86.2908 67.4559L89.8508 67.4559L89.8508 70.3659L86.2908 70.3659L86.2908 67.4559ZM86.9708 69.7059L89.1408 69.7059L89.1408 68.0959L86.9708 68.0959L86.9708 69.7059ZM98.1708 65.5259L94.6008 65.5259L94.6008 64.7959L98.1708 64.7959L98.1708 63.0759L98.8908 63.1059L98.8908 64.7959L100.281 64.7959L100.281 65.5259L98.8908 65.5259L98.8908 68.8559Q98.8908 69.2759 98.8308 69.5459Q98.7708 69.8159 98.5958 69.9809Q98.4208 70.1459 98.1008 70.2209Q97.7808 70.2959 97.2508 70.3159L96.5608 70.3459L96.2808 69.5759L97.1808 69.5359Q97.5108 69.5259 97.7108 69.4809Q97.9108 69.4359 98.0108 69.3409Q98.1108 69.2459 98.1408 69.0859Q98.1708 68.9259 98.1708 68.6659L98.1708 65.5259ZM93.6808 65.7259Q93.5708 65.5159 93.3958 65.2459Q93.2208 64.9759 93.0208 64.7009Q92.8208 64.4259 92.6208 64.1759Q92.4208 63.9259 92.2708 63.7659L92.8108 63.3159Q92.9608 63.4659 93.1658 63.7059Q93.3708 63.9459 93.5758 64.2109Q93.7808 64.4759 93.9658 64.7359Q94.1508 64.9959 94.2608 65.1859L93.6808 65.7259ZM95.4608 66.0059Q95.6208 66.1759 95.8308 66.4459Q96.0408 66.7159 96.2608 67.0059Q96.4808 67.2959 96.6758 67.5809Q96.8708 67.8659 96.9908 68.0759L96.4108 68.5959Q96.3008 68.3559 96.1108 68.0559Q95.9208 67.7559 95.7108 67.4509Q95.5008 67.1459 95.2958 66.8759Q95.0908 66.6059 94.9308 66.4259L95.4608 66.0059ZM96.1808 71.0359Q98.3708 71.1159 100.571 71.0359L100.431 71.7859Q98.2408 71.8559 96.0608 71.7859Q95.5508 71.7659 95.1658 71.7059Q94.7808 71.6459 94.4658 71.5109Q94.1508 71.3759 93.8808 71.1459Q93.6108 70.9159 93.3408 70.5459Q93.0108 70.9159 92.6858 71.2059Q92.3608 71.4959 91.9608 71.8159L91.4908 71.1159Q91.8608 70.8359 92.2458 70.5109Q92.6308 70.1859 92.9808 69.8459L92.9808 67.2159L91.6708 67.2159L91.6708 66.4759L93.7008 66.4759L93.7008 69.8359Q93.9208 70.1959 94.1508 70.4209Q94.3808 70.6459 94.6658 70.7759Q94.9508 70.9059 95.3158 70.9609Q95.6808 71.0159 96.1808 71.0359ZM102.391 70.4459Q103.051 70.4459 103.546 70.2659Q104.041 70.0859 104.386 69.7659Q104.731 69.4459 104.926 69.0159Q105.121 68.5859 105.171 68.0859L105.131 68.0859Q104.941 68.2959 104.551 68.4759Q104.161 68.6559 103.651 68.6559Q103.171 68.6559 102.776 68.5259Q102.381 68.3959 102.106 68.1309Q101.831 67.8659 101.676 67.4509Q101.521 67.0359 101.521 66.4659Q101.521 65.9559 101.656 65.5109Q101.791 65.0659 102.071 64.7409Q102.351 64.4159 102.781 64.2259Q103.211 64.0359 103.791 64.0359Q104.271 64.0359 104.686 64.1759Q105.101 64.3159 105.411 64.6459Q105.721 64.9759 105.901 65.5159Q106.081 66.0559 106.081 66.8559Q106.081 67.8259 105.871 68.6259Q105.661 69.4259 105.211 69.9959Q104.761 70.5659 104.061 70.8809Q103.361 71.1959 102.381 71.1959L102.391 70.4459ZM103.681 67.9759Q104.491 67.9759 104.866 67.6009Q105.241 67.2259 105.241 66.5959Q105.241 65.7159 104.871 65.2459Q104.501 64.7759 103.791 64.7759Q103.081 64.7759 102.721 65.2109Q102.361 65.6459 102.361 66.4659Q102.361 67.2459 102.731 67.6109Q103.101 67.9759 103.681 67.9759ZM110.761 64.4259Q110.741 64.8359 110.726 65.2709Q110.711 65.7059 110.691 66.0459Q110.691 66.0959 110.686 66.1309Q110.681 66.1659 110.681 66.2159L114.741 66.2159Q114.731 66.3359 114.716 66.6309Q114.701 66.9259 114.676 67.3009Q114.651 67.6759 114.626 68.1009Q114.601 68.5259 114.576 68.9009Q114.551 69.2759 114.531 69.5659Q114.511 69.8559 114.501 69.9759Q114.461 70.4759 114.376 70.7809Q114.291 71.0859 114.101 71.2609Q113.911 71.4359 113.586 71.5159Q113.261 71.5959 112.731 71.6359L111.911 71.7059L111.631 70.9359L112.491 70.8759Q112.831 70.8559 113.056 70.8109Q113.281 70.7659 113.416 70.6459Q113.551 70.5259 113.616 70.3059Q113.681 70.0859 113.711 69.7159Q113.721 69.5559 113.746 69.1659Q113.771 68.7759 113.801 68.3409Q113.831 67.9059 113.856 67.5159Q113.881 67.1259 113.891 66.9659L110.601 66.9659Q110.501 67.7859 110.296 68.4609Q110.091 69.1359 109.751 69.7359Q109.411 70.3359 108.911 70.8959Q108.411 71.4559 107.711 72.0459L107.101 71.4659Q107.851 70.8359 108.361 70.2759Q108.871 69.7159 109.196 69.1009Q109.521 68.4859 109.681 67.7509Q109.841 67.0159 109.901 66.0359Q109.911 65.8959 109.921 65.7059Q109.931 65.5159 109.941 65.2959Q109.951 65.0759 109.961 64.8509Q109.971 64.6259 109.981 64.4259L107.491 64.4259L107.491 63.6859L115.891 63.6859L115.891 64.4259L110.761 64.4259Z">
</path>
</g>
<path    stroke="rgba(0, 0, 0, 1)" stroke-width="1"    d="M0.000289917 89.5L399.372 89.1557">
</path>
</svg>
