<svg xmlns="http://www.w3.org/2000/svg" xmlns:xlink="http://www.w3.org/1999/xlink" width="58" height="39" viewBox="0 0 58 39" fill="none">
<g >
<path     fill="#000000"  d="M2.408 7.854L1.386 7.854L1.386 4.998L6.608 4.998Q6.496 4.606 6.363 4.207Q6.23 3.808 6.132 3.556L7.168 3.36Q7.28 3.64 7.448 4.123Q7.616 4.606 7.742 4.998L12.348 4.998L12.348 7.84L11.326 7.84L11.326 5.964L2.408 5.964L2.408 7.854ZM2.87 8.638L2.87 7.7L10.864 7.7L10.864 8.638L2.87 8.638ZM12.824 13.272Q12.796 13.678 12.747 14.077Q12.698 14.476 12.586 14.882Q12.53 15.092 12.411 15.246Q12.292 15.4 12.075 15.512Q11.858 15.624 11.522 15.687Q11.186 15.75 10.71 15.764Q10.402 15.778 10.094 15.771Q9.786 15.764 9.478 15.764Q8.596 15.764 8.197 15.386Q7.798 15.008 7.798 14.084L7.798 11.396L5.544 11.396Q5.544 11.494 5.537 11.571Q5.53 11.648 5.53 11.704Q5.474 12.572 5.243 13.244Q5.012 13.916 4.543 14.455Q4.074 14.994 3.332 15.421Q2.59 15.848 1.498 16.226L0.882 15.316Q1.904 14.98 2.569 14.63Q3.234 14.28 3.633 13.853Q4.032 13.426 4.214 12.88Q4.396 12.334 4.452 11.62Q4.452 11.578 4.459 11.522Q4.466 11.466 4.466 11.396L1.134 11.396L1.134 10.43L12.628 10.43L12.628 11.396L8.862 11.396L8.862 13.86Q8.862 14.406 9.072 14.595Q9.282 14.784 9.772 14.812Q10.192 14.84 10.612 14.812Q11.13 14.784 11.375 14.665Q11.62 14.546 11.69 14.224Q11.76 13.902 11.795 13.594Q11.83 13.286 11.858 12.936L12.824 13.272ZM16.072 6.832L15.134 6.832L15.134 4.62L20.3 4.62Q20.202 4.326 20.104 4.039Q20.006 3.752 19.936 3.556L20.888 3.374Q20.972 3.57 21.098 3.927Q21.224 4.284 21.336 4.62L26.152 4.62L26.152 6.832L25.214 6.832L25.214 5.418L16.072 5.418L16.072 6.832ZM23.142 10.332Q23.786 10.948 24.815 11.445Q25.844 11.942 27.076 12.32L26.67 13.202Q25.34 12.726 24.276 12.11L24.276 14.042L23.324 14.042L23.324 12.026L17.934 12.026L17.934 14.056L17.01 14.056L17.01 12.138Q16.478 12.46 15.904 12.754Q15.33 13.048 14.714 13.314L14.224 12.488Q14.798 12.264 15.358 12.012Q15.918 11.76 16.422 11.487Q16.926 11.214 17.353 10.92Q17.78 10.626 18.102 10.332L14.798 10.332L14.798 9.576L18.368 9.576L18.368 8.792L16.142 8.792L16.142 8.05L18.368 8.05L18.368 7.308L16.338 7.308L16.338 6.552L18.368 6.552L18.368 5.936L19.348 5.978L19.348 6.552L21.966 6.552L21.966 5.936L22.932 5.978L22.932 6.552L24.948 6.552L24.948 7.308L22.932 7.308L22.932 8.05L25.172 8.05L25.172 8.792L22.932 8.792L22.932 9.576L26.474 9.576L26.474 10.332L23.142 10.332ZM19.348 8.05L21.966 8.05L21.966 7.308L19.348 7.308L19.348 8.05ZM19.348 9.576L21.966 9.576L21.966 8.792L19.348 8.792L19.348 9.576ZM22.988 11.256Q22.442 10.836 22.008 10.332L19.25 10.332Q18.83 10.822 18.27 11.256L22.988 11.256ZM21.21 12.516Q21.112 13.216 20.853 13.748Q20.594 14.28 19.978 14.7Q19.362 15.12 18.305 15.463Q17.248 15.806 15.554 16.156L15.162 15.288Q16.702 15.022 17.661 14.721Q18.62 14.42 19.159 14.07Q19.698 13.72 19.908 13.321Q20.118 12.922 20.174 12.446L21.21 12.516ZM21.21 13.678Q21.714 13.818 22.323 14.014Q22.932 14.21 23.562 14.42Q24.192 14.63 24.801 14.847Q25.41 15.064 25.914 15.246L25.606 16.212Q25.116 15.988 24.493 15.736Q23.87 15.484 23.219 15.239Q22.568 14.994 21.952 14.784Q21.336 14.574 20.86 14.448L21.21 13.678ZM34.902 12.236Q35.196 12.726 35.665 13.132Q36.134 13.538 36.827 13.874Q37.52 14.21 38.451 14.497Q39.382 14.784 40.586 15.036L40.11 16.016Q38.948 15.736 38.038 15.435Q37.128 15.134 36.428 14.784Q35.728 14.434 35.217 14.028Q34.706 13.622 34.356 13.132Q33.754 14.042 32.403 14.742Q31.052 15.442 28.742 16.072L28.196 15.078Q29.414 14.798 30.338 14.497Q31.262 14.196 31.913 13.846Q32.564 13.496 32.97 13.097Q33.376 12.698 33.572 12.236L28.658 12.236L28.658 11.298L33.768 11.298L33.768 11.2L33.768 10.486L33.852 10.486L33.334 9.646Q35.518 8.918 36.834 7.987Q38.15 7.056 38.864 5.866L35.35 5.866Q35.238 5.992 35.14 6.118Q35.042 6.244 34.93 6.356Q35.336 6.608 35.735 6.895Q36.134 7.182 36.456 7.476L35.98 8.26Q35.686 7.994 35.217 7.637Q34.748 7.28 34.314 6.986Q34.118 7.182 33.908 7.371Q33.698 7.56 33.46 7.756L32.788 7.084Q33.754 6.286 34.496 5.348Q35.238 4.41 35.784 3.388L36.694 3.78Q36.512 4.102 36.344 4.396Q36.176 4.69 35.994 4.97L39.998 4.97L39.998 6.02Q39.158 7.49 37.695 8.568Q36.232 9.646 33.88 10.486L34.888 10.528L34.888 11.2L34.888 11.298L40.082 11.298L40.082 12.236L34.902 12.236ZM31.724 8.4Q31.374 8.582 30.912 8.813Q30.45 9.044 30.009 9.261Q29.568 9.478 29.218 9.639Q28.868 9.8 28.728 9.856L28.364 8.904Q28.546 8.848 28.987 8.652Q29.428 8.456 29.939 8.204Q30.45 7.952 30.94 7.7Q31.43 7.448 31.724 7.28L31.724 3.668L32.718 3.724L32.718 10.528L31.724 10.528L31.724 8.4ZM30.464 7.112Q30.282 6.79 30.079 6.447Q29.876 6.104 29.659 5.775Q29.442 5.446 29.225 5.145Q29.008 4.844 28.826 4.62L29.582 4.102Q29.988 4.592 30.422 5.229Q30.856 5.866 31.248 6.538L30.464 7.112ZM54.502 13.65L51.464 13.65L51.464 16.128L50.47 16.128L50.47 13.65L46.494 13.65L46.494 12.754L47.67 12.754L47.236 12.194Q47.95 11.858 48.426 11.494Q48.902 11.13 49.224 10.752L47.32 10.752L47.32 4.816L49.49 4.816Q49.868 4.116 50.078 3.36L51.03 3.626Q50.918 3.948 50.806 4.242Q50.694 4.536 50.554 4.816L53.606 4.816L53.606 10.752L50.26 10.752Q49.938 11.284 49.413 11.781Q48.888 12.278 48.062 12.754L50.47 12.754L50.47 11.144L51.464 11.2L51.464 12.754L54.502 12.754L54.502 13.65ZM43.876 10.332L46.116 10.332L46.116 16.072L45.136 16.072L45.136 11.326L43.834 11.326Q43.736 12.46 43.47 13.692Q43.204 14.924 42.644 16.156L41.678 15.792Q42.056 15.022 42.294 14.315Q42.532 13.608 42.672 12.908Q42.812 12.208 42.868 11.501Q42.924 10.794 42.924 10.038L42.924 4.088L43.876 4.13L43.876 7.7L45.024 7.7L45.024 3.864L45.976 3.906L45.976 7.7L46.872 7.7L46.872 8.68L43.876 8.68L43.876 10.038L43.876 10.332ZM48.23 5.698L48.23 7.42L50.022 7.42L50.022 5.698L48.23 5.698ZM52.668 5.698L50.932 5.698L50.932 7.42L52.668 7.42L52.668 5.698ZM49.77 9.856Q49.924 9.478 49.973 9.093Q50.022 8.708 50.036 8.302L48.23 8.302L48.23 9.856L49.77 9.856ZM52.668 9.856L52.668 8.302L50.904 8.302Q50.904 8.666 50.855 9.058Q50.806 9.45 50.68 9.856L52.668 9.856Z">
</path>
</g>
<g >
<path     fill="#FF0000"  d="M6.92 28.6L6.92 29.24L5.34 29.24L5.34 30.03L6.92 30.03L6.92 30.66L5.34 30.66L5.34 32.5L4.5 32.5L4.5 30.66L2.93 30.66L2.93 30.03L4.5 30.03L4.5 29.24L2.93 29.24L2.93 28.6L4.21 28.6L2.23 25.56L3.22 25.56L4.91 28.39L4.98 28.39L6.66 25.56L7.61 25.56L5.63 28.6L6.92 28.6ZM12.1 32.6Q11.68 32.6 11.285 32.57Q10.89 32.54 10.54 32.47L10.54 31.68Q10.94 31.78 11.315 31.815Q11.69 31.85 12.09 31.85Q12.48 31.85 12.815 31.79Q13.15 31.73 13.39 31.58Q13.63 31.43 13.77 31.185Q13.91 30.94 13.91 30.58Q13.91 29.84 13.41 29.55Q12.91 29.26 11.92 29.26L11.37 29.26L11.37 28.57L11.91 28.57Q12.82 28.57 13.29 28.235Q13.76 27.9 13.76 27.33Q13.76 26.72 13.395 26.46Q13.03 26.2 12.28 26.2Q11.98 26.2 11.59 26.25Q11.2 26.3 10.87 26.4L10.87 25.66Q11.13 25.58 11.525 25.52Q11.92 25.46 12.32 25.46Q13.44 25.46 14.015 25.89Q14.59 26.32 14.59 27.28Q14.59 27.96 14.26 28.325Q13.93 28.69 13.36 28.86L13.36 28.92Q14.1 29.05 14.435 29.475Q14.77 29.9 14.77 30.59Q14.77 31.55 14.125 32.075Q13.48 32.6 12.1 32.6ZM17.03 31.87Q17.69 31.87 18.185 31.69Q18.68 31.51 19.025 31.19Q19.37 30.87 19.565 30.44Q19.76 30.01 19.81 29.51L19.77 29.51Q19.58 29.72 19.19 29.9Q18.8 30.08 18.29 30.08Q17.81 30.08 17.415 29.95Q17.02 29.82 16.745 29.555Q16.47 29.29 16.315 28.875Q16.16 28.46 16.16 27.89Q16.16 27.38 16.295 26.935Q16.43 26.49 16.71 26.165Q16.99 25.84 17.42 25.65Q17.85 25.46 18.43 25.46Q18.91 25.46 19.325 25.6Q19.74 25.74 20.05 26.07Q20.36 26.4 20.54 26.94Q20.72 27.48 20.72 28.28Q20.72 29.25 20.51 30.05Q20.3 30.85 19.85 31.42Q19.4 31.99 18.7 32.305Q18 32.62 17.02 32.62L17.03 31.87ZM18.32 29.4Q19.13 29.4 19.505 29.025Q19.88 28.65 19.88 28.02Q19.88 27.14 19.51 26.67Q19.14 26.2 18.43 26.2Q17.72 26.2 17.36 26.635Q17 27.07 17 27.89Q17 28.67 17.37 29.035Q17.74 29.4 18.32 29.4ZM22.85 32.56Q22.5 32.56 22.355 32.45Q22.21 32.34 22.21 31.92Q22.21 31.52 22.355 31.41Q22.5 31.3 22.85 31.3Q23.19 31.3 23.34 31.41Q23.49 31.52 23.49 31.92Q23.49 32.34 23.34 32.45Q23.19 32.56 22.85 32.56ZM27.23 32.6Q26.11 32.6 25.485 32.13Q24.86 31.66 24.86 30.66Q24.86 30.26 24.97 29.965Q25.08 29.67 25.255 29.465Q25.43 29.26 25.65 29.135Q25.87 29.01 26.09 28.93L26.09 28.89Q25.65 28.69 25.37 28.325Q25.09 27.96 25.09 27.31Q25.09 26.9 25.215 26.56Q25.34 26.22 25.6 25.975Q25.86 25.73 26.265 25.595Q26.67 25.46 27.23 25.46Q27.79 25.46 28.195 25.595Q28.6 25.73 28.86 25.975Q29.12 26.22 29.245 26.56Q29.37 26.9 29.37 27.31Q29.37 27.94 29.125 28.315Q28.88 28.69 28.37 28.89L28.37 28.93Q28.62 29.01 28.845 29.135Q29.07 29.26 29.24 29.47Q29.41 29.68 29.505 29.975Q29.6 30.27 29.6 30.67Q29.6 31.67 28.98 32.135Q28.36 32.6 27.23 32.6ZM27.23 28.6Q27.6 28.6 27.855 28.505Q28.11 28.41 28.265 28.24Q28.42 28.07 28.49 27.85Q28.56 27.63 28.56 27.37Q28.56 26.8 28.23 26.49Q27.9 26.18 27.23 26.18Q25.9 26.18 25.9 27.37Q25.9 27.63 25.96 27.85Q26.02 28.07 26.175 28.24Q26.33 28.41 26.585 28.505Q26.84 28.6 27.23 28.6ZM27.23 31.87Q28.05 31.87 28.41 31.535Q28.77 31.2 28.77 30.63Q28.77 29.92 28.39 29.59Q28.01 29.26 27.23 29.26Q26.45 29.26 26.075 29.59Q25.7 29.92 25.7 30.63Q25.7 31.2 26.055 31.535Q26.41 31.87 27.23 31.87Z">
</path>
</g>
</svg>
