<svg xmlns="http://www.w3.org/2000/svg" xmlns:xlink="http://www.w3.org/1999/xlink" width="70" height="38" viewBox="0 0 70 38" fill="none">
<g >
<path     fill="#000000"  d="M3.15 9.856Q3.15 11.018 3.052 11.879Q2.954 12.74 2.744 13.461Q2.534 14.182 2.212 14.819Q1.89 15.456 1.456 16.156L0.56 15.638Q1.036 14.938 1.344 14.329Q1.652 13.72 1.834 13.055Q2.016 12.39 2.086 11.585Q2.156 10.78 2.156 9.688L2.156 5.852L6.174 5.852L6.174 3.402L7.168 3.444L7.168 4.2L11.9 4.2L11.9 5.04L7.168 5.04L7.168 5.852L12.558 5.852L12.558 6.678L12.124 8.106L11.186 7.952L11.564 6.72L3.15 6.72L3.15 9.856ZM7.294 10.514Q6.622 10.472 6.363 10.157Q6.104 9.842 6.104 9.156L6.104 8.876L3.57 9.03L3.542 8.176L6.104 8.036L6.104 7.084L7.07 7.126L7.07 7.98L10.388 7.784L10.43 8.596L7.07 8.806L7.07 8.988Q7.07 9.394 7.182 9.562Q7.294 9.73 7.7 9.744Q8.974 9.8 10.248 9.744Q10.682 9.73 10.822 9.576Q10.962 9.422 11.032 9.1Q11.088 8.834 11.116 8.498L11.984 8.792Q11.97 8.946 11.956 9.093Q11.942 9.24 11.914 9.366Q11.858 9.702 11.774 9.919Q11.69 10.136 11.536 10.255Q11.382 10.374 11.137 10.43Q10.892 10.486 10.514 10.514Q8.904 10.626 7.294 10.514ZM12.922 14.728L12.922 15.61L2.73 15.61L2.73 14.728L6.104 14.728L6.104 10.892L7.042 10.934L7.042 14.728L8.61 14.728L8.61 10.892L9.548 10.934L9.548 14.728L12.922 14.728ZM12.236 11.522Q12.138 11.718 11.963 12.005Q11.788 12.292 11.578 12.607Q11.368 12.922 11.137 13.237Q10.906 13.552 10.696 13.818L9.954 13.286Q10.164 13.034 10.388 12.733Q10.612 12.432 10.822 12.124Q11.032 11.816 11.207 11.536Q11.382 11.256 11.48 11.06L12.236 11.522ZM4.942 13.748Q4.648 13.23 4.263 12.677Q3.878 12.124 3.542 11.69L4.214 11.186Q4.55 11.592 4.935 12.138Q5.32 12.684 5.628 13.174L4.942 13.748ZM18.844 9.842Q18.564 9.982 18.179 10.143Q17.794 10.304 17.36 10.472L17.36 14.462Q17.36 15.162 16.996 15.505Q16.632 15.848 15.75 15.918L15.176 15.974L14.91 14.938L15.61 14.882Q15.876 14.868 16.03 14.819Q16.184 14.77 16.268 14.672Q16.352 14.574 16.373 14.427Q16.394 14.28 16.394 14.056L16.394 10.864Q15.82 11.074 15.309 11.249Q14.798 11.424 14.434 11.536L14.238 10.486Q14.644 10.374 15.211 10.185Q15.778 9.996 16.394 9.772L16.394 7.098L14.714 7.098L14.714 6.076L16.394 6.076L16.394 3.486L17.36 3.514L17.36 6.076L18.816 6.076L18.816 7.098L17.36 7.098L17.36 9.408Q17.752 9.254 18.095 9.107Q18.438 8.96 18.704 8.848L18.774 9.352L18.844 9.842ZM22.75 7.35Q22.624 7.014 22.407 6.58Q22.19 6.146 21.938 5.705Q21.686 5.264 21.441 4.865Q21.196 4.466 21 4.214L21.756 3.724Q21.952 3.976 22.204 4.368Q22.456 4.76 22.708 5.18Q22.96 5.6 23.184 6.006Q23.408 6.412 23.548 6.72L22.75 7.35ZM26.264 15.848Q26.096 15.512 25.851 15.12Q25.606 14.728 25.319 14.329Q25.032 13.93 24.738 13.552Q24.444 13.174 24.178 12.852Q23.66 13.72 22.841 14.49Q22.022 15.26 20.79 16.142L20.118 15.274Q21 14.672 21.651 14.14Q22.302 13.608 22.757 13.062Q23.212 12.516 23.513 11.921Q23.814 11.326 23.989 10.612Q24.164 9.898 24.255 9.023Q24.346 8.148 24.388 7.028Q24.402 6.65 24.416 6.188Q24.43 5.726 24.437 5.278Q24.444 4.83 24.444 4.459Q24.444 4.088 24.444 3.906L25.466 3.934Q25.466 4.102 25.466 4.466Q25.466 4.83 25.452 5.285Q25.438 5.74 25.424 6.209Q25.41 6.678 25.396 7.056Q25.354 8.582 25.2 9.723Q25.046 10.864 24.696 11.788Q24.962 12.11 25.305 12.523Q25.648 12.936 25.984 13.37Q26.32 13.804 26.614 14.224Q26.908 14.644 27.076 14.966L26.264 15.848ZM23.044 10.822Q22.946 10.92 22.568 11.263Q22.19 11.606 21.742 12.012Q21.294 12.418 20.888 12.796Q20.482 13.174 20.314 13.314Q20.118 13.468 19.999 13.594Q19.88 13.72 19.642 13.958L18.97 13.244Q19.208 13.006 19.271 12.845Q19.334 12.684 19.334 12.488L19.334 4.424L20.314 4.452L20.314 12.04Q20.482 11.872 20.839 11.543Q21.196 11.214 21.567 10.878Q21.938 10.542 22.239 10.262Q22.54 9.982 22.596 9.926L23.044 10.822ZM30.982 6.664Q30.674 6.692 30.464 6.72Q30.254 6.748 29.862 6.776L29.638 5.95Q29.918 5.922 30.093 5.859Q30.268 5.796 30.45 5.712Q30.772 5.53 31.185 5.229Q31.598 4.928 32.039 4.585Q32.48 4.242 32.907 3.885Q33.334 3.528 33.684 3.234L34.426 3.864Q33.74 4.424 33.068 4.928Q32.396 5.432 31.724 5.838Q32.116 5.824 32.76 5.803Q33.404 5.782 34.146 5.747Q34.888 5.712 35.658 5.67Q36.428 5.628 37.086 5.586Q36.722 5.32 36.365 5.068Q36.008 4.816 35.686 4.62L36.26 3.934Q36.638 4.2 37.114 4.529Q37.59 4.858 38.087 5.201Q38.584 5.544 39.039 5.887Q39.494 6.23 39.83 6.524L39.312 7.42Q39.074 7.182 38.773 6.923Q38.472 6.664 38.122 6.384Q37.646 6.426 36.995 6.454Q36.344 6.482 35.623 6.51Q34.902 6.538 34.167 6.559Q33.432 6.58 32.795 6.601Q32.158 6.622 31.675 6.636Q31.192 6.65 30.982 6.664ZM36.638 8.708Q37.394 9.534 38.465 10.164Q39.536 10.794 40.964 11.284L40.418 12.236Q38.822 11.55 37.583 10.724Q36.344 9.898 35.462 8.708L33.264 8.708Q32.886 9.24 32.438 9.674Q31.99 10.108 31.43 10.514Q30.87 10.92 30.163 11.319Q29.456 11.718 28.546 12.166L27.958 11.368Q29.344 10.78 30.303 10.15Q31.262 9.52 31.962 8.708L28.686 8.708L28.686 7.812L32.634 7.812Q32.942 7.308 33.236 6.734L34.244 7.056Q34.132 7.252 34.041 7.441Q33.95 7.63 33.838 7.812L40.18 7.812L40.18 8.708L36.638 8.708ZM36.022 10.346Q35.476 10.626 34.951 10.85Q34.426 11.074 33.88 11.27Q33.334 11.466 32.732 11.634Q32.13 11.802 31.444 11.97L31.108 11.088Q32.466 10.794 33.523 10.43Q34.58 10.066 35.616 9.576L36.022 10.346ZM30.086 13.272Q31.262 13.048 32.207 12.81Q33.152 12.572 33.971 12.292Q34.79 12.012 35.518 11.69Q36.246 11.368 36.988 10.962L37.436 11.76Q36.694 12.166 35.959 12.488Q35.224 12.81 34.391 13.09Q33.558 13.37 32.585 13.615Q31.612 13.86 30.422 14.112L30.086 13.272ZM29.33 15.288Q30.968 15.036 32.263 14.735Q33.558 14.434 34.657 14.07Q35.756 13.706 36.708 13.265Q37.66 12.824 38.598 12.292L39.102 13.132Q38.136 13.664 37.184 14.105Q36.232 14.546 35.14 14.91Q34.048 15.274 32.725 15.589Q31.402 15.904 29.694 16.184L29.33 15.288ZM43.624 6.832L42.686 6.832L42.686 4.62L47.852 4.62Q47.754 4.326 47.656 4.039Q47.558 3.752 47.488 3.556L48.44 3.374Q48.524 3.57 48.65 3.927Q48.776 4.284 48.888 4.62L53.704 4.62L53.704 6.832L52.766 6.832L52.766 5.418L43.624 5.418L43.624 6.832ZM50.694 10.332Q51.338 10.948 52.367 11.445Q53.396 11.942 54.628 12.32L54.222 13.202Q52.892 12.726 51.828 12.11L51.828 14.042L50.876 14.042L50.876 12.026L45.486 12.026L45.486 14.056L44.562 14.056L44.562 12.138Q44.03 12.46 43.456 12.754Q42.882 13.048 42.266 13.314L41.776 12.488Q42.35 12.264 42.91 12.012Q43.47 11.76 43.974 11.487Q44.478 11.214 44.905 10.92Q45.332 10.626 45.654 10.332L42.35 10.332L42.35 9.576L45.92 9.576L45.92 8.792L43.694 8.792L43.694 8.05L45.92 8.05L45.92 7.308L43.89 7.308L43.89 6.552L45.92 6.552L45.92 5.936L46.9 5.978L46.9 6.552L49.518 6.552L49.518 5.936L50.484 5.978L50.484 6.552L52.5 6.552L52.5 7.308L50.484 7.308L50.484 8.05L52.724 8.05L52.724 8.792L50.484 8.792L50.484 9.576L54.026 9.576L54.026 10.332L50.694 10.332ZM46.9 8.05L49.518 8.05L49.518 7.308L46.9 7.308L46.9 8.05ZM46.9 9.576L49.518 9.576L49.518 8.792L46.9 8.792L46.9 9.576ZM50.54 11.256Q49.994 10.836 49.56 10.332L46.802 10.332Q46.382 10.822 45.822 11.256L50.54 11.256ZM48.762 12.516Q48.664 13.216 48.405 13.748Q48.146 14.28 47.53 14.7Q46.914 15.12 45.857 15.463Q44.8 15.806 43.106 16.156L42.714 15.288Q44.254 15.022 45.213 14.721Q46.172 14.42 46.711 14.07Q47.25 13.72 47.46 13.321Q47.67 12.922 47.726 12.446L48.762 12.516ZM48.762 13.678Q49.266 13.818 49.875 14.014Q50.484 14.21 51.114 14.42Q51.744 14.63 52.353 14.847Q52.962 15.064 53.466 15.246L53.158 16.212Q52.668 15.988 52.045 15.736Q51.422 15.484 50.771 15.239Q50.12 14.994 49.504 14.784Q48.888 14.574 48.412 14.448L48.762 13.678ZM68.04 13.174Q67.97 13.636 67.886 14.084Q67.802 14.532 67.676 14.952Q67.606 15.162 67.48 15.323Q67.354 15.484 67.116 15.589Q66.878 15.694 66.507 15.757Q66.136 15.82 65.59 15.834Q64.036 15.904 62.545 15.897Q61.054 15.89 59.5 15.834Q58.954 15.82 58.569 15.736Q58.184 15.652 57.939 15.442Q57.694 15.232 57.582 14.868Q57.47 14.504 57.47 13.916L57.47 7.84Q57.19 8.162 56.91 8.477Q56.63 8.792 56.336 9.086L55.412 8.316Q56.574 7.238 57.47 5.95Q58.366 4.662 58.856 3.402L60.032 3.64Q59.892 3.962 59.752 4.263Q59.612 4.564 59.458 4.858L66.612 4.858Q66.612 5.04 66.598 5.53Q66.584 6.02 66.577 6.671Q66.57 7.322 66.556 8.057Q66.542 8.792 66.528 9.45Q66.514 10.108 66.5 10.612Q66.486 11.116 66.472 11.326Q66.444 11.872 66.325 12.229Q66.206 12.586 65.947 12.81Q65.688 13.034 65.24 13.153Q64.792 13.272 64.12 13.342L63.35 13.426L63.028 12.376L64.05 12.306Q64.484 12.278 64.743 12.215Q65.002 12.152 65.142 12.005Q65.282 11.858 65.331 11.62Q65.38 11.382 65.408 10.99Q65.408 10.892 65.422 10.507Q65.436 10.122 65.45 9.59Q65.464 9.058 65.478 8.456Q65.492 7.854 65.506 7.315Q65.52 6.776 65.527 6.377Q65.534 5.978 65.534 5.852L58.884 5.852Q58.352 6.734 57.694 7.56L63.098 7.56L63.098 11.886L58.506 11.886L58.506 13.664Q58.506 14.028 58.562 14.252Q58.618 14.476 58.758 14.595Q58.898 14.714 59.143 14.756Q59.388 14.798 59.752 14.812Q61.208 14.868 62.601 14.868Q63.994 14.868 65.45 14.812Q66.108 14.784 66.381 14.651Q66.654 14.518 66.724 14.196Q66.822 13.86 66.878 13.489Q66.934 13.118 66.962 12.768L68.04 13.174ZM58.506 8.554L58.506 10.85L62.09 10.85L62.09 8.554L58.506 8.554Z">
</path>
</g>
<g >
<path     fill="#FF0000"  d="M9.16 30.38Q9.14 30.61 9.12 30.82Q9.1 31.03 9.05 31.28Q9 31.54 8.93 31.705Q8.86 31.87 8.72 31.97Q8.58 32.07 8.36 32.12Q8.14 32.17 7.79 32.19Q7.35 32.22 6.985 32.22Q6.62 32.22 6.17 32.19Q5.85 32.17 5.63 32.115Q5.41 32.06 5.275 31.945Q5.14 31.83 5.085 31.635Q5.03 31.44 5.03 31.12L5.03 29.13L5 29.13Q4.82 29.71 4.515 30.17Q4.21 30.63 3.73 31.03Q3.25 31.43 2.58 31.785Q1.91 32.14 1 32.51L0.57 31.82Q1.38 31.54 1.99 31.255Q2.6 30.97 3.035 30.65Q3.47 30.33 3.755 29.96Q4.04 29.59 4.21 29.13L1.7 29.13L1.7 26.59Q1.51 26.74 1.315 26.89Q1.12 27.04 0.9 27.19L0.49 26.63Q1.44 25.97 2.215 25.135Q2.99 24.3 3.55 23.4L4.21 23.71Q4 24.04 3.79 24.34L7.29 24.34L7.29 24.97L6.23 26.15L8.26 26.15L8.26 29.13L5.74 29.13L5.74 30.88Q5.74 31.07 5.77 31.18Q5.8 31.29 5.875 31.355Q5.95 31.42 6.08 31.445Q6.21 31.47 6.41 31.49Q6.71 31.52 6.97 31.52Q7.23 31.52 7.58 31.49Q7.82 31.47 7.96 31.44Q8.1 31.41 8.18 31.345Q8.26 31.28 8.295 31.18Q8.33 31.08 8.36 30.91Q8.41 30.66 8.425 30.48Q8.44 30.3 8.45 30.1L9.16 30.38ZM3.29 25Q3.04 25.31 2.775 25.595Q2.51 25.88 2.22 26.15L5.29 26.15L6.32 25L3.29 25ZM4.4 28.47Q4.48 28.11 4.52 27.705Q4.56 27.3 4.58 26.82L2.42 26.82L2.42 28.47L4.4 28.47ZM7.54 26.82L5.33 26.82Q5.31 27.29 5.27 27.7Q5.23 28.11 5.16 28.47L7.54 28.47L7.54 26.82ZM10.38 28.74Q11.45 28.47 12.055 28.16Q12.66 27.85 12.96 27.46L11.07 27.46L11.28 25.54L13.35 25.54L13.35 24.92L10.92 24.92L10.92 24.32L13.35 24.32L13.35 23.49L14.07 23.53L14.07 24.32L15.52 24.32L15.52 23.49L16.24 23.52L16.24 24.32L18.36 24.32L18.36 26.14L16.24 26.14L16.24 26.86L18.86 26.86L18.79 27.69Q18.76 27.95 18.725 28.11Q18.69 28.27 18.605 28.37Q18.52 28.47 18.365 28.515Q18.21 28.56 17.95 28.58L17.3 28.63L17.13 28.08L17.81 28.04Q17.97 28.02 18.03 27.965Q18.09 27.91 18.11 27.71L18.14 27.46L16.24 27.46L16.24 28.56L15.52 28.56L15.52 27.46L13.8 27.46Q13.61 27.84 13.27 28.145Q12.93 28.45 12.36 28.72L17.73 28.72L17.73 31L16.98 31L16.98 29.33L12.61 29.33L12.61 31.01L11.85 31.01L11.85 28.95Q11.35 29.15 10.71 29.34L10.38 28.74ZM14.07 25.54L15.52 25.54L15.52 24.92L14.07 24.92L14.07 25.54ZM16.24 24.92L16.24 25.54L17.65 25.54L17.65 24.92L16.24 24.92ZM13.25 26.86Q13.3 26.69 13.32 26.515Q13.34 26.34 13.35 26.14L11.94 26.14L11.85 26.86L13.25 26.86ZM15.52 26.14L14.07 26.14Q14.06 26.34 14.045 26.515Q14.03 26.69 14 26.86L15.52 26.86L15.52 26.14ZM15.16 29.66Q15.16 29.69 15.15 29.76Q15.14 29.83 15.13 29.915Q15.12 30 15.11 30.08Q15.1 30.16 15.09 30.2Q15.01 30.66 14.775 30.995Q14.54 31.33 14.05 31.6Q13.56 31.87 12.78 32.095Q12 32.32 10.83 32.54L10.53 31.87Q11.6 31.71 12.305 31.515Q13.01 31.32 13.43 31.105Q13.85 30.89 14.035 30.66Q14.22 30.43 14.26 30.2Q14.27 30.16 14.275 30.07Q14.28 29.98 14.29 29.88Q14.3 29.78 14.305 29.7Q14.31 29.62 14.31 29.6L15.16 29.66ZM15.25 30.71Q15.67 30.81 16.145 30.955Q16.62 31.1 17.11 31.26Q17.6 31.42 18.07 31.585Q18.54 31.75 18.93 31.89L18.68 32.6Q18.36 32.45 17.905 32.265Q17.45 32.08 16.94 31.905Q16.43 31.73 15.915 31.57Q15.4 31.41 14.97 31.3L15.25 30.71Z">
</path>
</g>
</svg>
