<svg xmlns="http://www.w3.org/2000/svg" xmlns:xlink="http://www.w3.org/1999/xlink" width="246.75875854492188" height="17.5679931640625" viewBox="0 0 246.75875854492188 17.5679931640625" fill="none">
<g >
<path     fill="#000000"  d="M7.15256e-07 11.106L2.7 8.27999L0.432001 8.33399L0.342001 6.42599L4.572 6.29999L5.436 5.39999L1.62 5.39999L1.62 3.52799L4.392 0.287989L7.866 1.67399L6.138 3.49199L11.628 3.49199L10.908 2.42999L12.78 1.31399L15.192 4.84199L13.302 5.95799L12.924 5.39999L9.81 5.39999L9.072 6.17399L15.66 5.97599L15.75 7.88399L12.636 7.97399L16.326 10.854L15.3 12.24L11.862 9.48599L12.006 10.332L4.986 11.286L4.878 10.548L2.502 13.032L7.15256e-07 11.106ZM2.682 14.832L13.95 13.176L14.22 15.084L2.97 16.758L2.682 14.832ZM3.564 12.15L12.816 10.782L13.104 12.636L3.87 14.04L3.564 12.15ZM6.12 9.25199L10.89 8.69399L10.098 8.04599L7.182 8.13599L6.12 9.25199ZM21.924 4.21199L22.644 4.21199L22.644 3.56399L25.92 3.56399L25.92 4.21199L27.576 4.21199L27.576 3.56399L30.078 3.56399L30.078 4.21199L31.14 4.21199L31.14 5.54399L30.078 5.54399L30.078 6.06599L32.166 6.06599L32.166 7.37999L30.078 7.37999L30.078 7.88399L33.642 7.86599L33.678 9.39599L30.906 9.41399L33.93 11.358L33.048 12.978L31.644 12.042L31.644 13.68L29.358 13.68L29.358 11.628L27.81 11.628L28.764 13.122L28.08 13.518L32.994 15.498L32.22 17.244L26.892 15.084L27.45 13.896L21.402 17.406L20.052 15.21L22.86 13.698L21.006 13.698L21.006 12.438L19.962 13.176L18.504 11.052L20.754 9.48599L18.594 9.48599L18.558 7.95599L22.644 7.93799L22.644 7.37999L20.754 7.37999L20.754 6.06599L22.644 6.06599L22.644 5.54399L21.924 5.54399L21.924 4.21199ZM18.45 1.33199L21.726 1.33199L21.726 1.70999L24.084 1.63799L23.814 0.773989L27.828 -1.14441e-05L28.206 1.51199L33.498 1.33199L33.498 5.47199L31.428 5.47199L31.428 3.09599L21.726 3.40199L21.726 5.48999L18.45 5.48999L18.45 1.33199ZM24.048 10.242L28.998 10.242L27.792 9.43199L25.146 9.44999L24.048 10.242ZM24.57 12.78L26.694 11.628L24.57 11.628L24.57 12.78ZM25.92 7.91999L27.576 7.90199L27.576 7.37999L25.92 7.37999L25.92 7.91999ZM25.92 6.06599L27.576 6.06599L27.576 5.54399L25.92 5.54399L25.92 6.06599ZM37.314 2.21399L40.59 2.21399L40.59 0.557989L45.09 0.557989L45.09 2.21399L48.204 2.21399L48.204 3.58199L50.49 2.21399L51.84 4.33799L49.842 5.52599L51.948 5.43599L52.038 7.59599L45.954 7.84799L44.298 8.83799L50.31 8.83799L50.31 16.128L38.502 16.542L38.502 12.312L37.044 13.176L35.694 11.034L38.502 9.35999L38.502 8.83799L39.366 8.83799L40.68 8.06399L36.288 8.24399L36.198 6.08399L40.59 5.90399L40.59 4.37399L37.314 4.37399L37.314 2.21399ZM42.642 11.736L47.628 11.736L47.628 10.818L42.642 10.818L42.642 11.736ZM42.642 14.454L47.628 14.274L47.628 13.536L42.642 13.536L42.642 14.454ZM45.09 4.37399L45.09 5.43599L46.872 4.37399L45.09 4.37399ZM120.453 14.868L116.367 14.868L116.367 2.26799L120.453 2.26799L120.453 14.868ZM132.405 5.86799L132.405 14.868L129.723 14.868L129.723 8.02799L125.979 8.02799L125.979 14.868L121.893 14.868L121.893 5.86799L132.405 5.86799ZM133.593 5.86799L143.259 5.86799L143.259 8.54999L140.577 8.54999L140.577 8.02799L137.679 8.02799L137.679 9.17999L143.259 9.17999L143.259 14.868L133.593 14.454L133.593 12.132L140.577 12.438L140.577 11.34L133.593 11.34L133.593 5.86799ZM144.321 5.86799L153.987 5.86799L153.987 12.942L148.407 13.176L148.407 17.568L144.321 17.568L144.321 5.86799ZM148.407 11.016L151.305 10.89L151.305 8.02799L148.407 8.02799L148.407 11.016ZM159.189 10.926L159.189 12.528L164.769 12.294L164.769 14.454L155.103 14.868L155.103 5.86799L164.643 5.86799L164.643 10.926L159.189 10.926ZM162.483 9.12599L162.483 7.66799L159.189 7.66799L159.189 9.12599L162.483 9.12599ZM175.587 5.86799L175.587 8.02799L169.989 8.02799L169.989 12.528L175.569 12.294L175.569 14.454L165.903 14.868L165.903 5.86799L175.587 5.86799ZM186.387 5.88599L186.387 8.04599L183.507 8.04599L183.507 12.474L186.387 12.294L186.387 14.454L179.421 14.868L179.421 8.04599L176.703 8.04599L176.703 5.88599L179.421 5.88599L179.421 2.26799L183.507 2.26799L183.507 5.88599L186.387 5.88599ZM197.169 5.86799L197.169 14.454L187.485 14.868L187.485 5.86799L197.169 5.86799ZM191.571 12.528L194.487 12.402L194.487 8.02799L191.571 8.02799L191.571 12.528ZM204.387 5.86799L205.629 8.24399L202.335 9.98999L202.335 14.868L198.249 14.868L198.249 5.86799L202.335 5.86799L202.335 6.94799L204.387 5.86799ZM212.613 5.86799L213.855 8.24399L210.561 9.98999L210.561 14.868L206.475 14.868L206.475 5.86799L210.561 5.86799L210.561 6.94799L212.613 5.86799ZM220.839 5.86799L222.081 8.24399L218.787 9.98999L218.787 14.868L214.701 14.868L214.701 5.86799L218.787 5.86799L218.787 6.94799L220.839 5.86799ZM229.065 5.86799L230.307 8.24399L227.013 9.98999L227.013 14.868L222.927 14.868L222.927 5.86799L227.013 5.86799L227.013 6.94799L229.065 5.86799ZM237.291 5.86799L238.533 8.24399L235.239 9.98999L235.239 14.868L231.153 14.868L231.153 5.86799L235.239 5.86799L235.239 6.94799L237.291 5.86799ZM245.517 5.86799L246.759 8.24399L243.465 9.98999L243.465 14.868L239.379 14.868L239.379 5.86799L243.465 5.86799L243.465 6.94799L245.517 5.86799Z">
</path>
</g>
</svg>
