<svg xmlns="http://www.w3.org/2000/svg" xmlns:xlink="http://www.w3.org/1999/xlink" width="317" height="148" viewBox="0 0 317 148" fill="none">
<rect x="0" y="0" width="300" height="148"   fill="#FAEBEB" >
</rect>
<path    stroke="rgba(166, 166, 166, 1)" stroke-width="1"    d="M0 39L299.5 39">
</path>
<g >
<path     fill="#000000"  d="M23.918 21.056L26.618 18.23L24.35 18.284L24.26 16.376L28.49 16.25L29.354 15.35L25.538 15.35L25.538 13.478L28.31 10.238L31.784 11.624L30.056 13.442L35.546 13.442L34.826 12.38L36.698 11.264L39.11 14.792L37.22 15.908L36.842 15.35L33.728 15.35L32.99 16.124L39.578 15.926L39.668 17.834L36.554 17.924L40.244 20.804L39.218 22.19L35.78 19.436L35.924 20.282L28.904 21.236L28.796 20.498L26.42 22.982L23.918 21.056ZM26.6 24.782L37.868 23.126L38.138 25.034L26.888 26.708L26.6 24.782ZM27.482 22.1L36.734 20.732L37.022 22.586L27.788 23.99L27.482 22.1ZM30.038 19.202L34.808 18.644L34.016 17.996L31.1 18.086L30.038 19.202ZM45.842 14.162L46.562 14.162L46.562 13.514L49.838 13.514L49.838 14.162L51.494 14.162L51.494 13.514L53.996 13.514L53.996 14.162L55.058 14.162L55.058 15.494L53.996 15.494L53.996 16.016L56.084 16.016L56.084 17.33L53.996 17.33L53.996 17.834L57.56 17.816L57.596 19.346L54.824 19.364L57.848 21.308L56.966 22.928L55.562 21.992L55.562 23.63L53.276 23.63L53.276 21.578L51.728 21.578L52.682 23.072L51.998 23.468L56.912 25.448L56.138 27.194L50.81 25.034L51.368 23.846L45.32 27.356L43.97 25.16L46.778 23.648L44.924 23.648L44.924 22.388L43.88 23.126L42.422 21.002L44.672 19.436L42.512 19.436L42.476 17.906L46.562 17.888L46.562 17.33L44.672 17.33L44.672 16.016L46.562 16.016L46.562 15.494L45.842 15.494L45.842 14.162ZM42.368 11.282L45.644 11.282L45.644 11.66L48.002 11.588L47.732 10.724L51.746 9.95L52.124 11.462L57.416 11.282L57.416 15.422L55.346 15.422L55.346 13.046L45.644 13.352L45.644 15.44L42.368 15.44L42.368 11.282ZM47.966 20.192L52.916 20.192L51.71 19.382L49.064 19.4L47.966 20.192ZM48.488 22.73L50.612 21.578L48.488 21.578L48.488 22.73ZM49.838 17.87L51.494 17.852L51.494 17.33L49.838 17.33L49.838 17.87ZM49.838 16.016L51.494 16.016L51.494 15.494L49.838 15.494L49.838 16.016ZM66.182 10.976L75.776 10.976L75.776 13.064L72.932 13.064L72.374 14.432L75.488 14.432L75.488 22.208L73.292 22.208L73.292 18.32L71.204 23.252L72.554 21.704L76.028 24.944L74.642 26.474L71.186 23.288L69.746 26.726L66.956 25.628L68.378 22.208L66.308 22.208L66.308 14.432L69.44 14.432L70.016 13.064L66.182 13.064L66.182 10.976ZM60.098 11.624L65.768 11.624L65.768 13.784L64.67 13.784L64.67 22.28L66.164 22.064L66.308 24.26L60.17 25.106L60.026 22.928L61.484 22.73L61.484 13.784L60.098 13.784L60.098 11.624ZM69.332 19.94L70.538 17.042L73.292 18.122L73.292 16.502L69.332 16.502L69.332 19.94ZM79.106 11.192L92.894 11.192L92.894 25.88L79.106 26.348L79.106 11.192ZM83.606 15.602L89.834 15.602L89.834 13.352L83.606 13.352L83.606 15.602ZM83.606 19.85L89.834 19.85L89.834 17.762L83.606 17.762L83.606 19.85ZM83.606 24.062L89.834 23.846L89.834 22.01L83.606 22.01L83.606 24.062ZM108.932 24.818Q107.96 23.594 107.357 21.893Q106.754 20.192 106.754 18.446Q106.754 16.754 107.393 15.017Q108.032 13.28 108.914 12.218L111.182 12.218Q110.156 13.73 109.589 15.179Q109.022 16.628 109.022 18.446Q109.022 20.336 109.58 21.839Q110.138 23.342 111.2 24.818L108.932 24.818ZM114.08 13.406L115.61 13.406L115.61 10.634L118.436 10.634L118.436 13.406L119.516 13.406L119.516 15.62L118.436 15.62L118.436 18.014L119.12 17.744L119.804 19.778L119.804 18.212L129.92 18.212L129.92 20.102L127.292 20.102L127.292 21.146L129.596 21.146L129.596 22.946L127.292 22.946L127.292 23.882L130.334 24.314L130.046 26.366L122.162 25.178L121.838 26.546L119.21 25.988L120.542 20.264L123.188 20.822L122.63 23.198L123.872 23.378L123.872 20.102L119.804 20.102L119.804 19.904L118.436 20.426L118.436 26.348L114.53 25.97L114.44 23.846L115.61 23.954L115.61 21.524L114.62 21.902L113.882 19.778L115.61 19.112L115.61 15.62L114.08 15.62L114.08 13.406ZM120.254 10.814L129.398 10.814L129.398 17.366L120.254 17.582L120.254 10.814ZM123.818 15.782L127.13 15.71L127.13 14.882L123.818 14.882L123.818 15.782ZM123.818 13.298L127.13 13.298L127.13 12.542L123.818 12.542L123.818 13.298ZM141.746 15.998L143.6 14.198L136.994 14.396L138.794 16.43L134.564 19.742L132.494 17.456L136.4 14.414L132.404 14.522L132.35 12.398L137.966 12.236L137.66 10.634L141.746 10.166L142.124 12.11L147.434 11.948L147.488 14.072L143.816 14.18L147.596 17.51L145.76 19.58L141.746 15.998ZM131.828 23.99L137.462 20.462L136.058 19.526L137.462 17.852L139.46 19.202L142.43 17.33L144.59 19.994L142.574 21.272L147.704 24.674L146.534 26.438L140.576 22.514L133.772 26.78L131.828 23.99ZM150.332 26.06L151.43 11.66L165.182 10.796L165.38 13.082L155.192 13.82L155.12 15.008L165.632 15.008L165.632 17.168L154.994 17.168L154.472 26.348L150.332 26.06ZM155.984 18.626L165.11 18.626L165.11 26.096L155.984 26.384L155.984 18.626ZM159.656 23.972L162.41 23.882L162.41 21.02L159.656 21.02L159.656 23.972ZM168.314 21.506L173.012 13.496L168.386 13.496L168.386 11.336L183.632 11.336L183.632 13.496L177.368 13.496L176.45 15.152L178.088 15.152L178.088 17.582L179.834 16.016L183.686 20.354L181.58 22.262L178.088 18.32L178.088 26.24L174.056 26.24L174.056 19.418L171.914 23.234L168.314 21.506ZM191.138 26.258L191.048 24.62L192.182 24.692L192.182 23.9L189.878 23.9L189.878 26.384L186.458 26.384L186.458 16.43L194.522 16.43L194.522 26.42L191.138 26.258ZM195.332 10.796L198.302 10.796L198.302 12.902L201.542 12.272L201.866 14.054L198.302 14.738L198.302 16.466L201.848 16.466L201.848 18.266L195.332 18.266L195.332 10.796ZM195.332 19.148L198.302 19.148L198.302 21.02L201.614 20.444L201.902 22.226L198.302 22.874L198.302 24.476L202.028 24.476L202.028 26.258L195.332 26.258L195.332 19.148ZM186.206 14.342L188.438 10.238L191.57 11.318L189.932 14.054L191.75 13.928L191.12 12.614L193.334 11.642L195.17 15.404L192.92 16.304L192.614 15.692L186.314 16.16L186.206 14.342ZM189.878 19.472L192.182 19.472L192.182 18.23L189.878 18.23L189.878 19.472ZM189.878 22.28L192.182 22.28L192.182 21.092L189.878 21.092L189.878 22.28ZM208.616 14.09L210.65 14.09L210.65 14.198L213.548 10.13L215.816 11.516L215.42 12.038L219.272 12.002L219.38 14.504L217.238 15.944L220.316 17.51L219.434 19.382L216.752 17.978L217.454 19.4L212.414 21.542L211.568 19.85L216.374 17.798L215.312 17.222L211.748 19.598L210.866 17.618L213.17 16.106L212.63 15.818L212.432 16.088L210.65 14.9L210.65 23.882L208.616 23.882L208.616 14.09ZM205.466 17.528L203.468 16.124L207.14 10.418L209.498 11.966L208.094 14.252L208.094 26.258L205.466 26.258L205.466 17.528ZM211.838 25.214L218.66 22.262L219.506 23.972L212.684 26.924L211.838 25.214ZM211.676 22.442L217.814 19.922L218.66 21.614L212.54 24.134L211.676 22.442ZM214.178 13.73L213.836 14.198L215.096 14.846L216.698 13.784L214.178 13.73ZM228.704 16.376L228.704 19.4L225.698 19.4L225.698 23.702L228.92 23.306L228.758 25.466L222.458 26.24L222.458 17.24L225.464 17.24L225.464 13.514L222.278 13.514L222.278 11.354L228.704 11.354L228.704 16.034L231.296 10.13L234.86 11.588L234.374 12.686L237.866 12.488L237.992 14.612L233.402 14.882L232.124 17.798L228.704 16.376ZM229.1 25.25L230.954 21.83L228.74 20.066L230.162 18.356L232.016 19.85L234.5 15.314L237.884 16.952L235.004 22.262L238.082 24.71L236.66 26.384L233.942 24.224L232.502 26.888L229.1 25.25ZM240.8 24.818Q241.862 23.342 242.42 21.839Q242.978 20.336 242.978 18.446Q242.978 16.628 242.411 15.179Q241.844 13.73 240.818 12.218L243.086 12.218Q243.968 13.28 244.607 15.017Q245.246 16.754 245.246 18.446Q245.246 20.192 244.643 21.893Q244.04 23.594 243.068 24.818L240.8 24.818Z">
</path>
</g>
<g >
<path     fill="#000000"  d="M114.7 60.614L122.218 60.614L122.218 70.414L114.7 70.092L114.7 68.286L119.04 68.468L119.04 66.27L114.7 66.27L114.7 64.59L119.04 64.59L119.04 62.294L114.7 62.294L114.7 60.614ZM125.354 69.686L130.534 64.002L132.2 65.402L128.322 69.532L132.774 69.294L131.57 67.418L133.138 66.34L135.994 70.82L134.426 71.884L133.894 71.058L125.522 71.52L125.354 69.686ZM123.506 64.912L127.846 59.424L130.45 61.468L126.11 66.984L123.506 64.912ZM130.898 61.062L132.382 59.858L136.288 64.66L134.79 65.85L130.898 61.062ZM138.318 67.376L143.19 67.376L143.19 66.41L138.458 66.41L138.458 59.676L149.378 59.676L149.378 66.41L145.85 66.41L145.85 67.376L149.518 67.376L149.518 68.916L145.85 68.916L145.85 69.826L149.952 69.714L149.994 71.24L137.884 71.562L137.842 70.036L143.19 69.896L143.19 68.916L138.318 68.916L138.318 67.376ZM141.678 62.364L143.19 62.364L143.19 61.076L141.678 61.076L141.678 62.364ZM141.678 65.01L143.19 65.01L143.19 63.764L141.678 63.764L141.678 65.01ZM145.85 61.076L145.85 62.364L147.278 62.364L147.278 61.076L145.85 61.076ZM145.85 65.01L147.278 65.01L147.278 63.764L145.85 63.764L145.85 65.01ZM152.71 64.674L151.226 63.918L153.564 59.186L155.776 60.236L158.296 60.236L158.296 61.86L157.064 64.254L158.352 64.254L158.352 65.878L157.61 68.692L159.822 69.168L159.822 68.86L158.464 68.86L158.464 67.502L159.822 67.502L159.822 66.97L158.716 66.97L158.716 65.682L159.822 65.682L159.822 65.08L158.772 65.08L158.772 63.82L159.822 63.82L159.822 63.26L158.464 63.26L158.464 62.056L159.822 62.056L159.822 61.426L158.478 61.426L158.478 60.166L159.822 60.166L159.822 59.354L161.782 59.354L161.782 60.166L163.658 60.166L163.658 62.056L164.33 62.056L164.33 63.26L163.658 63.26L163.658 65.08L161.782 65.08L161.782 65.682L163.602 65.682L163.602 66.97L161.782 66.97L161.782 67.502L163.868 67.502L163.868 68.86L161.782 68.86L161.782 69.574L161.74 69.574L164.344 70.134L164.022 71.73L157.19 70.232L156.826 71.646L155.244 71.24L155.608 69.882L155.034 69.756L155.384 68.202L156.014 68.342L156.672 65.878L155.314 65.878L155.314 64.254L156.574 61.86L155.272 61.86L155.272 61.398L154.922 62.154L154.922 71.534L152.71 71.534L152.71 64.674ZM161.782 61.426L161.782 62.056L162.16 62.056L162.16 61.426L161.782 61.426ZM162.16 63.82L162.16 63.26L161.782 63.26L161.782 63.82L162.16 63.82ZM165.8 71.478L166.486 60.362L171.134 60.362L170.91 59.564L173.626 59.158L174.018 60.362L177.7 60.362L177.7 61.72L169.328 61.72L168.852 69.952L170.49 69.098L169.062 68.3L169.762 67.166L171.358 68.034L170.84 68.916L171.358 68.636L171.988 69.924L171.078 70.4L171.988 70.442L171.988 67.11L169.804 67.11L169.804 65.878L171.988 65.878L171.988 65.346L169.454 65.346L169.454 64.17L171.988 64.17L171.988 63.638L169.804 63.638L169.804 62.42L171.988 62.42L171.988 61.874L174.452 61.874L174.452 62.42L177.35 62.42L177.35 64.17L177.91 64.17L177.91 65.346L177.35 65.346L177.35 67.11L174.452 67.11L174.452 68.062L175.082 68.44L176.944 67.32L177.77 68.454L176.468 69.252L177.994 70.148L177.126 71.492L174.452 69.812L174.452 71.716L171.078 71.562L171.036 70.414L169.398 71.282L168.838 70.204L168.754 71.66L165.8 71.478ZM175.572 65.878L175.572 65.346L174.452 65.346L174.452 65.878L175.572 65.878ZM174.452 63.638L174.452 64.17L175.572 64.17L175.572 63.638L174.452 63.638ZM179.786 69.938L180.094 69.882L180.094 65.752L181.494 65.752L181.494 69.644L181.984 69.56L181.984 64.8L179.94 64.842L179.94 59.788L184.728 59.788L184.728 62.588L186.03 59.144L188.466 59.984L188.214 60.642L191.7 60.488L191.7 68.818L189.306 68.748L189.236 67.894L187.514 67.894L187.514 69.784L192.148 69.784L192.148 71.506L185.4 71.506L185.4 63.904L184.728 63.68L184.728 64.73L184 64.744L184 66.172L184.994 66.172L184.994 67.782L184 67.782L184 69.21L184.91 69.042L185.12 70.806L180.01 71.73L179.786 69.938ZM187.584 62.322L187.192 63.344L189.502 63.344L189.502 67.376L190.006 67.39L190.006 62.238L187.584 62.322ZM183.188 61.188L182.012 61.188L182.012 63.344L183.188 63.33L183.188 61.188ZM187.514 66.438L188.326 66.438L188.326 64.842L187.514 64.842L187.514 66.438Z">
</path>
</g>
<g >
<path     fill="#000000"  d="M122.218 91.614L122.218 93.294L117.878 93.294L117.878 95.59L122.218 95.59L122.218 101.414L114.7 101.092L114.7 99.286L120.132 99.524L120.132 97.27L114.7 97.27L114.7 91.614L122.218 91.614ZM125.354 100.686L130.534 95.002L132.2 96.402L128.322 100.532L132.774 100.294L131.57 98.418L133.138 97.34L135.994 101.82L134.426 102.884L133.894 102.058L125.522 102.52L125.354 100.686ZM123.506 95.912L127.846 90.424L130.45 92.468L126.11 97.984L123.506 95.912ZM130.898 92.062L132.382 90.858L136.288 95.66L134.79 96.85L130.898 92.062ZM138.318 98.376L143.19 98.376L143.19 97.41L138.458 97.41L138.458 90.676L149.378 90.676L149.378 97.41L145.85 97.41L145.85 98.376L149.518 98.376L149.518 99.916L145.85 99.916L145.85 100.826L149.952 100.714L149.994 102.24L137.884 102.562L137.842 101.036L143.19 100.896L143.19 99.916L138.318 99.916L138.318 98.376ZM141.678 93.364L143.19 93.364L143.19 92.076L141.678 92.076L141.678 93.364ZM141.678 96.01L143.19 96.01L143.19 94.764L141.678 94.764L141.678 96.01ZM145.85 92.076L145.85 93.364L147.278 93.364L147.278 92.076L145.85 92.076ZM145.85 96.01L147.278 96.01L147.278 94.764L145.85 94.764L145.85 96.01ZM152.71 95.674L151.226 94.918L153.564 90.186L155.776 91.236L158.296 91.236L158.296 92.86L157.064 95.254L158.352 95.254L158.352 96.878L157.61 99.692L159.822 100.168L159.822 99.86L158.464 99.86L158.464 98.502L159.822 98.502L159.822 97.97L158.716 97.97L158.716 96.682L159.822 96.682L159.822 96.08L158.772 96.08L158.772 94.82L159.822 94.82L159.822 94.26L158.464 94.26L158.464 93.056L159.822 93.056L159.822 92.426L158.478 92.426L158.478 91.166L159.822 91.166L159.822 90.354L161.782 90.354L161.782 91.166L163.658 91.166L163.658 93.056L164.33 93.056L164.33 94.26L163.658 94.26L163.658 96.08L161.782 96.08L161.782 96.682L163.602 96.682L163.602 97.97L161.782 97.97L161.782 98.502L163.868 98.502L163.868 99.86L161.782 99.86L161.782 100.574L161.74 100.574L164.344 101.134L164.022 102.73L157.19 101.232L156.826 102.646L155.244 102.24L155.608 100.882L155.034 100.756L155.384 99.202L156.014 99.342L156.672 96.878L155.314 96.878L155.314 95.254L156.574 92.86L155.272 92.86L155.272 92.398L154.922 93.154L154.922 102.534L152.71 102.534L152.71 95.674ZM161.782 92.426L161.782 93.056L162.16 93.056L162.16 92.426L161.782 92.426ZM162.16 94.82L162.16 94.26L161.782 94.26L161.782 94.82L162.16 94.82ZM165.8 102.478L166.486 91.362L171.134 91.362L170.91 90.564L173.626 90.158L174.018 91.362L177.7 91.362L177.7 92.72L169.328 92.72L168.852 100.952L170.49 100.098L169.062 99.3L169.762 98.166L171.358 99.034L170.84 99.916L171.358 99.636L171.988 100.924L171.078 101.4L171.988 101.442L171.988 98.11L169.804 98.11L169.804 96.878L171.988 96.878L171.988 96.346L169.454 96.346L169.454 95.17L171.988 95.17L171.988 94.638L169.804 94.638L169.804 93.42L171.988 93.42L171.988 92.874L174.452 92.874L174.452 93.42L177.35 93.42L177.35 95.17L177.91 95.17L177.91 96.346L177.35 96.346L177.35 98.11L174.452 98.11L174.452 99.062L175.082 99.44L176.944 98.32L177.77 99.454L176.468 100.252L177.994 101.148L177.126 102.492L174.452 100.812L174.452 102.716L171.078 102.562L171.036 101.414L169.398 102.282L168.838 101.204L168.754 102.66L165.8 102.478ZM175.572 96.878L175.572 96.346L174.452 96.346L174.452 96.878L175.572 96.878ZM174.452 94.638L174.452 95.17L175.572 95.17L175.572 94.638L174.452 94.638ZM179.786 100.938L180.094 100.882L180.094 96.752L181.494 96.752L181.494 100.644L181.984 100.56L181.984 95.8L179.94 95.842L179.94 90.788L184.728 90.788L184.728 93.588L186.03 90.144L188.466 90.984L188.214 91.642L191.7 91.488L191.7 99.818L189.306 99.748L189.236 98.894L187.514 98.894L187.514 100.784L192.148 100.784L192.148 102.506L185.4 102.506L185.4 94.904L184.728 94.68L184.728 95.73L184 95.744L184 97.172L184.994 97.172L184.994 98.782L184 98.782L184 100.21L184.91 100.042L185.12 101.806L180.01 102.73L179.786 100.938ZM187.584 93.322L187.192 94.344L189.502 94.344L189.502 98.376L190.006 98.39L190.006 93.238L187.584 93.322ZM183.188 92.188L182.012 92.188L182.012 94.344L183.188 94.33L183.188 92.188ZM187.514 97.438L188.326 97.438L188.326 95.842L187.514 95.842L187.514 97.438Z">
</path>
</g>
<g >
<path     fill="#000000"  d="M114.7 125.616L114.7 123.936L119.572 123.614L119.572 133.414L116.394 133.414L116.394 125.504L114.7 125.616ZM120.972 123.936L128.504 123.614L128.504 133.414L120.972 133.414L120.972 123.936ZM124.15 131.734L126.418 131.734L126.418 125.378L124.15 125.476L124.15 131.734ZM131.64 132.686L136.82 127.002L138.486 128.402L134.608 132.532L139.06 132.294L137.856 130.418L139.424 129.34L142.28 133.82L140.712 134.884L140.18 134.058L131.808 134.52L131.64 132.686ZM129.792 127.912L134.132 122.424L136.736 124.468L132.396 129.984L129.792 127.912ZM137.184 124.062L138.668 122.858L142.574 127.66L141.076 128.85L137.184 124.062ZM144.604 130.376L149.476 130.376L149.476 129.41L144.744 129.41L144.744 122.676L155.664 122.676L155.664 129.41L152.136 129.41L152.136 130.376L155.804 130.376L155.804 131.916L152.136 131.916L152.136 132.826L156.238 132.714L156.28 134.24L144.17 134.562L144.128 133.036L149.476 132.896L149.476 131.916L144.604 131.916L144.604 130.376ZM147.964 125.364L149.476 125.364L149.476 124.076L147.964 124.076L147.964 125.364ZM147.964 128.01L149.476 128.01L149.476 126.764L147.964 126.764L147.964 128.01ZM152.136 124.076L152.136 125.364L153.564 125.364L153.564 124.076L152.136 124.076ZM152.136 128.01L153.564 128.01L153.564 126.764L152.136 126.764L152.136 128.01ZM158.996 127.674L157.512 126.918L159.85 122.186L162.062 123.236L164.582 123.236L164.582 124.86L163.35 127.254L164.638 127.254L164.638 128.878L163.896 131.692L166.108 132.168L166.108 131.86L164.75 131.86L164.75 130.502L166.108 130.502L166.108 129.97L165.002 129.97L165.002 128.682L166.108 128.682L166.108 128.08L165.058 128.08L165.058 126.82L166.108 126.82L166.108 126.26L164.75 126.26L164.75 125.056L166.108 125.056L166.108 124.426L164.764 124.426L164.764 123.166L166.108 123.166L166.108 122.354L168.068 122.354L168.068 123.166L169.944 123.166L169.944 125.056L170.616 125.056L170.616 126.26L169.944 126.26L169.944 128.08L168.068 128.08L168.068 128.682L169.888 128.682L169.888 129.97L168.068 129.97L168.068 130.502L170.154 130.502L170.154 131.86L168.068 131.86L168.068 132.574L168.026 132.574L170.63 133.134L170.308 134.73L163.476 133.232L163.112 134.646L161.53 134.24L161.894 132.882L161.32 132.756L161.67 131.202L162.3 131.342L162.958 128.878L161.6 128.878L161.6 127.254L162.86 124.86L161.558 124.86L161.558 124.398L161.208 125.154L161.208 134.534L158.996 134.534L158.996 127.674ZM168.068 124.426L168.068 125.056L168.446 125.056L168.446 124.426L168.068 124.426ZM168.446 126.82L168.446 126.26L168.068 126.26L168.068 126.82L168.446 126.82ZM172.086 134.478L172.772 123.362L177.42 123.362L177.196 122.564L179.912 122.158L180.304 123.362L183.986 123.362L183.986 124.72L175.614 124.72L175.138 132.952L176.776 132.098L175.348 131.3L176.048 130.166L177.644 131.034L177.126 131.916L177.644 131.636L178.274 132.924L177.364 133.4L178.274 133.442L178.274 130.11L176.09 130.11L176.09 128.878L178.274 128.878L178.274 128.346L175.74 128.346L175.74 127.17L178.274 127.17L178.274 126.638L176.09 126.638L176.09 125.42L178.274 125.42L178.274 124.874L180.738 124.874L180.738 125.42L183.636 125.42L183.636 127.17L184.196 127.17L184.196 128.346L183.636 128.346L183.636 130.11L180.738 130.11L180.738 131.062L181.368 131.44L183.23 130.32L184.056 131.454L182.754 132.252L184.28 133.148L183.412 134.492L180.738 132.812L180.738 134.716L177.364 134.562L177.322 133.414L175.684 134.282L175.124 133.204L175.04 134.66L172.086 134.478ZM181.858 128.878L181.858 128.346L180.738 128.346L180.738 128.878L181.858 128.878ZM180.738 126.638L180.738 127.17L181.858 127.17L181.858 126.638L180.738 126.638ZM186.072 132.938L186.38 132.882L186.38 128.752L187.78 128.752L187.78 132.644L188.27 132.56L188.27 127.8L186.226 127.842L186.226 122.788L191.014 122.788L191.014 125.588L192.316 122.144L194.752 122.984L194.5 123.642L197.986 123.488L197.986 131.818L195.592 131.748L195.522 130.894L193.8 130.894L193.8 132.784L198.434 132.784L198.434 134.506L191.686 134.506L191.686 126.904L191.014 126.68L191.014 127.73L190.286 127.744L190.286 129.172L191.28 129.172L191.28 130.782L190.286 130.782L190.286 132.21L191.196 132.042L191.406 133.806L186.296 134.73L186.072 132.938ZM193.87 125.322L193.478 126.344L195.788 126.344L195.788 130.376L196.292 130.39L196.292 125.238L193.87 125.322ZM189.474 124.188L188.298 124.188L188.298 126.344L189.474 126.33L189.474 124.188ZM193.8 129.438L194.612 129.438L194.612 127.842L193.8 127.842L193.8 129.438Z">
</path>
</g>
</svg>
