<svg xmlns="http://www.w3.org/2000/svg" xmlns:xlink="http://www.w3.org/1999/xlink" width="140.73600006103516" height="23.2080078125" viewBox="0 0 140.73600006103516 23.2080078125" fill="none">
<g >
<path     fill="#000000"  d="M0.503998 20.136L3.384 15.264L0.143998 15.384L-1.66893e-06 12.552L20.064 11.784L20.232 14.616L15.984 14.784L15.984 18.768L20.424 18.768L20.424 21.624L11.424 21.624L11.424 14.952L9.048 15.048L4.776 22.2L0.503998 20.136ZM0.0719984 3.09599L5.136 3.09599L5.136 3.62399L7.872 3.55199L7.248 1.41599L12.6 0.383993L13.368 3.35999L20.112 3.14399L20.112 8.68799L17.232 8.68799L17.232 5.87999L5.136 6.26399L5.136 8.68799L0.0719984 8.68799L0.0719984 3.09599ZM5.808 7.72799L16.632 7.72799L16.632 10.56L5.808 10.56L5.808 7.72799ZM40.032 2.78399L43.608 2.78399L43.608 4.96799L36.792 4.96799L36.792 5.80799L42.648 5.80799L42.648 7.89599L36.792 7.89599L36.792 8.83199L43.896 8.75999L43.944 10.92L38.784 10.992L42.096 11.784L41.784 12.648L44.472 12.576L44.52 14.76L23.784 15.288L23.736 13.104L26.664 13.032L26.232 11.784L29.112 11.088L24.24 11.136L24.192 8.97599L31.464 8.90399L31.464 7.89599L25.416 7.89599L25.416 5.80799L31.464 5.80799L31.464 4.96799L24.48 4.96799L24.48 2.78399L28.536 2.78399L28.056 1.36799L32.184 0.527994L32.88 2.78399L36.504 2.78399L37.176 0.719994L40.536 1.34399L40.032 2.78399ZM25.2 15.84L42.792 15.84L42.792 21.672L25.2 21.864L25.2 15.84ZM30.984 19.8L38.712 19.728L38.712 17.688L30.984 17.688L30.984 19.8ZM36.792 12.792L37.944 12.744L38.52 10.992L36.792 10.992L36.792 12.792ZM30.432 12.936L31.464 12.912L31.464 11.064L29.832 11.088L30.432 12.936ZM52.584 5.61599L53.544 5.61599L53.544 4.75199L57.912 4.75199L57.912 5.61599L60.12 5.61599L60.12 4.75199L63.456 4.75199L63.456 5.61599L64.872 5.61599L64.872 7.39199L63.456 7.39199L63.456 8.08799L66.24 8.08799L66.24 9.83999L63.456 9.83999L63.456 10.512L68.208 10.488L68.256 12.528L64.56 12.552L68.592 15.144L67.416 17.304L65.544 16.056L65.544 18.24L62.496 18.24L62.496 15.504L60.432 15.504L61.704 17.496L60.792 18.024L67.344 20.664L66.312 22.992L59.208 20.112L59.952 18.528L51.888 23.208L50.088 20.28L53.832 18.264L51.36 18.264L51.36 16.584L49.968 17.568L48.024 14.736L51.024 12.648L48.144 12.648L48.096 10.608L53.544 10.584L53.544 9.83999L51.024 9.83999L51.024 8.08799L53.544 8.08799L53.544 7.39199L52.584 7.39199L52.584 5.61599ZM47.952 1.77599L52.32 1.77599L52.32 2.27999L55.464 2.18399L55.104 1.03199L60.456 -5.72205e-06L60.96 2.01599L68.016 1.77599L68.016 7.29599L65.256 7.29599L65.256 4.12799L52.32 4.53599L52.32 7.31999L47.952 7.31999L47.952 1.77599ZM55.416 13.656L62.016 13.656L60.408 12.576L56.88 12.6L55.416 13.656ZM56.112 17.04L58.944 15.504L56.112 15.504L56.112 17.04ZM57.912 10.56L60.12 10.536L60.12 9.83999L57.912 9.83999L57.912 10.56ZM57.912 8.08799L60.12 8.08799L60.12 7.39199L57.912 7.39199L57.912 8.08799ZM72.288 2.03999L79.32 2.03999L79.32 0.767994L84.84 0.767994L84.84 2.03999L91.968 2.03999L91.968 3.95999L84.84 3.95999L84.84 4.84799L90.96 4.84799L90.96 9.71999L84.84 9.81599L84.84 10.872L91.296 10.872L91.296 13.584L92.568 13.584L92.568 15.504L91.296 15.504L91.296 18.312L84.84 18.312L84.84 22.152L77.256 21.792L77.136 19.296L79.32 19.416L79.32 18.312L73.008 18.312L73.008 16.392L79.32 16.392L79.32 15.504L71.688 15.504L71.688 13.584L79.32 13.584L79.32 12.792L72.984 12.792L72.984 10.872L79.32 10.872L79.32 9.88799L73.296 9.95999L73.296 4.84799L79.32 4.84799L79.32 3.95999L72.288 3.95999L72.288 2.03999ZM76.704 8.01599L79.32 7.99199L79.32 6.76799L76.704 6.76799L76.704 8.01599ZM84.84 6.76799L84.84 7.91999L87.552 7.87199L87.552 6.76799L84.84 6.76799ZM87.696 16.392L87.696 15.504L84.84 15.504L84.84 16.392L87.696 16.392ZM84.84 12.792L84.84 13.584L87.696 13.584L87.696 12.792L84.84 12.792ZM97.824 10.128L95.016 8.03999L100.44 0.671993L103.464 2.83199L108 2.83199L107.616 1.10399L111.696 0.527994L112.224 2.83199L116.496 2.83199L116.496 5.47199L103.176 5.47199L103.176 3.83999L101.784 5.83199L101.784 21.744L97.824 21.744L97.824 10.128ZM103.728 13.992L115.968 13.992L115.968 21.408L103.728 21.72L103.728 13.992ZM103.752 10.368L115.92 10.368L115.92 12.768L103.752 12.768L103.752 10.368ZM103.752 6.62399L115.92 6.62399L115.92 9.02399L103.752 9.02399L103.752 6.62399ZM108.408 18.744L112.608 18.648L112.608 16.632L108.408 16.632L108.408 18.744ZM121.608 2.32799L126.936 2.32799L127.632 0.311995L131.496 1.27199L131.112 2.32799L138.624 2.32799L138.624 13.968L133.104 14.064L134.784 17.064L131.592 18.528L129.816 15.24L132.432 14.088L121.608 14.256L121.608 2.32799ZM124.896 15.072L129.576 14.784L129.744 19.008L136.296 19.008L136.296 21.504L125.232 21.504L124.896 15.072ZM119.616 19.992L121.008 14.832L124.296 15.648L122.904 20.808L119.616 19.992ZM135.888 15.672L138.816 14.664L140.736 19.056L137.808 20.04L135.888 15.672ZM135.024 11.856L135.024 10.824L126.96 10.824L126.96 11.928L135.024 11.856ZM126.96 8.80799L135.024 8.80799L135.024 7.77599L126.96 7.77599L126.96 8.80799ZM126.96 5.73599L135.024 5.73599L135.024 4.75199L126.96 4.75199L126.96 5.73599Z">
</path>
</g>
</svg>
