<svg xmlns="http://www.w3.org/2000/svg" xmlns:xlink="http://www.w3.org/1999/xlink" width="69" height="68" viewBox="0 0 69 68" fill="none">
<ellipse cx="34.5" cy="34" rx="34.5" ry="34"   fill="#43CF7C" >
</ellipse>
<path d="M28 41L49 29.5769L28 14L28 41Z"   fill="#FFFFFF" >
</path>
<g >
<path     fill="#000000"  d="M22.652 59.8Q23.516 58.732 23.948 57.604Q24.38 56.476 24.5 55.216L22.064 55.216L22.064 53.668L24.548 53.668L24.548 50.788L22.808 50.788L22.808 49.228L32.192 49.228L32.192 50.788L30.608 50.788L30.608 53.668L32.936 53.668L32.936 55.216L30.608 55.216L30.608 59.8L29.048 59.8L29.048 55.216L26.072 55.216Q25.988 56.536 25.652 57.622Q25.316 58.708 24.644 59.8L22.652 59.8ZM29.048 53.668L29.048 50.788L26.108 50.788L26.108 53.668L29.048 53.668ZM36.992 58.132Q36.56 58.996 36.068 59.8L34.172 59.8Q35.204 58.312 35.756 57.22L34.136 56.008L34.736 51.916L34.1 51.916L34.1 50.356L34.964 50.356L35.168 49L36.824 49L36.644 50.356L38.444 50.356Q38.444 52.492 38.276 53.92Q38.108 55.348 37.604 56.692L38.396 57.304L38.396 59.188L36.992 58.132ZM36.368 55.744Q36.884 54.148 36.992 51.916L36.2 51.916L35.732 55.252L36.368 55.744ZM38.624 52.312L39.272 52.312L40.7 48.952L42.38 48.952L40.952 52.312L43.004 52.312L42.584 50.992L44.18 50.992L45.08 53.8L38.624 53.8L38.624 52.312ZM38.972 54.676L44.636 54.676L44.636 59.704L38.972 59.704L38.972 54.676ZM43.244 58.264L43.244 56.116L40.364 56.116L40.364 58.264L43.244 58.264Z">
</path>
</g>
</svg>
