<svg xmlns="http://www.w3.org/2000/svg" xmlns:xlink="http://www.w3.org/1999/xlink" width="539.0005950927734" height="257" viewBox="0 0 539.0005950927734 257" fill="none">
<rect  x="0.0005950927734375" y="0" width="539" height="257" rx="26"    fill="#FAEBEB" >
</rect>
<rect  x="31.420974731445312" y="11.093521118164062" width="107.19900512695312" height="33.280561447143555" rx="10"    fill="#FF0303" >
</rect>
<rect  x="164.4956512451172" y="11.093521118164062" width="107.19903564453125" height="33.280561447143555" rx="10"    fill="#FF0303" >
</rect>
<g >
<path     fill="#FFFFFF"  d="M61.9524 24.4874L65.8724 24.4874L65.8724 26.0234L71.0724 26.0234L71.0724 22.1834L61.6484 22.1834L61.6484 20.2634L74.1124 20.2634L74.1124 27.9434L65.8724 27.9434L65.8724 31.5914L74.7684 31.3034L74.8484 33.2714L61.9524 33.6714L61.9524 24.4874ZM85.7604 33.0954L85.7604 33.8634L82.7204 33.8634L82.7204 20.2314L90.7524 20.2314L90.7524 25.2874L87.0884 25.0314L87.2004 23.2714L88.5124 23.3674L88.5124 22.1514L85.7604 22.1514L85.7604 25.7194L90.9444 25.7194L90.9444 27.6394L89.1844 30.3594L91.4084 32.3914L90.0644 33.7514L88.1284 31.9914L86.9764 33.7834L85.7604 33.0954ZM77.3444 33.5114L77.2644 31.6234L78.3684 31.7194L78.3684 29.3514L77.4724 29.7194L76.7524 27.7354L78.3684 27.0794L78.3684 24.0554L76.8484 24.0554L76.8484 22.1354L78.3684 22.1354L78.3684 19.8634L81.0884 19.8634L81.0884 22.1354L82.2404 22.1354L82.2404 24.0554L81.0884 24.0554L81.0884 25.9434L81.7924 25.6554L82.4964 27.6394L81.0884 28.2314L81.0884 33.8474L77.3444 33.5114ZM86.6564 28.0554L87.6644 28.9834L88.6884 27.4794L85.7604 27.4794L85.7604 28.9514L86.6564 28.0554ZM85.7604 29.8154L85.7604 31.7994L86.5924 30.5674L85.7604 29.8154ZM92.9604 24.2154L97.4564 19.4954L100.064 21.6554L100.032 21.6874L105.84 21.6874L105.84 23.3514L100.928 27.3034L106.56 27.3034L106.56 33.5754L96.6404 33.8634L96.6404 30.7594L95.0404 32.0394L93.4724 30.0714L96.9284 27.3354L96.1764 26.6474L98.4484 24.4074L99.4884 25.3034L101.616 23.6074L98.2084 23.6074L95.5524 26.4234L92.9604 24.2154ZM100.64 31.8634L103.36 31.7834L103.36 29.2234L100.64 29.2234L100.64 31.8634Z">
</path>
</g>
<g >
<path     fill="#FFFFFF"  d="M203.779 21.2074L212.371 21.2074L212.371 32.4074L203.779 32.0394L203.779 29.9754L208.739 30.1834L208.739 27.6714L203.779 27.6714L203.779 25.7514L208.739 25.7514L208.739 23.1274L203.779 23.1274L203.779 21.2074ZM222.771 30.8394L220.995 32.4074L217.875 28.9514L217.123 29.3514L217.123 32.4074L213.491 32.4074L213.491 21.2074L217.123 21.2074L217.123 26.6634L221.395 24.4074L222.499 26.5194L220.051 27.7994L222.771 30.8394ZM234.579 24.4074L234.579 32.4074L232.195 32.4074L232.195 26.3274L230.883 26.3274L230.883 32.4074L228.499 32.4074L228.499 26.3274L226.883 26.3274L226.883 32.4074L223.251 32.4074L223.251 24.4074L234.579 24.4074Z">
</path>
</g>
<g >
<path     fill="#000000"  d="M36.3175 55.847L49.2055 55.847L49.2055 65.543L39.8935 65.543L39.8935 69.407L49.2055 68.999L49.2055 72.095L36.3175 72.647L36.3175 62.663L43.7575 62.663L43.7575 58.727L39.8935 58.727L39.8935 59.831L36.3175 59.831L36.3175 55.847ZM51.6055 56.399L64.5175 55.847L64.5175 72.647L51.6055 72.647L51.6055 56.399ZM57.0535 69.767L60.9415 69.767L60.9415 58.871L57.0535 59.039L57.0535 69.767ZM66.9175 55.847L79.8055 55.847L79.8055 65.543L70.4935 65.543L70.4935 69.407L79.8055 68.999L79.8055 72.095L66.9175 72.647L66.9175 62.663L74.3575 62.663L74.3575 58.727L70.4935 58.727L70.4935 59.831L66.9175 59.831L66.9175 55.847ZM93.5575 64.367L95.2615 64.367L95.2615 67.247L93.5575 67.247L93.5575 72.647L89.9815 72.647L89.9815 67.247L82.2055 67.247L82.2055 64.367L83.7415 55.847L88.4455 56.687L87.0535 64.367L89.9815 64.367L89.9815 55.847L93.5575 55.847L93.5575 64.367ZM116.933 63.455L109.637 63.263L109.517 60.935L112.565 61.007L112.565 58.967L106.013 58.967L106.013 64.247L118.205 64.079L118.205 74.879L110.597 74.663L110.477 72.143L113.693 72.239L113.693 66.671L100.085 66.887L100.085 56.255L105.557 56.255L106.301 53.279L111.341 54.383L110.861 56.255L116.933 56.255L116.933 63.455ZM98.3575 68.255L112.973 68.255L112.973 70.967L98.3575 70.967L98.3575 68.255ZM123.653 59.423L121.757 57.719L127.997 52.655L130.397 54.719L130.301 54.815L139.085 54.695L139.421 56.255L138.701 57.215L141.461 57.215L141.461 64.439L123.653 64.607L123.653 59.423ZM124.445 67.535L141.029 67.535L141.029 74.471L124.445 74.687L124.445 67.535ZM122.093 65.255L142.637 64.967L142.685 66.911L122.141 67.175L122.093 65.255ZM129.053 70.295L137.621 70.295L137.621 69.575L129.053 69.575L129.053 70.295ZM137.621 72.863L137.621 72.191L129.053 72.191L129.053 72.911L137.621 72.863ZM137.861 61.799L134.477 61.799L134.477 62.759L137.861 62.711L137.861 61.799ZM127.973 56.687L127.349 57.215L132.629 57.215L133.133 56.567L127.973 56.687ZM134.477 59.183L134.477 60.071L137.861 60.071L137.861 59.183L134.477 59.183ZM128.573 62.807L131.381 62.783L131.381 61.799L128.573 61.799L128.573 62.807ZM128.573 60.071L131.381 60.071L131.381 59.183L128.573 59.183L128.573 60.071ZM145.397 71.063L151.133 60.911L146.237 60.911L146.093 58.079L153.629 58.055L153.629 53.615L159.461 53.615L159.461 58.055L166.133 58.031L166.301 60.863L159.461 60.887L159.461 63.911L162.821 62.375L167.453 71.015L163.997 72.647L159.461 64.223L159.461 75.023L153.629 75.023L153.629 66.263L149.861 73.367L145.397 71.063ZM170.309 55.991L177.677 55.847L177.269 54.023L182.645 53.375L183.197 55.751L190.373 55.607L190.445 58.559L188.405 58.607L188.909 59.567L183.581 62.327L190.277 65.231L189.053 68.063L187.565 67.391L187.565 74.735L183.221 74.735L183.221 66.407L185.381 66.407L180.197 64.079L175.949 66.311L179.093 67.007L176.981 74.783L171.989 73.583L173.741 67.439L171.677 68.519L169.733 65.519L176.189 62.279L173.381 61.007L174.317 58.871L170.357 58.943L170.309 55.991ZM175.565 58.847L179.573 60.599L183.341 58.703L175.565 58.847ZM214.373 74.783L206.069 74.375L205.949 71.519L209.093 71.687L209.093 65.855L196.493 66.407L196.229 63.455L197.909 58.367L203.189 59.423L201.869 63.191L207.821 62.951L208.517 57.263L195.605 57.263L195.605 54.383L213.221 54.383L212.357 62.759L214.373 62.663L214.373 74.783ZM194.477 67.847L207.557 67.847L207.557 70.727L194.477 70.727L194.477 67.847ZM217.733 57.599L219.893 57.599L219.893 53.735L223.973 53.735L223.973 57.599L225.917 57.599L225.917 60.551L223.973 60.551L223.973 63.335L225.461 62.711L226.421 65.567L223.973 66.575L223.973 74.687L218.453 74.183L218.333 71.351L219.893 71.495L219.893 68.231L218.381 68.831L217.397 65.999L219.893 64.991L219.893 60.551L217.733 60.551L217.733 57.599ZM226.493 57.383L230.237 57.383L229.613 54.767L234.341 53.735L235.229 57.383L238.493 57.383L238.493 60.311L226.493 60.311L226.493 57.383ZM226.037 71.375L239.093 70.943L239.213 73.895L226.157 74.351L226.037 71.375ZM226.757 62.663L230.453 61.631L232.517 69.575L228.773 70.679L226.757 62.663ZM233.117 70.343L234.917 61.583L238.205 62.183L236.405 70.943L233.117 70.343ZM251.285 71.975L254.069 63.911L250.709 62.663L253.685 53.855L257.021 54.887L259.829 53.831L263.237 63.503L260.405 64.631L257.213 55.655L254.765 62.879L258.413 64.055L255.869 71.495L259.157 71.207L257.981 67.367L261.053 66.311L263.357 73.775L260.285 74.807L259.949 73.727L251.429 74.495L251.285 71.975ZM241.133 70.679L243.773 60.599L242.045 60.599L242.045 57.719L244.949 57.719L244.949 53.447L248.885 53.375L248.885 57.719L250.877 57.719L250.877 60.599L248.885 60.599L248.885 62.327L250.229 61.847L251.837 67.415L249.509 68.183L248.885 65.999L248.885 74.975L244.949 75.023L244.949 67.535L243.989 71.447L241.133 70.679ZM273.557 58.871L275.885 58.679L275.069 54.143L279.869 53.423L280.733 58.247L285.917 57.791L286.133 60.671L281.237 61.079L281.549 62.759L286.493 62.255L286.757 65.135L282.053 65.591L282.365 67.247L286.181 65.759L287.309 68.447L282.893 70.175L283.061 71.087L286.613 70.223L287.309 73.127L278.885 74.879L278.333 71.927L275.237 73.127L274.109 70.463L277.805 69.023L277.253 66.047L273.821 66.383L273.557 63.527L276.725 63.215L276.413 61.463L273.773 61.679L273.557 58.871ZM266.117 66.887L267.989 63.047L265.397 62.015L269.261 53.519L273.389 55.151L270.965 60.359L273.605 61.319L270.749 66.887L273.365 66.887L273.365 69.767L266.117 69.767L266.117 66.887ZM265.637 71.735L273.677 71.231L273.677 74.087L265.637 74.591L265.637 71.735ZM280.877 54.743L283.589 53.039L285.653 55.991L282.941 57.695L280.877 54.743ZM289.901 71.423L296.381 71.207L296.381 54.479L302.429 54.479L302.429 60.839L310.301 60.839L310.301 63.743L302.429 63.743L302.429 71.015L310.661 70.727L310.781 73.583L290.021 74.279L289.901 71.423ZM313.949 71.831L314.477 71.735L314.477 64.655L316.877 64.655L316.877 71.327L317.717 71.183L317.717 63.023L314.214 63.095L314.214 54.431L322.421 54.431L322.421 59.231L324.653 53.327L328.829 54.767L328.397 55.895L334.373 55.631L334.373 69.911L330.269 69.791L330.149 68.327L327.197 68.327L327.197 71.567L335.141 71.567L335.141 74.519L323.573 74.519L323.573 61.487L322.421 61.103L322.421 62.903L321.173 62.927L321.173 65.375L322.878 65.375L322.878 68.135L321.173 68.135L321.173 70.583L322.733 70.295L323.093 73.319L314.333 74.903L313.949 71.831ZM327.317 58.775L326.645 60.527L330.605 60.527L330.605 67.439L331.469 67.463L331.469 58.631L327.317 58.775ZM319.781 56.831L317.765 56.831L317.765 60.527L319.781 60.503L319.781 56.831ZM327.197 65.831L328.589 65.831L328.589 63.095L327.197 63.095L327.197 65.831Z">
</path>
</g>
<g >
<path     fill="#A6A6A6"  d="M45.4625 99.3811L44.2565 99.3811L44.2565 96.5371L50.8985 96.5371Q50.7725 96.1591 50.6465 95.7901Q50.5205 95.4211 50.4305 95.1691L51.6545 94.9351Q51.7625 95.1871 51.9245 95.6461Q52.0865 96.1051 52.2305 96.5371L58.4225 96.5371L58.4225 99.3811L57.2165 99.3811L57.2165 97.5631L45.4625 97.5631L45.4625 99.3811ZM54.5525 103.881Q55.3805 104.673 56.7035 105.312Q58.0265 105.951 59.6105 106.437L59.0885 107.571Q57.3785 106.959 56.0105 106.167L56.0105 108.651L54.7865 108.651L54.7865 106.059L47.8565 106.059L47.8565 108.669L46.6685 108.669L46.6685 106.203Q45.9845 106.617 45.2465 106.995Q44.5085 107.373 43.7165 107.715L43.0865 106.653Q43.8245 106.365 44.5445 106.041Q45.2645 105.717 45.9125 105.366Q46.5605 105.015 47.1095 104.637Q47.6585 104.259 48.0725 103.881L43.8245 103.881L43.8245 102.909L48.4145 102.909L48.4145 101.901L45.5525 101.901L45.5525 100.947L48.4145 100.947L48.4145 99.9931L45.8045 99.9931L45.8045 99.0211L48.4145 99.0211L48.4145 98.2291L49.6745 98.2831L49.6745 99.0211L53.0405 99.0211L53.0405 98.2291L54.2825 98.2831L54.2825 99.0211L56.8745 99.0211L56.8745 99.9931L54.2825 99.9931L54.2825 100.947L57.1625 100.947L57.1625 101.901L54.2825 101.901L54.2825 102.909L58.8365 102.909L58.8365 103.881L54.5525 103.881ZM49.6745 100.947L53.0405 100.947L53.0405 99.9931L49.6745 99.9931L49.6745 100.947ZM49.6745 102.909L53.0405 102.909L53.0405 101.901L49.6745 101.901L49.6745 102.909ZM54.3545 105.069Q53.6525 104.529 53.0945 103.881L49.5485 103.881Q49.0085 104.511 48.2885 105.069L54.3545 105.069ZM52.0685 106.689Q51.9425 107.589 51.6095 108.273Q51.2765 108.957 50.4845 109.497Q49.6925 110.037 48.3335 110.478Q46.9745 110.919 44.7965 111.369L44.2925 110.253Q46.2725 109.911 47.5055 109.524Q48.7385 109.137 49.4315 108.687Q50.1245 108.237 50.3945 107.724Q50.6645 107.211 50.7365 106.599L52.0685 106.689ZM52.0685 108.183Q52.7165 108.363 53.4995 108.615Q54.2825 108.867 55.0925 109.137Q55.9025 109.407 56.6855 109.686Q57.4685 109.965 58.1165 110.199L57.7205 111.441Q57.0905 111.153 56.2895 110.829Q55.4885 110.505 54.6515 110.19Q53.8145 109.875 53.0225 109.605Q52.2305 109.335 51.6185 109.173L52.0685 108.183ZM76.8725 106.041L75.3245 106.041L75.3245 108.327L69.7625 108.327L69.7625 109.191Q69.7625 109.713 69.6545 110.055Q69.5465 110.397 69.2945 110.604Q69.0425 110.811 68.6285 110.91Q68.2145 111.009 67.5845 111.045L66.4325 111.135L65.9465 109.875Q66.1805 109.875 66.4505 109.857Q66.6845 109.839 66.9725 109.839Q67.2605 109.839 67.5665 109.803Q67.8905 109.785 68.0705 109.758Q68.2505 109.731 68.3495 109.641Q68.4485 109.551 68.4665 109.38Q68.4845 109.209 68.4845 108.885L68.4845 108.327L62.4365 108.327L62.4365 107.283L68.4845 107.283L68.4845 106.041L61.1765 106.041L61.1765 104.979L68.4845 104.979L68.4845 103.845L62.4365 103.845L62.4365 102.801L68.4845 102.801L68.4845 101.721L63.2465 101.721L63.2465 98.5351L68.4845 98.5351L68.4845 97.4191L61.2125 97.4191L61.2125 96.3031L68.4845 96.3031L68.4845 95.0251L69.7625 95.0971L69.7625 96.3031L76.8365 96.3031L76.8365 97.4191L69.7625 97.4191L69.7625 98.5351L74.9465 98.5351L74.9465 101.721L69.7625 101.721L69.7625 102.801L75.3245 102.801L75.3245 104.979L76.8725 104.979L76.8725 106.041ZM68.4845 100.731L68.4845 99.5251L64.5425 99.5251L64.5425 100.731L68.4845 100.731ZM69.7625 99.5251L69.7625 100.731L73.6505 100.731L73.6505 99.5251L69.7625 99.5251ZM69.7625 104.979L74.0645 104.979L74.0645 103.845L69.7625 103.845L69.7625 104.979ZM74.0645 106.041L69.7625 106.041L69.7625 107.283L74.0645 107.283L74.0645 106.041ZM92.3885 96.3031L92.3885 111.099L91.0385 111.099L91.0385 109.893L82.6685 109.893L82.6685 111.099L81.3185 111.099L81.3185 96.3031L92.3885 96.3031ZM82.6685 97.5631L82.6685 102.225L91.0385 102.225L91.0385 97.5631L82.6685 97.5631ZM91.0385 108.579L91.0385 103.503L82.6685 103.503L82.6685 108.579L91.0385 108.579ZM105.276 106.761L96.3665 106.761L96.3665 105.627L98.3465 105.627L98.3465 98.1211L97.0685 98.1211L97.0685 96.9871L98.3465 96.9871L98.3465 95.1871L99.5525 95.2411L99.5525 96.9871L102.684 96.9871L102.684 95.1871L103.89 95.2411L103.89 96.9871L105.258 96.9871L105.258 98.1211L103.89 98.1211L103.89 105.627L105.276 105.627L105.276 106.761ZM111.486 96.0511L111.486 109.137Q111.486 109.659 111.405 109.965Q111.324 110.271 111.135 110.451Q110.946 110.631 110.622 110.712Q110.298 110.793 109.794 110.865L108.876 110.991L108.408 109.803L109.38 109.695Q109.686 109.659 109.857 109.614Q110.028 109.569 110.118 109.479Q110.208 109.389 110.235 109.209Q110.262 109.029 110.262 108.723L110.262 105.825L107.166 105.825Q107.094 106.725 106.941 107.436Q106.788 108.147 106.518 108.786Q106.248 109.425 105.843 110.055Q105.438 110.685 104.862 111.405L103.71 110.685Q104.268 110.037 104.664 109.479Q105.06 108.921 105.321 108.372Q105.582 107.823 105.726 107.229Q105.87 106.635 105.942 105.897Q106.014 105.159 106.032 104.232Q106.05 103.305 106.05 102.081L106.05 96.0511L111.486 96.0511ZM107.256 97.2751L107.256 100.335L110.262 100.335L110.262 97.2751L107.256 97.2751ZM99.5525 98.1211L99.5525 99.8311L102.684 99.8311L102.684 98.1211L99.5525 98.1211ZM99.5525 102.675L102.684 102.675L102.684 100.947L99.5525 100.947L99.5525 102.675ZM110.262 104.601L110.262 101.541L107.256 101.541L107.256 102.711Q107.256 103.233 107.256 103.71Q107.256 104.187 107.238 104.601L110.262 104.601ZM99.5525 105.627L102.684 105.627L102.684 103.773L99.5525 103.773L99.5525 105.627ZM102.378 107.031Q102.972 107.535 103.476 108.012Q103.98 108.489 104.484 109.011L103.692 109.983Q103.512 109.767 103.242 109.479Q102.972 109.191 102.675 108.894Q102.378 108.597 102.072 108.327Q101.766 108.057 101.532 107.859L102.378 107.031ZM96.6725 110.253Q97.0145 109.965 97.4015 109.605Q97.7885 109.245 98.1665 108.84Q98.5445 108.435 98.8955 107.994Q99.2465 107.553 99.5165 107.085L100.506 107.841Q99.8585 108.759 99.1205 109.596Q98.3825 110.433 97.6985 111.135L96.6725 110.253ZM118.02 101.937Q117.39 101.937 117.129 101.739Q116.868 101.541 116.868 100.803Q116.868 100.065 117.129 99.8671Q117.39 99.6691 118.02 99.6691Q118.632 99.6691 118.902 99.8671Q119.172 100.065 119.172 100.803Q119.172 101.541 118.902 101.739Q118.632 101.937 118.02 101.937ZM118.02 109.605Q117.39 109.605 117.129 109.407Q116.868 109.209 116.868 108.453Q116.868 107.733 117.129 107.535Q117.39 107.337 118.02 107.337Q118.632 107.337 118.902 107.535Q119.172 107.733 119.172 108.453Q119.172 109.209 118.902 109.407Q118.632 109.605 118.02 109.605ZM132.096 107.787Q134.094 106.221 135.3 105.123Q136.506 104.025 137.172 103.197Q137.838 102.369 138.054 101.712Q138.27 101.055 138.27 100.389Q138.27 99.7231 138.027 99.2911Q137.784 98.8591 137.406 98.6071Q137.028 98.3551 136.551 98.2651Q136.074 98.1751 135.624 98.1751Q135.03 98.1751 134.364 98.2381Q133.698 98.3011 132.96 98.4991L132.96 97.1131Q133.59 96.9691 134.301 96.8971Q135.012 96.8251 135.804 96.8251Q136.722 96.8251 137.46 97.0231Q138.198 97.2211 138.729 97.6531Q139.26 98.0851 139.539 98.7691Q139.818 99.4531 139.818 100.407Q139.818 101.253 139.566 102Q139.314 102.747 138.72 103.548Q138.126 104.349 137.118 105.276Q136.11 106.203 134.598 107.409L133.878 107.967L133.878 108.129L140.322 108.129L140.322 109.497L132.096 109.497L132.096 107.787ZM146.586 109.677Q145.65 109.677 144.876 109.398Q144.102 109.119 143.544 108.399Q142.986 107.679 142.68 106.428Q142.374 105.177 142.374 103.251Q142.374 101.325 142.68 100.083Q142.986 98.8411 143.544 98.1121Q144.102 97.3831 144.876 97.1041Q145.65 96.8251 146.586 96.8251Q147.522 96.8251 148.305 97.1041Q149.088 97.3831 149.646 98.1121Q150.204 98.8411 150.51 100.083Q150.816 101.325 150.816 103.251Q150.816 105.177 150.51 106.428Q150.204 107.679 149.646 108.399Q149.088 109.119 148.305 109.398Q147.522 109.677 146.586 109.677ZM146.586 108.327Q147.252 108.327 147.738 108.102Q148.224 107.877 148.548 107.301Q148.872 106.725 149.025 105.744Q149.178 104.763 149.178 103.251Q149.178 101.757 149.025 100.776Q148.872 99.7951 148.548 99.2191Q148.224 98.6431 147.738 98.4181Q147.252 98.1931 146.586 98.1931Q145.938 98.1931 145.452 98.4181Q144.966 98.6431 144.651 99.2191Q144.336 99.7951 144.183 100.776Q144.03 101.757 144.03 103.251Q144.03 104.763 144.183 105.744Q144.336 106.725 144.651 107.301Q144.966 107.877 145.452 108.102Q145.938 108.327 146.586 108.327ZM152.796 107.787Q154.794 106.221 156 105.123Q157.206 104.025 157.872 103.197Q158.538 102.369 158.754 101.712Q158.97 101.055 158.97 100.389Q158.97 99.7231 158.727 99.2911Q158.484 98.8591 158.106 98.6071Q157.728 98.3551 157.251 98.2651Q156.774 98.1751 156.324 98.1751Q155.73 98.1751 155.064 98.2381Q154.398 98.3011 153.66 98.4991L153.66 97.1131Q154.29 96.9691 155.001 96.8971Q155.712 96.8251 156.504 96.8251Q157.422 96.8251 158.16 97.0231Q158.898 97.2211 159.429 97.6531Q159.96 98.0851 160.239 98.7691Q160.518 99.4531 160.518 100.407Q160.518 101.253 160.266 102Q160.014 102.747 159.42 103.548Q158.826 104.349 157.818 105.276Q156.81 106.203 155.298 107.409L154.578 107.967L154.578 108.129L161.022 108.129L161.022 109.497L152.796 109.497L152.796 107.787ZM171.642 106.419L170.166 106.419L170.166 109.497L168.654 109.497L168.654 106.419L162.75 106.419L162.75 104.673L168.222 97.0051L170.166 97.0051L170.166 105.051L171.642 105.051L171.642 106.419ZM168.654 105.051L168.654 98.6611L168.546 98.6611L164.118 104.943L164.118 105.051L168.654 105.051ZM175.188 109.605Q174.558 109.605 174.297 109.407Q174.036 109.209 174.036 108.453Q174.036 107.733 174.297 107.535Q174.558 107.337 175.188 107.337Q175.8 107.337 176.07 107.535Q176.34 107.733 176.34 108.453Q176.34 109.209 176.07 109.407Q175.8 109.605 175.188 109.605ZM187.428 106.419L185.952 106.419L185.952 109.497L184.44 109.497L184.44 106.419L178.536 106.419L178.536 104.673L184.008 97.0051L185.952 97.0051L185.952 105.051L187.428 105.051L187.428 106.419ZM184.44 105.051L184.44 98.6611L184.332 98.6611L179.904 104.943L179.904 105.051L184.44 105.051ZM190.974 109.605Q190.344 109.605 190.083 109.407Q189.822 109.209 189.822 108.453Q189.822 107.733 190.083 107.535Q190.344 107.337 190.974 107.337Q191.586 107.337 191.856 107.535Q192.126 107.733 192.126 108.453Q192.126 109.209 191.856 109.407Q191.586 109.605 190.974 109.605ZM194.718 107.787Q196.716 106.221 197.922 105.123Q199.128 104.025 199.794 103.197Q200.46 102.369 200.676 101.712Q200.892 101.055 200.892 100.389Q200.892 99.7231 200.649 99.2911Q200.406 98.8591 200.028 98.6071Q199.65 98.3551 199.173 98.2651Q198.696 98.1751 198.246 98.1751Q197.652 98.1751 196.986 98.2381Q196.32 98.3011 195.582 98.4991L195.582 97.1131Q196.212 96.9691 196.923 96.8971Q197.634 96.8251 198.426 96.8251Q199.344 96.8251 200.082 97.0231Q200.82 97.2211 201.351 97.6531Q201.882 98.0851 202.161 98.7691Q202.44 99.4531 202.44 100.407Q202.44 101.253 202.188 102Q201.936 102.747 201.342 103.548Q200.748 104.349 199.74 105.276Q198.732 106.203 197.22 107.409L196.5 107.967L196.5 108.129L202.944 108.129L202.944 109.497L194.718 109.497L194.718 107.787ZM208.164 109.677Q207.408 109.677 206.805 109.623Q206.202 109.569 205.59 109.443L205.59 108.021Q206.292 108.201 206.859 108.264Q207.426 108.327 208.146 108.327Q208.92 108.327 209.559 108.192Q210.198 108.057 210.648 107.742Q211.098 107.427 211.35 106.914Q211.602 106.401 211.602 105.627Q211.602 104.223 210.783 103.584Q209.964 102.945 208.02 102.945Q207.516 102.945 206.868 103.026Q206.22 103.107 205.626 103.215L206.472 97.0051L212.304 97.0051L212.304 98.4091L207.696 98.4091L207.174 101.829Q207.516 101.775 207.858 101.748Q208.2 101.721 208.632 101.721Q210.81 101.721 211.98 102.621Q213.15 103.521 213.15 105.519Q213.15 106.635 212.799 107.418Q212.448 108.201 211.8 108.705Q211.152 109.209 210.225 109.443Q209.298 109.677 208.164 109.677ZM215.688 103.323L220.998 103.323L220.998 104.619L215.688 104.619L215.688 103.323ZM223.338 107.787Q225.336 106.221 226.542 105.123Q227.748 104.025 228.414 103.197Q229.08 102.369 229.296 101.712Q229.512 101.055 229.512 100.389Q229.512 99.7231 229.269 99.2911Q229.026 98.8591 228.648 98.6071Q228.27 98.3551 227.793 98.2651Q227.316 98.1751 226.866 98.1751Q226.272 98.1751 225.606 98.2381Q224.94 98.3011 224.202 98.4991L224.202 97.1131Q224.832 96.9691 225.543 96.8971Q226.254 96.8251 227.046 96.8251Q227.964 96.8251 228.702 97.0231Q229.44 97.2211 229.971 97.6531Q230.502 98.0851 230.781 98.7691Q231.06 99.4531 231.06 100.407Q231.06 101.253 230.808 102Q230.556 102.747 229.962 103.548Q229.368 104.349 228.36 105.276Q227.352 106.203 225.84 107.409L225.12 107.967L225.12 108.129L231.564 108.129L231.564 109.497L223.338 109.497L223.338 107.787ZM237.828 109.677Q236.892 109.677 236.118 109.398Q235.344 109.119 234.786 108.399Q234.228 107.679 233.922 106.428Q233.616 105.177 233.616 103.251Q233.616 101.325 233.922 100.083Q234.228 98.8411 234.786 98.1121Q235.344 97.3831 236.118 97.1041Q236.892 96.8251 237.828 96.8251Q238.764 96.8251 239.547 97.1041Q240.33 97.3831 240.888 98.1121Q241.446 98.8411 241.752 100.083Q242.058 101.325 242.058 103.251Q242.058 105.177 241.752 106.428Q241.446 107.679 240.888 108.399Q240.33 109.119 239.547 109.398Q238.764 109.677 237.828 109.677ZM237.828 108.327Q238.494 108.327 238.98 108.102Q239.466 107.877 239.79 107.301Q240.114 106.725 240.267 105.744Q240.42 104.763 240.42 103.251Q240.42 101.757 240.267 100.776Q240.114 99.7951 239.79 99.2191Q239.466 98.6431 238.98 98.4181Q238.494 98.1931 237.828 98.1931Q237.18 98.1931 236.694 98.4181Q236.208 98.6431 235.893 99.2191Q235.578 99.7951 235.425 100.776Q235.272 101.757 235.272 103.251Q235.272 104.763 235.425 105.744Q235.578 106.725 235.893 107.301Q236.208 107.877 236.694 108.102Q237.18 108.327 237.828 108.327ZM244.038 107.787Q246.036 106.221 247.242 105.123Q248.448 104.025 249.114 103.197Q249.78 102.369 249.996 101.712Q250.212 101.055 250.212 100.389Q250.212 99.7231 249.969 99.2911Q249.726 98.8591 249.348 98.6071Q248.97 98.3551 248.493 98.2651Q248.016 98.1751 247.566 98.1751Q246.972 98.1751 246.306 98.2381Q245.64 98.3011 244.902 98.4991L244.902 97.1131Q245.532 96.9691 246.243 96.8971Q246.954 96.8251 247.746 96.8251Q248.664 96.8251 249.402 97.0231Q250.14 97.2211 250.671 97.6531Q251.202 98.0851 251.481 98.7691Q251.76 99.4531 251.76 100.407Q251.76 101.253 251.508 102Q251.256 102.747 250.662 103.548Q250.068 104.349 249.06 105.276Q248.052 106.203 246.54 107.409L245.82 107.967L245.82 108.129L252.264 108.129L252.264 109.497L244.038 109.497L244.038 107.787ZM262.884 106.419L261.409 106.419L261.409 109.497L259.896 109.497L259.896 106.419L253.992 106.419L253.992 104.673L259.464 97.0051L261.409 97.0051L261.409 105.051L262.884 105.051L262.884 106.419ZM259.896 105.051L259.896 98.6611L259.788 98.6611L255.36 104.943L255.36 105.051L259.896 105.051ZM266.43 109.605Q265.8 109.605 265.539 109.407Q265.278 109.209 265.278 108.453Q265.278 107.733 265.539 107.535Q265.8 107.337 266.43 107.337Q267.042 107.337 267.312 107.535Q267.582 107.733 267.582 108.453Q267.582 109.209 267.312 109.407Q267.042 109.605 266.43 109.605ZM273.27 109.677Q272.514 109.677 271.911 109.623Q271.308 109.569 270.696 109.443L270.696 108.021Q271.398 108.201 271.965 108.264Q272.532 108.327 273.253 108.327Q274.026 108.327 274.665 108.192Q275.305 108.057 275.754 107.742Q276.204 107.427 276.456 106.914Q276.708 106.401 276.708 105.627Q276.708 104.223 275.889 103.584Q275.07 102.945 273.126 102.945Q272.622 102.945 271.974 103.026Q271.326 103.107 270.732 103.215L271.578 97.0051L277.41 97.0051L277.41 98.4091L272.802 98.4091L272.28 101.829Q272.622 101.775 272.964 101.748Q273.306 101.721 273.738 101.721Q275.917 101.721 277.086 102.621Q278.256 103.521 278.256 105.519Q278.256 106.635 277.905 107.418Q277.555 108.201 276.906 108.705Q276.258 109.209 275.331 109.443Q274.404 109.677 273.27 109.677ZM282.216 109.605Q281.586 109.605 281.326 109.407Q281.064 109.209 281.064 108.453Q281.064 107.733 281.326 107.535Q281.586 107.337 282.216 107.337Q282.828 107.337 283.099 107.535Q283.368 107.733 283.368 108.453Q283.368 109.209 283.099 109.407Q282.828 109.605 282.216 109.605ZM290.1 109.677Q289.164 109.677 288.39 109.398Q287.616 109.119 287.058 108.399Q286.5 107.679 286.194 106.428Q285.888 105.177 285.888 103.251Q285.888 101.325 286.194 100.083Q286.5 98.8411 287.058 98.1121Q287.616 97.3831 288.39 97.1041Q289.164 96.8251 290.1 96.8251Q291.036 96.8251 291.819 97.1041Q292.602 97.3831 293.16 98.1121Q293.718 98.8411 294.024 100.083Q294.33 101.325 294.33 103.251Q294.33 105.177 294.024 106.428Q293.718 107.679 293.16 108.399Q292.602 109.119 291.819 109.398Q291.036 109.677 290.1 109.677ZM290.1 108.327Q290.766 108.327 291.252 108.102Q291.738 107.877 292.062 107.301Q292.386 106.725 292.539 105.744Q292.692 104.763 292.692 103.251Q292.692 101.757 292.539 100.776Q292.386 99.7951 292.062 99.2191Q291.738 98.6431 291.252 98.4181Q290.766 98.1931 290.1 98.1931Q289.452 98.1931 288.966 98.4181Q288.48 98.6431 288.165 99.2191Q287.85 99.7951 287.697 100.776Q287.544 101.757 287.544 103.251Q287.544 104.763 287.697 105.744Q287.85 106.725 288.165 107.301Q288.48 107.877 288.966 108.102Q289.452 108.327 290.1 108.327ZM299.406 109.677Q298.651 109.677 298.047 109.623Q297.444 109.569 296.832 109.443L296.832 108.021Q297.534 108.201 298.102 108.264Q298.668 108.327 299.388 108.327Q300.162 108.327 300.802 108.192Q301.44 108.057 301.891 107.742Q302.341 107.427 302.592 106.914Q302.844 106.401 302.844 105.627Q302.844 104.223 302.026 103.584Q301.206 102.945 299.263 102.945Q298.758 102.945 298.11 103.026Q297.462 103.107 296.868 103.215L297.714 97.0051L303.547 97.0051L303.547 98.4091L298.938 98.4091L298.417 101.829Q298.758 101.775 299.1 101.748Q299.443 101.721 299.875 101.721Q302.052 101.721 303.222 102.621Q304.392 103.521 304.392 105.519Q304.392 106.635 304.042 107.418Q303.69 108.201 303.042 108.705Q302.394 109.209 301.467 109.443Q300.54 109.677 299.406 109.677Z">
</path>
</g>
<g >
<path     fill="#A6A6A6"  d="M47.3885 139.103L49.4225 139.103L49.4225 140.327L47.3885 140.327L47.3885 143.477Q47.9645 143.297 48.4595 143.135Q48.9545 142.973 49.3145 142.829L49.3685 143.495L49.4045 144.071Q49.0265 144.215 48.5045 144.386Q47.9825 144.557 47.3885 144.755L47.3885 149.687Q47.3885 150.281 47.2985 150.659Q47.2085 151.037 46.9655 151.271Q46.7225 151.505 46.3085 151.613Q45.8945 151.721 45.2465 151.775L44.4005 151.847L43.9865 150.551L44.9225 150.479Q45.6425 150.425 45.8855 150.2Q46.1285 149.975 46.1285 149.309L46.1285 145.169Q45.3185 145.421 44.5985 145.637Q43.8785 145.853 43.3745 145.997L42.9785 144.719Q43.5725 144.575 44.4095 144.35Q45.2465 144.125 46.1285 143.855L46.1285 140.327L43.5905 140.327L43.5905 139.103L46.1285 139.103L46.1285 135.827L47.3885 135.881L47.3885 139.103ZM55.8485 148.301Q56.5505 148.985 57.4145 149.561Q58.2785 150.137 59.3765 150.749L58.6025 151.883Q57.5945 151.307 56.7035 150.65Q55.8125 149.993 55.0385 149.219Q54.4445 149.849 53.6975 150.479Q52.9505 151.109 52.0145 151.775L51.2045 150.839L51.2045 151.793L49.9085 151.793L49.9085 136.673L57.9365 136.673Q57.9365 136.763 57.9185 137.159Q57.9005 137.555 57.8825 138.023Q57.8645 138.491 57.8465 138.914Q57.8285 139.337 57.8105 139.481Q57.7925 139.985 57.6665 140.3Q57.5405 140.615 57.2075 140.813Q56.8745 141.011 56.2985 141.11Q55.7225 141.209 54.7865 141.281L53.6705 141.371L53.2385 140.183L54.6065 140.111Q55.2005 140.075 55.5695 140.012Q55.9385 139.949 56.1365 139.841Q56.3345 139.733 56.4155 139.562Q56.4965 139.391 56.5145 139.139Q56.5325 138.959 56.5595 138.581Q56.5865 138.203 56.6045 137.915L51.2045 137.915L51.2045 142.397L58.1165 142.397L58.1165 143.603Q57.7745 144.845 57.2705 145.997Q56.7665 147.149 55.8485 148.301ZM51.2045 150.785Q53.0945 149.453 54.2105 148.283Q53.5445 147.455 53.0135 146.474Q52.4825 145.493 52.0685 144.305L53.1845 143.873Q53.5625 144.971 54.0035 145.817Q54.4445 146.663 54.9845 147.365Q55.6685 146.465 56.0645 145.547Q56.4605 144.629 56.7665 143.585L51.2045 143.585L51.2045 150.785ZM75.4325 144.521L75.4325 151.811L74.1005 151.811L74.1005 150.785L66.0005 150.785L66.0005 151.811L64.6685 151.811L64.6685 145.925Q63.8765 146.213 63.0485 146.492Q62.2205 146.771 61.3205 147.041L60.6725 145.817Q62.9945 145.169 64.9295 144.413Q66.8645 143.657 68.4575 142.793Q70.0505 141.929 71.3285 140.939Q72.6065 139.949 73.6145 138.833L67.0265 138.833Q66.7925 139.085 66.5585 139.31Q66.3245 139.535 66.0725 139.787Q66.3965 140.003 66.7475 140.273Q67.0985 140.543 67.4405 140.813Q67.7825 141.083 68.0885 141.335Q68.3945 141.587 68.6105 141.785L67.6925 142.883Q67.4765 142.613 67.1615 142.316Q66.8465 142.019 66.4865 141.722Q66.1265 141.425 65.7575 141.146Q65.3885 140.867 65.0645 140.651Q64.5065 141.119 63.9125 141.551Q63.3185 141.983 62.6885 142.397L61.8605 141.281Q62.7605 140.723 63.6605 140.012Q64.5605 139.301 65.3705 138.536Q66.1805 137.771 66.8735 136.997Q67.5665 136.223 68.0705 135.521L69.2945 136.061Q68.7725 136.817 68.1605 137.573L75.3965 137.573L75.3965 138.833Q73.9565 140.579 72.1295 141.965Q70.3025 143.351 67.9265 144.521L75.4325 144.521ZM74.1005 149.561L74.1005 145.799L66.0005 145.799L66.0005 149.561L74.1005 149.561ZM87.3305 138.671Q87.5105 140.615 88.0595 142.289Q88.6085 143.963 89.5265 145.439Q90.4445 146.915 91.7135 148.22Q92.9825 149.525 94.5845 150.713L93.5765 151.937Q91.0205 149.867 89.3105 147.527Q87.6005 145.187 86.7905 142.433Q86.0885 145.115 84.4145 147.401Q82.7405 149.687 79.9685 151.793L78.9785 150.623Q80.8685 149.255 82.1915 147.86Q83.5145 146.465 84.3515 144.908Q85.1885 143.351 85.5755 141.569Q85.9625 139.787 85.9985 137.645Q85.9985 137.537 86.0075 137.276Q86.0165 137.015 86.0255 136.736Q86.0345 136.457 86.0345 136.223Q86.0345 135.989 86.0345 135.917L87.3845 135.971Q87.3845 136.043 87.3845 136.331Q87.3845 136.619 87.3755 136.97Q87.3665 137.321 87.3575 137.663Q87.3485 138.005 87.3485 138.167Q87.3485 138.311 87.3485 138.428Q87.3485 138.545 87.3305 138.671ZM109.2 147.509Q110.478 149.327 112.692 151.001L111.756 151.973Q110.73 151.145 109.92 150.326Q109.11 149.507 108.48 148.643Q107.814 149.525 106.914 150.353Q106.014 151.181 104.79 152.063L103.962 151.055Q105.258 150.191 106.176 149.336Q107.094 148.481 107.724 147.509Q107.022 146.285 106.599 144.971Q106.176 143.657 105.942 142.145Q105.798 142.397 105.645 142.658Q105.492 142.919 105.33 143.171L104.322 142.523Q104.826 141.821 105.267 140.966Q105.708 140.111 106.059 139.211Q106.41 138.311 106.662 137.42Q106.914 136.529 107.058 135.773L108.318 136.079Q108.174 136.727 107.985 137.366Q107.796 138.005 107.562 138.653L112.242 138.653L112.242 139.949L111.018 139.949Q110.91 141.173 110.766 142.235Q110.622 143.297 110.415 144.215Q110.208 145.133 109.911 145.952Q109.614 146.771 109.2 147.509ZM96.2045 143.657Q97.4465 143.045 98.4185 142.28Q99.3905 141.515 100.146 140.669L96.7625 140.669L96.7625 139.571L100.452 139.571L100.452 135.881L101.658 135.953L101.658 139.571L104.898 139.571L104.898 140.669L101.658 140.669L101.658 144.017L100.452 144.017L100.452 141.803Q99.7685 142.595 98.8775 143.306Q97.9865 144.017 96.8525 144.629L96.2045 143.657ZM104.682 136.745Q104.556 137.033 104.376 137.375Q104.196 137.717 103.989 138.068Q103.782 138.419 103.566 138.743Q103.35 139.067 103.17 139.301L102.27 138.797Q102.432 138.581 102.63 138.275Q102.828 137.969 103.017 137.636Q103.206 137.303 103.377 136.952Q103.548 136.601 103.674 136.295L104.682 136.745ZM98.5625 139.283Q98.4725 138.995 98.3375 138.644Q98.2025 138.293 98.0405 137.951Q97.8785 137.609 97.7165 137.303Q97.5545 136.997 97.4285 136.763L98.3825 136.403Q98.5085 136.601 98.6705 136.907Q98.8325 137.213 98.9945 137.564Q99.1565 137.915 99.3005 138.275Q99.4445 138.635 99.5525 138.941L98.5625 139.283ZM106.806 140.453Q107.004 142.163 107.382 143.576Q107.76 144.989 108.426 146.249Q109.02 144.953 109.326 143.432Q109.632 141.911 109.812 139.949L107.022 139.949L106.806 140.453ZM104.124 144.305Q103.602 143.675 103.017 143.054Q102.432 142.433 101.856 141.929L102.576 141.263Q103.044 141.623 103.674 142.244Q104.304 142.865 104.844 143.477L104.124 144.305ZM103.638 150.947Q103.134 150.641 102.594 150.362Q102.054 150.083 101.496 149.795Q100.722 150.371 99.6335 150.893Q98.5445 151.415 96.9605 151.937L96.3305 150.803Q97.6805 150.407 98.6435 150.02Q99.6065 149.633 100.308 149.201Q98.9225 148.535 97.6265 148.049Q97.8785 147.635 98.1305 147.203Q98.3825 146.771 98.6165 146.339L96.5285 146.339L96.5285 145.259L99.1565 145.259Q99.3185 144.917 99.4535 144.602Q99.5885 144.287 99.6965 143.999L100.848 144.377Q100.758 144.611 100.668 144.827Q100.578 145.043 100.488 145.259L104.232 145.259L104.232 146.285Q103.872 147.041 103.458 147.707Q103.044 148.373 102.45 148.967Q102.846 149.165 103.26 149.354Q103.674 149.543 104.124 149.759L103.638 150.947ZM99.2645 147.617Q99.7505 147.815 100.254 148.022Q100.758 148.229 101.316 148.481Q101.856 148.013 102.225 147.491Q102.594 146.969 102.9 146.339L99.9665 146.339Q99.8045 146.681 99.6245 146.996Q99.4445 147.311 99.2645 147.617ZM118.02 142.613Q117.39 142.613 117.129 142.415Q116.868 142.217 116.868 141.479Q116.868 140.741 117.129 140.543Q117.39 140.345 118.02 140.345Q118.632 140.345 118.902 140.543Q119.172 140.741 119.172 141.479Q119.172 142.217 118.902 142.415Q118.632 142.613 118.02 142.613ZM118.02 150.281Q117.39 150.281 117.129 150.083Q116.868 149.885 116.868 149.129Q116.868 148.409 117.129 148.211Q117.39 148.013 118.02 148.013Q118.632 148.013 118.902 148.211Q119.172 148.409 119.172 149.129Q119.172 149.885 118.902 150.083Q118.632 150.281 118.02 150.281ZM139.368 150.191Q140.502 150.245 141.573 150.263Q142.644 150.281 143.706 150.272Q144.768 150.263 145.848 150.227Q146.928 150.191 148.062 150.119L147.738 151.433Q146.676 151.487 145.641 151.523Q144.606 151.559 143.571 151.559Q142.536 151.559 141.456 151.541Q140.376 151.523 139.224 151.469Q138.162 151.433 137.352 151.262Q136.542 151.091 135.921 150.758Q135.3 150.425 134.841 149.903Q134.382 149.381 134.04 148.625Q133.842 149.435 133.563 150.218Q133.284 151.001 132.87 151.919L131.664 151.523Q132.132 150.551 132.438 149.741Q132.744 148.931 132.933 148.094Q133.122 147.257 133.194 146.294Q133.266 145.331 133.284 144.017L134.472 144.089Q134.454 145.421 134.364 146.483Q134.616 147.455 134.985 148.121Q135.354 148.787 135.93 149.237L135.93 142.847L132.204 142.847L132.204 141.695L135.552 141.695L135.552 139.193L132.798 139.193L132.798 138.023L135.552 138.023L135.552 135.827L136.812 135.881L136.812 138.023L139.08 138.023L139.08 139.193L136.812 139.193L136.812 141.695L139.098 141.695L139.098 142.847L137.154 142.847L137.154 145.583L139.35 145.583L139.35 146.843L137.154 146.843L137.154 149.849Q138.036 150.137 139.368 150.191ZM139.206 142.307Q139.854 141.731 140.304 141.164Q140.754 140.597 141.042 140.03Q141.33 139.463 141.492 138.914Q141.654 138.365 141.726 137.825L139.296 137.825L139.296 136.691L146.766 136.691Q146.766 136.871 146.73 137.411Q146.694 137.951 146.658 138.563Q146.622 139.175 146.586 139.706Q146.55 140.237 146.55 140.381Q146.514 140.975 146.397 141.335Q146.28 141.695 146.019 141.911Q145.758 142.127 145.326 142.235Q144.894 142.343 144.228 142.415L143.364 142.523L142.896 141.299L143.904 141.209Q144.3 141.173 144.552 141.11Q144.804 141.047 144.948 140.912Q145.092 140.777 145.164 140.543Q145.236 140.309 145.254 139.949L145.38 137.825L142.968 137.825Q142.86 138.419 142.698 139.04Q142.536 139.661 142.23 140.327Q141.924 140.993 141.42 141.695Q140.916 142.397 140.142 143.171L139.206 142.307ZM140.106 143.657L146.514 143.657L146.514 148.895L140.106 148.895L140.106 143.657ZM141.33 147.707L145.236 147.707L145.236 144.809L141.33 144.809L141.33 147.707ZM161.49 140.183L155.064 140.183L155.064 138.869L161.49 138.869L161.49 135.773L162.786 135.827L162.786 138.869L165.288 138.869L165.288 140.183L162.786 140.183L162.786 146.177Q162.786 146.933 162.678 147.419Q162.57 147.905 162.255 148.202Q161.94 148.499 161.364 148.634Q160.788 148.769 159.834 148.805L158.592 148.859L158.088 147.473L159.708 147.401Q160.302 147.383 160.662 147.302Q161.022 147.221 161.202 147.05Q161.382 146.879 161.436 146.591Q161.49 146.303 161.49 145.835L161.49 140.183ZM153.408 140.543Q153.21 140.165 152.895 139.679Q152.58 139.193 152.22 138.698Q151.86 138.203 151.5 137.753Q151.14 137.303 150.87 137.015L151.842 136.205Q152.112 136.475 152.481 136.907Q152.85 137.339 153.219 137.816Q153.588 138.293 153.921 138.761Q154.254 139.229 154.452 139.571L153.408 140.543ZM156.612 141.047Q156.9 141.353 157.278 141.839Q157.656 142.325 158.052 142.847Q158.448 143.369 158.799 143.882Q159.15 144.395 159.366 144.773L158.322 145.709Q158.124 145.277 157.782 144.737Q157.44 144.197 157.062 143.648Q156.684 143.099 156.315 142.613Q155.946 142.127 155.658 141.803L156.612 141.047ZM157.908 150.101Q161.85 150.245 165.81 150.101L165.558 151.451Q161.616 151.577 157.692 151.451Q156.774 151.415 156.081 151.307Q155.388 151.199 154.821 150.956Q154.254 150.713 153.768 150.299Q153.282 149.885 152.796 149.219Q152.202 149.885 151.617 150.407Q151.032 150.929 150.312 151.505L149.466 150.245Q150.132 149.741 150.825 149.156Q151.518 148.571 152.148 147.959L152.148 143.225L149.79 143.225L149.79 141.893L153.444 141.893L153.444 147.941Q153.84 148.589 154.254 148.994Q154.668 149.399 155.181 149.633Q155.694 149.867 156.351 149.966Q157.008 150.065 157.908 150.101ZM169.086 149.039Q170.274 149.039 171.165 148.715Q172.056 148.391 172.677 147.815Q173.298 147.239 173.649 146.465Q174 145.691 174.09 144.791L174.018 144.791Q173.676 145.169 172.974 145.493Q172.272 145.817 171.354 145.817Q170.49 145.817 169.779 145.583Q169.068 145.349 168.573 144.872Q168.078 144.395 167.799 143.648Q167.52 142.901 167.52 141.875Q167.52 140.957 167.763 140.156Q168.006 139.355 168.51 138.77Q169.014 138.185 169.788 137.843Q170.562 137.501 171.606 137.501Q172.47 137.501 173.217 137.753Q173.964 138.005 174.522 138.599Q175.08 139.193 175.404 140.165Q175.728 141.137 175.728 142.577Q175.728 144.323 175.35 145.763Q174.972 147.203 174.162 148.229Q173.352 149.255 172.092 149.822Q170.832 150.389 169.068 150.389L169.086 149.039ZM171.408 144.593Q172.866 144.593 173.541 143.918Q174.216 143.243 174.216 142.109Q174.216 140.525 173.55 139.679Q172.884 138.833 171.606 138.833Q170.328 138.833 169.68 139.616Q169.032 140.399 169.032 141.875Q169.032 143.279 169.698 143.936Q170.364 144.593 171.408 144.593ZM184.152 138.203Q184.116 138.941 184.089 139.724Q184.062 140.507 184.026 141.119Q184.026 141.209 184.017 141.272Q184.008 141.335 184.008 141.425L191.316 141.425Q191.298 141.641 191.271 142.172Q191.244 142.703 191.199 143.378Q191.154 144.053 191.109 144.818Q191.064 145.583 191.019 146.258Q190.974 146.933 190.938 147.455Q190.902 147.977 190.884 148.193Q190.812 149.093 190.659 149.642Q190.506 150.191 190.164 150.506Q189.822 150.821 189.237 150.965Q188.652 151.109 187.698 151.181L186.222 151.307L185.718 149.921L187.266 149.813Q187.878 149.777 188.283 149.696Q188.688 149.615 188.931 149.399Q189.174 149.183 189.291 148.787Q189.408 148.391 189.462 147.725Q189.48 147.437 189.525 146.735Q189.57 146.033 189.624 145.25Q189.678 144.467 189.723 143.765Q189.768 143.063 189.786 142.775L183.864 142.775Q183.684 144.251 183.315 145.466Q182.946 146.681 182.334 147.761Q181.722 148.841 180.822 149.849Q179.922 150.857 178.662 151.919L177.564 150.875Q178.914 149.741 179.832 148.733Q180.75 147.725 181.335 146.618Q181.92 145.511 182.208 144.188Q182.496 142.865 182.604 141.101Q182.622 140.849 182.64 140.507Q182.658 140.165 182.676 139.769Q182.694 139.373 182.712 138.968Q182.73 138.563 182.748 138.203L178.266 138.203L178.266 136.871L193.386 136.871L193.386 138.203L184.152 138.203Z">
</path>
</g>
<path    stroke="rgba(0, 0, 0, 1)" stroke-width="1"    d="M0.000595093 165.478L535.477 164.842">
</path>
</svg>
