<svg xmlns="http://www.w3.org/2000/svg" xmlns:xlink="http://www.w3.org/1999/xlink" width="402" height="139" viewBox="0 0 402 139" fill="none">
<rect  x="0" y="0" width="402" height="139" rx="26"    fill="#E0DCDC" >
</rect>
<rect  x="17" y="6" width="58" height="18" rx="9"    fill="#FF0303" >
</rect>
<g >
<path     fill="#FFFFFF"  d="M30.16 13.06L32.61 13.06L32.61 14.02L35.86 14.02L35.86 11.62L29.97 11.62L29.97 10.42L37.76 10.42L37.76 15.22L32.61 15.22L32.61 17.5L38.17 17.32L38.22 18.55L30.16 18.8L30.16 13.06ZM43.17 15.07L48.12 15.07L48.12 18.68L43.17 18.81L43.17 15.07ZM43.08 11.21L44.87 11.21L44.87 10.02L46.8 10.02L46.8 11.21L48.46 11.21L48.46 12.41L46.8 12.41L46.8 13.32L48.21 13.28L48.24 14.43L43.37 14.6L43.35 13.42L44.87 13.38L44.87 12.41L43.08 12.41L43.08 11.21ZM39.77 15.61L40.56 14L39.52 13.58L41.13 10.04L42.78 10.7L41.85 12.71L42.92 13.12L41.63 15.61L42.84 15.61L42.84 16.81L39.77 16.81L39.77 15.61ZM39.62 17.63L42.89 17.42L42.89 18.61L39.62 18.82L39.62 17.63ZM46.86 16.19L45.09 16.19L45.09 17.67L46.86 17.62L46.86 16.19ZM49.92 10.83L53.28 10.83L53.28 10.07L55.54 10.07L55.54 10.83L57.96 10.83L57.96 12.02L55.54 12.02L55.54 12.61L57.79 12.61L57.79 15.78L55.54 15.81L55.54 16.73L56.23 15.91L58.37 17.71L57.48 18.77L55.54 17.16L55.54 19.03L53.28 19.03L53.28 16.93L51.01 19.17L49.73 17.83L51.88 15.85L50.14 15.87L50.14 12.61L53.28 12.61L53.28 12.02L49.92 12.02L49.92 10.83ZM56.27 13.65L55.54 13.65L55.54 14.76L56.27 14.75L56.27 13.65ZM52.59 14.8L53.28 14.79L53.28 13.65L52.59 13.65L52.59 14.8Z">
</path>
</g>
<g >
<path     fill="#000000"  d="M19.7 30.614L27.218 30.614L27.218 36.27L21.786 36.27L21.786 38.524L27.218 38.286L27.218 40.092L19.7 40.414L19.7 34.59L24.04 34.59L24.04 32.294L21.786 32.294L21.786 32.938L19.7 32.938L19.7 30.614ZM28.618 30.936L36.15 30.614L36.15 40.414L28.618 40.414L28.618 30.936ZM31.796 38.734L34.064 38.734L34.064 32.378L31.796 32.476L31.796 38.734ZM37.55 30.614L45.068 30.614L45.068 36.27L39.636 36.27L39.636 38.524L45.068 38.286L45.068 40.092L37.55 40.414L37.55 34.59L41.89 34.59L41.89 32.294L39.636 32.294L39.636 32.938L37.55 32.938L37.55 30.614ZM53.09 35.584L54.084 35.584L54.084 37.264L53.09 37.264L53.09 40.414L51.004 40.414L51.004 37.264L46.468 37.264L46.468 35.584L47.364 30.614L50.108 31.104L49.296 35.584L51.004 35.584L51.004 30.614L53.09 30.614L53.09 35.584ZM55.918 30.53L57.836 30.53L58.298 29.102L61.462 29.592L61.154 30.53L67.58 30.53L67.58 32.21L60.594 32.21L59.698 34.94L60.552 34.912L60.552 32.98L63.772 32.98L63.772 34.828L66.754 34.73L66.838 36.424L63.772 36.55L63.772 41.73L59.278 41.492L59.208 39.84L60.552 39.938L60.552 36.662L56.464 36.816L56.366 35.08L57.29 32.21L55.918 32.21L55.918 30.53ZM55.736 39.952L58.256 37.012L59.908 38.37L57.402 41.268L55.736 39.952ZM64.052 38.062L65.648 36.886L67.986 39.868L66.376 41.1L64.052 38.062ZM70.716 32.882L80.894 32.882L80.894 37.194L77.758 37.292L77.758 41.94L73.138 41.73L73.068 40.078L74.398 40.148L74.398 37.404L70.716 37.516L70.716 32.882ZM69.974 30.39L74.202 30.39L74.034 29.564L77.24 29.074L77.506 30.39L81.594 30.39L81.594 32.07L69.974 32.07L69.974 30.39ZM69.582 40.106L71.78 37.614L73.684 39.056L71.556 41.576L69.582 40.106ZM78.178 39.168L79.844 37.67L81.958 40.008L80.32 41.506L78.178 39.168ZM73.768 35.836L78.388 35.682L78.388 34.478L73.768 34.478L73.768 35.836ZM95.566 41.66L90.722 41.422L90.652 39.756L92.486 39.854L92.486 36.452L85.136 36.774L84.982 35.052L85.962 32.084L89.042 32.7L88.272 34.898L91.744 34.758L92.15 31.44L84.618 31.44L84.618 29.76L94.894 29.76L94.39 34.646L95.566 34.59L95.566 41.66ZM83.96 37.614L91.59 37.614L91.59 39.294L83.96 39.294L83.96 37.614ZM97.526 31.636L98.786 31.636L98.786 29.382L101.166 29.382L101.166 31.636L102.3 31.636L102.3 33.358L101.166 33.358L101.166 34.982L102.034 34.618L102.594 36.284L101.166 36.872L101.166 41.604L97.946 41.31L97.876 39.658L98.786 39.742L98.786 37.838L97.904 38.188L97.33 36.536L98.786 35.948L98.786 33.358L97.526 33.358L97.526 31.636ZM102.636 31.51L104.82 31.51L104.456 29.984L107.214 29.382L107.732 31.51L109.636 31.51L109.636 33.218L102.636 33.218L102.636 31.51ZM102.37 39.672L109.986 39.42L110.056 41.142L102.44 41.408L102.37 39.672ZM102.79 34.59L104.946 33.988L106.15 38.622L103.966 39.266L102.79 34.59ZM106.5 39.07L107.55 33.96L109.468 34.31L108.418 39.42L106.5 39.07ZM117.098 40.022L118.722 35.318L116.762 34.59L118.498 29.452L120.444 30.054L122.082 29.438L124.07 35.08L122.418 35.738L120.556 30.502L119.128 34.716L121.256 35.402L119.772 39.742L121.69 39.574L121.004 37.334L122.796 36.718L124.14 41.072L122.348 41.674L122.152 41.044L117.182 41.492L117.098 40.022ZM111.176 39.266L112.716 33.386L111.708 33.386L111.708 31.706L113.402 31.706L113.402 29.214L115.698 29.172L115.698 31.706L116.86 31.706L116.86 33.386L115.698 33.386L115.698 34.394L116.482 34.114L117.42 37.362L116.062 37.81L115.698 36.536L115.698 41.772L113.402 41.8L113.402 37.432L112.842 39.714L111.176 39.266ZM130.356 39.882L130.888 39.868L130.888 29.718L137.398 29.718L137.398 39.644L138.14 39.616L138.182 41.268L130.412 41.534L130.356 39.882ZM125.876 37.418L127.094 34.94L125.456 34.212L127.71 29.256L129.866 30.208L128.382 33.4L130.076 33.694L128.41 36.76L130.104 36.872L130.104 38.566L125.876 38.566L125.876 37.418ZM125.596 39.882L129.908 39.252L130.118 40.918L125.652 41.548L125.596 39.882ZM133.562 33.344L135.396 33.344L135.396 31.454L133.562 31.454L133.562 33.344ZM133.562 36.564L135.396 36.564L135.396 34.884L133.562 34.884L133.562 36.564ZM133.562 39.77L135.396 39.714L135.396 38.104L133.562 38.104L133.562 39.77ZM140.478 29.83L150.992 29.368L151.076 30.908L147.324 31.076L147.324 31.916L151.622 31.916L151.622 33.456L149.102 33.456L151.356 34.8L150.404 36.13L151.832 36.088L151.832 37.628L149.83 37.698L150.334 39.098L148.486 39.63L151.23 40.442L150.754 41.926L145.672 40.428L140.856 41.814L140.31 40.302L142.788 39.588L141.248 39.126L141.556 37.95L139.722 38.006L139.722 36.438L141.962 36.382L142.172 35.556L140.94 36.326L139.918 34.828L142.172 33.456L139.932 33.456L139.932 31.916L144.244 31.916L144.244 31.216L140.562 31.37L140.478 29.83ZM144.244 34.254L142.298 35.472L145.196 35.766L145.07 36.284L150.222 36.144L147.688 34.576L148.528 33.456L147.324 33.456L147.324 35.444L144.244 35.444L144.244 34.254ZM144.692 37.852L144.552 38.454L145.602 38.776L149.214 37.712L144.692 37.852ZM153.372 33.82L160.036 29.088L162.22 31.118L161.66 31.524L166 34.646L165.006 36.004L162.752 34.38L162.752 35.738L156.844 35.738L156.844 35.052L155.43 36.088L153.372 33.82ZM155.22 40.022L156.998 38.006L154.562 38.006L154.562 36.564L165.062 36.564L165.062 38.006L160.246 38.006L158.482 39.91L161.94 39.784L161.478 39.014L163.06 38.244L164.866 41.1L163.2 41.884L162.794 41.198L155.36 41.478L155.22 40.022ZM157.88 34.296L162.64 34.296L160.232 32.574L157.88 34.296ZM172.09 32.378L173.448 32.266L172.972 29.62L175.772 29.2L176.276 32.014L179.3 31.748L179.426 33.428L176.57 33.666L176.752 34.646L179.636 34.352L179.79 36.032L177.046 36.298L177.228 37.264L179.454 36.396L180.112 37.964L177.536 38.972L177.634 39.504L179.706 39L180.112 40.694L175.198 41.716L174.876 39.994L173.07 40.694L172.412 39.14L174.568 38.3L174.246 36.564L172.244 36.76L172.09 35.094L173.938 34.912L173.756 33.89L172.216 34.016L172.09 32.378ZM167.75 37.054L168.842 34.814L167.33 34.212L169.584 29.256L171.992 30.208L170.578 33.246L172.118 33.806L170.452 37.054L171.978 37.054L171.978 38.734L167.75 38.734L167.75 37.054ZM167.47 39.882L172.16 39.588L172.16 41.254L167.47 41.548L167.47 39.882ZM176.36 29.97L177.942 28.976L179.146 30.698L177.564 31.692L176.36 29.97ZM181.624 39.7L185.404 39.574L185.404 29.816L188.932 29.816L188.932 33.526L193.524 33.526L193.524 35.22L188.932 35.22L188.932 39.462L193.734 39.294L193.804 40.96L181.694 41.366L181.624 39.7ZM198.55 32.126L199.11 32.126L199.11 31.622L201.658 31.622L201.658 32.126L202.946 32.126L202.946 31.622L204.892 31.622L204.892 32.126L205.718 32.126L205.718 33.162L204.892 33.162L204.892 33.568L206.516 33.568L206.516 34.59L204.892 34.59L204.892 34.982L207.664 34.968L207.692 36.158L205.536 36.172L207.888 37.684L207.202 38.944L206.11 38.216L206.11 39.49L204.332 39.49L204.332 37.894L203.128 37.894L203.87 39.056L203.338 39.364L207.16 40.904L206.558 42.262L202.414 40.582L202.848 39.658L198.144 42.388L197.094 40.68L199.278 39.504L197.836 39.504L197.836 38.524L197.024 39.098L195.89 37.446L197.64 36.228L195.96 36.228L195.932 35.038L199.11 35.024L199.11 34.59L197.64 34.59L197.64 33.568L199.11 33.568L199.11 33.162L198.55 33.162L198.55 32.126ZM195.848 29.886L198.396 29.886L198.396 30.18L200.23 30.124L200.02 29.452L203.142 28.85L203.436 30.026L207.552 29.886L207.552 33.106L205.942 33.106L205.942 31.258L198.396 31.496L198.396 33.12L195.848 33.12L195.848 29.886ZM200.202 36.816L204.052 36.816L203.114 36.186L201.056 36.2L200.202 36.816ZM200.608 38.79L202.26 37.894L200.608 37.894L200.608 38.79ZM201.658 35.01L202.946 34.996L202.946 34.59L201.658 34.59L201.658 35.01ZM201.658 33.568L202.946 33.568L202.946 33.162L201.658 33.162L201.658 33.568Z">
</path>
</g>
<g >
<path     fill="#A6A6A6"  d="M24.64 53.88L23.97 53.88L23.97 52.3L27.66 52.3Q27.59 52.09 27.52 51.885Q27.45 51.68 27.4 51.54L28.08 51.41Q28.14 51.55 28.23 51.805Q28.32 52.06 28.4 52.3L31.84 52.3L31.84 53.88L31.17 53.88L31.17 52.87L24.64 52.87L24.64 53.88ZM29.69 56.38Q30.15 56.82 30.885 57.175Q31.62 57.53 32.5 57.8L32.21 58.43Q31.26 58.09 30.5 57.65L30.5 59.03L29.82 59.03L29.82 57.59L25.97 57.59L25.97 59.04L25.31 59.04L25.31 57.67Q24.93 57.9 24.52 58.11Q24.11 58.32 23.67 58.51L23.32 57.92Q23.73 57.76 24.13 57.58Q24.53 57.4 24.89 57.205Q25.25 57.01 25.555 56.8Q25.86 56.59 26.09 56.38L23.73 56.38L23.73 55.84L26.28 55.84L26.28 55.28L24.69 55.28L24.69 54.75L26.28 54.75L26.28 54.22L24.83 54.22L24.83 53.68L26.28 53.68L26.28 53.24L26.98 53.27L26.98 53.68L28.85 53.68L28.85 53.24L29.54 53.27L29.54 53.68L30.98 53.68L30.98 54.22L29.54 54.22L29.54 54.75L31.14 54.75L31.14 55.28L29.54 55.28L29.54 55.84L32.07 55.84L32.07 56.38L29.69 56.38ZM26.98 54.75L28.85 54.75L28.85 54.22L26.98 54.22L26.98 54.75ZM26.98 55.84L28.85 55.84L28.85 55.28L26.98 55.28L26.98 55.84ZM29.58 57.04Q29.19 56.74 28.88 56.38L26.91 56.38Q26.61 56.73 26.21 57.04L29.58 57.04ZM28.31 57.94Q28.24 58.44 28.055 58.82Q27.87 59.2 27.43 59.5Q26.99 59.8 26.235 60.045Q25.48 60.29 24.27 60.54L23.99 59.92Q25.09 59.73 25.775 59.515Q26.46 59.3 26.845 59.05Q27.23 58.8 27.38 58.515Q27.53 58.23 27.57 57.89L28.31 57.94ZM28.31 58.77Q28.67 58.87 29.105 59.01Q29.54 59.15 29.99 59.3Q30.44 59.45 30.875 59.605Q31.31 59.76 31.67 59.89L31.45 60.58Q31.1 60.42 30.655 60.24Q30.21 60.06 29.745 59.885Q29.28 59.71 28.84 59.56Q28.4 59.41 28.06 59.32L28.31 58.77ZM42.09 57.58L41.23 57.58L41.23 58.85L38.14 58.85L38.14 59.33Q38.14 59.62 38.08 59.81Q38.02 60 37.88 60.115Q37.74 60.23 37.51 60.285Q37.28 60.34 36.93 60.36L36.29 60.41L36.02 59.71Q36.15 59.71 36.3 59.7Q36.43 59.69 36.59 59.69Q36.75 59.69 36.92 59.67Q37.1 59.66 37.2 59.645Q37.3 59.63 37.355 59.58Q37.41 59.53 37.42 59.435Q37.43 59.34 37.43 59.16L37.43 58.85L34.07 58.85L34.07 58.27L37.43 58.27L37.43 57.58L33.37 57.58L33.37 56.99L37.43 56.99L37.43 56.36L34.07 56.36L34.07 55.78L37.43 55.78L37.43 55.18L34.52 55.18L34.52 53.41L37.43 53.41L37.43 52.79L33.39 52.79L33.39 52.17L37.43 52.17L37.43 51.46L38.14 51.5L38.14 52.17L42.07 52.17L42.07 52.79L38.14 52.79L38.14 53.41L41.02 53.41L41.02 55.18L38.14 55.18L38.14 55.78L41.23 55.78L41.23 56.99L42.09 56.99L42.09 57.58ZM37.43 54.63L37.43 53.96L35.24 53.96L35.24 54.63L37.43 54.63ZM38.14 53.96L38.14 54.63L40.3 54.63L40.3 53.96L38.14 53.96ZM38.14 56.99L40.53 56.99L40.53 56.36L38.14 56.36L38.14 56.99ZM40.53 57.58L38.14 57.58L38.14 58.27L40.53 58.27L40.53 57.58ZM50.71 52.17L50.71 60.39L49.96 60.39L49.96 59.72L45.31 59.72L45.31 60.39L44.56 60.39L44.56 52.17L50.71 52.17ZM45.31 52.87L45.31 55.46L49.96 55.46L49.96 52.87L45.31 52.87ZM49.96 58.99L49.96 56.17L45.31 56.17L45.31 58.99L49.96 58.99ZM57.87 57.98L52.92 57.98L52.92 57.35L54.02 57.35L54.02 53.18L53.31 53.18L53.31 52.55L54.02 52.55L54.02 51.55L54.69 51.58L54.69 52.55L56.43 52.55L56.43 51.55L57.1 51.58L57.1 52.55L57.86 52.55L57.86 53.18L57.1 53.18L57.1 57.35L57.87 57.35L57.87 57.98ZM61.32 52.03L61.32 59.3Q61.32 59.59 61.275 59.76Q61.23 59.93 61.125 60.03Q61.02 60.13 60.84 60.175Q60.66 60.22 60.38 60.26L59.87 60.33L59.61 59.67L60.15 59.61Q60.32 59.59 60.415 59.565Q60.51 59.54 60.56 59.49Q60.61 59.44 60.625 59.34Q60.64 59.24 60.64 59.07L60.64 57.46L58.92 57.46Q58.88 57.96 58.795 58.355Q58.71 58.75 58.56 59.105Q58.41 59.46 58.185 59.81Q57.96 60.16 57.64 60.56L57 60.16Q57.31 59.8 57.53 59.49Q57.75 59.18 57.895 58.875Q58.04 58.57 58.12 58.24Q58.2 57.91 58.24 57.5Q58.28 57.09 58.29 56.575Q58.3 56.06 58.3 55.38L58.3 52.03L61.32 52.03ZM58.97 52.71L58.97 54.41L60.64 54.41L60.64 52.71L58.97 52.71ZM54.69 53.18L54.69 54.13L56.43 54.13L56.43 53.18L54.69 53.18ZM54.69 55.71L56.43 55.71L56.43 54.75L54.69 54.75L54.69 55.71ZM60.64 56.78L60.64 55.08L58.97 55.08L58.97 55.73Q58.97 56.02 58.97 56.285Q58.97 56.55 58.96 56.78L60.64 56.78ZM54.69 57.35L56.43 57.35L56.43 56.32L54.69 56.32L54.69 57.35ZM56.26 58.13Q56.59 58.41 56.87 58.675Q57.15 58.94 57.43 59.23L56.99 59.77Q56.89 59.65 56.74 59.49Q56.59 59.33 56.425 59.165Q56.26 59 56.09 58.85Q55.92 58.7 55.79 58.59L56.26 58.13ZM53.09 59.92Q53.28 59.76 53.495 59.56Q53.71 59.36 53.92 59.135Q54.13 58.91 54.325 58.665Q54.52 58.42 54.67 58.16L55.22 58.58Q54.86 59.09 54.45 59.555Q54.04 60.02 53.66 60.41L53.09 59.92ZM64.95 55.3Q64.6 55.3 64.455 55.19Q64.31 55.08 64.31 54.67Q64.31 54.26 64.455 54.15Q64.6 54.04 64.95 54.04Q65.29 54.04 65.44 54.15Q65.59 54.26 65.59 54.67Q65.59 55.08 65.44 55.19Q65.29 55.3 64.95 55.3ZM64.95 59.56Q64.6 59.56 64.455 59.45Q64.31 59.34 64.31 58.92Q64.31 58.52 64.455 58.41Q64.6 58.3 64.95 58.3Q65.29 58.3 65.44 58.41Q65.59 58.52 65.59 58.92Q65.59 59.34 65.44 59.45Q65.29 59.56 64.95 59.56ZM72.77 58.55Q73.88 57.68 74.55 57.07Q75.22 56.46 75.59 56Q75.96 55.54 76.08 55.175Q76.2 54.81 76.2 54.44Q76.2 54.07 76.065 53.83Q75.93 53.59 75.72 53.45Q75.51 53.31 75.245 53.26Q74.98 53.21 74.73 53.21Q74.4 53.21 74.03 53.245Q73.66 53.28 73.25 53.39L73.25 52.62Q73.6 52.54 73.995 52.5Q74.39 52.46 74.83 52.46Q75.34 52.46 75.75 52.57Q76.16 52.68 76.455 52.92Q76.75 53.16 76.905 53.54Q77.06 53.92 77.06 54.45Q77.06 54.92 76.92 55.335Q76.78 55.75 76.45 56.195Q76.12 56.64 75.56 57.155Q75 57.67 74.16 58.34L73.76 58.65L73.76 58.74L77.34 58.74L77.34 59.5L72.77 59.5L72.77 58.55ZM80.82 59.6Q80.3 59.6 79.87 59.445Q79.44 59.29 79.13 58.89Q78.82 58.49 78.65 57.795Q78.48 57.1 78.48 56.03Q78.48 54.96 78.65 54.27Q78.82 53.58 79.13 53.175Q79.44 52.77 79.87 52.615Q80.3 52.46 80.82 52.46Q81.34 52.46 81.775 52.615Q82.21 52.77 82.52 53.175Q82.83 53.58 83 54.27Q83.17 54.96 83.17 56.03Q83.17 57.1 83 57.795Q82.83 58.49 82.52 58.89Q82.21 59.29 81.775 59.445Q81.34 59.6 80.82 59.6ZM80.82 58.85Q81.19 58.85 81.46 58.725Q81.73 58.6 81.91 58.28Q82.09 57.96 82.175 57.415Q82.26 56.87 82.26 56.03Q82.26 55.2 82.175 54.655Q82.09 54.11 81.91 53.79Q81.73 53.47 81.46 53.345Q81.19 53.22 80.82 53.22Q80.46 53.22 80.19 53.345Q79.92 53.47 79.745 53.79Q79.57 54.11 79.485 54.655Q79.4 55.2 79.4 56.03Q79.4 56.87 79.485 57.415Q79.57 57.96 79.745 58.28Q79.92 58.6 80.19 58.725Q80.46 58.85 80.82 58.85ZM84.27 58.55Q85.38 57.68 86.05 57.07Q86.72 56.46 87.09 56Q87.46 55.54 87.58 55.175Q87.7 54.81 87.7 54.44Q87.7 54.07 87.565 53.83Q87.43 53.59 87.22 53.45Q87.01 53.31 86.745 53.26Q86.48 53.21 86.23 53.21Q85.9 53.21 85.53 53.245Q85.16 53.28 84.75 53.39L84.75 52.62Q85.1 52.54 85.495 52.5Q85.89 52.46 86.33 52.46Q86.84 52.46 87.25 52.57Q87.66 52.68 87.955 52.92Q88.25 53.16 88.405 53.54Q88.56 53.92 88.56 54.45Q88.56 54.92 88.42 55.335Q88.28 55.75 87.95 56.195Q87.62 56.64 87.06 57.155Q86.5 57.67 85.66 58.34L85.26 58.65L85.26 58.74L88.84 58.74L88.84 59.5L84.27 59.5L84.27 58.55ZM94.74 57.79L93.92 57.79L93.92 59.5L93.08 59.5L93.08 57.79L89.8 57.79L89.8 56.82L92.84 52.56L93.92 52.56L93.92 57.03L94.74 57.03L94.74 57.79ZM93.08 57.03L93.08 53.48L93.02 53.48L90.56 56.97L90.56 57.03L93.08 57.03ZM96.71 59.56Q96.36 59.56 96.215 59.45Q96.07 59.34 96.07 58.92Q96.07 58.52 96.215 58.41Q96.36 58.3 96.71 58.3Q97.05 58.3 97.2 58.41Q97.35 58.52 97.35 58.92Q97.35 59.34 97.2 59.45Q97.05 59.56 96.71 59.56ZM98.79 58.55Q99.9 57.68 100.57 57.07Q101.24 56.46 101.61 56Q101.98 55.54 102.1 55.175Q102.22 54.81 102.22 54.44Q102.22 54.07 102.085 53.83Q101.95 53.59 101.74 53.45Q101.53 53.31 101.265 53.26Q101 53.21 100.75 53.21Q100.42 53.21 100.05 53.245Q99.68 53.28 99.27 53.39L99.27 52.62Q99.62 52.54 100.015 52.5Q100.41 52.46 100.85 52.46Q101.36 52.46 101.77 52.57Q102.18 52.68 102.475 52.92Q102.77 53.16 102.925 53.54Q103.08 53.92 103.08 54.45Q103.08 54.92 102.94 55.335Q102.8 55.75 102.47 56.195Q102.14 56.64 101.58 57.155Q101.02 57.67 100.18 58.34L99.78 58.65L99.78 58.74L103.36 58.74L103.36 59.5L98.79 59.5L98.79 58.55ZM105.48 59.56Q105.13 59.56 104.985 59.45Q104.84 59.34 104.84 58.92Q104.84 58.52 104.985 58.41Q105.13 58.3 105.48 58.3Q105.82 58.3 105.97 58.41Q106.12 58.52 106.12 58.92Q106.12 59.34 105.97 59.45Q105.82 59.56 105.48 59.56ZM107.56 58.55Q108.67 57.68 109.34 57.07Q110.01 56.46 110.38 56Q110.75 55.54 110.87 55.175Q110.99 54.81 110.99 54.44Q110.99 54.07 110.855 53.83Q110.72 53.59 110.51 53.45Q110.3 53.31 110.035 53.26Q109.77 53.21 109.52 53.21Q109.19 53.21 108.82 53.245Q108.45 53.28 108.04 53.39L108.04 52.62Q108.39 52.54 108.785 52.5Q109.18 52.46 109.62 52.46Q110.13 52.46 110.54 52.57Q110.95 52.68 111.245 52.92Q111.54 53.16 111.695 53.54Q111.85 53.92 111.85 54.45Q111.85 54.92 111.71 55.335Q111.57 55.75 111.24 56.195Q110.91 56.64 110.35 57.155Q109.79 57.67 108.95 58.34L108.55 58.65L108.55 58.74L112.13 58.74L112.13 59.5L107.56 59.5L107.56 58.55ZM118.03 57.79L117.21 57.79L117.21 59.5L116.37 59.5L116.37 57.79L113.09 57.79L113.09 56.82L116.13 52.56L117.21 52.56L117.21 57.03L118.03 57.03L118.03 57.79ZM116.37 57.03L116.37 53.48L116.31 53.48L113.85 56.97L113.85 57.03L116.37 57.03ZM119.21 56.07L122.16 56.07L122.16 56.79L119.21 56.79L119.21 56.07ZM123.46 58.55Q124.57 57.68 125.24 57.07Q125.91 56.46 126.28 56Q126.65 55.54 126.77 55.175Q126.89 54.81 126.89 54.44Q126.89 54.07 126.755 53.83Q126.62 53.59 126.41 53.45Q126.2 53.31 125.935 53.26Q125.67 53.21 125.42 53.21Q125.09 53.21 124.72 53.245Q124.35 53.28 123.94 53.39L123.94 52.62Q124.29 52.54 124.685 52.5Q125.08 52.46 125.52 52.46Q126.03 52.46 126.44 52.57Q126.85 52.68 127.145 52.92Q127.44 53.16 127.595 53.54Q127.75 53.92 127.75 54.45Q127.75 54.92 127.61 55.335Q127.47 55.75 127.14 56.195Q126.81 56.64 126.25 57.155Q125.69 57.67 124.85 58.34L124.45 58.65L124.45 58.74L128.03 58.74L128.03 59.5L123.46 59.5L123.46 58.55ZM131.51 59.6Q130.99 59.6 130.56 59.445Q130.13 59.29 129.82 58.89Q129.51 58.49 129.34 57.795Q129.17 57.1 129.17 56.03Q129.17 54.96 129.34 54.27Q129.51 53.58 129.82 53.175Q130.13 52.77 130.56 52.615Q130.99 52.46 131.51 52.46Q132.03 52.46 132.465 52.615Q132.9 52.77 133.21 53.175Q133.52 53.58 133.69 54.27Q133.86 54.96 133.86 56.03Q133.86 57.1 133.69 57.795Q133.52 58.49 133.21 58.89Q132.9 59.29 132.465 59.445Q132.03 59.6 131.51 59.6ZM131.51 58.85Q131.88 58.85 132.15 58.725Q132.42 58.6 132.6 58.28Q132.78 57.96 132.865 57.415Q132.95 56.87 132.95 56.03Q132.95 55.2 132.865 54.655Q132.78 54.11 132.6 53.79Q132.42 53.47 132.15 53.345Q131.88 53.22 131.51 53.22Q131.15 53.22 130.88 53.345Q130.61 53.47 130.435 53.79Q130.26 54.11 130.175 54.655Q130.09 55.2 130.09 56.03Q130.09 56.87 130.175 57.415Q130.26 57.96 130.435 58.28Q130.61 58.6 130.88 58.725Q131.15 58.85 131.51 58.85ZM134.96 58.55Q136.07 57.68 136.74 57.07Q137.41 56.46 137.78 56Q138.15 55.54 138.27 55.175Q138.39 54.81 138.39 54.44Q138.39 54.07 138.255 53.83Q138.12 53.59 137.91 53.45Q137.7 53.31 137.435 53.26Q137.17 53.21 136.92 53.21Q136.59 53.21 136.22 53.245Q135.85 53.28 135.44 53.39L135.44 52.62Q135.79 52.54 136.185 52.5Q136.58 52.46 137.02 52.46Q137.53 52.46 137.94 52.57Q138.35 52.68 138.645 52.92Q138.94 53.16 139.095 53.54Q139.25 53.92 139.25 54.45Q139.25 54.92 139.11 55.335Q138.97 55.75 138.64 56.195Q138.31 56.64 137.75 57.155Q137.19 57.67 136.35 58.34L135.95 58.65L135.95 58.74L139.53 58.74L139.53 59.5L134.96 59.5L134.96 58.55ZM145.43 57.79L144.61 57.79L144.61 59.5L143.77 59.5L143.77 57.79L140.49 57.79L140.49 56.82L143.53 52.56L144.61 52.56L144.61 57.03L145.43 57.03L145.43 57.79ZM143.77 57.03L143.77 53.48L143.71 53.48L141.25 56.97L141.25 57.03L143.77 57.03ZM147.4 59.56Q147.05 59.56 146.905 59.45Q146.76 59.34 146.76 58.92Q146.76 58.52 146.905 58.41Q147.05 58.3 147.4 58.3Q147.74 58.3 147.89 58.41Q148.04 58.52 148.04 58.92Q148.04 59.34 147.89 59.45Q147.74 59.56 147.4 59.56ZM151.17 59.6Q150.75 59.6 150.355 59.57Q149.96 59.54 149.61 59.47L149.61 58.68Q150.01 58.78 150.385 58.815Q150.76 58.85 151.16 58.85Q151.55 58.85 151.885 58.79Q152.22 58.73 152.46 58.58Q152.7 58.43 152.84 58.185Q152.98 57.94 152.98 57.58Q152.98 56.84 152.48 56.55Q151.98 56.26 150.99 56.26L150.44 56.26L150.44 55.57L150.98 55.57Q151.89 55.57 152.36 55.235Q152.83 54.9 152.83 54.33Q152.83 53.72 152.465 53.46Q152.1 53.2 151.35 53.2Q151.05 53.2 150.66 53.25Q150.27 53.3 149.94 53.4L149.94 52.66Q150.2 52.58 150.595 52.52Q150.99 52.46 151.39 52.46Q152.51 52.46 153.085 52.89Q153.66 53.32 153.66 54.28Q153.66 54.96 153.33 55.325Q153 55.69 152.43 55.86L152.43 55.92Q153.17 56.05 153.505 56.475Q153.84 56.9 153.84 57.59Q153.84 58.55 153.195 59.075Q152.55 59.6 151.17 59.6ZM156.17 59.56Q155.82 59.56 155.675 59.45Q155.53 59.34 155.53 58.92Q155.53 58.52 155.675 58.41Q155.82 58.3 156.17 58.3Q156.51 58.3 156.66 58.41Q156.81 58.52 156.81 58.92Q156.81 59.34 156.66 59.45Q156.51 59.56 156.17 59.56ZM160.55 59.6Q160.03 59.6 159.6 59.445Q159.17 59.29 158.86 58.89Q158.55 58.49 158.38 57.795Q158.21 57.1 158.21 56.03Q158.21 54.96 158.38 54.27Q158.55 53.58 158.86 53.175Q159.17 52.77 159.6 52.615Q160.03 52.46 160.55 52.46Q161.07 52.46 161.505 52.615Q161.94 52.77 162.25 53.175Q162.56 53.58 162.73 54.27Q162.9 54.96 162.9 56.03Q162.9 57.1 162.73 57.795Q162.56 58.49 162.25 58.89Q161.94 59.29 161.505 59.445Q161.07 59.6 160.55 59.6ZM160.55 58.85Q160.92 58.85 161.19 58.725Q161.46 58.6 161.64 58.28Q161.82 57.96 161.905 57.415Q161.99 56.87 161.99 56.03Q161.99 55.2 161.905 54.655Q161.82 54.11 161.64 53.79Q161.46 53.47 161.19 53.345Q160.92 53.22 160.55 53.22Q160.19 53.22 159.92 53.345Q159.65 53.47 159.475 53.79Q159.3 54.11 159.215 54.655Q159.13 55.2 159.13 56.03Q159.13 56.87 159.215 57.415Q159.3 57.96 159.475 58.28Q159.65 58.6 159.92 58.725Q160.19 58.85 160.55 58.85ZM165.69 59.6Q165.27 59.6 164.875 59.57Q164.48 59.54 164.13 59.47L164.13 58.68Q164.53 58.78 164.905 58.815Q165.28 58.85 165.68 58.85Q166.07 58.85 166.405 58.79Q166.74 58.73 166.98 58.58Q167.22 58.43 167.36 58.185Q167.5 57.94 167.5 57.58Q167.5 56.84 167 56.55Q166.5 56.26 165.51 56.26L164.96 56.26L164.96 55.57L165.5 55.57Q166.41 55.57 166.88 55.235Q167.35 54.9 167.35 54.33Q167.35 53.72 166.985 53.46Q166.62 53.2 165.87 53.2Q165.57 53.2 165.18 53.25Q164.79 53.3 164.46 53.4L164.46 52.66Q164.72 52.58 165.115 52.52Q165.51 52.46 165.91 52.46Q167.03 52.46 167.605 52.89Q168.18 53.32 168.18 54.28Q168.18 54.96 167.85 55.325Q167.52 55.69 166.95 55.86L166.95 55.92Q167.69 56.05 168.025 56.475Q168.36 56.9 168.36 57.59Q168.36 58.55 167.715 59.075Q167.07 59.6 165.69 59.6Z">
</path>
</g>
<g >
<path     fill="#A6A6A6"  d="M25.71 75.35L26.84 75.35L26.84 76.03L25.71 76.03L25.71 77.78Q26.03 77.68 26.305 77.59Q26.58 77.5 26.78 77.42L26.81 77.79L26.83 78.11Q26.62 78.19 26.33 78.285Q26.04 78.38 25.71 78.49L25.71 81.23Q25.71 81.56 25.66 81.77Q25.61 81.98 25.475 82.11Q25.34 82.24 25.11 82.3Q24.88 82.36 24.52 82.39L24.05 82.43L23.82 81.71L24.34 81.67Q24.74 81.64 24.875 81.515Q25.01 81.39 25.01 81.02L25.01 78.72Q24.56 78.86 24.16 78.98Q23.76 79.1 23.48 79.18L23.26 78.47Q23.59 78.39 24.055 78.265Q24.52 78.14 25.01 77.99L25.01 76.03L23.6 76.03L23.6 75.35L25.01 75.35L25.01 73.53L25.71 73.56L25.71 75.35ZM30.41 80.46Q30.8 80.84 31.28 81.16Q31.76 81.48 32.37 81.82L31.94 82.45Q31.38 82.13 30.885 81.765Q30.39 81.4 29.96 80.97Q29.63 81.32 29.215 81.67Q28.8 82.02 28.28 82.39L27.83 81.87L27.83 82.4L27.11 82.4L27.11 74L31.57 74Q31.57 74.05 31.56 74.27Q31.55 74.49 31.54 74.75Q31.53 75.01 31.52 75.245Q31.51 75.48 31.5 75.56Q31.49 75.84 31.42 76.015Q31.35 76.19 31.165 76.3Q30.98 76.41 30.66 76.465Q30.34 76.52 29.82 76.56L29.2 76.61L28.96 75.95L29.72 75.91Q30.05 75.89 30.255 75.855Q30.46 75.82 30.57 75.76Q30.68 75.7 30.725 75.605Q30.77 75.51 30.78 75.37Q30.79 75.27 30.805 75.06Q30.82 74.85 30.83 74.69L27.83 74.69L27.83 77.18L31.67 77.18L31.67 77.85Q31.48 78.54 31.2 79.18Q30.92 79.82 30.41 80.46ZM27.83 81.84Q28.88 81.1 29.5 80.45Q29.13 79.99 28.835 79.445Q28.54 78.9 28.31 78.24L28.93 78Q29.14 78.61 29.385 79.08Q29.63 79.55 29.93 79.94Q30.31 79.44 30.53 78.93Q30.75 78.42 30.92 77.84L27.83 77.84L27.83 81.84ZM41.29 78.36L41.29 82.41L40.55 82.41L40.55 81.84L36.05 81.84L36.05 82.41L35.31 82.41L35.31 79.14Q34.87 79.3 34.41 79.455Q33.95 79.61 33.45 79.76L33.09 79.08Q34.38 78.72 35.455 78.3Q36.53 77.88 37.415 77.4Q38.3 76.92 39.01 76.37Q39.72 75.82 40.28 75.2L36.62 75.2Q36.49 75.34 36.36 75.465Q36.23 75.59 36.09 75.73Q36.27 75.85 36.465 76Q36.66 76.15 36.85 76.3Q37.04 76.45 37.21 76.59Q37.38 76.73 37.5 76.84L36.99 77.45Q36.87 77.3 36.695 77.135Q36.52 76.97 36.32 76.805Q36.12 76.64 35.915 76.485Q35.71 76.33 35.53 76.21Q35.22 76.47 34.89 76.71Q34.56 76.95 34.21 77.18L33.75 76.56Q34.25 76.25 34.75 75.855Q35.25 75.46 35.7 75.035Q36.15 74.61 36.535 74.18Q36.92 73.75 37.2 73.36L37.88 73.66Q37.59 74.08 37.25 74.5L41.27 74.5L41.27 75.2Q40.47 76.17 39.455 76.94Q38.44 77.71 37.12 78.36L41.29 78.36ZM40.55 81.16L40.55 79.07L36.05 79.07L36.05 81.16L40.55 81.16ZM47.9 75.11Q48 76.19 48.305 77.12Q48.61 78.05 49.12 78.87Q49.63 79.69 50.335 80.415Q51.04 81.14 51.93 81.8L51.37 82.48Q49.95 81.33 49 80.03Q48.05 78.73 47.6 77.2Q47.21 78.69 46.28 79.96Q45.35 81.23 43.81 82.4L43.26 81.75Q44.31 80.99 45.045 80.215Q45.78 79.44 46.245 78.575Q46.71 77.71 46.925 76.72Q47.14 75.73 47.16 74.54Q47.16 74.48 47.165 74.335Q47.17 74.19 47.175 74.035Q47.18 73.88 47.18 73.75Q47.18 73.62 47.18 73.58L47.93 73.61Q47.93 73.65 47.93 73.81Q47.93 73.97 47.925 74.165Q47.92 74.36 47.915 74.55Q47.91 74.74 47.91 74.83Q47.91 74.91 47.91 74.975Q47.91 75.04 47.9 75.11ZM60.05 80.02Q60.76 81.03 61.99 81.96L61.47 82.5Q60.9 82.04 60.45 81.585Q60 81.13 59.65 80.65Q59.28 81.14 58.78 81.6Q58.28 82.06 57.6 82.55L57.14 81.99Q57.86 81.51 58.37 81.035Q58.88 80.56 59.23 80.02Q58.84 79.34 58.605 78.61Q58.37 77.88 58.24 77.04Q58.16 77.18 58.075 77.325Q57.99 77.47 57.9 77.61L57.34 77.25Q57.62 76.86 57.865 76.385Q58.11 75.91 58.305 75.41Q58.5 74.91 58.64 74.415Q58.78 73.92 58.86 73.5L59.56 73.67Q59.48 74.03 59.375 74.385Q59.27 74.74 59.14 75.1L61.74 75.1L61.74 75.82L61.06 75.82Q61 76.5 60.92 77.09Q60.84 77.68 60.725 78.19Q60.61 78.7 60.445 79.155Q60.28 79.61 60.05 80.02ZM52.83 77.88Q53.52 77.54 54.06 77.115Q54.6 76.69 55.02 76.22L53.14 76.22L53.14 75.61L55.19 75.61L55.19 73.56L55.86 73.6L55.86 75.61L57.66 75.61L57.66 76.22L55.86 76.22L55.86 78.08L55.19 78.08L55.19 76.85Q54.81 77.29 54.315 77.685Q53.82 78.08 53.19 78.42L52.83 77.88ZM57.54 74.04Q57.47 74.2 57.37 74.39Q57.27 74.58 57.155 74.775Q57.04 74.97 56.92 75.15Q56.8 75.33 56.7 75.46L56.2 75.18Q56.29 75.06 56.4 74.89Q56.51 74.72 56.615 74.535Q56.72 74.35 56.815 74.155Q56.91 73.96 56.98 73.79L57.54 74.04ZM54.14 75.45Q54.09 75.29 54.015 75.095Q53.94 74.9 53.85 74.71Q53.76 74.52 53.67 74.35Q53.58 74.18 53.51 74.05L54.04 73.85Q54.11 73.96 54.2 74.13Q54.29 74.3 54.38 74.495Q54.47 74.69 54.55 74.89Q54.63 75.09 54.69 75.26L54.14 75.45ZM58.72 76.1Q58.83 77.05 59.04 77.835Q59.25 78.62 59.62 79.32Q59.95 78.6 60.12 77.755Q60.29 76.91 60.39 75.82L58.84 75.82L58.72 76.1ZM57.23 78.24Q56.94 77.89 56.615 77.545Q56.29 77.2 55.97 76.92L56.37 76.55Q56.63 76.75 56.98 77.095Q57.33 77.44 57.63 77.78L57.23 78.24ZM56.96 81.93Q56.68 81.76 56.38 81.605Q56.08 81.45 55.77 81.29Q55.34 81.61 54.735 81.9Q54.13 82.19 53.25 82.48L52.9 81.85Q53.65 81.63 54.185 81.415Q54.72 81.2 55.11 80.96Q54.34 80.59 53.62 80.32Q53.76 80.09 53.9 79.85Q54.04 79.61 54.17 79.37L53.01 79.37L53.01 78.77L54.47 78.77Q54.56 78.58 54.635 78.405Q54.71 78.23 54.77 78.07L55.41 78.28Q55.36 78.41 55.31 78.53Q55.26 78.65 55.21 78.77L57.29 78.77L57.29 79.34Q57.09 79.76 56.86 80.13Q56.63 80.5 56.3 80.83Q56.52 80.94 56.75 81.045Q56.98 81.15 57.23 81.27L56.96 81.93ZM54.53 80.08Q54.8 80.19 55.08 80.305Q55.36 80.42 55.67 80.56Q55.97 80.3 56.175 80.01Q56.38 79.72 56.55 79.37L54.92 79.37Q54.83 79.56 54.73 79.735Q54.63 79.91 54.53 80.08ZM64.95 77.3Q64.6 77.3 64.455 77.19Q64.31 77.08 64.31 76.67Q64.31 76.26 64.455 76.15Q64.6 76.04 64.95 76.04Q65.29 76.04 65.44 76.15Q65.59 76.26 65.59 76.67Q65.59 77.08 65.44 77.19Q65.29 77.3 64.95 77.3ZM64.95 81.56Q64.6 81.56 64.455 81.45Q64.31 81.34 64.31 80.92Q64.31 80.52 64.455 80.41Q64.6 80.3 64.95 80.3Q65.29 80.3 65.44 80.41Q65.59 80.52 65.59 80.92Q65.59 81.34 65.44 81.45Q65.29 81.56 64.95 81.56ZM76.81 81.51Q77.44 81.54 78.035 81.55Q78.63 81.56 79.22 81.555Q79.81 81.55 80.41 81.53Q81.01 81.51 81.64 81.47L81.46 82.2Q80.87 82.23 80.295 82.25Q79.72 82.27 79.145 82.27Q78.57 82.27 77.97 82.26Q77.37 82.25 76.73 82.22Q76.14 82.2 75.69 82.105Q75.24 82.01 74.895 81.825Q74.55 81.64 74.295 81.35Q74.04 81.06 73.85 80.64Q73.74 81.09 73.585 81.525Q73.43 81.96 73.2 82.47L72.53 82.25Q72.79 81.71 72.96 81.26Q73.13 80.81 73.235 80.345Q73.34 79.88 73.38 79.345Q73.42 78.81 73.43 78.08L74.09 78.12Q74.08 78.86 74.03 79.45Q74.17 79.99 74.375 80.36Q74.58 80.73 74.9 80.98L74.9 77.43L72.83 77.43L72.83 76.79L74.69 76.79L74.69 75.4L73.16 75.4L73.16 74.75L74.69 74.75L74.69 73.53L75.39 73.56L75.39 74.75L76.65 74.75L76.65 75.4L75.39 75.4L75.39 76.79L76.66 76.79L76.66 77.43L75.58 77.43L75.58 78.95L76.8 78.95L76.8 79.65L75.58 79.65L75.58 81.32Q76.07 81.48 76.81 81.51ZM76.72 77.13Q77.08 76.81 77.33 76.495Q77.58 76.18 77.74 75.865Q77.9 75.55 77.99 75.245Q78.08 74.94 78.12 74.64L76.77 74.64L76.77 74.01L80.92 74.01Q80.92 74.11 80.9 74.41Q80.88 74.71 80.86 75.05Q80.84 75.39 80.82 75.685Q80.8 75.98 80.8 76.06Q80.78 76.39 80.715 76.59Q80.65 76.79 80.505 76.91Q80.36 77.03 80.12 77.09Q79.88 77.15 79.51 77.19L79.03 77.25L78.77 76.57L79.33 76.52Q79.55 76.5 79.69 76.465Q79.83 76.43 79.91 76.355Q79.99 76.28 80.03 76.15Q80.07 76.02 80.08 75.82L80.15 74.64L78.81 74.64Q78.75 74.97 78.66 75.315Q78.57 75.66 78.4 76.03Q78.23 76.4 77.95 76.79Q77.67 77.18 77.24 77.61L76.72 77.13ZM77.22 77.88L80.78 77.88L80.78 80.79L77.22 80.79L77.22 77.88ZM77.9 80.13L80.07 80.13L80.07 78.52L77.9 78.52L77.9 80.13ZM89.1 75.95L85.53 75.95L85.53 75.22L89.1 75.22L89.1 73.5L89.82 73.53L89.82 75.22L91.21 75.22L91.21 75.95L89.82 75.95L89.82 79.28Q89.82 79.7 89.76 79.97Q89.7 80.24 89.525 80.405Q89.35 80.57 89.03 80.645Q88.71 80.72 88.18 80.74L87.49 80.77L87.21 80L88.11 79.96Q88.44 79.95 88.64 79.905Q88.84 79.86 88.94 79.765Q89.04 79.67 89.07 79.51Q89.1 79.35 89.1 79.09L89.1 75.95ZM84.61 76.15Q84.5 75.94 84.325 75.67Q84.15 75.4 83.95 75.125Q83.75 74.85 83.55 74.6Q83.35 74.35 83.2 74.19L83.74 73.74Q83.89 73.89 84.095 74.13Q84.3 74.37 84.505 74.635Q84.71 74.9 84.895 75.16Q85.08 75.42 85.19 75.61L84.61 76.15ZM86.39 76.43Q86.55 76.6 86.76 76.87Q86.97 77.14 87.19 77.43Q87.41 77.72 87.605 78.005Q87.8 78.29 87.92 78.5L87.34 79.02Q87.23 78.78 87.04 78.48Q86.85 78.18 86.64 77.875Q86.43 77.57 86.225 77.3Q86.02 77.03 85.86 76.85L86.39 76.43ZM87.11 81.46Q89.3 81.54 91.5 81.46L91.36 82.21Q89.17 82.28 86.99 82.21Q86.48 82.19 86.095 82.13Q85.71 82.07 85.395 81.935Q85.08 81.8 84.81 81.57Q84.54 81.34 84.27 80.97Q83.94 81.34 83.615 81.63Q83.29 81.92 82.89 82.24L82.42 81.54Q82.79 81.26 83.175 80.935Q83.56 80.61 83.91 80.27L83.91 77.64L82.6 77.64L82.6 76.9L84.63 76.9L84.63 80.26Q84.85 80.62 85.08 80.845Q85.31 81.07 85.595 81.2Q85.88 81.33 86.245 81.385Q86.61 81.44 87.11 81.46ZM92.45 80.55Q93.56 79.68 94.23 79.07Q94.9 78.46 95.27 78Q95.64 77.54 95.76 77.175Q95.88 76.81 95.88 76.44Q95.88 76.07 95.745 75.83Q95.61 75.59 95.4 75.45Q95.19 75.31 94.925 75.26Q94.66 75.21 94.41 75.21Q94.08 75.21 93.71 75.245Q93.34 75.28 92.93 75.39L92.93 74.62Q93.28 74.54 93.675 74.5Q94.07 74.46 94.51 74.46Q95.02 74.46 95.43 74.57Q95.84 74.68 96.135 74.92Q96.43 75.16 96.585 75.54Q96.74 75.92 96.74 76.45Q96.74 76.92 96.6 77.335Q96.46 77.75 96.13 78.195Q95.8 78.64 95.24 79.155Q94.68 79.67 93.84 80.34L93.44 80.65L93.44 80.74L97.02 80.74L97.02 81.5L92.45 81.5L92.45 80.55ZM100.5 81.6Q99.98 81.6 99.55 81.445Q99.12 81.29 98.81 80.89Q98.5 80.49 98.33 79.795Q98.16 79.1 98.16 78.03Q98.16 76.96 98.33 76.27Q98.5 75.58 98.81 75.175Q99.12 74.77 99.55 74.615Q99.98 74.46 100.5 74.46Q101.02 74.46 101.455 74.615Q101.89 74.77 102.2 75.175Q102.51 75.58 102.68 76.27Q102.85 76.96 102.85 78.03Q102.85 79.1 102.68 79.795Q102.51 80.49 102.2 80.89Q101.89 81.29 101.455 81.445Q101.02 81.6 100.5 81.6ZM100.5 80.85Q100.87 80.85 101.14 80.725Q101.41 80.6 101.59 80.28Q101.77 79.96 101.855 79.415Q101.94 78.87 101.94 78.03Q101.94 77.2 101.855 76.655Q101.77 76.11 101.59 75.79Q101.41 75.47 101.14 75.345Q100.87 75.22 100.5 75.22Q100.14 75.22 99.87 75.345Q99.6 75.47 99.425 75.79Q99.25 76.11 99.165 76.655Q99.08 77.2 99.08 78.03Q99.08 78.87 99.165 79.415Q99.25 79.96 99.425 80.28Q99.6 80.6 99.87 80.725Q100.14 80.85 100.5 80.85ZM107.44 74.85Q107.42 75.26 107.405 75.695Q107.39 76.13 107.37 76.47Q107.37 76.52 107.365 76.555Q107.36 76.59 107.36 76.64L111.42 76.64Q111.41 76.76 111.395 77.055Q111.38 77.35 111.355 77.725Q111.33 78.1 111.305 78.525Q111.28 78.95 111.255 79.325Q111.23 79.7 111.21 79.99Q111.19 80.28 111.18 80.4Q111.14 80.9 111.055 81.205Q110.97 81.51 110.78 81.685Q110.59 81.86 110.265 81.94Q109.94 82.02 109.41 82.06L108.59 82.13L108.31 81.36L109.17 81.3Q109.51 81.28 109.735 81.235Q109.96 81.19 110.095 81.07Q110.23 80.95 110.295 80.73Q110.36 80.51 110.39 80.14Q110.4 79.98 110.425 79.59Q110.45 79.2 110.48 78.765Q110.51 78.33 110.535 77.94Q110.56 77.55 110.57 77.39L107.28 77.39Q107.18 78.21 106.975 78.885Q106.77 79.56 106.43 80.16Q106.09 80.76 105.59 81.32Q105.09 81.88 104.39 82.47L103.78 81.89Q104.53 81.26 105.04 80.7Q105.55 80.14 105.875 79.525Q106.2 78.91 106.36 78.175Q106.52 77.44 106.58 76.46Q106.59 76.32 106.6 76.13Q106.61 75.94 106.62 75.72Q106.63 75.5 106.64 75.275Q106.65 75.05 106.66 74.85L104.17 74.85L104.17 74.11L112.57 74.11L112.57 74.85L107.44 74.85Z">
</path>
</g>
<path    stroke="rgba(0, 0, 0, 1)" stroke-width="1"    d="M0 89.5L401 89.5">
</path>
<g >
<path     fill="#A6A6A6"  d="M24.64 109.88L23.97 109.88L23.97 108.3L27.66 108.3Q27.59 108.09 27.52 107.885Q27.45 107.68 27.4 107.54L28.08 107.41Q28.14 107.55 28.23 107.805Q28.32 108.06 28.4 108.3L31.84 108.3L31.84 109.88L31.17 109.88L31.17 108.87L24.64 108.87L24.64 109.88ZM29.69 112.38Q30.15 112.82 30.885 113.175Q31.62 113.53 32.5 113.8L32.21 114.43Q31.26 114.09 30.5 113.65L30.5 115.03L29.82 115.03L29.82 113.59L25.97 113.59L25.97 115.04L25.31 115.04L25.31 113.67Q24.93 113.9 24.52 114.11Q24.11 114.32 23.67 114.51L23.32 113.92Q23.73 113.76 24.13 113.58Q24.53 113.4 24.89 113.205Q25.25 113.01 25.555 112.8Q25.86 112.59 26.09 112.38L23.73 112.38L23.73 111.84L26.28 111.84L26.28 111.28L24.69 111.28L24.69 110.75L26.28 110.75L26.28 110.22L24.83 110.22L24.83 109.68L26.28 109.68L26.28 109.24L26.98 109.27L26.98 109.68L28.85 109.68L28.85 109.24L29.54 109.27L29.54 109.68L30.98 109.68L30.98 110.22L29.54 110.22L29.54 110.75L31.14 110.75L31.14 111.28L29.54 111.28L29.54 111.84L32.07 111.84L32.07 112.38L29.69 112.38ZM26.98 110.75L28.85 110.75L28.85 110.22L26.98 110.22L26.98 110.75ZM26.98 111.84L28.85 111.84L28.85 111.28L26.98 111.28L26.98 111.84ZM29.58 113.04Q29.19 112.74 28.88 112.38L26.91 112.38Q26.61 112.73 26.21 113.04L29.58 113.04ZM28.31 113.94Q28.24 114.44 28.055 114.82Q27.87 115.2 27.43 115.5Q26.99 115.8 26.235 116.045Q25.48 116.29 24.27 116.54L23.99 115.92Q25.09 115.73 25.775 115.515Q26.46 115.3 26.845 115.05Q27.23 114.8 27.38 114.515Q27.53 114.23 27.57 113.89L28.31 113.94ZM28.31 114.77Q28.67 114.87 29.105 115.01Q29.54 115.15 29.99 115.3Q30.44 115.45 30.875 115.605Q31.31 115.76 31.67 115.89L31.45 116.58Q31.1 116.42 30.655 116.24Q30.21 116.06 29.745 115.885Q29.28 115.71 28.84 115.56Q28.4 115.41 28.06 115.32L28.31 114.77ZM42.09 113.58L41.23 113.58L41.23 114.85L38.14 114.85L38.14 115.33Q38.14 115.62 38.08 115.81Q38.02 116 37.88 116.115Q37.74 116.23 37.51 116.285Q37.28 116.34 36.93 116.36L36.29 116.41L36.02 115.71Q36.15 115.71 36.3 115.7Q36.43 115.69 36.59 115.69Q36.75 115.69 36.92 115.67Q37.1 115.66 37.2 115.645Q37.3 115.63 37.355 115.58Q37.41 115.53 37.42 115.435Q37.43 115.34 37.43 115.16L37.43 114.85L34.07 114.85L34.07 114.27L37.43 114.27L37.43 113.58L33.37 113.58L33.37 112.99L37.43 112.99L37.43 112.36L34.07 112.36L34.07 111.78L37.43 111.78L37.43 111.18L34.52 111.18L34.52 109.41L37.43 109.41L37.43 108.79L33.39 108.79L33.39 108.17L37.43 108.17L37.43 107.46L38.14 107.5L38.14 108.17L42.07 108.17L42.07 108.79L38.14 108.79L38.14 109.41L41.02 109.41L41.02 111.18L38.14 111.18L38.14 111.78L41.23 111.78L41.23 112.99L42.09 112.99L42.09 113.58ZM37.43 110.63L37.43 109.96L35.24 109.96L35.24 110.63L37.43 110.63ZM38.14 109.96L38.14 110.63L40.3 110.63L40.3 109.96L38.14 109.96ZM38.14 112.99L40.53 112.99L40.53 112.36L38.14 112.36L38.14 112.99ZM40.53 113.58L38.14 113.58L38.14 114.27L40.53 114.27L40.53 113.58ZM51.77 113.85Q51.76 114.07 51.73 114.3Q51.7 114.53 51.66 114.8Q51.6 115.22 51.505 115.485Q51.41 115.75 51.23 115.9Q51.05 116.05 50.755 116.115Q50.46 116.18 50 116.2Q48.94 116.25 47.85 116.25Q46.76 116.25 45.7 116.2Q45.25 116.18 44.95 116.1Q44.65 116.02 44.465 115.845Q44.28 115.67 44.2 115.365Q44.12 115.06 44.12 114.59L44.12 109.86L44.91 109.89L44.91 111.22L50.05 111.22L50.05 108.82L43.83 108.82L43.83 108.05L50.85 108.05L50.85 111.99L44.91 111.99L44.91 114.39Q44.91 114.71 44.955 114.905Q45 115.1 45.115 115.205Q45.23 115.31 45.435 115.355Q45.64 115.4 45.96 115.42Q46.9 115.47 47.865 115.475Q48.83 115.48 49.77 115.42Q50.08 115.4 50.275 115.365Q50.47 115.33 50.595 115.24Q50.72 115.15 50.785 114.98Q50.85 114.81 50.9 114.52Q50.91 114.43 50.925 114.305Q50.94 114.18 50.95 114.045Q50.96 113.91 50.97 113.78Q50.98 113.65 50.98 113.57L51.77 113.85ZM59.37 109.56L59.37 110.98L61.44 110.98L61.44 111.68L56.63 111.68L56.63 110.98L58.62 110.98L58.62 109.56L56.45 109.56L56.45 108.85L58.62 108.85L58.62 107.48L59.37 107.51L59.37 108.85L61.85 108.85L61.85 109.56L59.37 109.56ZM53.68 111.14Q53.59 111.15 53.49 111.16Q53.39 111.17 53.24 111.2L53.09 110.5Q53.23 110.45 53.3 110.4Q53.37 110.35 53.45 110.23Q53.59 110.04 53.785 109.725Q53.98 109.41 54.185 109.035Q54.39 108.66 54.585 108.255Q54.78 107.85 54.93 107.49L55.55 107.75Q55.41 108.07 55.22 108.455Q55.03 108.84 54.825 109.215Q54.62 109.59 54.43 109.915Q54.24 110.24 54.09 110.44Q54.16 110.44 54.32 110.43Q54.48 110.42 54.675 110.41Q54.87 110.4 55.06 110.39Q55.25 110.38 55.38 110.37Q55.49 110.18 55.6 109.98Q55.71 109.78 55.82 109.56L56.4 109.83Q56.17 110.28 55.925 110.72Q55.68 111.16 55.44 111.555Q55.2 111.95 54.975 112.29Q54.75 112.63 54.56 112.88L56.31 112.63L56.33 113.33Q56.27 113.34 56.105 113.36Q55.94 113.38 55.72 113.41Q55.5 113.44 55.24 113.48Q54.98 113.52 54.75 113.555Q54.52 113.59 54.33 113.62Q54.14 113.65 54.06 113.66Q53.91 113.68 53.77 113.7Q53.63 113.72 53.48 113.77L53.32 113.05Q53.53 112.98 53.625 112.915Q53.72 112.85 53.83 112.71Q54.14 112.33 54.42 111.925Q54.7 111.52 54.98 111.05Q54.81 111.06 54.61 111.075Q54.41 111.09 54.225 111.1Q54.04 111.11 53.89 111.12Q53.74 111.13 53.68 111.14ZM56.85 112.76L61.16 112.76L61.16 116.52L60.41 116.52L60.41 115.86L57.59 115.86L57.59 116.52L56.85 116.52L56.85 112.76ZM57.59 113.44L57.59 115.18L60.41 115.18L60.41 113.44L57.59 113.44ZM56.58 115.07L56.59 115.32Q56.26 115.39 55.78 115.48Q55.3 115.57 54.795 115.655Q54.29 115.74 53.82 115.815Q53.35 115.89 53.02 115.93L52.94 115.22Q53.27 115.18 53.75 115.105Q54.23 115.03 54.74 114.94Q55.25 114.85 55.735 114.75Q56.22 114.65 56.55 114.57L56.58 115.07ZM68.05 112.88Q68.68 113.57 69.625 114.235Q70.57 114.9 71.85 115.42L71.47 116.11Q70.16 115.48 69.23 114.82Q68.3 114.16 67.65 113.42L67.65 116.49L66.9 116.49L66.9 113.43Q66.25 114.15 65.315 114.83Q64.38 115.51 63.11 116.11L62.68 115.41Q63.93 114.89 64.88 114.225Q65.83 113.56 66.5 112.88L63.84 112.88L63.84 110.2L66.9 110.2L66.9 109.17L63.14 109.17L63.14 108.46L66.9 108.46L66.9 107.46L67.65 107.49L67.65 108.46L71.4 108.46L71.4 109.17L67.65 109.17L67.65 110.2L70.7 110.2L70.7 112.88L68.05 112.88ZM64.58 112.24L66.9 112.24L66.9 110.85L64.58 110.85L64.58 112.24ZM67.65 110.85L67.65 112.24L69.96 112.24L69.96 110.85L67.65 110.85Z">
</path>
</g>
</svg>
