<svg xmlns="http://www.w3.org/2000/svg" xmlns:xlink="http://www.w3.org/1999/xlink" width="69" height="68" viewBox="0 0 69 68" fill="none">
<ellipse cx="34.5" cy="34" rx="34.5" ry="34"   fill="#FA0000" >
</ellipse>
<g >
<path     fill="#000000"  d="M32.6 59.68L26.84 59.68L26.84 54.928L32.6 54.928L32.6 59.68ZM23.864 49L25.448 49L23.864 52.432L24.308 52.684L24.872 51.448L26.396 51.448L24.596 55.42L26.024 55.42L26.024 56.968L22.148 56.968L23.432 54.136L21.896 53.296L23.864 49ZM22.1 58.18L26.024 57.784L26.024 59.332L22.1 59.728L22.1 58.18ZM26.444 49.876L28.94 49.876L28.94 48.952L30.5 48.952L30.5 49.876L32.996 49.876L32.996 51.388L30.5 51.388L30.5 52.552L32.864 52.552L32.864 54.064L26.576 54.064L26.576 52.552L28.94 52.552L28.94 51.388L26.444 51.388L26.444 49.876ZM31.052 58.156L31.052 56.452L28.388 56.452L28.388 58.156L31.052 58.156ZM38.732 51.664L38.732 50.968L34.1 50.968L34.1 49.492L38.732 49.492L38.732 48.76L40.268 48.76L40.268 49.492L44.9 49.492L44.9 50.968L40.268 50.968L40.268 51.664L44.396 51.664L44.396 55.756L42.668 55.756Q43.304 57.376 45.02 58.084L45.02 59.836Q41.792 58.636 41.024 55.756L40.268 55.756L40.268 59.8L38.744 59.8L38.744 55.756L37.976 55.756Q37.208 58.636 33.98 59.836L33.98 58.084Q35.696 57.376 36.332 55.756L34.604 55.756L34.604 51.664L38.732 51.664ZM38.744 54.316L38.732 53.104L36.164 53.104L36.164 54.316L38.744 54.316ZM42.836 54.316L42.836 53.104L40.268 53.104L40.268 54.316L42.836 54.316Z">
</path>
</g>
<rect x="25" y="18" width="22" height="20"   fill="#FFFFFF" >
</rect>
</svg>
