<svg xmlns="http://www.w3.org/2000/svg" xmlns:xlink="http://www.w3.org/1999/xlink" width="267.1492004394531" height="65.71220397949219" viewBox="0 0 267.1492004394531 65.71220397949219" fill="none">
<rect x="0.5" y="0.5" width="266.149169921875" height="64.71220397949219" stroke="rgba(250, 0, 0, 1)" stroke-width="1"      fill="#FFFFFF" >
</rect>
<g >
<path     fill="#FA0000"  d="M84.1821 41.0424Q85.9101 38.9064 86.7741 36.6504Q87.6381 34.3944 87.8781 31.8744L83.0061 31.8744L83.0061 28.7784L87.9741 28.7784L87.9741 23.0184L84.4941 23.0184L84.4941 19.8984L103.262 19.8984L103.262 23.0184L100.094 23.0184L100.094 28.7784L104.75 28.7784L104.75 31.8744L100.094 31.8744L100.094 41.0424L96.9741 41.0424L96.9741 31.8744L91.0221 31.8744Q90.8541 34.5144 90.1821 36.6864Q89.5101 38.8584 88.1661 41.0424L84.1821 41.0424ZM96.9741 28.7784L96.9741 23.0184L91.0941 23.0184L91.0941 28.7784L96.9741 28.7784ZM112.862 37.7064Q111.998 39.4344 111.014 41.0424L107.222 41.0424Q109.286 38.0664 110.39 35.8824L107.15 33.4584L108.35 25.2744L107.078 25.2744L107.078 22.1544L108.806 22.1544L109.214 19.4424L112.526 19.4424L112.166 22.1544L115.766 22.1544Q115.766 26.4264 115.43 29.2824Q115.094 32.1384 114.086 34.8264L115.67 36.0504L115.67 39.8184L112.862 37.7064ZM111.614 32.9304Q112.646 29.7384 112.862 25.2744L111.278 25.2744L110.342 31.9464L111.614 32.9304ZM116.126 26.0664L117.422 26.0664L120.278 19.3464L123.638 19.3464L120.782 26.0664L124.886 26.0664L124.046 23.4264L127.238 23.4264L129.038 29.0424L116.126 29.0424L116.126 26.0664ZM116.822 30.7944L128.15 30.7944L128.15 40.8504L116.822 40.8504L116.822 30.7944ZM125.366 37.9704L125.366 33.6744L119.606 33.6744L119.606 37.9704L125.366 37.9704ZM141.35 28.4904L139.718 28.4904Q140.39 26.5944 140.978 24.2784Q141.566 21.9624 141.854 19.8504L152.486 19.8504L152.486 35.7144L149.558 35.7144L149.558 22.9224L144.47 22.9224L144.158 24.3624L148.454 24.3624L148.454 35.2344L144.422 35.2344L144.422 37.8264L152.63 37.8264L152.63 40.8984L141.35 40.8984L141.35 28.4904ZM130.838 37.5864L131.558 37.4904L131.558 29.7864L134.03 29.7864L134.03 37.1784L135.158 37.0344L135.158 28.2984L131.798 28.2984L131.798 19.6344L139.67 19.6344L139.67 28.2984L137.99 28.2984L137.99 30.5784L139.454 30.5784L139.454 33.5064L137.99 33.5064L137.99 36.6984L140.63 36.3624L140.63 39.3384L130.838 40.5624L130.838 37.5864ZM136.934 25.4424L136.934 22.4904L134.534 22.4904L134.534 25.4424L136.934 25.4424ZM145.694 32.1624L145.694 27.4344L144.278 27.4344L144.278 32.1624L145.694 32.1624ZM156.758 38.1384Q161.918 37.6584 166.646 35.7744Q171.374 33.8904 175.886 30.6504L175.886 34.3704Q167.606 40.4184 156.758 41.2824L156.758 38.1384ZM154.646 35.7144Q156.926 32.8824 158.174 30.0744L161.702 30.0744Q160.574 32.8584 158.534 35.7144L154.646 35.7144ZM155.078 25.7304L158.006 25.7304L158.006 20.1624L161.102 20.1624L161.102 25.7304L164.846 25.7304L164.846 18.9624L167.942 18.9624L167.942 20.5704L175.478 20.5704L175.478 23.5944L167.942 23.5944L167.942 25.7304L176.678 25.7304L176.678 28.8024L167.942 28.8024L167.942 33.6744L164.846 33.6744L164.846 28.8024L155.078 28.8024L155.078 25.7304Z">
</path>
</g>
</svg>
