<svg xmlns="http://www.w3.org/2000/svg" xmlns:xlink="http://www.w3.org/1999/xlink" width="100.00018310546875" height="34.00001525878906" viewBox="0 0 100.00018310546875 34.00001525878906" fill="none">
<rect x="0.5" y="0.5" width="99.00018310546875" height="33.00001525878906" stroke="rgba(250, 0, 0, 1)" stroke-width="1"      fill="#FFFFFF" >
</rect>
<g >
<path     fill="#FA0000"  d="M21.9691 23.2Q22.9771 21.954 23.4811 20.638Q23.9851 19.322 24.1251 17.852L21.2831 17.852L21.2831 16.046L24.1811 16.046L24.1811 12.686L22.1511 12.686L22.1511 10.866L33.0991 10.866L33.0991 12.686L31.2511 12.686L31.2511 16.046L33.9671 16.046L33.9671 17.852L31.2511 17.852L31.2511 23.2L29.4311 23.2L29.4311 17.852L25.9591 17.852Q25.8611 19.392 25.4691 20.659Q25.0771 21.926 24.2931 23.2L21.9691 23.2ZM29.4311 16.046L29.4311 12.686L26.0011 12.686L26.0011 16.046L29.4311 16.046ZM38.6991 21.254Q38.1951 22.262 37.6211 23.2L35.4091 23.2Q36.6131 21.464 37.2571 20.19L35.3671 18.776L36.0671 14.002L35.3251 14.002L35.3251 12.182L36.3331 12.182L36.5711 10.6L38.5031 10.6L38.2931 12.182L40.3931 12.182Q40.3931 14.674 40.1971 16.34Q40.0011 18.006 39.4131 19.574L40.3371 20.288L40.3371 22.486L38.6991 21.254ZM37.9711 18.468Q38.5731 16.606 38.6991 14.002L37.7751 14.002L37.2291 17.894L37.9711 18.468ZM40.6031 14.464L41.3591 14.464L43.0251 10.544L44.9851 10.544L43.3191 14.464L45.7131 14.464L45.2231 12.924L47.0851 12.924L48.1351 16.2L40.6031 16.2L40.6031 14.464ZM41.0091 17.222L47.6171 17.222L47.6171 23.088L41.0091 23.088L41.0091 17.222ZM45.9931 21.408L45.9931 18.902L42.6331 18.902L42.6331 21.408L45.9931 21.408ZM55.3171 15.878L54.3651 15.878Q54.7571 14.772 55.1001 13.421Q55.4431 12.07 55.6111 10.838L61.8131 10.838L61.8131 20.092L60.1051 20.092L60.1051 12.63L57.1371 12.63L56.9551 13.47L59.4611 13.47L59.4611 19.812L57.1091 19.812L57.1091 21.324L61.8971 21.324L61.8971 23.116L55.3171 23.116L55.3171 15.878ZM49.1851 21.184L49.6051 21.128L49.6051 16.634L51.0471 16.634L51.0471 20.946L51.7051 20.862L51.7051 15.766L49.7451 15.766L49.7451 10.712L54.3371 10.712L54.3371 15.766L53.3571 15.766L53.3571 17.096L54.2111 17.096L54.2111 18.804L53.3571 18.804L53.3571 20.666L54.8971 20.47L54.8971 22.206L49.1851 22.92L49.1851 21.184ZM52.7411 14.1L52.7411 12.378L51.3411 12.378L51.3411 14.1L52.7411 14.1ZM57.8511 18.02L57.8511 15.262L57.0251 15.262L57.0251 18.02L57.8511 18.02ZM64.3051 21.506Q67.3151 21.226 70.0731 20.127Q72.8311 19.028 75.4631 17.138L75.4631 19.308Q70.6331 22.836 64.3051 23.34L64.3051 21.506ZM63.0731 20.092Q64.4031 18.44 65.1311 16.802L67.1891 16.802Q66.5311 18.426 65.3411 20.092L63.0731 20.092ZM63.3251 14.268L65.0331 14.268L65.0331 11.02L66.8391 11.02L66.8391 14.268L69.0231 14.268L69.0231 10.32L70.8291 10.32L70.8291 11.258L75.2251 11.258L75.2251 13.022L70.8291 13.022L70.8291 14.268L75.9251 14.268L75.9251 16.06L70.8291 16.06L70.8291 18.902L69.0231 18.902L69.0231 16.06L63.3251 16.06L63.3251 14.268Z">
</path>
</g>
</svg>
