<svg xmlns="http://www.w3.org/2000/svg" xmlns:xlink="http://www.w3.org/1999/xlink" width="64" height="26" viewBox="0 0 64 26" fill="none">
<rect  x="0" y="0" width="64" height="26" rx="10"    fill="#FF0000" >
</rect>
<g >
<path     fill="#FFFFFF"  d="M13.683 17.26L15.438 17.26L15.438 10.448L10.693 10.448L10.693 8.758L15.438 8.758L15.438 7.25L17.154 7.25L17.154 8.758L18.48 8.758L18.48 10.448L17.154 10.448L17.141 18.95L13.683 18.95L13.683 17.26ZM6.585 11.553Q8.236 9.824 8.899 7.25L10.615 7.25Q10.303 8.966 9.653 10.357L9.653 19.015L7.963 19.015L7.963 12.931Q7.287 13.685 6.585 14.231L6.585 11.553ZM12.955 11.683L14.229 15.531L12.37 15.531L11.096 11.683L12.955 11.683ZM29.556 12.164L28.152 12.164L28.152 12.996L26.514 12.996L26.514 12.164L24.512 12.164Q24.291 12.645 24.044 12.996L22.016 12.996Q22.484 12.515 22.679 12.164L20.014 12.164L20.521 9.317L23.186 9.317L23.199 8.836L20.17 8.836L20.17 7.562L23.199 7.562L23.199 7.107L24.837 7.107L24.837 7.562L26.514 7.562L26.514 7.107L28.152 7.107L28.152 7.562L30.791 7.562L30.791 10.422L28.152 10.422L28.152 10.903L31.194 10.903L31.194 12.905L29.556 12.905L29.556 12.164ZM19.65 17.507Q23.888 17.208 24.993 14.803L26.8 14.803Q26.553 15.466 26.202 15.999L31.35 17.468L31.35 19.08L25.032 17.273Q24.083 18.04 22.731 18.495Q21.379 18.95 19.65 19.028L19.65 17.507ZM20.56 13.191L30.44 13.191L30.44 16.597L28.763 16.597L28.763 14.608L22.237 14.608L22.237 16.597L20.56 16.597L20.56 13.191ZM23.186 10.903L23.186 10.422L22.016 10.422L21.938 10.903L23.186 10.903ZM26.514 10.903L26.514 10.422L24.824 10.422L24.824 10.903L26.514 10.903ZM26.514 9.317L26.514 8.836L24.837 8.836L24.824 9.317L26.514 9.317ZM29.153 9.317L29.153 8.836L28.152 8.836L28.152 9.317L29.153 9.317ZM37.512 7.445L44.129 7.445L43.7 11.592L40.346 11.592L40.346 10.045L42.218 10.045L42.296 9.044L39.176 9.044L39.176 12.19L44.467 12.19Q43.895 14.413 42.855 16.285L44.61 18.95L42.855 18.95L41.984 17.637Q41.529 18.287 40.931 18.95L37.512 18.95L37.512 7.445ZM32.598 13.373L34.041 12.996L34.041 10.63L32.728 10.63L32.728 8.979L34.041 8.979L34.041 7.185L35.731 7.185L35.731 8.979L36.966 8.979L36.966 10.63L35.731 10.63L35.731 12.554L36.992 12.229L36.992 14.036L35.731 14.361L35.731 18.95L33.04 18.95L33.04 17.273L34.041 17.273L34.041 14.803L32.598 15.18L32.598 13.373ZM39.176 18.69Q40.138 17.676 40.957 16.506L39.215 13.711L39.176 13.711L39.176 18.69ZM41.828 15.089Q42.231 14.348 42.478 13.711L41.009 13.711L41.828 15.089ZM57.025 7.367Q56.531 9.343 55.3935 10.7795Q54.256 12.216 52.345 13.139L57.051 13.139L57.051 18.872L47.379 18.872L47.379 14.569Q46.352 14.712 45.65 14.777L45.65 13.217Q48.718 12.84 50.668 12.086L49.511 9.889Q48.107 11.228 45.767 11.891L45.767 10.201Q47.015 9.733 47.86 9.044Q48.705 8.355 49.264 7.367L57.025 7.367ZM55.361 17.208L55.361 14.803L49.069 14.803L49.069 17.208L55.361 17.208ZM51.266 9.772L52.124 11.397Q53.736 10.461 54.594 8.992L50.304 8.992Q50.018 9.395 49.641 9.772L51.266 9.772Z">
</path>
</g>
</svg>
