<svg xmlns="http://www.w3.org/2000/svg" xmlns:xlink="http://www.w3.org/1999/xlink" width="71" height="25.999998092651367" viewBox="0 0 71 25.999998092651367" fill="none">
<rect  x="0" y="0" width="64" height="26" rx="10"    fill="#FF0000" >
</rect>
<g >
<path     fill="#FFFFFF"  d="M12.218 18.1465L13.464 18.1465L15.536 14.6045L11.7 14.6045L11.7 12.7985L17.076 12.7985L17.076 10.5445L12.386 10.5445L12.386 8.7525L17.076 8.7525L17.076 7.4225L18.924 7.4225L18.924 8.7525L23.614 8.7525L23.614 10.5445L18.924 10.5445L18.924 12.7985L24.3 12.7985L24.3 14.6045L17.79 14.6045L15.718 18.1465L21.136 18.1465L20.422 16.5085L22.592 16.5085L24.104 19.9525L12.218 19.9525L12.218 18.1465ZM30.936 7.7725L38.062 7.7725L37.6 12.2385L33.988 12.2385L33.988 10.5725L36.004 10.5725L36.088 9.4945L32.728 9.4945L32.728 12.8825L38.426 12.8825Q37.81 15.2765 36.69 17.2925L38.58 20.1625L36.69 20.1625L35.752 18.7485Q35.262 19.4485 34.618 20.1625L30.936 20.1625L30.936 7.7725ZM25.644 14.1565L27.198 13.7505L27.198 11.2025L25.784 11.2025L25.784 9.4245L27.198 9.4245L27.198 7.4925L29.018 7.4925L29.018 9.4245L30.348 9.4245L30.348 11.2025L29.018 11.2025L29.018 13.2745L30.376 12.9245L30.376 14.8705L29.018 15.2205L29.018 20.1625L26.12 20.1625L26.12 18.3565L27.198 18.3565L27.198 15.6965L25.644 16.1025L25.644 14.1565ZM32.728 19.8825Q33.764 18.7905 34.646 17.5305L32.77 14.5205L32.728 14.5205L32.728 19.8825ZM35.584 16.0045Q36.018 15.2065 36.284 14.5205L34.702 14.5205L35.584 16.0045ZM51.95 7.6885Q51.418 9.8165 50.193 11.3635Q48.968 12.9105 46.91 13.9045L51.978 13.9045L51.978 20.0785L41.562 20.0785L41.562 15.4445Q40.456 15.5985 39.7 15.6685L39.7 13.9885Q43.004 13.5825 45.104 12.7705L43.858 10.4045Q42.346 11.8465 39.826 12.5605L39.826 10.7405Q41.17 10.2365 42.08 9.4945Q42.99 8.7525 43.592 7.6885L51.95 7.6885ZM50.158 18.2865L50.158 15.6965L43.382 15.6965L43.382 18.2865L50.158 18.2865ZM45.748 10.2785L46.672 12.0285Q48.408 11.0205 49.332 9.4385L44.712 9.4385Q44.404 9.8725 43.998 10.2785L45.748 10.2785Z">
</path>
</g>
</svg>
