<svg xmlns="http://www.w3.org/2000/svg" xmlns:xlink="http://www.w3.org/1999/xlink" width="233" height="100" viewBox="0 0 233 100" fill="none">
<rect x="0" y="0" width="233" height="100"   fill="#F7EDED" >
</rect>
<circle cx="116" cy="27" r="19"   fill="#43CF7C" >
</circle>
<g >
<path     fill="#FFFFFF"  d="M120.72 18.16L116.48 36L114.06 36L109.8 28.56L108.38 28.56L108.38 25.88L111.36 25.88L114.72 31.76L117.96 18.16L120.72 18.16Z">
</path>
</g>
<g >
<path     fill="#000000"  d="M84.48 71.3L94.66 71.3L94 77.68L88.84 77.68L88.84 75.3L91.72 75.3L91.84 73.76L87.04 73.76L87.04 78.6L95.18 78.6Q94.3 82.02 92.7 84.9L95.4 89L92.7 89L91.36 86.98Q90.66 87.98 89.74 89L84.48 89L84.48 71.3ZM76.92 80.42L79.14 79.84L79.14 76.2L77.12 76.2L77.12 73.66L79.14 73.66L79.14 70.9L81.74 70.9L81.74 73.66L83.64 73.66L83.64 76.2L81.74 76.2L81.74 79.16L83.68 78.66L83.68 81.44L81.74 81.94L81.74 89L77.6 89L77.6 86.42L79.14 86.42L79.14 82.62L76.92 83.2L76.92 80.42ZM87.04 88.6Q88.52 87.04 89.78 85.24L87.1 80.94L87.04 80.94L87.04 88.6ZM91.12 83.06Q91.74 81.92 92.12 80.94L89.86 80.94L91.12 83.06ZM114.5 71.18Q113.74 74.22 111.99 76.43Q110.24 78.64 107.3 80.06L114.54 80.06L114.54 88.88L99.66 88.88L99.66 82.26Q98.08 82.48 97 82.58L97 80.18Q101.72 79.6 104.72 78.44L102.94 75.06Q100.78 77.12 97.18 78.14L97.18 75.54Q99.1 74.82 100.4 73.76Q101.7 72.7 102.56 71.18L114.5 71.18ZM111.94 86.32L111.94 82.62L102.26 82.62L102.26 86.32L111.94 86.32ZM105.64 74.88L106.96 77.38Q109.44 75.94 110.76 73.68L104.16 73.68Q103.72 74.3 103.14 74.88L105.64 74.88ZM116.76 89Q117.52 86.66 117.83 84.41Q118.14 82.16 118.14 79.28L118.14 72.64L128.04 72.64L127.7 70.6L130.48 70.6L130.82 72.64L135.1 72.64L135.1 75.2L131.26 75.2L131.38 75.86Q131.66 77.52 132.04 79.14L134.9 77.2L134.9 80.56L132.78 82Q133.8 85.62 135.24 89L132.08 89Q131.44 87.24 131.08 86.02L127.82 88.22L127.82 84.92L130.26 83.28Q129.22 79.54 128.6 75.86L128.48 75.2L120.74 75.2L120.74 78.06L126.78 78.06L126.78 88.4L122.66 88.4L122.66 85.84L124.22 85.84L124.22 80.6L120.72 80.6Q120.68 82.96 120.44 84.99Q120.2 87.02 119.68 89L116.76 89ZM134.04 70.68L134.26 72.28L132.18 72.28L131.96 70.68L134.04 70.68ZM149.58 86.36L151.94 86.36L151.94 76.5L149.08 76.5L149.08 77.58Q149.08 80.8 148.45 83.56Q147.82 86.32 146.36 89L143.08 89Q144.98 86.22 145.73 83.59Q146.48 80.96 146.48 77.58L146.48 76.5L144.24 76.5L144.24 73.86L146.48 73.86L146.48 70.8L149.08 70.8L149.08 73.86L154.54 73.86L154.54 89L149.58 89L149.58 86.36ZM136.8 84.04L139.12 83.66L139.12 74.54L137.06 74.54L137.06 71.94L143.76 71.94L143.76 74.54L141.72 74.54L141.72 83.22L144.08 82.82L144.08 85.6L136.8 86.82L136.8 84.04Z">
</path>
</g>
</svg>
