<svg xmlns="http://www.w3.org/2000/svg" xmlns:xlink="http://www.w3.org/1999/xlink" width="386" height="262" viewBox="0 0 386 262" fill="none">
<rect x="0" y="0" width="386" height="262"   fill="#FAEBEB" >
</rect>
<g >
<path     fill="#000000"  d="M15.42 180.1Q15.91 178.602 16.099 177.16Q16.288 175.718 16.288 173.856L16.288 167.64Q19.228 167.64 21.916 167.276L21.916 169.068Q20.236 169.306 18.08 169.404L18.08 170.762L21.72 170.762L21.72 176.32L17.982 176.32Q17.828 178.308 17.352 180.1L15.42 180.1ZM20.012 174.612L20.012 172.47L18.08 172.47L18.08 173.856Q18.08 174.36 18.066 174.612L20.012 174.612ZM21.608 180.1Q22.126 178.798 22.322 177.552Q22.518 176.306 22.518 174.668L22.518 167.78Q25.458 167.78 28.174 167.416L28.174 169.208Q26.242 169.488 24.282 169.544L24.282 171.532L28.44 171.532L28.44 173.324L27.348 173.324L27.348 180.1L25.584 180.1L25.584 173.324L24.282 173.324L24.282 174.668Q24.282 176.152 24.1 177.475Q23.918 178.798 23.526 180.1L21.608 180.1ZM29.56 173.842Q31.828 172.358 32.864 170.104L29.7 170.104L29.7 168.312L33.48 168.312Q33.606 167.78 33.69 167.22L35.412 167.22Q35.37 167.71 35.258 168.312L42.3 168.312L42.3 170.104L34.768 170.104Q34.11 171.896 32.948 173.282L32.948 180.1L31.142 180.1L31.142 175.004Q30.386 175.564 29.56 175.998L29.56 173.842ZM33.662 178.168L37.078 178.168L37.078 174.64L34.082 174.64L34.082 172.848L37.078 172.848L37.078 170.846L38.87 170.846L38.87 172.848L41.88 172.848L41.88 174.64L38.87 174.64L38.87 178.168L42.3 178.168L42.3 179.96L33.662 179.96L33.662 178.168ZM48.18 173.184L47.116 173.534L47.116 172.036L46.472 172.036L46.472 176.292L47.592 176.026L47.592 177.902L43.56 178.882L43.56 177.006L44.68 176.74L44.68 172.036L43.7 172.036L43.7 170.216L44.68 170.216L44.68 167.5L46.472 167.5L46.472 170.216L47.368 170.216L47.368 171.546L48.18 171.28L48.18 168.06L49.93 168.06L49.93 170.72L51.246 170.286L51.246 167.444L52.996 167.444L52.996 169.726L56.006 168.746L56.006 177.062L54.256 177.062L54.256 171.224L52.996 171.63L52.996 177.062L51.246 177.062L51.246 172.19L49.93 172.624L49.93 178.182L56.44 178.182L56.44 180.002L48.18 180.002L48.18 173.184ZM58.204 167.822L70.258 167.822L70.258 169.614L60.01 169.614L60.01 177.986L70.258 177.986L70.258 179.778L58.204 179.778L58.204 167.822ZM60.486 175.83Q62.53 175.046 63.846 174.206Q61.998 172.4 61.158 169.992L63.3 169.992Q64.028 171.812 65.344 173.044Q66.674 171.826 67.402 169.992L69.544 169.992Q68.704 172.4 66.856 174.206Q68.172 175.046 70.216 175.83L70.216 177.804Q67.388 176.908 65.358 175.452Q63.3 176.908 60.486 177.804L60.486 175.83Z">
</path>
</g>
<rect x="15" y="32" width="358" height="36"   fill="#E5E5E5" >
</rect>
<g >
<path     fill="#000000"  d="M18.962 23.902Q18.514 24.882 17.772 26.1L15.616 26.1Q16.904 24.21 17.548 22.922L15.742 21.676L16.414 16.902L15.7 16.902L15.7 15.082L16.666 15.082L16.89 13.5L18.738 13.5L18.528 15.082L20.544 15.082Q20.544 17.448 20.362 19.065Q20.18 20.682 19.676 22.194L20.698 22.908L20.698 25.106L18.962 23.902ZM18.234 21.186Q18.794 19.352 18.906 16.902L18.108 16.902L17.59 20.738L18.234 21.186ZM20.614 18.554Q21.16 16.034 21.286 13.57L22.952 13.57Q22.924 14.354 22.868 15.11L23.792 15.11L23.792 13.36L25.598 13.36L25.598 15.11L28.23 15.11L28.23 16.916L25.598 16.916L25.598 19.408L27.964 19.408L27.964 21.2L25.598 21.2L25.598 24.112L28.44 24.112L28.44 25.932L20.936 25.932L20.936 24.112L23.806 24.112L23.806 21.2L21.384 21.2L21.384 19.408L23.806 19.408L23.792 16.916L22.728 16.916Q22.658 17.462 22.462 18.554L20.614 18.554ZM41.95 13.626Q41.418 15.754 40.193 17.301Q38.968 18.848 36.91 19.842L41.978 19.842L41.978 26.016L31.562 26.016L31.562 21.382Q30.456 21.536 29.7 21.606L29.7 19.926Q33.004 19.52 35.104 18.708L33.858 16.342Q32.346 17.784 29.826 18.498L29.826 16.678Q31.17 16.174 32.08 15.432Q32.99 14.69 33.592 13.626L41.95 13.626ZM40.158 24.224L40.158 21.634L33.382 21.634L33.382 24.224L40.158 24.224ZM35.748 16.216L36.672 17.966Q38.408 16.958 39.332 15.376L34.712 15.376Q34.404 15.81 33.998 16.216L35.748 16.216Z">
</path>
</g>
<g >
<path     fill="#000000"  d="M18.626 95.308L21.342 95.308L21.342 92.998L15.56 92.998L15.56 91.248L21.342 91.248L21.342 89.68L16.862 89.68L16.862 87.972L21.342 87.972L21.342 86.474Q18.654 86.544 16.302 86.544L16.302 84.794Q22.238 84.794 27.698 84.36L27.698 86.11Q25.822 86.264 23.218 86.39L23.218 87.972L27.138 87.972L27.138 89.68L23.218 89.68L23.218 91.248L28.44 91.248L28.44 92.998L23.218 92.998L23.218 97.128L18.626 97.128L18.626 95.308ZM34.082 97.24Q34.894 95.616 35.251 94.153Q35.608 92.69 35.608 90.912L35.608 84.864L41.236 84.864L41.236 95.266L42.482 95.266L42.482 97.1L39.43 97.1L39.43 86.74L37.414 86.74L37.414 90.912Q37.414 92.718 37.113 94.174Q36.812 95.63 36.084 97.24L34.082 97.24ZM29.462 96.372Q30.218 92.592 30.218 88.252L31.716 88.252Q31.716 92.886 31.058 96.372L29.462 96.372ZM29.84 85.942L32.206 85.942L32.206 84.43L33.97 84.43L33.97 85.942L35.3 85.942L35.3 87.678L33.97 87.678L33.97 89.386L35.076 90.072L35.076 92.186L33.97 91.5L33.97 97.1L32.206 97.1L32.206 87.678L29.84 87.678L29.84 85.942ZM54.984 84.584L54.984 89.008L45.016 89.008L45.016 84.584L54.984 84.584ZM43.56 89.75L56.44 89.75L56.44 91.458L47.942 91.458L47.732 92.34L54.774 92.34L54.494 97.1L50.056 97.1L50.056 95.308L52.66 95.308L52.744 94.02L45.45 94.02L46.038 91.458L43.56 91.458L43.56 89.75ZM53.15 87.482L53.15 86.124L46.85 86.124L46.85 87.482L53.15 87.482ZM59.786 94.622L60.864 94.622L60.864 90.94L59.786 90.94L59.786 94.622ZM57.42 90.8Q58.008 89.75 58.393 88.721Q58.778 87.692 59.002 86.53L57.7 86.53L57.7 84.71L62.754 84.71L62.754 86.53L60.85 86.53Q60.598 88 60.164 89.162L62.46 89.162L62.46 96.4L58.19 96.4L58.19 90.8L57.42 90.8ZM62.866 92.704L67.402 92.704L67.402 94.496L62.866 94.496L62.866 92.704ZM63.146 84.64L69.628 84.64L69.208 89.834L70.37 89.834L70.09 97.1L66.198 97.1L66.198 95.336L68.41 95.336L68.55 91.626L63.384 91.626L63.888 86.432L63.146 86.432L63.146 84.64ZM67.472 89.834L67.752 86.432L65.61 86.432L65.288 89.834L67.472 89.834Z">
</path>
</g>
<rect x="15" y="111" width="358" height="40"   fill="#E5E5E5" >
</rect>
<rect x="15" y="192" width="358" height="55"   fill="#E5E5E5" >
</rect>
</svg>
