<svg xmlns="http://www.w3.org/2000/svg" xmlns:xlink="http://www.w3.org/1999/xlink" width="53.983999252319336" height="89.58599090576172" viewBox="0 0 53.983999252319336 89.58599090576172" fill="none">
<g >
<path     fill="#A6A6A6"  d="M3.416 3.31799Q3.178 3.06599 2.842 2.77899Q2.506 2.49199 2.149 2.20499Q1.792 1.91799 1.449 1.67299Q1.106 1.42799 0.868 1.27399L1.442 0.461992Q1.694 0.615993 2.044 0.846992Q2.394 1.07799 2.751 1.34399Q3.108 1.60999 3.444 1.86899Q3.78 2.12799 3.99 2.33799L3.416 3.31799ZM8.666 5.22199L8.666 7.33599L11.55 7.33599L11.55 12.698L10.486 12.698L10.486 11.928L5.824 11.928L5.824 12.698L4.774 12.698L4.774 7.33599L7.574 7.33599L7.574 5.22199L3.99 5.22199L3.99 4.21399L7.574 4.21399L7.574 2.05799Q6.72 2.12799 5.915 2.18399Q5.11 2.23999 4.48 2.26799L4.312 1.28799Q5.096 1.25999 6.09 1.18299Q7.084 1.10599 8.106 1.01499Q9.128 0.923992 10.073 0.804993Q11.018 0.685992 11.704 0.573993L11.9 1.55399Q11.27 1.65199 10.43 1.75699Q9.59 1.86199 8.666 1.94599L8.666 4.21399L12.768 4.21399L12.768 5.22199L8.666 5.22199ZM0.784 3.62599Q1.064 3.79399 1.442 4.05999Q1.82 4.32599 2.205 4.61299Q2.59 4.89999 2.933 5.17999Q3.276 5.45999 3.5 5.65599L2.898 6.66399Q2.66 6.41199 2.31 6.11099Q1.96 5.80999 1.575 5.50199Q1.19 5.19399 0.826 4.92099Q0.462 4.64799 0.196 4.47999L0.784 3.62599ZM2.982 7.61599L3.5 7.81199Q3.388 8.27399 3.185 8.90399Q2.982 9.53399 2.737 10.185Q2.492 10.836 2.233 11.445Q1.974 12.054 1.764 12.46L0.756 12.096Q0.966 11.704 1.225 11.102Q1.484 10.5 1.736 9.84199Q1.988 9.18399 2.191 8.54699Q2.394 7.90999 2.506 7.44799L2.982 7.61599ZM10.486 8.32999L5.824 8.32999L5.824 10.906L10.486 10.906L10.486 8.32999ZM25.844 2.65999Q25.83 2.89799 25.816 3.49299Q25.802 4.08799 25.774 4.85099Q25.746 5.61399 25.718 6.47499Q25.69 7.33599 25.662 8.11299Q25.634 8.88999 25.613 9.51299Q25.592 10.136 25.578 10.43Q25.564 10.934 25.459 11.256Q25.354 11.578 25.123 11.774Q24.892 11.97 24.493 12.075Q24.094 12.18 23.492 12.25L22.68 12.348L22.358 11.256L23.268 11.172Q23.66 11.13 23.912 11.074Q24.164 11.018 24.311 10.885Q24.458 10.752 24.521 10.521Q24.584 10.29 24.598 9.92599Q24.612 9.70199 24.633 9.21199Q24.654 8.72199 24.675 8.10599Q24.696 7.48999 24.724 6.81099Q24.752 6.13199 24.773 5.50899Q24.794 4.88599 24.808 4.40299Q24.822 3.91999 24.836 3.68199L22.624 3.68199Q22.582 4.91399 22.526 5.88699Q22.47 6.85999 22.372 7.65099Q22.274 8.44199 22.099 9.09999Q21.924 9.75799 21.644 10.367Q21.364 10.976 20.958 11.578Q20.552 12.18 19.992 12.866L19.096 12.236Q19.642 11.62 20.027 11.081Q20.412 10.542 20.685 9.98899Q20.958 9.43599 21.119 8.82699Q21.28 8.21799 21.378 7.47599Q21.476 6.73399 21.518 5.80299Q21.56 4.87199 21.602 3.68199L19.824 3.68199L19.824 2.65999L21.616 2.65999Q21.63 2.25399 21.637 1.79199Q21.644 1.32999 21.658 0.923992Q21.672 0.461992 21.672 -7.62939e-06L22.694 0.0559921Q22.68 0.461992 22.68 0.909992Q22.666 1.28799 22.666 1.74999Q22.666 2.21199 22.652 2.65999L25.844 2.65999ZM19.866 2.08599L14.91 2.08599L14.91 1.09199L19.866 1.09199L19.866 2.08599ZM19.306 11.27Q19.222 10.934 19.096 10.514Q18.69 10.57 18.151 10.647Q17.612 10.724 17.094 10.801Q16.576 10.878 16.156 10.941Q15.736 11.004 15.568 11.018Q15.33 11.046 15.12 11.109Q14.91 11.172 14.686 11.242L14.294 10.178Q14.574 10.066 14.686 9.91199Q14.798 9.75799 14.91 9.56199Q15.05 9.26799 15.246 8.79899Q15.442 8.32999 15.652 7.78399Q15.862 7.23799 16.058 6.66399Q16.254 6.08999 16.408 5.57199L14.196 5.57199L14.196 4.56399L20.3 4.56399L20.3 5.57199L17.486 5.57199Q17.332 6.07599 17.129 6.69199Q16.926 7.30799 16.702 7.91699Q16.478 8.52599 16.261 9.05799Q16.044 9.58999 15.862 9.92599Q16.03 9.89799 16.38 9.84899Q16.73 9.79999 17.143 9.75099Q17.556 9.70199 17.99 9.63899Q18.424 9.57599 18.76 9.53399Q18.508 8.84799 18.235 8.18999Q17.962 7.53199 17.724 7.08399L18.662 6.71999Q18.844 7.08399 19.068 7.60199Q19.292 8.11999 19.516 8.67299Q19.74 9.22599 19.929 9.75799Q20.118 10.29 20.216 10.682L19.306 11.27ZM40.39 3.79399L38.57 3.79399L38.57 10.556Q38.57 11.074 38.479 11.417Q38.388 11.76 38.136 11.97Q37.884 12.18 37.457 12.292Q37.03 12.404 36.358 12.446L35.588 12.502L35.224 11.368L36.204 11.312Q36.638 11.284 36.883 11.228Q37.128 11.172 37.254 11.053Q37.38 10.934 37.408 10.731Q37.436 10.528 37.436 10.206L37.436 3.79399L33.222 3.79399L33.222 2.77199L37.436 2.77199L37.436 0.0139933L38.57 0.0559921L38.57 2.77199L40.39 2.77199L40.39 3.79399ZM28.644 1.16199L32.774 1.16199L32.774 11.41L28.644 11.41L28.644 1.16199ZM29.61 2.22599L29.61 5.72599L31.808 5.72599L31.808 2.22599L29.61 2.22599ZM35.588 8.83399Q35.448 8.45599 35.217 7.95199Q34.986 7.44799 34.727 6.94399Q34.468 6.43999 34.202 5.98499Q33.936 5.52999 33.726 5.22199L34.58 4.74599Q34.79 5.05399 35.063 5.50899Q35.336 5.96399 35.602 6.46099Q35.868 6.95799 36.099 7.43399Q36.33 7.90999 36.47 8.24599L35.588 8.83399ZM31.808 10.332L31.808 6.73399L29.61 6.73399L29.61 10.332L31.808 10.332ZM43.4 -7.62939e-06Q43.61 0.167993 43.904 0.440992Q44.198 0.713992 44.492 1.01499Q44.786 1.31599 45.059 1.60299Q45.332 1.88999 45.5 2.09999L44.814 2.99599Q44.646 2.74399 44.38 2.42199Q44.114 2.09999 43.827 1.78499Q43.54 1.46999 43.253 1.18999Q42.966 0.909992 42.742 0.727992L43.4 -7.62939e-06ZM53.228 0.909992L53.228 10.542Q53.228 11.116 53.137 11.459Q53.046 11.802 52.808 12.012Q52.57 12.222 52.171 12.32Q51.772 12.418 51.142 12.474L50.428 12.544L50.078 11.494L50.96 11.438Q51.338 11.41 51.576 11.354Q51.814 11.298 51.94 11.179Q52.066 11.06 52.108 10.843Q52.15 10.626 52.15 10.262L52.15 1.94599L45.948 1.94599L45.948 0.909992L53.228 0.909992ZM42.504 2.54799L43.554 2.58999L43.554 12.474L42.504 12.474L42.504 2.54799ZM50.428 10.402L45.262 10.402L45.262 3.70999L50.428 3.70999L50.428 10.402ZM46.256 4.68999L46.256 6.56599L49.448 6.56599L49.448 4.68999L46.256 4.68999ZM49.448 9.39399L49.448 7.55999L46.256 7.55999L46.256 9.39399L49.448 9.39399ZM3.43 41.048L5.012 41.048L5.012 42L3.43 42L3.43 44.45Q3.878 44.31 4.263 44.184Q4.648 44.058 4.928 43.946L4.97 44.464L4.998 44.912Q4.704 45.024 4.298 45.157Q3.892 45.29 3.43 45.444L3.43 49.28Q3.43 49.742 3.36 50.036Q3.29 50.33 3.101 50.512Q2.912 50.694 2.59 50.778Q2.268 50.862 1.764 50.904L1.106 50.96L0.784 49.952L1.512 49.896Q2.072 49.854 2.261 49.679Q2.45 49.504 2.45 48.986L2.45 45.766Q1.82 45.962 1.26 46.13Q0.7 46.298 0.308 46.41L-3.27826e-07 45.416Q0.462 45.304 1.113 45.129Q1.764 44.954 2.45 44.744L2.45 42L0.476 42L0.476 41.048L2.45 41.048L2.45 38.5L3.43 38.542L3.43 41.048ZM10.01 48.202Q10.556 48.734 11.228 49.182Q11.9 49.63 12.754 50.106L12.152 50.988Q11.368 50.54 10.675 50.029Q9.982 49.518 9.38 48.916Q8.918 49.406 8.337 49.896Q7.756 50.386 7.028 50.904L6.398 50.176L6.398 50.918L5.39 50.918L5.39 39.158L11.634 39.158Q11.634 39.228 11.62 39.536Q11.606 39.844 11.592 40.208Q11.578 40.572 11.564 40.901Q11.55 41.23 11.536 41.342Q11.522 41.734 11.424 41.979Q11.326 42.224 11.067 42.378Q10.808 42.532 10.36 42.609Q9.912 42.686 9.184 42.742L8.316 42.812L7.98 41.888L9.044 41.832Q9.506 41.804 9.793 41.755Q10.08 41.706 10.234 41.622Q10.388 41.538 10.451 41.405Q10.514 41.272 10.528 41.076Q10.542 40.936 10.563 40.642Q10.584 40.348 10.598 40.124L6.398 40.124L6.398 43.61L11.774 43.61L11.774 44.548Q11.508 45.514 11.116 46.41Q10.724 47.306 10.01 48.202ZM6.398 50.134Q7.868 49.098 8.736 48.188Q8.218 47.544 7.805 46.781Q7.392 46.018 7.07 45.094L7.938 44.758Q8.232 45.612 8.575 46.27Q8.918 46.928 9.338 47.474Q9.87 46.774 10.178 46.06Q10.486 45.346 10.724 44.534L6.398 44.534L6.398 50.134ZM25.242 45.262L25.242 50.932L24.206 50.932L24.206 50.134L17.906 50.134L17.906 50.932L16.87 50.932L16.87 46.354Q16.254 46.578 15.61 46.795Q14.966 47.012 14.266 47.222L13.762 46.27Q15.568 45.766 17.073 45.178Q18.578 44.59 19.817 43.918Q21.056 43.246 22.05 42.476Q23.044 41.706 23.828 40.838L18.704 40.838Q18.522 41.034 18.34 41.209Q18.158 41.384 17.962 41.58Q18.214 41.748 18.487 41.958Q18.76 42.168 19.026 42.378Q19.292 42.588 19.53 42.784Q19.768 42.98 19.936 43.134L19.222 43.988Q19.054 43.778 18.809 43.547Q18.564 43.316 18.284 43.085Q18.004 42.854 17.717 42.637Q17.43 42.42 17.178 42.252Q16.744 42.616 16.282 42.952Q15.82 43.288 15.33 43.61L14.686 42.742Q15.386 42.308 16.086 41.755Q16.786 41.202 17.416 40.607Q18.046 40.012 18.585 39.41Q19.124 38.808 19.516 38.262L20.468 38.682Q20.062 39.27 19.586 39.858L25.214 39.858L25.214 40.838Q24.094 42.196 22.673 43.274Q21.252 44.352 19.404 45.262L25.242 45.262ZM24.206 49.182L24.206 46.256L17.906 46.256L17.906 49.182L24.206 49.182ZM40.39 42.21L38.57 42.21L38.57 48.972Q38.57 49.49 38.479 49.833Q38.388 50.176 38.136 50.386Q37.884 50.596 37.457 50.708Q37.03 50.82 36.358 50.862L35.588 50.918L35.224 49.784L36.204 49.728Q36.638 49.7 36.883 49.644Q37.128 49.588 37.254 49.469Q37.38 49.35 37.408 49.147Q37.436 48.944 37.436 48.622L37.436 42.21L33.222 42.21L33.222 41.188L37.436 41.188L37.436 38.43L38.57 38.472L38.57 41.188L40.39 41.188L40.39 42.21ZM28.644 39.578L32.774 39.578L32.774 49.826L28.644 49.826L28.644 39.578ZM29.61 40.642L29.61 44.142L31.808 44.142L31.808 40.642L29.61 40.642ZM35.588 47.25Q35.448 46.872 35.217 46.368Q34.986 45.864 34.727 45.36Q34.468 44.856 34.202 44.401Q33.936 43.946 33.726 43.638L34.58 43.162Q34.79 43.47 35.063 43.925Q35.336 44.38 35.602 44.877Q35.868 45.374 36.099 45.85Q36.33 46.326 36.47 46.662L35.588 47.25ZM31.808 48.748L31.808 45.15L29.61 45.15L29.61 48.748L31.808 48.748ZM43.4 38.416Q43.61 38.584 43.904 38.857Q44.198 39.13 44.492 39.431Q44.786 39.732 45.059 40.019Q45.332 40.306 45.5 40.516L44.814 41.412Q44.646 41.16 44.38 40.838Q44.114 40.516 43.827 40.201Q43.54 39.886 43.253 39.606Q42.966 39.326 42.742 39.144L43.4 38.416ZM53.228 39.326L53.228 48.958Q53.228 49.532 53.137 49.875Q53.046 50.218 52.808 50.428Q52.57 50.638 52.171 50.736Q51.772 50.834 51.142 50.89L50.428 50.96L50.078 49.91L50.96 49.854Q51.338 49.826 51.576 49.77Q51.814 49.714 51.94 49.595Q52.066 49.476 52.108 49.259Q52.15 49.042 52.15 48.678L52.15 40.362L45.948 40.362L45.948 39.326L53.228 39.326ZM42.504 40.964L43.554 41.006L43.554 50.89L42.504 50.89L42.504 40.964ZM50.428 48.818L45.262 48.818L45.262 42.126L50.428 42.126L50.428 48.818ZM46.256 43.106L46.256 44.982L49.448 44.982L49.448 43.106L46.256 43.106ZM49.448 47.81L49.448 45.976L46.256 45.976L46.256 47.81L49.448 47.81ZM12.432 85.694Q12.404 86.226 12.355 86.758Q12.306 87.29 12.208 87.808Q12.11 88.312 11.683 88.606Q11.256 88.9 10.234 88.956Q9.366 88.998 8.512 88.956Q8.064 88.942 7.742 88.844Q7.42 88.746 7.217 88.543Q7.014 88.34 6.916 87.997Q6.818 87.654 6.818 87.136L6.818 76.986L7.91 77.056L7.91 82.18Q8.372 81.872 8.862 81.501Q9.352 81.13 9.835 80.717Q10.318 80.304 10.773 79.877Q11.228 79.45 11.606 79.016L12.334 79.856Q11.872 80.36 11.319 80.864Q10.766 81.368 10.178 81.844Q9.59 82.32 9.002 82.74Q8.414 83.16 7.91 83.496L7.91 86.772Q7.91 87.094 7.952 87.297Q7.994 87.5 8.106 87.619Q8.218 87.738 8.414 87.794Q8.61 87.85 8.932 87.864Q9.492 87.906 10.052 87.864Q10.654 87.822 10.906 87.682Q11.158 87.542 11.242 87.108Q11.41 86.226 11.41 85.302L12.432 85.694ZM2.828 87.514Q3.038 87.43 3.5 87.227Q3.962 87.024 4.48 86.8Q4.998 86.576 5.446 86.387Q5.894 86.198 6.062 86.128L6.16 87.276Q5.908 87.374 5.432 87.577Q4.956 87.78 4.445 88.004Q3.934 88.228 3.472 88.417Q3.01 88.606 2.8 88.69Q2.59 88.788 2.282 88.942Q1.974 89.096 1.75 89.222L1.288 88.13Q1.568 87.948 1.659 87.815Q1.75 87.682 1.75 87.444L1.75 77.126L2.828 77.168L2.828 80.962L6.076 80.962L6.076 82.012L2.828 82.012L2.828 87.514ZM15.708 80.206L14.77 80.206L14.77 77.994L19.936 77.994Q19.838 77.7 19.74 77.413Q19.642 77.126 19.572 76.93L20.524 76.748Q20.608 76.944 20.734 77.301Q20.86 77.658 20.972 77.994L25.788 77.994L25.788 80.206L24.85 80.206L24.85 78.792L15.708 78.792L15.708 80.206ZM22.778 83.706Q23.422 84.322 24.451 84.819Q25.48 85.316 26.712 85.694L26.306 86.576Q24.976 86.1 23.912 85.484L23.912 87.416L22.96 87.416L22.96 85.4L17.57 85.4L17.57 87.43L16.646 87.43L16.646 85.512Q16.114 85.834 15.54 86.128Q14.966 86.422 14.35 86.688L13.86 85.862Q14.434 85.638 14.994 85.386Q15.554 85.134 16.058 84.861Q16.562 84.588 16.989 84.294Q17.416 84 17.738 83.706L14.434 83.706L14.434 82.95L18.004 82.95L18.004 82.166L15.778 82.166L15.778 81.424L18.004 81.424L18.004 80.682L15.974 80.682L15.974 79.926L18.004 79.926L18.004 79.31L18.984 79.352L18.984 79.926L21.602 79.926L21.602 79.31L22.568 79.352L22.568 79.926L24.584 79.926L24.584 80.682L22.568 80.682L22.568 81.424L24.808 81.424L24.808 82.166L22.568 82.166L22.568 82.95L26.11 82.95L26.11 83.706L22.778 83.706ZM18.984 81.424L21.602 81.424L21.602 80.682L18.984 80.682L18.984 81.424ZM18.984 82.95L21.602 82.95L21.602 82.166L18.984 82.166L18.984 82.95ZM22.624 84.63Q22.078 84.21 21.644 83.706L18.886 83.706Q18.466 84.196 17.906 84.63L22.624 84.63ZM20.846 85.89Q20.748 86.59 20.489 87.122Q20.23 87.654 19.614 88.074Q18.998 88.494 17.941 88.837Q16.884 89.18 15.19 89.53L14.798 88.662Q16.338 88.396 17.297 88.095Q18.256 87.794 18.795 87.444Q19.334 87.094 19.544 86.695Q19.754 86.296 19.81 85.82L20.846 85.89ZM20.846 87.052Q21.35 87.192 21.959 87.388Q22.568 87.584 23.198 87.794Q23.828 88.004 24.437 88.221Q25.046 88.438 25.55 88.62L25.242 89.586Q24.752 89.362 24.129 89.11Q23.506 88.858 22.855 88.613Q22.204 88.368 21.588 88.158Q20.972 87.948 20.496 87.822L20.846 87.052ZM40.306 87.99L40.306 88.942L27.874 88.942L27.874 87.99L33.544 87.99L33.544 86.24L29.078 86.24L29.078 85.274L33.544 85.274L33.544 83.72L29.26 83.72L29.26 77.504L38.794 77.504L38.794 83.72L34.594 83.72L34.594 85.274L39.088 85.274L39.088 86.24L34.594 86.24L34.594 87.99L40.306 87.99ZM30.254 78.442L30.254 80.164L33.544 80.164L33.544 78.442L30.254 78.442ZM37.744 78.442L34.594 78.442L34.594 80.164L37.744 80.164L37.744 78.442ZM33.544 82.782L33.544 81.06L30.254 81.06L30.254 82.782L33.544 82.782ZM37.744 82.782L37.744 81.06L34.594 81.06L34.594 82.782L37.744 82.782ZM45.99 85.624Q45.878 85.428 45.731 85.19Q45.584 84.952 45.402 84.707Q45.22 84.462 45.038 84.217Q44.856 83.972 44.688 83.776L44.688 89.572L43.792 89.572L43.792 83.734Q43.456 84.616 43.057 85.414Q42.658 86.212 42.21 86.912L41.37 86.338Q41.748 85.82 42.091 85.239Q42.434 84.658 42.735 84.056Q43.036 83.454 43.281 82.852Q43.526 82.25 43.708 81.704L41.93 81.704L41.93 80.71L43.792 80.71L43.792 78.862Q43.302 78.96 42.854 79.016Q42.406 79.072 42.07 79.1L41.874 78.134Q42.308 78.106 42.91 78.015Q43.512 77.924 44.128 77.798Q44.744 77.672 45.318 77.525Q45.892 77.378 46.298 77.252L46.494 78.204Q46.144 78.316 45.675 78.442Q45.206 78.568 44.688 78.68L44.688 80.71L46.424 80.71L46.424 81.704L44.688 81.704L44.688 83.202L45.08 82.866Q45.248 83.034 45.465 83.286Q45.682 83.538 45.913 83.825Q46.144 84.112 46.347 84.385Q46.55 84.658 46.676 84.868L45.99 85.624ZM52.934 81.34L46.984 81.34L46.984 77.616L52.934 77.616L52.934 81.34ZM51.94 78.526L47.936 78.526L47.936 80.444L51.94 80.444L51.94 78.526ZM53.984 87.85L53.984 88.858L45.822 88.858L45.822 87.85L49.448 87.85L49.448 86.212L46.9 86.212L46.9 85.246L49.448 85.246L49.448 83.594L46.55 83.594L46.55 82.628L53.55 82.628L53.55 83.594L50.442 83.594L50.442 85.246L53.102 85.246L53.102 86.212L50.442 86.212L50.442 87.85L53.984 87.85Z">
</path>
<path     fill="#000000"  d="M59.0038 9.91199Q60.5578 8.69399 61.4958 7.83999Q62.4338 6.98599 62.9518 6.34199Q63.4698 5.69799 63.6378 5.18699Q63.8058 4.67599 63.8058 4.15799Q63.8058 3.63999 63.6168 3.30399Q63.4278 2.96799 63.1338 2.77199Q62.8398 2.57599 62.4688 2.50599Q62.0978 2.43599 61.7478 2.43599Q61.2858 2.43599 60.7678 2.48499Q60.2498 2.53399 59.6758 2.68799L59.6758 1.60999Q60.1658 1.49799 60.7188 1.44199Q61.2718 1.38599 61.8878 1.38599Q62.6018 1.38599 63.1758 1.53999Q63.7498 1.69399 64.1628 2.02999Q64.5758 2.36599 64.7928 2.89799Q65.0098 3.42999 65.0098 4.17199Q65.0098 4.82999 64.8138 5.41099Q64.6178 5.99199 64.1558 6.61499Q63.6938 7.23799 62.9098 7.95899Q62.1258 8.67999 60.9498 9.61799L60.3898 10.052L60.3898 10.178L65.4018 10.178L65.4018 11.242L59.0038 11.242L59.0038 9.91199ZM70.2738 11.382Q69.5458 11.382 68.9438 11.165Q68.3418 10.948 67.9078 10.388Q67.4738 9.82799 67.2358 8.85499Q66.9978 7.88199 66.9978 6.38399Q66.9978 4.88599 67.2358 3.91999Q67.4738 2.95399 67.9078 2.38699Q68.3418 1.81999 68.9438 1.60299Q69.5458 1.38599 70.2738 1.38599Q71.0018 1.38599 71.6108 1.60299Q72.2198 1.81999 72.6538 2.38699Q73.0878 2.95399 73.3258 3.91999Q73.5638 4.88599 73.5638 6.38399Q73.5638 7.88199 73.3258 8.85499Q73.0878 9.82799 72.6538 10.388Q72.2198 10.948 71.6108 11.165Q71.0018 11.382 70.2738 11.382ZM70.2738 10.332Q70.7918 10.332 71.1698 10.157Q71.5478 9.98199 71.7998 9.53399Q72.0518 9.08599 72.1708 8.32299Q72.2898 7.55999 72.2898 6.38399Q72.2898 5.22199 72.1708 4.45899Q72.0518 3.69599 71.7998 3.24799Q71.5478 2.79999 71.1698 2.62499Q70.7918 2.44999 70.2738 2.44999Q69.7698 2.44999 69.3918 2.62499Q69.0138 2.79999 68.7688 3.24799Q68.5238 3.69599 68.4048 4.45899Q68.2858 5.22199 68.2858 6.38399Q68.2858 7.55999 68.4048 8.32299Q68.5238 9.08599 68.7688 9.53399Q69.0138 9.98199 69.3918 10.157Q69.7698 10.332 70.2738 10.332ZM75.1038 9.91199Q76.6578 8.69399 77.5958 7.83999Q78.5338 6.98599 79.0518 6.34199Q79.5698 5.69799 79.7378 5.18699Q79.9058 4.67599 79.9058 4.15799Q79.9058 3.63999 79.7168 3.30399Q79.5278 2.96799 79.2338 2.77199Q78.9398 2.57599 78.5688 2.50599Q78.1978 2.43599 77.8478 2.43599Q77.3858 2.43599 76.8678 2.48499Q76.3498 2.53399 75.7758 2.68799L75.7758 1.60999Q76.2658 1.49799 76.8188 1.44199Q77.3718 1.38599 77.9878 1.38599Q78.7018 1.38599 79.2758 1.53999Q79.8498 1.69399 80.2628 2.02999Q80.6758 2.36599 80.8928 2.89799Q81.1098 3.42999 81.1098 4.17199Q81.1098 4.82999 80.9138 5.41099Q80.7178 5.99199 80.2558 6.61499Q79.7938 7.23799 79.0098 7.95899Q78.2258 8.67999 77.0498 9.61799L76.4898 10.052L76.4898 10.178L81.5018 10.178L81.5018 11.242L75.1038 11.242L75.1038 9.91199ZM89.7618 8.84799L88.6138 8.84799L88.6138 11.242L87.4378 11.242L87.4378 8.84799L82.8458 8.84799L82.8458 7.48999L87.1018 1.52599L88.6138 1.52599L88.6138 7.78399L89.7618 7.78399L89.7618 8.84799ZM87.4378 7.78399L87.4378 2.81399L87.3538 2.81399L83.9098 7.69999L83.9098 7.78399L87.4378 7.78399ZM92.5198 11.326Q92.0298 11.326 91.8268 11.172Q91.6238 11.018 91.6238 10.43Q91.6238 9.86999 91.8268 9.71599Q92.0298 9.56199 92.5198 9.56199Q92.9958 9.56199 93.2058 9.71599Q93.4158 9.86999 93.4158 10.43Q93.4158 11.018 93.2058 11.172Q92.9958 11.326 92.5198 11.326ZM98.6518 11.382Q97.9238 11.382 97.3218 11.165Q96.7198 10.948 96.2858 10.388Q95.8518 9.82799 95.6138 8.85499Q95.3758 7.88199 95.3758 6.38399Q95.3758 4.88599 95.6138 3.91999Q95.8518 2.95399 96.2858 2.38699Q96.7198 1.81999 97.3218 1.60299Q97.9238 1.38599 98.6518 1.38599Q99.3798 1.38599 99.9888 1.60299Q100.598 1.81999 101.032 2.38699Q101.466 2.95399 101.704 3.91999Q101.942 4.88599 101.942 6.38399Q101.942 7.88199 101.704 8.85499Q101.466 9.82799 101.032 10.388Q100.598 10.948 99.9888 11.165Q99.3798 11.382 98.6518 11.382ZM98.6518 10.332Q99.1698 10.332 99.5478 10.157Q99.9258 9.98199 100.178 9.53399Q100.43 9.08599 100.549 8.32299Q100.668 7.55999 100.668 6.38399Q100.668 5.22199 100.549 4.45899Q100.43 3.69599 100.178 3.24799Q99.9258 2.79999 99.5478 2.62499Q99.1698 2.44999 98.6518 2.44999Q98.1478 2.44999 97.7698 2.62499Q97.3918 2.79999 97.1468 3.24799Q96.9018 3.69599 96.7828 4.45899Q96.6638 5.22199 96.6638 6.38399Q96.6638 7.55999 96.7828 8.32299Q96.9018 9.08599 97.1468 9.53399Q97.3918 9.98199 97.7698 10.157Q98.1478 10.332 98.6518 10.332ZM110.09 8.84799L108.942 8.84799L108.942 11.242L107.766 11.242L107.766 8.84799L103.174 8.84799L103.174 7.48999L107.43 1.52599L108.942 1.52599L108.942 7.78399L110.09 7.78399L110.09 8.84799ZM107.766 7.78399L107.766 2.81399L107.682 2.81399L104.238 7.69999L104.238 7.78399L107.766 7.78399ZM112.848 11.326Q112.358 11.326 112.155 11.172Q111.952 11.018 111.952 10.43Q111.952 9.86999 112.155 9.71599Q112.358 9.56199 112.848 9.56199Q113.324 9.56199 113.534 9.71599Q113.744 9.86999 113.744 10.43Q113.744 11.018 113.534 11.172Q113.324 11.326 112.848 11.326ZM115.76 9.91199Q117.314 8.69399 118.252 7.83999Q119.19 6.98599 119.708 6.34199Q120.226 5.69799 120.394 5.18699Q120.562 4.67599 120.562 4.15799Q120.562 3.63999 120.373 3.30399Q120.184 2.96799 119.89 2.77199Q119.596 2.57599 119.225 2.50599Q118.854 2.43599 118.504 2.43599Q118.042 2.43599 117.524 2.48499Q117.006 2.53399 116.432 2.68799L116.432 1.60999Q116.922 1.49799 117.475 1.44199Q118.028 1.38599 118.644 1.38599Q119.358 1.38599 119.932 1.53999Q120.506 1.69399 120.919 2.02999Q121.332 2.36599 121.549 2.89799Q121.766 3.42999 121.766 4.17199Q121.766 4.82999 121.57 5.41099Q121.374 5.99199 120.912 6.61499Q120.45 7.23799 119.666 7.95899Q118.882 8.67999 117.706 9.61799L117.146 10.052L117.146 10.178L122.158 10.178L122.158 11.242L115.76 11.242L115.76 9.91199ZM126.176 11.382Q125.588 11.382 125.035 11.34Q124.482 11.298 123.992 11.2L123.992 10.094Q124.552 10.234 125.077 10.283Q125.602 10.332 126.162 10.332Q126.708 10.332 127.177 10.248Q127.646 10.164 127.982 9.95399Q128.318 9.74399 128.514 9.40099Q128.71 9.05799 128.71 8.55399Q128.71 7.51799 128.01 7.11199Q127.31 6.70599 125.924 6.70599L125.154 6.70599L125.154 5.73999L125.91 5.73999Q127.184 5.73999 127.842 5.27099Q128.5 4.80199 128.5 4.00399Q128.5 3.14999 127.989 2.78599Q127.478 2.42199 126.428 2.42199Q126.008 2.42199 125.462 2.49199Q124.916 2.56199 124.454 2.70199L124.454 1.66599Q124.818 1.55399 125.371 1.46999Q125.924 1.38599 126.484 1.38599Q128.052 1.38599 128.857 1.98799Q129.662 2.58999 129.662 3.93399Q129.662 4.88599 129.2 5.39699Q128.738 5.90799 127.94 6.14599L127.94 6.22999Q128.976 6.41199 129.445 7.00699Q129.914 7.60199 129.914 8.56799Q129.914 9.91199 129.011 10.647Q128.108 11.382 126.176 11.382ZM132.07 6.43999L136.2 6.43999L136.2 7.44799L132.07 7.44799L132.07 6.43999ZM138.02 9.91199Q139.574 8.69399 140.512 7.83999Q141.45 6.98599 141.968 6.34199Q142.486 5.69799 142.654 5.18699Q142.822 4.67599 142.822 4.15799Q142.822 3.63999 142.633 3.30399Q142.444 2.96799 142.15 2.77199Q141.856 2.57599 141.485 2.50599Q141.114 2.43599 140.764 2.43599Q140.302 2.43599 139.784 2.48499Q139.266 2.53399 138.692 2.68799L138.692 1.60999Q139.182 1.49799 139.735 1.44199Q140.288 1.38599 140.904 1.38599Q141.618 1.38599 142.192 1.53999Q142.766 1.69399 143.179 2.02999Q143.592 2.36599 143.809 2.89799Q144.026 3.42999 144.026 4.17199Q144.026 4.82999 143.83 5.41099Q143.634 5.99199 143.172 6.61499Q142.71 7.23799 141.926 7.95899Q141.142 8.67999 139.966 9.61799L139.406 10.052L139.406 10.178L144.418 10.178L144.418 11.242L138.02 11.242L138.02 9.91199ZM149.29 11.382Q148.562 11.382 147.96 11.165Q147.358 10.948 146.924 10.388Q146.49 9.82799 146.252 8.85499Q146.014 7.88199 146.014 6.38399Q146.014 4.88599 146.252 3.91999Q146.49 2.95399 146.924 2.38699Q147.358 1.81999 147.96 1.60299Q148.562 1.38599 149.29 1.38599Q150.018 1.38599 150.627 1.60299Q151.236 1.81999 151.67 2.38699Q152.104 2.95399 152.342 3.91999Q152.58 4.88599 152.58 6.38399Q152.58 7.88199 152.342 8.85499Q152.104 9.82799 151.67 10.388Q151.236 10.948 150.627 11.165Q150.018 11.382 149.29 11.382ZM149.29 10.332Q149.808 10.332 150.186 10.157Q150.564 9.98199 150.816 9.53399Q151.068 9.08599 151.187 8.32299Q151.306 7.55999 151.306 6.38399Q151.306 5.22199 151.187 4.45899Q151.068 3.69599 150.816 3.24799Q150.564 2.79999 150.186 2.62499Q149.808 2.44999 149.29 2.44999Q148.786 2.44999 148.408 2.62499Q148.03 2.79999 147.785 3.24799Q147.54 3.69599 147.421 4.45899Q147.302 5.22199 147.302 6.38399Q147.302 7.55999 147.421 8.32299Q147.54 9.08599 147.785 9.53399Q148.03 9.98199 148.408 10.157Q148.786 10.332 149.29 10.332ZM154.12 9.91199Q155.674 8.69399 156.612 7.83999Q157.55 6.98599 158.068 6.34199Q158.586 5.69799 158.754 5.18699Q158.922 4.67599 158.922 4.15799Q158.922 3.63999 158.733 3.30399Q158.544 2.96799 158.25 2.77199Q157.956 2.57599 157.585 2.50599Q157.214 2.43599 156.864 2.43599Q156.402 2.43599 155.884 2.48499Q155.366 2.53399 154.792 2.68799L154.792 1.60999Q155.282 1.49799 155.835 1.44199Q156.388 1.38599 157.004 1.38599Q157.718 1.38599 158.292 1.53999Q158.866 1.69399 159.279 2.02999Q159.692 2.36599 159.909 2.89799Q160.126 3.42999 160.126 4.17199Q160.126 4.82999 159.93 5.41099Q159.734 5.99199 159.272 6.61499Q158.81 7.23799 158.026 7.95899Q157.242 8.67999 156.066 9.61799L155.506 10.052L155.506 10.178L160.518 10.178L160.518 11.242L154.12 11.242L154.12 9.91199ZM168.778 8.84799L167.63 8.84799L167.63 11.242L166.454 11.242L166.454 8.84799L161.862 8.84799L161.862 7.48999L166.118 1.52599L167.63 1.52599L167.63 7.78399L168.778 7.78399L168.778 8.84799ZM166.454 7.78399L166.454 2.81399L166.37 2.81399L162.926 7.69999L162.926 7.78399L166.454 7.78399ZM171.536 11.326Q171.046 11.326 170.843 11.172Q170.64 11.018 170.64 10.43Q170.64 9.86999 170.843 9.71599Q171.046 9.56199 171.536 9.56199Q172.012 9.56199 172.222 9.71599Q172.432 9.86999 172.432 10.43Q172.432 11.018 172.222 11.172Q172.012 11.326 171.536 11.326ZM177.668 11.382Q176.94 11.382 176.338 11.165Q175.736 10.948 175.302 10.388Q174.868 9.82799 174.63 8.85499Q174.392 7.88199 174.392 6.38399Q174.392 4.88599 174.63 3.91999Q174.868 2.95399 175.302 2.38699Q175.736 1.81999 176.338 1.60299Q176.94 1.38599 177.668 1.38599Q178.396 1.38599 179.005 1.60299Q179.614 1.81999 180.048 2.38699Q180.482 2.95399 180.72 3.91999Q180.958 4.88599 180.958 6.38399Q180.958 7.88199 180.72 8.85499Q180.482 9.82799 180.048 10.388Q179.614 10.948 179.005 11.165Q178.396 11.382 177.668 11.382ZM177.668 10.332Q178.186 10.332 178.564 10.157Q178.942 9.98199 179.194 9.53399Q179.446 9.08599 179.565 8.32299Q179.684 7.55999 179.684 6.38399Q179.684 5.22199 179.565 4.45899Q179.446 3.69599 179.194 3.24799Q178.942 2.79999 178.564 2.62499Q178.186 2.44999 177.668 2.44999Q177.164 2.44999 176.786 2.62499Q176.408 2.79999 176.163 3.24799Q175.918 3.69599 175.799 4.45899Q175.68 5.22199 175.68 6.38399Q175.68 7.55999 175.799 8.32299Q175.918 9.08599 176.163 9.53399Q176.408 9.98199 176.786 10.157Q177.164 10.332 177.668 10.332ZM184.906 11.382Q184.318 11.382 183.849 11.34Q183.38 11.298 182.904 11.2L182.904 10.094Q183.45 10.234 183.891 10.283Q184.332 10.332 184.892 10.332Q185.494 10.332 185.991 10.227Q186.488 10.122 186.838 9.87699Q187.188 9.63199 187.384 9.23299Q187.58 8.83399 187.58 8.23199Q187.58 7.13999 186.943 6.64299Q186.306 6.14599 184.794 6.14599Q184.402 6.14599 183.898 6.20899Q183.394 6.27199 182.932 6.35599L183.59 1.52599L188.126 1.52599L188.126 2.61799L184.542 2.61799L184.136 5.27799Q184.402 5.23599 184.668 5.21499Q184.934 5.19399 185.27 5.19399Q186.964 5.19399 187.874 5.89399Q188.784 6.59399 188.784 8.14799Q188.784 9.01599 188.511 9.62499Q188.238 10.234 187.734 10.626Q187.23 11.018 186.509 11.2Q185.788 11.382 184.906 11.382ZM191.864 11.326Q191.374 11.326 191.171 11.172Q190.968 11.018 190.968 10.43Q190.968 9.86999 191.171 9.71599Q191.374 9.56199 191.864 9.56199Q192.34 9.56199 192.55 9.71599Q192.76 9.86999 192.76 10.43Q192.76 11.018 192.55 11.172Q192.34 11.326 191.864 11.326ZM194.776 9.91199Q196.33 8.69399 197.268 7.83999Q198.206 6.98599 198.724 6.34199Q199.242 5.69799 199.41 5.18699Q199.578 4.67599 199.578 4.15799Q199.578 3.63999 199.389 3.30399Q199.2 2.96799 198.906 2.77199Q198.612 2.57599 198.241 2.50599Q197.87 2.43599 197.52 2.43599Q197.058 2.43599 196.54 2.48499Q196.022 2.53399 195.448 2.68799L195.448 1.60999Q195.938 1.49799 196.491 1.44199Q197.044 1.38599 197.66 1.38599Q198.374 1.38599 198.948 1.53999Q199.522 1.69399 199.935 2.02999Q200.348 2.36599 200.565 2.89799Q200.782 3.42999 200.782 4.17199Q200.782 4.82999 200.586 5.41099Q200.39 5.99199 199.928 6.61499Q199.466 7.23799 198.682 7.95899Q197.898 8.67999 196.722 9.61799L196.162 10.052L196.162 10.178L201.174 10.178L201.174 11.242L194.776 11.242L194.776 9.91199ZM206.046 11.382Q205.374 11.382 204.793 11.193Q204.212 11.004 203.771 10.556Q203.33 10.108 203.078 9.35899Q202.826 8.60999 202.826 7.47599Q202.826 6.11799 203.127 4.99799Q203.428 3.87799 204.058 3.07299Q204.688 2.26799 205.675 1.82699Q206.662 1.38599 208.034 1.38599L208.02 2.44999Q207.124 2.44999 206.424 2.70199Q205.724 2.95399 205.234 3.39499Q204.744 3.83599 204.464 4.43099Q204.184 5.02599 204.128 5.71199L204.17 5.71199Q204.45 5.43199 204.996 5.17299Q205.542 4.91399 206.256 4.91399Q207.614 4.91399 208.412 5.68399Q209.21 6.45399 209.21 8.04999Q209.21 8.76399 209.021 9.37299Q208.832 9.98199 208.447 10.43Q208.062 10.878 207.46 11.13Q206.858 11.382 206.046 11.382ZM206.032 10.332Q207.026 10.332 207.544 9.76499Q208.062 9.19799 208.062 8.04999Q208.062 6.95799 207.544 6.41899Q207.026 5.87999 206.2 5.87999Q205.066 5.87999 204.548 6.41899Q204.03 6.95799 204.03 7.82599Q204.03 10.332 206.032 10.332ZM59.0038 48.328Q60.5578 47.11 61.4958 46.256Q62.4338 45.402 62.9518 44.758Q63.4698 44.114 63.6378 43.603Q63.8058 43.092 63.8058 42.574Q63.8058 42.056 63.6168 41.72Q63.4278 41.384 63.1338 41.188Q62.8398 40.992 62.4688 40.922Q62.0978 40.852 61.7478 40.852Q61.2858 40.852 60.7678 40.901Q60.2498 40.95 59.6758 41.104L59.6758 40.026Q60.1658 39.914 60.7188 39.858Q61.2718 39.802 61.8878 39.802Q62.6018 39.802 63.1758 39.956Q63.7498 40.11 64.1628 40.446Q64.5758 40.782 64.7928 41.314Q65.0098 41.846 65.0098 42.588Q65.0098 43.246 64.8138 43.827Q64.6178 44.408 64.1558 45.031Q63.6938 45.654 62.9098 46.375Q62.1258 47.096 60.9498 48.034L60.3898 48.468L60.3898 48.594L65.4018 48.594L65.4018 49.658L59.0038 49.658L59.0038 48.328ZM70.2738 49.798Q69.5458 49.798 68.9438 49.581Q68.3418 49.364 67.9078 48.804Q67.4738 48.244 67.2358 47.271Q66.9978 46.298 66.9978 44.8Q66.9978 43.302 67.2358 42.336Q67.4738 41.37 67.9078 40.803Q68.3418 40.236 68.9438 40.019Q69.5458 39.802 70.2738 39.802Q71.0018 39.802 71.6108 40.019Q72.2198 40.236 72.6538 40.803Q73.0878 41.37 73.3258 42.336Q73.5638 43.302 73.5638 44.8Q73.5638 46.298 73.3258 47.271Q73.0878 48.244 72.6538 48.804Q72.2198 49.364 71.6108 49.581Q71.0018 49.798 70.2738 49.798ZM70.2738 48.748Q70.7918 48.748 71.1698 48.573Q71.5478 48.398 71.7998 47.95Q72.0518 47.502 72.1708 46.739Q72.2898 45.976 72.2898 44.8Q72.2898 43.638 72.1708 42.875Q72.0518 42.112 71.7998 41.664Q71.5478 41.216 71.1698 41.041Q70.7918 40.866 70.2738 40.866Q69.7698 40.866 69.3918 41.041Q69.0138 41.216 68.7688 41.664Q68.5238 42.112 68.4048 42.875Q68.2858 43.638 68.2858 44.8Q68.2858 45.976 68.4048 46.739Q68.5238 47.502 68.7688 47.95Q69.0138 48.398 69.3918 48.573Q69.7698 48.748 70.2738 48.748ZM75.1038 48.328Q76.6578 47.11 77.5958 46.256Q78.5338 45.402 79.0518 44.758Q79.5698 44.114 79.7378 43.603Q79.9058 43.092 79.9058 42.574Q79.9058 42.056 79.7168 41.72Q79.5278 41.384 79.2338 41.188Q78.9398 40.992 78.5688 40.922Q78.1978 40.852 77.8478 40.852Q77.3858 40.852 76.8678 40.901Q76.3498 40.95 75.7758 41.104L75.7758 40.026Q76.2658 39.914 76.8188 39.858Q77.3718 39.802 77.9878 39.802Q78.7018 39.802 79.2758 39.956Q79.8498 40.11 80.2628 40.446Q80.6758 40.782 80.8928 41.314Q81.1098 41.846 81.1098 42.588Q81.1098 43.246 80.9138 43.827Q80.7178 44.408 80.2558 45.031Q79.7938 45.654 79.0098 46.375Q78.2258 47.096 77.0498 48.034L76.4898 48.468L76.4898 48.594L81.5018 48.594L81.5018 49.658L75.1038 49.658L75.1038 48.328ZM89.7618 47.264L88.6138 47.264L88.6138 49.658L87.4378 49.658L87.4378 47.264L82.8458 47.264L82.8458 45.906L87.1018 39.942L88.6138 39.942L88.6138 46.2L89.7618 46.2L89.7618 47.264ZM87.4378 46.2L87.4378 41.23L87.3538 41.23L83.9098 46.116L83.9098 46.2L87.4378 46.2ZM92.5198 49.742Q92.0298 49.742 91.8268 49.588Q91.6238 49.434 91.6238 48.846Q91.6238 48.286 91.8268 48.132Q92.0298 47.978 92.5198 47.978Q92.9958 47.978 93.2058 48.132Q93.4158 48.286 93.4158 48.846Q93.4158 49.434 93.2058 49.588Q92.9958 49.742 92.5198 49.742ZM98.6518 49.798Q97.9238 49.798 97.3218 49.581Q96.7198 49.364 96.2858 48.804Q95.8518 48.244 95.6138 47.271Q95.3758 46.298 95.3758 44.8Q95.3758 43.302 95.6138 42.336Q95.8518 41.37 96.2858 40.803Q96.7198 40.236 97.3218 40.019Q97.9238 39.802 98.6518 39.802Q99.3798 39.802 99.9888 40.019Q100.598 40.236 101.032 40.803Q101.466 41.37 101.704 42.336Q101.942 43.302 101.942 44.8Q101.942 46.298 101.704 47.271Q101.466 48.244 101.032 48.804Q100.598 49.364 99.9888 49.581Q99.3798 49.798 98.6518 49.798ZM98.6518 48.748Q99.1698 48.748 99.5478 48.573Q99.9258 48.398 100.178 47.95Q100.43 47.502 100.549 46.739Q100.668 45.976 100.668 44.8Q100.668 43.638 100.549 42.875Q100.43 42.112 100.178 41.664Q99.9258 41.216 99.5478 41.041Q99.1698 40.866 98.6518 40.866Q98.1478 40.866 97.7698 41.041Q97.3918 41.216 97.1468 41.664Q96.9018 42.112 96.7828 42.875Q96.6638 43.638 96.6638 44.8Q96.6638 45.976 96.7828 46.739Q96.9018 47.502 97.1468 47.95Q97.3918 48.398 97.7698 48.573Q98.1478 48.748 98.6518 48.748ZM110.09 47.264L108.942 47.264L108.942 49.658L107.766 49.658L107.766 47.264L103.174 47.264L103.174 45.906L107.43 39.942L108.942 39.942L108.942 46.2L110.09 46.2L110.09 47.264ZM107.766 46.2L107.766 41.23L107.682 41.23L104.238 46.116L104.238 46.2L107.766 46.2ZM112.848 49.742Q112.358 49.742 112.155 49.588Q111.952 49.434 111.952 48.846Q111.952 48.286 112.155 48.132Q112.358 47.978 112.848 47.978Q113.324 47.978 113.534 48.132Q113.744 48.286 113.744 48.846Q113.744 49.434 113.534 49.588Q113.324 49.742 112.848 49.742ZM115.76 48.328Q117.314 47.11 118.252 46.256Q119.19 45.402 119.708 44.758Q120.226 44.114 120.394 43.603Q120.562 43.092 120.562 42.574Q120.562 42.056 120.373 41.72Q120.184 41.384 119.89 41.188Q119.596 40.992 119.225 40.922Q118.854 40.852 118.504 40.852Q118.042 40.852 117.524 40.901Q117.006 40.95 116.432 41.104L116.432 40.026Q116.922 39.914 117.475 39.858Q118.028 39.802 118.644 39.802Q119.358 39.802 119.932 39.956Q120.506 40.11 120.919 40.446Q121.332 40.782 121.549 41.314Q121.766 41.846 121.766 42.588Q121.766 43.246 121.57 43.827Q121.374 44.408 120.912 45.031Q120.45 45.654 119.666 46.375Q118.882 47.096 117.706 48.034L117.146 48.468L117.146 48.594L122.158 48.594L122.158 49.658L115.76 49.658L115.76 48.328ZM126.176 49.798Q125.588 49.798 125.035 49.756Q124.482 49.714 123.992 49.616L123.992 48.51Q124.552 48.65 125.077 48.699Q125.602 48.748 126.162 48.748Q126.708 48.748 127.177 48.664Q127.646 48.58 127.982 48.37Q128.318 48.16 128.514 47.817Q128.71 47.474 128.71 46.97Q128.71 45.934 128.01 45.528Q127.31 45.122 125.924 45.122L125.154 45.122L125.154 44.156L125.91 44.156Q127.184 44.156 127.842 43.687Q128.5 43.218 128.5 42.42Q128.5 41.566 127.989 41.202Q127.478 40.838 126.428 40.838Q126.008 40.838 125.462 40.908Q124.916 40.978 124.454 41.118L124.454 40.082Q124.818 39.97 125.371 39.886Q125.924 39.802 126.484 39.802Q128.052 39.802 128.857 40.404Q129.662 41.006 129.662 42.35Q129.662 43.302 129.2 43.813Q128.738 44.324 127.94 44.562L127.94 44.646Q128.976 44.828 129.445 45.423Q129.914 46.018 129.914 46.984Q129.914 48.328 129.011 49.063Q128.108 49.798 126.176 49.798ZM132.07 44.856L136.2 44.856L136.2 45.864L132.07 45.864L132.07 44.856ZM138.02 48.328Q139.574 47.11 140.512 46.256Q141.45 45.402 141.968 44.758Q142.486 44.114 142.654 43.603Q142.822 43.092 142.822 42.574Q142.822 42.056 142.633 41.72Q142.444 41.384 142.15 41.188Q141.856 40.992 141.485 40.922Q141.114 40.852 140.764 40.852Q140.302 40.852 139.784 40.901Q139.266 40.95 138.692 41.104L138.692 40.026Q139.182 39.914 139.735 39.858Q140.288 39.802 140.904 39.802Q141.618 39.802 142.192 39.956Q142.766 40.11 143.179 40.446Q143.592 40.782 143.809 41.314Q144.026 41.846 144.026 42.588Q144.026 43.246 143.83 43.827Q143.634 44.408 143.172 45.031Q142.71 45.654 141.926 46.375Q141.142 47.096 139.966 48.034L139.406 48.468L139.406 48.594L144.418 48.594L144.418 49.658L138.02 49.658L138.02 48.328ZM149.29 49.798Q148.562 49.798 147.96 49.581Q147.358 49.364 146.924 48.804Q146.49 48.244 146.252 47.271Q146.014 46.298 146.014 44.8Q146.014 43.302 146.252 42.336Q146.49 41.37 146.924 40.803Q147.358 40.236 147.96 40.019Q148.562 39.802 149.29 39.802Q150.018 39.802 150.627 40.019Q151.236 40.236 151.67 40.803Q152.104 41.37 152.342 42.336Q152.58 43.302 152.58 44.8Q152.58 46.298 152.342 47.271Q152.104 48.244 151.67 48.804Q151.236 49.364 150.627 49.581Q150.018 49.798 149.29 49.798ZM149.29 48.748Q149.808 48.748 150.186 48.573Q150.564 48.398 150.816 47.95Q151.068 47.502 151.187 46.739Q151.306 45.976 151.306 44.8Q151.306 43.638 151.187 42.875Q151.068 42.112 150.816 41.664Q150.564 41.216 150.186 41.041Q149.808 40.866 149.29 40.866Q148.786 40.866 148.408 41.041Q148.03 41.216 147.785 41.664Q147.54 42.112 147.421 42.875Q147.302 43.638 147.302 44.8Q147.302 45.976 147.421 46.739Q147.54 47.502 147.785 47.95Q148.03 48.398 148.408 48.573Q148.786 48.748 149.29 48.748ZM154.12 48.328Q155.674 47.11 156.612 46.256Q157.55 45.402 158.068 44.758Q158.586 44.114 158.754 43.603Q158.922 43.092 158.922 42.574Q158.922 42.056 158.733 41.72Q158.544 41.384 158.25 41.188Q157.956 40.992 157.585 40.922Q157.214 40.852 156.864 40.852Q156.402 40.852 155.884 40.901Q155.366 40.95 154.792 41.104L154.792 40.026Q155.282 39.914 155.835 39.858Q156.388 39.802 157.004 39.802Q157.718 39.802 158.292 39.956Q158.866 40.11 159.279 40.446Q159.692 40.782 159.909 41.314Q160.126 41.846 160.126 42.588Q160.126 43.246 159.93 43.827Q159.734 44.408 159.272 45.031Q158.81 45.654 158.026 46.375Q157.242 47.096 156.066 48.034L155.506 48.468L155.506 48.594L160.518 48.594L160.518 49.658L154.12 49.658L154.12 48.328ZM168.778 47.264L167.63 47.264L167.63 49.658L166.454 49.658L166.454 47.264L161.862 47.264L161.862 45.906L166.118 39.942L167.63 39.942L167.63 46.2L168.778 46.2L168.778 47.264ZM166.454 46.2L166.454 41.23L166.37 41.23L162.926 46.116L162.926 46.2L166.454 46.2ZM171.536 49.742Q171.046 49.742 170.843 49.588Q170.64 49.434 170.64 48.846Q170.64 48.286 170.843 48.132Q171.046 47.978 171.536 47.978Q172.012 47.978 172.222 48.132Q172.432 48.286 172.432 48.846Q172.432 49.434 172.222 49.588Q172.012 49.742 171.536 49.742ZM177.668 49.798Q176.94 49.798 176.338 49.581Q175.736 49.364 175.302 48.804Q174.868 48.244 174.63 47.271Q174.392 46.298 174.392 44.8Q174.392 43.302 174.63 42.336Q174.868 41.37 175.302 40.803Q175.736 40.236 176.338 40.019Q176.94 39.802 177.668 39.802Q178.396 39.802 179.005 40.019Q179.614 40.236 180.048 40.803Q180.482 41.37 180.72 42.336Q180.958 43.302 180.958 44.8Q180.958 46.298 180.72 47.271Q180.482 48.244 180.048 48.804Q179.614 49.364 179.005 49.581Q178.396 49.798 177.668 49.798ZM177.668 48.748Q178.186 48.748 178.564 48.573Q178.942 48.398 179.194 47.95Q179.446 47.502 179.565 46.739Q179.684 45.976 179.684 44.8Q179.684 43.638 179.565 42.875Q179.446 42.112 179.194 41.664Q178.942 41.216 178.564 41.041Q178.186 40.866 177.668 40.866Q177.164 40.866 176.786 41.041Q176.408 41.216 176.163 41.664Q175.918 42.112 175.799 42.875Q175.68 43.638 175.68 44.8Q175.68 45.976 175.799 46.739Q175.918 47.502 176.163 47.95Q176.408 48.398 176.786 48.573Q177.164 48.748 177.668 48.748ZM184.906 49.798Q184.318 49.798 183.849 49.756Q183.38 49.714 182.904 49.616L182.904 48.51Q183.45 48.65 183.891 48.699Q184.332 48.748 184.892 48.748Q185.494 48.748 185.991 48.643Q186.488 48.538 186.838 48.293Q187.188 48.048 187.384 47.649Q187.58 47.25 187.58 46.648Q187.58 45.556 186.943 45.059Q186.306 44.562 184.794 44.562Q184.402 44.562 183.898 44.625Q183.394 44.688 182.932 44.772L183.59 39.942L188.126 39.942L188.126 41.034L184.542 41.034L184.136 43.694Q184.402 43.652 184.668 43.631Q184.934 43.61 185.27 43.61Q186.964 43.61 187.874 44.31Q188.784 45.01 188.784 46.564Q188.784 47.432 188.511 48.041Q188.238 48.65 187.734 49.042Q187.23 49.434 186.509 49.616Q185.788 49.798 184.906 49.798ZM191.864 49.742Q191.374 49.742 191.171 49.588Q190.968 49.434 190.968 48.846Q190.968 48.286 191.171 48.132Q191.374 47.978 191.864 47.978Q192.34 47.978 192.55 48.132Q192.76 48.286 192.76 48.846Q192.76 49.434 192.55 49.588Q192.34 49.742 191.864 49.742ZM194.776 48.328Q196.33 47.11 197.268 46.256Q198.206 45.402 198.724 44.758Q199.242 44.114 199.41 43.603Q199.578 43.092 199.578 42.574Q199.578 42.056 199.389 41.72Q199.2 41.384 198.906 41.188Q198.612 40.992 198.241 40.922Q197.87 40.852 197.52 40.852Q197.058 40.852 196.54 40.901Q196.022 40.95 195.448 41.104L195.448 40.026Q195.938 39.914 196.491 39.858Q197.044 39.802 197.66 39.802Q198.374 39.802 198.948 39.956Q199.522 40.11 199.935 40.446Q200.348 40.782 200.565 41.314Q200.782 41.846 200.782 42.588Q200.782 43.246 200.586 43.827Q200.39 44.408 199.928 45.031Q199.466 45.654 198.682 46.375Q197.898 47.096 196.722 48.034L196.162 48.468L196.162 48.594L201.174 48.594L201.174 49.658L194.776 49.658L194.776 48.328ZM206.046 49.798Q205.374 49.798 204.793 49.609Q204.212 49.42 203.771 48.972Q203.33 48.524 203.078 47.775Q202.826 47.026 202.826 45.892Q202.826 44.534 203.127 43.414Q203.428 42.294 204.058 41.489Q204.688 40.684 205.675 40.243Q206.662 39.802 208.034 39.802L208.02 40.866Q207.124 40.866 206.424 41.118Q205.724 41.37 205.234 41.811Q204.744 42.252 204.464 42.847Q204.184 43.442 204.128 44.128L204.17 44.128Q204.45 43.848 204.996 43.589Q205.542 43.33 206.256 43.33Q207.614 43.33 208.412 44.1Q209.21 44.87 209.21 46.466Q209.21 47.18 209.021 47.789Q208.832 48.398 208.447 48.846Q208.062 49.294 207.46 49.546Q206.858 49.798 206.046 49.798ZM206.032 48.748Q207.026 48.748 207.544 48.181Q208.062 47.614 208.062 46.466Q208.062 45.374 207.544 44.835Q207.026 44.296 206.2 44.296Q205.066 44.296 204.548 44.835Q204.03 45.374 204.03 46.242Q204.03 48.748 206.032 48.748ZM61.3698 88.214Q60.7818 88.214 60.2288 88.172Q59.6758 88.13 59.1858 88.032L59.1858 86.926Q59.7458 87.066 60.2708 87.115Q60.7958 87.164 61.3558 87.164Q61.9018 87.164 62.3708 87.08Q62.8398 86.996 63.1758 86.786Q63.5118 86.576 63.7078 86.233Q63.9038 85.89 63.9038 85.386Q63.9038 84.35 63.2038 83.944Q62.5038 83.538 61.1178 83.538L60.3478 83.538L60.3478 82.572L61.1038 82.572Q62.3778 82.572 63.0358 82.103Q63.6938 81.634 63.6938 80.836Q63.6938 79.982 63.1828 79.618Q62.6718 79.254 61.6218 79.254Q61.2018 79.254 60.6558 79.324Q60.1098 79.394 59.6478 79.534L59.6478 78.498Q60.0118 78.386 60.5648 78.302Q61.1178 78.218 61.6778 78.218Q63.2458 78.218 64.0508 78.82Q64.8558 79.422 64.8558 80.766Q64.8558 81.718 64.3938 82.229Q63.9318 82.74 63.1338 82.978L63.1338 83.062Q64.1698 83.244 64.6388 83.839Q65.1078 84.434 65.1078 85.4Q65.1078 86.744 64.2048 87.479Q63.3018 88.214 61.3698 88.214ZM73.4518 88.074L71.8978 88.074L69.1398 84.546L68.7338 84.546L68.7338 88.074L67.5298 88.074L67.5298 77.434L68.7338 77.434L68.7338 83.608L69.1678 83.608L71.7858 80.514L73.2838 80.514L70.1058 84.028L73.4518 88.074ZM82.7198 80.374Q83.3778 80.374 83.8468 80.556Q84.3158 80.738 84.6168 81.067Q84.9178 81.396 85.0578 81.851Q85.1978 82.306 85.1978 82.852L85.1978 88.074L83.9938 88.074L83.9938 83.286Q83.9938 82.404 83.6928 81.928Q83.3918 81.452 82.5378 81.452Q82.2018 81.452 81.9008 81.508Q81.5998 81.564 81.3478 81.711Q81.0958 81.858 80.8998 82.117Q80.7038 82.376 80.5778 82.782L80.5778 82.838L80.5778 88.074L79.3738 88.074L79.3738 83.286Q79.3738 82.418 79.0938 81.935Q78.8138 81.452 77.9878 81.452Q77.6378 81.452 77.3298 81.501Q77.0218 81.55 76.7698 81.697Q76.5178 81.844 76.3218 82.117Q76.1258 82.39 75.9858 82.824L75.9858 88.074L74.7818 88.074L74.7818 80.514L75.9858 80.514L75.9858 81.508Q76.3358 80.836 76.9098 80.605Q77.4838 80.374 78.1698 80.374Q79.0658 80.374 79.5978 80.703Q80.1298 81.032 80.3678 81.606Q80.5358 81.242 80.7948 81.004Q81.0538 80.766 81.3688 80.626Q81.6838 80.486 82.0268 80.43Q82.3698 80.374 82.7198 80.374ZM91.2458 77.938L92.3238 77.938L88.5578 88.494L87.4798 88.494L91.2458 77.938ZM96.6078 88.214Q96.0198 88.214 95.5508 88.172Q95.0818 88.13 94.6058 88.032L94.6058 86.926Q95.1518 87.066 95.5928 87.115Q96.0338 87.164 96.5938 87.164Q97.1958 87.164 97.6928 87.059Q98.1898 86.954 98.5398 86.709Q98.8898 86.464 99.0858 86.065Q99.2818 85.666 99.2818 85.064Q99.2818 83.972 98.6448 83.475Q98.0078 82.978 96.4958 82.978Q96.1038 82.978 95.5998 83.041Q95.0958 83.104 94.6338 83.188L95.2918 78.358L99.8278 78.358L99.8278 79.45L96.2438 79.45L95.8378 82.11Q96.1038 82.068 96.3698 82.047Q96.6358 82.026 96.9718 82.026Q98.6658 82.026 99.5758 82.726Q100.486 83.426 100.486 84.98Q100.486 85.848 100.213 86.457Q99.9398 87.066 99.4358 87.458Q98.9318 87.85 98.2108 88.032Q97.4898 88.214 96.6078 88.214ZM108.648 88.074L107.094 88.074L104.336 84.546L103.93 84.546L103.93 88.074L102.726 88.074L102.726 77.434L103.93 77.434L103.93 83.608L104.364 83.608L106.982 80.514L108.48 80.514L105.302 84.028L108.648 88.074ZM117.916 80.374Q118.574 80.374 119.043 80.556Q119.512 80.738 119.813 81.067Q120.114 81.396 120.254 81.851Q120.394 82.306 120.394 82.852L120.394 88.074L119.19 88.074L119.19 83.286Q119.19 82.404 118.889 81.928Q118.588 81.452 117.734 81.452Q117.398 81.452 117.097 81.508Q116.796 81.564 116.544 81.711Q116.292 81.858 116.096 82.117Q115.9 82.376 115.774 82.782L115.774 82.838L115.774 88.074L114.57 88.074L114.57 83.286Q114.57 82.418 114.29 81.935Q114.01 81.452 113.184 81.452Q112.834 81.452 112.526 81.501Q112.218 81.55 111.966 81.697Q111.714 81.844 111.518 82.117Q111.322 82.39 111.182 82.824L111.182 88.074L109.978 88.074L109.978 80.514L111.182 80.514L111.182 81.508Q111.532 80.836 112.106 80.605Q112.68 80.374 113.366 80.374Q114.262 80.374 114.794 80.703Q115.326 81.032 115.564 81.606Q115.732 81.242 115.991 81.004Q116.25 80.766 116.565 80.626Q116.88 80.486 117.223 80.43Q117.566 80.374 117.916 80.374ZM126.442 77.938L127.52 77.938L123.754 88.494L122.676 88.494L126.442 77.938ZM132.42 79.506L130.012 79.968L130.012 78.946L132.854 78.358L133.68 78.358L133.68 88.074L132.42 88.074L132.42 79.506ZM140.666 88.214Q139.938 88.214 139.336 87.997Q138.734 87.78 138.3 87.22Q137.866 86.66 137.628 85.687Q137.39 84.714 137.39 83.216Q137.39 81.718 137.628 80.752Q137.866 79.786 138.3 79.219Q138.734 78.652 139.336 78.435Q139.938 78.218 140.666 78.218Q141.394 78.218 142.003 78.435Q142.612 78.652 143.046 79.219Q143.48 79.786 143.718 80.752Q143.956 81.718 143.956 83.216Q143.956 84.714 143.718 85.687Q143.48 86.66 143.046 87.22Q142.612 87.78 142.003 87.997Q141.394 88.214 140.666 88.214ZM140.666 87.164Q141.184 87.164 141.562 86.989Q141.94 86.814 142.192 86.366Q142.444 85.918 142.563 85.155Q142.682 84.392 142.682 83.216Q142.682 82.054 142.563 81.291Q142.444 80.528 142.192 80.08Q141.94 79.632 141.562 79.457Q141.184 79.282 140.666 79.282Q140.162 79.282 139.784 79.457Q139.406 79.632 139.161 80.08Q138.916 80.528 138.797 81.291Q138.678 82.054 138.678 83.216Q138.678 84.392 138.797 85.155Q138.916 85.918 139.161 86.366Q139.406 86.814 139.784 86.989Q140.162 87.164 140.666 87.164ZM151.894 88.074L150.34 88.074L147.582 84.546L147.176 84.546L147.176 88.074L145.972 88.074L145.972 77.434L147.176 77.434L147.176 83.608L147.61 83.608L150.228 80.514L151.726 80.514L148.548 84.028L151.894 88.074ZM161.162 80.374Q161.82 80.374 162.289 80.556Q162.758 80.738 163.059 81.067Q163.36 81.396 163.5 81.851Q163.64 82.306 163.64 82.852L163.64 88.074L162.436 88.074L162.436 83.286Q162.436 82.404 162.135 81.928Q161.834 81.452 160.98 81.452Q160.644 81.452 160.343 81.508Q160.042 81.564 159.79 81.711Q159.538 81.858 159.342 82.117Q159.146 82.376 159.02 82.782L159.02 82.838L159.02 88.074L157.816 88.074L157.816 83.286Q157.816 82.418 157.536 81.935Q157.256 81.452 156.43 81.452Q156.08 81.452 155.772 81.501Q155.464 81.55 155.212 81.697Q154.96 81.844 154.764 82.117Q154.568 82.39 154.428 82.824L154.428 88.074L153.224 88.074L153.224 80.514L154.428 80.514L154.428 81.508Q154.778 80.836 155.352 80.605Q155.926 80.374 156.612 80.374Q157.508 80.374 158.04 80.703Q158.572 81.032 158.81 81.606Q158.978 81.242 159.237 81.004Q159.496 80.766 159.811 80.626Q160.126 80.486 160.469 80.43Q160.812 80.374 161.162 80.374Z">
</path>
</g>
</svg>
